<svg width="75" height="536" viewBox="0 0 75 536" fill="none" xmlns="http://www.w3.org/2000/svg">
<path fill-rule="evenodd" clip-rule="evenodd" d="M56.9691 50.251L57.3705 50.651L60.6064 53.876L61.8352 55.1009L68.5691 55.8029L69.9782 58.2277L71.3792 60.6524L67.7173 68.8411L75 74.1155V76.916V79.7078L67.7173 84.9822L71.3792 93.1709L69.97 95.5957L68.5691 98.0204L59.6231 98.9595L58.6812 107.875L56.2481 109.279L53.8151 110.675L45.5979 107.026L40.3059 114.284H37.496H34.6942L29.402 107.026L21.1852 110.675L18.7521 109.279L16.319 107.875L15.3769 98.9595L6.43092 98.0204L5.02186 95.5957L3.62098 93.1709L7.28293 84.9822L0 79.7078V76.916V74.1155L7.28293 68.8411L3.62098 60.6524L5.02186 58.2277L6.43092 55.8029L13.165 55.1009L14.3856 53.876L18.023 50.251V52.6353C17.6789 52.929 17.3758 53.28 17.1218 53.6883C16.663 54.4394 16.3845 55.3702 16.3845 56.4315V61.9916C16.3845 63.0446 16.5647 63.9347 16.9006 64.7591C17.0153 65.0367 17.1464 65.2978 17.302 65.5428C15.3932 68.8984 14.3037 72.7767 14.3037 76.916C14.3037 89.6766 24.6915 100.029 37.496 100.029C50.3088 100.029 60.6963 89.6766 60.6963 76.916C60.6963 72.7767 59.607 68.8984 57.6983 65.5428C57.8456 65.2899 57.9768 65.0285 58.0914 64.7509C58.4354 63.9347 58.6158 63.0446 58.6158 61.9916V56.4315C58.6158 55.3702 58.3373 54.4394 57.87 53.6883C57.8208 53.5984 57.7637 53.5089 57.7062 53.4272C57.4851 53.1249 57.2476 52.8638 56.9691 52.6353V50.251Z" fill="#D24213"/>
<path d="M36.3121 28.9243L29.7878 35.4263C29.1297 36.0822 29.1297 37.1456 29.7878 37.8013L36.3121 44.3036C36.9702 44.9595 38.0371 44.9595 38.6953 44.3036L45.2198 37.8013C45.8776 37.1456 45.8776 36.0822 45.2198 35.4263L38.6953 28.9243C38.0371 28.2684 36.9702 28.2684 36.3121 28.9243Z" fill="#D24213"/>
<path fill-rule="evenodd" clip-rule="evenodd" d="M40.6865 48.3181L52.0249 36.7248C53.8434 34.8633 56.3257 35.7042 56.3257 38.2677V43.8357C56.3257 45.3461 55.8668 46.2526 55.0068 47.1344L43.4966 58.9073C41.7845 60.6626 39.3676 59.8869 39.3676 57.4947V51.5513C39.3676 50.0818 39.81 49.2078 40.6865 48.3181Z" fill="#D24213"/>
<path fill-rule="evenodd" clip-rule="evenodd" d="M40.6865 66.4741L52.0249 54.881C53.8434 53.0193 56.3257 53.8602 56.3257 56.4322V61.992C56.3257 63.5106 55.8668 64.4168 55.0068 65.2986L43.4966 77.0632C41.7845 78.8186 39.3676 78.0514 39.3676 75.651V69.7072C39.3676 68.2459 39.81 67.3641 40.6865 66.4741Z" fill="#D24213"/>
<path fill-rule="evenodd" clip-rule="evenodd" d="M40.6865 84.6958L52.0249 73.1028C53.8434 71.2493 56.3257 72.0903 56.3257 74.654V80.222C56.3257 81.7324 55.8668 82.6386 55.0068 83.5204L43.4966 95.285C41.7845 97.0403 39.3676 96.2732 39.3676 93.881V87.929C39.3676 86.4677 39.81 85.5941 40.6865 84.6958Z" fill="#D24213"/>
<path fill-rule="evenodd" clip-rule="evenodd" d="M34.3214 48.3181L22.9833 36.7248C21.1646 34.8633 18.6824 35.7042 18.6824 38.2677V43.8357C18.6824 45.3461 19.1329 46.2526 20.0013 47.1344L31.5033 58.9073C33.2236 60.6626 35.6404 59.8869 35.6404 57.4947V51.5513C35.6404 50.0818 35.198 49.2078 34.3214 48.3181Z" fill="#D24213"/>
<path fill-rule="evenodd" clip-rule="evenodd" d="M34.3214 66.4741L22.9833 54.881C21.1646 53.0193 18.6824 53.8602 18.6824 56.4322V61.992C18.6824 63.5106 19.1329 64.4168 20.0013 65.2986L31.5033 77.0632C33.2236 78.8186 35.6404 78.0514 35.6404 75.651V69.7072C35.6404 68.2459 35.198 67.3641 34.3214 66.4741Z" fill="#D24213"/>
<path fill-rule="evenodd" clip-rule="evenodd" d="M34.3214 84.6958L22.9833 73.1028C21.1646 71.2493 18.6824 72.0903 18.6824 74.654V80.222C18.6824 81.7324 19.1329 82.6386 20.0013 83.5204L31.5033 95.285C33.2236 97.0403 35.6404 96.2732 35.6404 93.881V87.929C35.6404 86.4677 35.198 85.5941 34.3214 84.6958Z" fill="#D24213"/>
<path d="M54.7277 27.9217C54.7277 28.2972 54.4164 28.6075 54.0394 28.6075C53.6628 28.6075 53.3516 28.2972 53.3516 27.9217V7.98436C53.3516 7.60066 53.6628 7.29858 54.0394 7.29858C54.4164 7.29858 54.7277 7.60066 54.7277 7.98436V27.9217Z" fill="#D24213"/>
<path d="M46.4698 24.272C46.4698 24.6476 46.1586 24.9578 45.782 24.9578C45.3967 24.9578 45.0938 24.6476 45.0938 24.272V4.33473C45.0938 3.95099 45.3967 3.64893 45.782 3.64893C46.1586 3.64893 46.4698 3.95099 46.4698 4.33473V24.272Z" fill="#D24213"/>
<path d="M38.1898 20.6231C38.1898 21.0068 37.8864 21.3089 37.5015 21.3089C37.1246 21.3089 36.8215 21.0068 36.8215 20.6231V0.685802C36.8215 0.310245 37.1246 0 37.5015 0C37.8864 0 38.1898 0.310245 38.1898 0.685802V20.6231Z" fill="#D24213"/>
<path d="M21.659 27.9217C21.659 28.2972 21.3477 28.6075 20.9709 28.6075C20.594 28.6075 20.2827 28.2972 20.2827 27.9217V7.98436C20.2827 7.60066 20.594 7.29858 20.9709 7.29858C21.3477 7.29858 21.659 7.60066 21.659 7.98436V27.9217Z" fill="#D24213"/>
<path d="M29.9168 24.272C29.9168 24.6476 29.6055 24.9578 29.2287 24.9578C28.8518 24.9578 28.5405 24.6476 28.5405 24.272V4.33473C28.5405 3.95099 28.8518 3.64893 29.2287 3.64893C29.6055 3.64893 29.9168 3.95099 29.9168 4.33473V24.272Z" fill="#D24213"/>
<path fill-rule="evenodd" clip-rule="evenodd" d="M56.9691 190.535L57.3705 190.935L60.6064 194.16L61.8352 195.385L68.5691 196.087L69.9782 198.512L71.3792 200.936L67.7173 209.125L75 214.399V217.2V219.992L67.7173 225.266L71.3792 233.455L69.97 235.88L68.5691 238.304L59.6231 239.243L58.6812 248.159L56.2481 249.563L53.8151 250.959L45.5979 247.31L40.3059 254.568H37.496H34.6942L29.402 247.31L21.1852 250.959L18.7521 249.563L16.319 248.159L15.3769 239.243L6.43092 238.304L5.02186 235.88L3.62098 233.455L7.28293 225.266L0 219.992V217.2V214.399L7.28293 209.125L3.62098 200.936L5.02186 198.512L6.43092 196.087L13.165 195.385L14.3856 194.16L18.023 190.535V192.919C17.6789 193.213 17.3758 193.564 17.1218 193.972C16.663 194.723 16.3845 195.654 16.3845 196.715V202.276C16.3845 203.329 16.5647 204.219 16.9006 205.043C17.0153 205.321 17.1464 205.582 17.302 205.827C15.3932 209.182 14.3037 213.061 14.3037 217.2C14.3037 229.961 24.6915 240.313 37.496 240.313C50.3088 240.313 60.6963 229.961 60.6963 217.2C60.6963 213.061 59.607 209.182 57.6983 205.827C57.8456 205.574 57.9768 205.312 58.0914 205.035C58.4354 204.219 58.6158 203.329 58.6158 202.276V196.715C58.6158 195.654 58.3373 194.723 57.87 193.972C57.8208 193.882 57.7637 193.793 57.7062 193.711C57.4851 193.409 57.2476 193.148 56.9691 192.919V190.535Z" fill="#D24213"/>
<path d="M36.3121 169.208L29.7878 175.71C29.1297 176.366 29.1297 177.429 29.7878 178.085L36.3121 184.587C36.9702 185.243 38.0371 185.243 38.6953 184.587L45.2198 178.085C45.8776 177.429 45.8776 176.366 45.2198 175.71L38.6953 169.208C38.0371 168.552 36.9702 168.552 36.3121 169.208Z" fill="#D24213"/>
<path fill-rule="evenodd" clip-rule="evenodd" d="M40.6865 188.602L52.0249 177.009C53.8434 175.147 56.3257 175.988 56.3257 178.552V184.12C56.3257 185.63 55.8668 186.537 55.0068 187.418L43.4966 199.191C41.7845 200.947 39.3676 200.171 39.3676 197.779V191.835C39.3676 190.366 39.81 189.492 40.6865 188.602Z" fill="#D24213"/>
<path fill-rule="evenodd" clip-rule="evenodd" d="M40.6865 206.758L52.0249 195.165C53.8434 193.303 56.3257 194.144 56.3257 196.716V202.276C56.3257 203.795 55.8668 204.701 55.0068 205.583L43.4966 217.347C41.7845 219.102 39.3676 218.335 39.3676 215.935V209.991C39.3676 208.53 39.81 207.648 40.6865 206.758Z" fill="#D24213"/>
<path fill-rule="evenodd" clip-rule="evenodd" d="M40.6865 224.98L52.0249 213.387C53.8434 211.533 56.3257 212.374 56.3257 214.938V220.506C56.3257 222.016 55.8668 222.923 55.0068 223.804L43.4966 235.569C41.7845 237.324 39.3676 236.557 39.3676 234.165V228.213C39.3676 226.752 39.81 225.878 40.6865 224.98Z" fill="#D24213"/>
<path fill-rule="evenodd" clip-rule="evenodd" d="M34.3214 188.602L22.9833 177.009C21.1646 175.147 18.6824 175.988 18.6824 178.552V184.12C18.6824 185.63 19.1329 186.537 20.0013 187.418L31.5033 199.191C33.2236 200.947 35.6404 200.171 35.6404 197.779V191.835C35.6404 190.366 35.198 189.492 34.3214 188.602Z" fill="#D24213"/>
<path fill-rule="evenodd" clip-rule="evenodd" d="M34.3214 206.758L22.9833 195.165C21.1646 193.303 18.6824 194.144 18.6824 196.716V202.276C18.6824 203.795 19.1329 204.701 20.0013 205.583L31.5033 217.347C33.2236 219.102 35.6404 218.335 35.6404 215.935V209.991C35.6404 208.53 35.198 207.648 34.3214 206.758Z" fill="#D24213"/>
<path fill-rule="evenodd" clip-rule="evenodd" d="M34.3214 224.98L22.9833 213.387C21.1646 211.533 18.6824 212.374 18.6824 214.938V220.506C18.6824 222.016 19.1329 222.923 20.0013 223.804L31.5033 235.569C33.2236 237.324 35.6404 236.557 35.6404 234.165V228.213C35.6404 226.752 35.198 225.878 34.3214 224.98Z" fill="#D24213"/>
<path d="M54.7277 168.206C54.7277 168.581 54.4164 168.891 54.0394 168.891C53.6628 168.891 53.3516 168.581 53.3516 168.206V148.268C53.3516 147.885 53.6628 147.583 54.0394 147.583C54.4164 147.583 54.7277 147.885 54.7277 148.268V168.206Z" fill="#D24213"/>
<path d="M46.4698 164.556C46.4698 164.931 46.1586 165.242 45.782 165.242C45.3967 165.242 45.0938 164.931 45.0938 164.556V144.619C45.0938 144.235 45.3967 143.933 45.782 143.933C46.1586 143.933 46.4698 144.235 46.4698 144.619V164.556Z" fill="#D24213"/>
<path d="M38.1898 160.907C38.1898 161.291 37.8864 161.593 37.5015 161.593C37.1246 161.593 36.8215 161.291 36.8215 160.907V140.97C36.8215 140.594 37.1246 140.284 37.5015 140.284C37.8864 140.284 38.1898 140.594 38.1898 140.97V160.907Z" fill="#D24213"/>
<path d="M21.659 168.206C21.659 168.581 21.3477 168.891 20.9709 168.891C20.594 168.891 20.2827 168.581 20.2827 168.206V148.268C20.2827 147.885 20.594 147.583 20.9709 147.583C21.3477 147.583 21.659 147.885 21.659 148.268V168.206Z" fill="#D24213"/>
<path d="M29.9168 164.556C29.9168 164.931 29.6055 165.242 29.2287 165.242C28.8518 165.242 28.5405 164.931 28.5405 164.556V144.619C28.5405 144.235 28.8518 143.933 29.2287 143.933C29.6055 143.933 29.9168 144.235 29.9168 144.619V164.556Z" fill="#D24213"/>
<path fill-rule="evenodd" clip-rule="evenodd" d="M56.9691 330.819L57.3705 331.219L60.6064 334.444L61.8352 335.669L68.5691 336.371L69.9782 338.796L71.3792 341.22L67.7173 349.409L75 354.683V357.484V360.276L67.7173 365.55L71.3792 373.739L69.97 376.164L68.5691 378.588L59.6231 379.528L58.6812 388.443L56.2481 389.847L53.8151 391.243L45.5979 387.594L40.3059 394.852H37.496H34.6942L29.402 387.594L21.1852 391.243L18.7521 389.847L16.319 388.443L15.3769 379.528L6.43092 378.588L5.02186 376.164L3.62098 373.739L7.28293 365.55L0 360.276V357.484V354.683L7.28293 349.409L3.62098 341.22L5.02186 338.796L6.43092 336.371L13.165 335.669L14.3856 334.444L18.023 330.819V333.203C17.6789 333.497 17.3758 333.848 17.1218 334.256C16.663 335.007 16.3845 335.938 16.3845 336.999V342.56C16.3845 343.613 16.5647 344.503 16.9006 345.327C17.0153 345.605 17.1464 345.866 17.302 346.111C15.3932 349.466 14.3037 353.345 14.3037 357.484C14.3037 370.245 24.6915 380.597 37.496 380.597C50.3088 380.597 60.6963 370.245 60.6963 357.484C60.6963 353.345 59.607 349.466 57.6983 346.111C57.8456 345.858 57.9768 345.596 58.0914 345.319C58.4354 344.503 58.6158 343.613 58.6158 342.56V336.999C58.6158 335.938 58.3373 335.007 57.87 334.256C57.8208 334.166 57.7637 334.077 57.7062 333.995C57.4851 333.693 57.2476 333.432 56.9691 333.203V330.819Z" fill="#D24213"/>
<path d="M36.3121 309.492L29.7878 315.994C29.1297 316.65 29.1297 317.714 29.7878 318.369L36.3121 324.872C36.9702 325.527 38.0371 325.527 38.6953 324.872L45.2198 318.369C45.8776 317.714 45.8776 316.65 45.2198 315.994L38.6953 309.492C38.0371 308.836 36.9702 308.836 36.3121 309.492Z" fill="#D24213"/>
<path fill-rule="evenodd" clip-rule="evenodd" d="M40.6865 328.886L52.0249 317.293C53.8434 315.431 56.3257 316.272 56.3257 318.836V324.404C56.3257 325.914 55.8668 326.821 55.0068 327.702L43.4966 339.475C41.7845 341.231 39.3676 340.455 39.3676 338.063V332.119C39.3676 330.65 39.81 329.776 40.6865 328.886Z" fill="#D24213"/>
<path fill-rule="evenodd" clip-rule="evenodd" d="M40.6865 347.042L52.0249 335.449C53.8434 333.587 56.3257 334.428 56.3257 337V342.56C56.3257 344.079 55.8668 344.985 55.0068 345.867L43.4966 357.631C41.7845 359.387 39.3676 358.619 39.3676 356.219V350.275C39.3676 348.814 39.81 347.932 40.6865 347.042Z" fill="#D24213"/>
<path fill-rule="evenodd" clip-rule="evenodd" d="M40.6865 365.264L52.0249 353.671C53.8434 351.817 56.3257 352.658 56.3257 355.222V360.79C56.3257 362.301 55.8668 363.207 55.0068 364.088L43.4966 375.853C41.7845 377.608 39.3676 376.841 39.3676 374.449V368.497C39.3676 367.036 39.81 366.162 40.6865 365.264Z" fill="#D24213"/>
<path fill-rule="evenodd" clip-rule="evenodd" d="M34.3214 328.886L22.9833 317.293C21.1646 315.431 18.6824 316.272 18.6824 318.836V324.404C18.6824 325.914 19.1329 326.821 20.0013 327.702L31.5033 339.475C33.2236 341.231 35.6404 340.455 35.6404 338.063V332.119C35.6404 330.65 35.198 329.776 34.3214 328.886Z" fill="#D24213"/>
<path fill-rule="evenodd" clip-rule="evenodd" d="M34.3214 347.042L22.9833 335.449C21.1646 333.587 18.6824 334.428 18.6824 337V342.56C18.6824 344.079 19.1329 344.985 20.0013 345.867L31.5033 357.631C33.2236 359.387 35.6404 358.619 35.6404 356.219V350.275C35.6404 348.814 35.198 347.932 34.3214 347.042Z" fill="#D24213"/>
<path fill-rule="evenodd" clip-rule="evenodd" d="M34.3214 365.264L22.9833 353.671C21.1646 351.817 18.6824 352.658 18.6824 355.222V360.79C18.6824 362.301 19.1329 363.207 20.0013 364.088L31.5033 375.853C33.2236 377.608 35.6404 376.841 35.6404 374.449V368.497C35.6404 367.036 35.198 366.162 34.3214 365.264Z" fill="#D24213"/>
<path d="M54.7277 308.49C54.7277 308.865 54.4164 309.175 54.0394 309.175C53.6628 309.175 53.3516 308.865 53.3516 308.49V288.552C53.3516 288.169 53.6628 287.867 54.0394 287.867C54.4164 287.867 54.7277 288.169 54.7277 288.552V308.49Z" fill="#D24213"/>
<path d="M46.4698 304.84C46.4698 305.216 46.1586 305.526 45.782 305.526C45.3967 305.526 45.0938 305.216 45.0938 304.84V284.903C45.0938 284.519 45.3967 284.217 45.782 284.217C46.1586 284.217 46.4698 284.519 46.4698 284.903V304.84Z" fill="#D24213"/>
<path d="M38.1898 301.191C38.1898 301.575 37.8864 301.877 37.5015 301.877C37.1246 301.877 36.8215 301.575 36.8215 301.191V281.254C36.8215 280.878 37.1246 280.568 37.5015 280.568C37.8864 280.568 38.1898 280.878 38.1898 281.254V301.191Z" fill="#D24213"/>
<path d="M21.659 308.49C21.659 308.865 21.3477 309.175 20.9709 309.175C20.594 309.175 20.2827 308.865 20.2827 308.49V288.552C20.2827 288.169 20.594 287.867 20.9709 287.867C21.3477 287.867 21.659 288.169 21.659 288.552V308.49Z" fill="#D24213"/>
<path d="M29.9168 304.84C29.9168 305.216 29.6055 305.526 29.2287 305.526C28.8518 305.526 28.5405 305.216 28.5405 304.84V284.903C28.5405 284.519 28.8518 284.217 29.2287 284.217C29.6055 284.217 29.9168 284.519 29.9168 284.903V304.84Z" fill="#D24213"/>
<path fill-rule="evenodd" clip-rule="evenodd" d="M56.9691 471.103L57.3705 471.503L60.6064 474.728L61.8352 475.953L68.5691 476.655L69.9782 479.08L71.3792 481.504L67.7173 489.693L75 494.968V497.768V500.56L67.7173 505.834L71.3792 514.023L69.97 516.448L68.5691 518.872L59.6231 519.812L58.6812 528.727L56.2481 530.131L53.8151 531.528L45.5979 527.878L40.3059 535.136H37.496H34.6942L29.402 527.878L21.1852 531.528L18.7521 530.131L16.319 528.727L15.3769 519.812L6.43092 518.872L5.02186 516.448L3.62098 514.023L7.28293 505.834L0 500.56V497.768V494.968L7.28293 489.693L3.62098 481.504L5.02186 479.08L6.43092 476.655L13.165 475.953L14.3856 474.728L18.023 471.103V473.487C17.6789 473.781 17.3758 474.132 17.1218 474.54C16.663 475.291 16.3845 476.222 16.3845 477.284V482.844C16.3845 483.897 16.5647 484.787 16.9006 485.611C17.0153 485.889 17.1464 486.15 17.302 486.395C15.3932 489.75 14.3037 493.629 14.3037 497.768C14.3037 510.529 24.6915 520.881 37.496 520.881C50.3088 520.881 60.6963 510.529 60.6963 497.768C60.6963 493.629 59.607 489.75 57.6983 486.395C57.8456 486.142 57.9768 485.881 58.0914 485.603C58.4354 484.787 58.6158 483.897 58.6158 482.844V477.284C58.6158 476.222 58.3373 475.291 57.87 474.54C57.8208 474.45 57.7637 474.361 57.7062 474.279C57.4851 473.977 57.2476 473.716 56.9691 473.487V471.103Z" fill="#D24213"/>
<path d="M36.3121 449.776L29.7878 456.278C29.1297 456.934 29.1297 457.998 29.7878 458.653L36.3121 465.156C36.9702 465.812 38.0371 465.812 38.6953 465.156L45.2198 458.653C45.8776 457.998 45.8776 456.934 45.2198 456.278L38.6953 449.776C38.0371 449.12 36.9702 449.12 36.3121 449.776Z" fill="#D24213"/>
<path fill-rule="evenodd" clip-rule="evenodd" d="M40.6865 469.17L52.0249 457.577C53.8434 455.715 56.3257 456.556 56.3257 459.12V464.688C56.3257 466.198 55.8668 467.105 55.0068 467.986L43.4966 479.759C41.7845 481.515 39.3676 480.739 39.3676 478.347V472.403C39.3676 470.934 39.81 470.06 40.6865 469.17Z" fill="#D24213"/>
<path fill-rule="evenodd" clip-rule="evenodd" d="M40.6865 487.326L52.0249 475.733C53.8434 473.871 56.3257 474.712 56.3257 477.284V482.844C56.3257 484.363 55.8668 485.269 55.0068 486.151L43.4966 497.915C41.7845 499.671 39.3676 498.903 39.3676 496.503V490.559C39.3676 489.098 39.81 488.216 40.6865 487.326Z" fill="#D24213"/>
<path fill-rule="evenodd" clip-rule="evenodd" d="M40.6865 505.548L52.0249 493.955C53.8434 492.101 56.3257 492.942 56.3257 495.506V501.074C56.3257 502.585 55.8668 503.491 55.0068 504.373L43.4966 516.137C41.7845 517.893 39.3676 517.125 39.3676 514.733V508.781C39.3676 507.32 39.81 506.446 40.6865 505.548Z" fill="#D24213"/>
<path fill-rule="evenodd" clip-rule="evenodd" d="M34.3214 469.17L22.9833 457.577C21.1646 455.715 18.6824 456.556 18.6824 459.12V464.688C18.6824 466.198 19.1329 467.105 20.0013 467.986L31.5033 479.759C33.2236 481.515 35.6404 480.739 35.6404 478.347V472.403C35.6404 470.934 35.198 470.06 34.3214 469.17Z" fill="#D24213"/>
<path fill-rule="evenodd" clip-rule="evenodd" d="M34.3214 487.326L22.9833 475.733C21.1646 473.871 18.6824 474.712 18.6824 477.284V482.844C18.6824 484.363 19.1329 485.269 20.0013 486.151L31.5033 497.915C33.2236 499.671 35.6404 498.903 35.6404 496.503V490.559C35.6404 489.098 35.198 488.216 34.3214 487.326Z" fill="#D24213"/>
<path fill-rule="evenodd" clip-rule="evenodd" d="M34.3214 505.548L22.9833 493.955C21.1646 492.101 18.6824 492.942 18.6824 495.506V501.074C18.6824 502.585 19.1329 503.491 20.0013 504.373L31.5033 516.137C33.2236 517.893 35.6404 517.125 35.6404 514.733V508.781C35.6404 507.32 35.198 506.446 34.3214 505.548Z" fill="#D24213"/>
<path d="M54.7277 448.774C54.7277 449.149 54.4164 449.46 54.0394 449.46C53.6628 449.46 53.3516 449.149 53.3516 448.774V428.836C53.3516 428.453 53.6628 428.151 54.0394 428.151C54.4164 428.151 54.7277 428.453 54.7277 428.836V448.774Z" fill="#D24213"/>
<path d="M46.4698 445.124C46.4698 445.5 46.1586 445.81 45.782 445.81C45.3967 445.81 45.0938 445.5 45.0938 445.124V425.187C45.0938 424.803 45.3967 424.501 45.782 424.501C46.1586 424.501 46.4698 424.803 46.4698 425.187V445.124Z" fill="#D24213"/>
<path d="M38.1898 441.475C38.1898 441.859 37.8864 442.161 37.5015 442.161C37.1246 442.161 36.8215 441.859 36.8215 441.475V421.538C36.8215 421.162 37.1246 420.852 37.5015 420.852C37.8864 420.852 38.1898 421.162 38.1898 421.538V441.475Z" fill="#D24213"/>
<path d="M21.659 448.774C21.659 449.149 21.3477 449.46 20.9709 449.46C20.594 449.46 20.2827 449.149 20.2827 448.774V428.836C20.2827 428.453 20.594 428.151 20.9709 428.151C21.3477 428.151 21.659 428.453 21.659 428.836V448.774Z" fill="#D24213"/>
<path d="M29.9168 445.124C29.9168 445.5 29.6055 445.81 29.2287 445.81C28.8518 445.81 28.5405 445.5 28.5405 445.124V425.187C28.5405 424.803 28.8518 424.501 29.2287 424.501C29.6055 424.501 29.9168 424.803 29.9168 425.187V445.124Z" fill="#D24213"/>
</svg>
