<svg width="32" height="22" viewBox="0 0 32 22" fill="none" xmlns="http://www.w3.org/2000/svg">
<path d="M30.77 3.43556C30.4079 2.08255 29.3445 1.01929 27.9915 0.657103C25.5417 1.96695e-07 15.7135 0 15.7135 0C15.7135 0 5.88546 1.96695e-07 3.43555 0.657103C2.08255 1.01929 1.01929 2.08255 0.657103 3.43556C1.96695e-07 5.88546 0 11 0 11C0 11 1.96695e-07 16.1146 0.657103 18.5645C1.01929 19.9175 2.08255 20.9807 3.43555 21.3429C5.88546 22 15.7135 22 15.7135 22C15.7135 22 25.5417 22 27.9915 21.3429C29.3445 20.9807 30.4079 19.9175 30.77 18.5645C31.4271 16.1146 31.4271 11 31.4271 11C31.4271 11 31.4245 5.88546 30.77 3.43556Z" fill="#FF0000"/>
<path d="M12.5679 15.7139L20.7326 11.0004L12.5679 6.28687V15.7139Z" fill="white"/>
</svg>
