<svg width="661" height="246" viewBox="0 0 661 246" fill="none" xmlns="http://www.w3.org/2000/svg">
<path d="M192.303 246V206.543H220.615V141.642H192.303V0.0404885H89.3491L0 149.386V206.543H118.029V246H192.303ZM118.029 141.642H71.6999L118.029 64.2038V141.642Z" fill="#E9E9E9"/>
<path d="M632.688 246V206.543H661V141.642H632.688V0.0404885H529.734L440.385 149.386V206.543H558.414V246H632.688ZM558.414 141.642H512.085L558.414 64.2038V141.642Z" fill="#E9E9E9"/>
<path fill-rule="evenodd" clip-rule="evenodd" d="M371.972 137.588L382.404 127.167L396.84 125.659L399.861 120.449L402.864 115.238L395.014 97.6433L410.626 86.3103V74.2939L395.014 62.9609L402.864 45.3658L399.843 40.1557L396.84 34.9455L377.662 32.9277L375.643 13.771L370.427 10.7535L365.211 7.7536L347.596 15.5957L336.251 0H324.221L312.876 15.5957L295.261 7.7536L290.045 10.7535L284.829 13.771L282.81 32.9277L263.632 34.9455L260.611 40.1557L257.608 45.3658L265.459 62.9609L249.846 74.2939V86.3103L265.459 97.6433L257.608 115.238L260.611 120.449L263.632 125.659L278.068 127.167L280.685 129.799L288.482 137.588V132.465C287.745 131.834 287.095 131.08 286.551 130.202C285.567 128.588 284.97 126.588 284.97 124.308V112.361C284.97 110.098 285.356 108.186 286.076 106.414C286.322 105.818 286.603 105.257 286.937 104.73C282.845 97.5201 280.509 89.187 280.509 80.2928C280.509 52.8739 302.778 30.6297 330.227 30.6297C357.695 30.6297 379.963 52.8739 379.963 80.2928C379.963 89.187 377.627 97.5201 373.536 104.73C373.852 105.274 374.133 105.836 374.379 106.432C375.116 108.186 375.503 110.098 375.503 112.361V124.308C375.503 126.588 374.906 128.588 373.904 130.202C373.798 130.395 373.676 130.588 373.553 130.763C373.079 131.413 372.57 131.974 371.972 132.465V137.588Z" fill="#E9E9E9"/>
<path d="M327.692 183.414L313.706 169.443C312.295 168.033 312.295 165.748 313.706 164.34L327.692 150.368C329.103 148.959 331.39 148.959 332.801 150.368L346.788 164.34C348.198 165.748 348.198 168.033 346.788 169.443L332.801 183.414C331.39 184.823 329.103 184.823 327.692 183.414Z" fill="#E9E9E9"/>
<path fill-rule="evenodd" clip-rule="evenodd" d="M337.065 141.741L361.372 166.652C365.27 170.652 370.591 168.845 370.591 163.337V151.373C370.591 148.127 369.608 146.18 367.764 144.285L343.089 118.988C339.419 115.217 334.238 116.884 334.238 122.024V134.794C334.238 137.952 335.186 139.83 337.065 141.741Z" fill="#E9E9E9"/>
<path fill-rule="evenodd" clip-rule="evenodd" d="M337.065 102.73L361.372 127.64C365.27 131.641 370.591 129.834 370.591 124.307V112.361C370.591 109.098 369.608 107.151 367.764 105.256L343.089 79.9774C339.419 76.2056 334.238 77.8541 334.238 83.0119V95.7833C334.238 98.9232 335.186 100.818 337.065 102.73Z" fill="#E9E9E9"/>
<path fill-rule="evenodd" clip-rule="evenodd" d="M337.065 63.5765L361.372 88.4866C365.27 92.4692 370.591 90.6622 370.591 85.1535V73.1894C370.591 69.9441 369.608 67.997 367.764 66.1023L343.089 40.8236C339.419 37.0518 334.238 38.7003 334.238 43.8404V56.6294C334.238 59.7693 335.186 61.6464 337.065 63.5765Z" fill="#E9E9E9"/>
<path fill-rule="evenodd" clip-rule="evenodd" d="M323.419 141.741L299.113 166.652C295.214 170.652 289.893 168.845 289.893 163.337V151.373C289.893 148.127 290.859 146.18 292.721 144.285L317.378 118.988C321.066 115.217 326.247 116.884 326.247 122.024V134.794C326.247 137.952 325.298 139.83 323.419 141.741Z" fill="#E9E9E9"/>
<path fill-rule="evenodd" clip-rule="evenodd" d="M323.419 102.73L299.113 127.64C295.214 131.641 289.893 129.834 289.893 124.307V112.361C289.893 109.098 290.859 107.151 292.721 105.256L317.378 79.9774C321.066 76.2056 326.247 77.8541 326.247 83.0119V95.7833C326.247 98.9232 325.298 100.818 323.419 102.73Z" fill="#E9E9E9"/>
<path fill-rule="evenodd" clip-rule="evenodd" d="M323.419 63.5765L299.113 88.4866C295.214 92.4692 289.893 90.6622 289.893 85.1535V73.1894C289.893 69.9441 290.859 67.997 292.721 66.1023L317.378 40.8236C321.066 37.0518 326.247 38.7003 326.247 43.8404V56.6294C326.247 59.7693 325.298 61.6464 323.419 63.5765Z" fill="#E9E9E9"/>
<path d="M367.169 185.567C367.169 184.76 366.501 184.094 365.693 184.094C364.886 184.094 364.219 184.76 364.219 185.567V228.407C364.219 229.231 364.886 229.88 365.693 229.88C366.501 229.88 367.169 229.231 367.169 228.407V185.567Z" fill="#E9E9E9"/>
<path d="M349.473 193.408C349.473 192.601 348.806 191.935 347.999 191.935C347.173 191.935 346.523 192.601 346.523 193.408V236.248C346.523 237.072 347.173 237.721 347.999 237.721C348.806 237.721 349.473 237.072 349.473 236.248V193.408Z" fill="#E9E9E9"/>
<path d="M331.709 201.249C331.709 200.425 331.059 199.776 330.234 199.776C329.426 199.776 328.776 200.425 328.776 201.249V244.089C328.776 244.896 329.426 245.562 330.234 245.562C331.059 245.562 331.709 244.896 331.709 244.089V201.249Z" fill="#E9E9E9"/>
<path d="M296.27 185.567C296.27 184.76 295.603 184.094 294.795 184.094C293.987 184.094 293.32 184.76 293.32 185.567V228.407C293.32 229.231 293.987 229.88 294.795 229.88C295.603 229.88 296.27 229.231 296.27 228.407V185.567Z" fill="#E9E9E9"/>
<path d="M313.984 193.408C313.984 192.601 313.317 191.935 312.509 191.935C311.701 191.935 311.034 192.601 311.034 193.408V236.248C311.034 237.072 311.701 237.721 312.509 237.721C313.317 237.721 313.984 237.072 313.984 236.248V193.408Z" fill="#E9E9E9"/>
</svg>
