<svg width="16" height="10" viewBox="0 0 16 10" fill="none" xmlns="http://www.w3.org/2000/svg">
<g clip-path="url(#clip0_318_3610)">
<path d="M16 0H0V10H16V0Z" fill="white"/>
<path d="M8.80755 0H7.19287V10H8.80755V0Z" fill="#F10002"/>
<path d="M16 4.14282H0V5.85711H16V4.14282Z" fill="#F10002"/>
<path d="M1.76172 0L6.89933 3.57143V0H1.76172Z" fill="#092C70"/>
<path d="M0 0.857178V3.85718H4.55046L0 0.857178Z" fill="#092C70"/>
<path d="M0 0.00012207V0.428693L5.2844 3.85726H6.01835L0 0.00012207Z" fill="#F10002"/>
<path d="M14.2388 0L9.10116 3.57143V0H14.2388Z" fill="#092C70"/>
<path d="M16 0.857178V3.85718H11.4495L16 0.857178Z" fill="#092C70"/>
<path d="M16 0V0.428571L10.7156 3.85714H9.98165L16 0Z" fill="#F10002"/>
<path d="M14.2388 10L9.10116 6.42857V10H14.2388Z" fill="#092C70"/>
<path d="M16 9.14282V6.14282H11.4495L16 9.14282Z" fill="#092C70"/>
<path d="M16 10V9.57143L10.7156 6.14286H9.98165L16 10Z" fill="#F10002"/>
<path d="M5.1377 6.14282L8.10623e-05 9.71425V6.14282H5.1377Z" fill="#092C70"/>
<path d="M6.89893 7V10H2.34847L6.89893 7Z" fill="#092C70"/>
<path d="M6.89893 6.14282V6.57139L1.61452 9.99996H0.880577L6.89893 6.14282Z" fill="#F10002"/>
</g>
<defs>
<clipPath id="clip0_318_3610">
<rect width="16" height="10" fill="white"/>
</clipPath>
</defs>
</svg>
