<svg width="120" height="120" viewBox="0 0 120 120" fill="none" xmlns="http://www.w3.org/2000/svg">
<circle cx="60" cy="60" r="60" fill="white"/>
<path d="M78.8444 25H60.6954V58.8411H95V41.1556C95 32.2318 87.7682 25 78.8444 25ZM25 78.8444C25 87.7682 32.2318 95 41.1556 95H58.8411V60.6954H25V78.8444Z" fill="#84EB48"/>
<path d="M25 25V58.8411H58.8411V25H41.1556H25ZM60.6954 60.6954V95H95V78.8444V60.6954H60.6954Z" fill="#734BB2"/>
<path d="M84.8419 80.151C84.2625 78.9271 82.9134 78.4914 81.6803 78.3616V72.8172C81.6803 71.4914 81.3141 70.4715 80.577 69.7576C79.8399 69.0437 78.9452 68.6914 77.8883 68.6914C77.2022 68.6914 76.5764 68.849 76.0201 69.1642C75.4638 69.4795 75.0605 69.8642 74.8101 70.3232V65.145H71.7459V78.955H74.8797V73.7444C74.8797 73.1046 75.0558 72.5901 75.4128 72.196C75.7697 71.802 76.2333 71.6073 76.8035 71.6073C77.3366 71.6073 77.7585 71.7881 78.0691 72.1497C78.3797 72.5112 78.5327 73.0165 78.5327 73.6702V78.955H81.1472C82.4174 79.1172 82.9459 79.5715 83.3909 80.0165C83.9472 80.5728 84.5082 82.5755 83.1777 83.943C82.7188 84.4159 82.0234 84.6477 81.1658 84.6477C80.1783 84.6245 79.2373 84.4901 78.3333 84.2397C77.434 83.9894 76.3956 83.6324 75.2134 83.1735L74.4068 82.8629C73.6327 82.5755 72.9466 82.3437 72.3486 82.1722C71.5558 81.9404 70.7492 81.8291 69.9379 81.8291C68.7141 81.8291 67.6525 82.1351 66.7532 82.747C65.8538 83.3589 65.4042 84.2861 65.4042 85.5331C65.4042 85.992 65.4876 86.4185 65.6591 86.8126C65.8307 87.2066 66.1088 87.4013 66.4936 87.4013C66.6651 87.4013 66.8134 87.3411 66.9433 87.2205C67.0731 87.1 67.138 86.9656 67.138 86.8126C67.138 86.7477 67.0499 86.604 66.8784 86.3861C66.7068 86.1682 66.6187 85.9503 66.6187 85.7324C66.6187 85.3152 66.7856 84.9675 67.1194 84.6848C67.4532 84.402 67.9399 84.2815 68.5843 84.3232C69.3538 84.4113 70.0909 84.5735 70.7863 84.8146C71.3287 85 71.9823 85.255 72.7519 85.5748L73.8274 86.0291C74.8379 86.451 75.7095 86.7801 76.4327 87.0119C77.2486 87.2761 78.0923 87.406 78.9731 87.406C80.9247 87.406 82.4684 86.9748 83.6042 86.1126C84.7399 85.2503 85.3194 83.943 85.3426 82.1954C85.2962 81.3285 85.2545 81.0271 84.8419 80.151Z" fill="white"/>
<path d="M43.5141 77.7539C43.0274 78.046 42.5035 78.1943 41.9379 78.1943C41.1452 78.1943 40.487 77.9255 39.9538 77.3831C39.4254 76.8453 39.1565 76.1639 39.1565 75.3387C39.1565 74.5599 39.4161 73.8923 39.9399 73.3407C40.4777 72.8029 41.1545 72.5294 41.9797 72.5294C43.1154 72.5294 43.9962 73.0625 44.6221 74.1241L47.779 72.4599C47.2552 71.3056 46.4717 70.4155 45.4287 69.7851C44.3856 69.1546 43.2035 68.8394 41.8916 68.8394C39.9353 68.8394 38.336 69.4466 37.0982 70.6612C35.8744 71.8758 35.2625 73.4334 35.2625 75.3341C35.2625 77.2394 35.8697 78.797 37.075 80.0069C38.2989 81.2215 39.8797 81.8288 41.8221 81.8288C43.1201 81.8288 44.2976 81.5274 45.3499 80.9294C46.4022 80.3314 47.1995 79.5155 47.7327 78.4817L44.5757 76.595C44.3532 77.0771 44.0009 77.4619 43.5141 77.7539Z" fill="white"/>
<path d="M77.7029 42.0079C77.3923 41.8735 76.9844 41.7159 76.4744 41.5351L76.1731 41.4284L75.0049 40.9927C74.3002 40.7145 73.9433 40.3808 73.9433 39.9914C73.9433 39.7364 74.0685 39.5278 74.3188 39.3609C74.5691 39.1986 74.9168 39.1152 75.3618 39.1152C75.8625 39.1152 76.4095 39.2172 76.9983 39.4258C77.5824 39.6344 78.0738 39.8986 78.4724 40.2278L80.0347 37.641C78.695 36.5099 77.1188 35.9443 75.3108 35.9443C73.8599 35.9443 72.6777 36.3384 71.7552 37.1311C70.8327 37.9192 70.3738 38.9112 70.3738 40.1026C70.3738 41.6463 71.1062 42.8099 72.5665 43.6026C72.7983 43.7278 73.2433 43.9132 73.8923 44.1589L74.2539 44.2933L75.4406 44.692C76.1592 44.9609 76.5161 45.3039 76.5161 45.7304C76.5161 46.0364 76.3724 46.2728 76.085 46.449C75.7976 46.6251 75.4453 46.7132 75.0234 46.7132C73.6234 46.7132 72.3671 46.1476 71.2546 45.0212L69.5671 47.5152C70.9579 49.0728 72.7565 49.847 74.9724 49.847C76.5764 49.847 77.8512 49.4437 78.7969 48.6463C79.7565 47.8212 80.234 46.7874 80.234 45.5496C80.234 43.9132 79.3903 42.7357 77.7029 42.0079Z" fill="white"/>
<path d="M34.6923 31.4614V34.8224H39.4903V49.7449H43.4492V34.8224H48.2472V31.4614H34.6923Z" fill="white"/>
</svg>
