<svg width="162" height="71" viewBox="0 0 162 71" fill="none" xmlns="http://www.w3.org/2000/svg">
<path d="M160.22 60.1316H161.826V57.8684H155.589V59.3234H156.497V65.1758H155.597V66.6308H159.539V65.1758H158.452V59.3234H160.22V60.1316Z" fill="#C84014"/>
<path d="M153.615 59.3234V57.8684H149.924V59.3234H150.808V61.4576H147.556V59.3234H148.488V57.8684H144.733V59.3234H145.601V65.1758H144.668V66.6308H148.472V65.1758H147.556V62.7991H150.808V65.1758H149.908V66.6308H153.607V65.1758H152.755V59.3234H153.615Z" fill="#C84014"/>
<path d="M142.265 57.8684H138.793V59.3234H139.726L136.457 62.88V59.3234H137.171V57.8684H133.569V59.3234H134.502V65.1758H133.561V66.6308H137.325V65.1758H136.149L139.466 61.5707V65.1758H138.525V66.6308H142.256V65.1758H141.421V59.3234H142.265V57.8684Z" fill="#C84014"/>
<path d="M128.829 66.6308V65.1758H127.79V63.2842H129.039C129.494 63.2842 129.899 63.2279 130.256 63.1144C130.605 62.9935 130.905 62.8236 131.156 62.5973C131.408 62.3707 131.595 62.0881 131.724 61.7565C131.854 61.4171 131.919 61.021 131.919 60.5682C131.919 60.4228 131.911 60.2692 131.894 60.1235C131.878 59.9781 131.854 59.8245 131.822 59.6628C131.797 59.5093 131.749 59.3639 131.683 59.2181C131.619 59.0809 131.529 58.9351 131.432 58.806C131.335 58.6766 131.213 58.5553 131.059 58.4422C130.913 58.3291 130.743 58.2319 130.54 58.1432C130.345 58.0542 130.11 57.9815 129.842 57.9411C129.575 57.8925 129.267 57.8684 128.918 57.8684H124.943V59.3234H125.852V65.1758H124.943V66.6308H128.829ZM127.79 59.3234H128.691C128.812 59.3234 128.926 59.3312 129.023 59.3475C129.129 59.3639 129.226 59.388 129.307 59.4202C129.388 59.4525 129.469 59.5011 129.534 59.5497C129.599 59.5983 129.664 59.6546 129.712 59.7196C129.761 59.7841 129.802 59.8486 129.834 59.9213C129.867 59.9944 129.891 60.0671 129.907 60.1479C129.924 60.2125 129.932 60.2933 129.94 60.366C129.948 60.4469 129.956 60.5277 129.956 60.6004C129.956 60.6813 129.948 60.754 129.94 60.8348C129.932 60.9157 129.924 60.9884 129.907 61.0615C129.891 61.1423 129.875 61.215 129.842 61.2877C129.818 61.3604 129.785 61.4249 129.745 61.4898C129.712 61.5625 129.664 61.6189 129.607 61.6757C129.55 61.7324 129.485 61.7806 129.413 61.8211C129.34 61.8615 129.258 61.8937 129.169 61.9182C129.088 61.9342 128.991 61.9505 128.893 61.9505H127.79V59.3234Z" fill="#C84014"/>
<path d="M122.961 57.8684H119.49V59.3234H120.423L117.154 62.88V59.3234H117.868V57.8684H114.266V59.3234H115.199V65.1758H114.258V66.6308H118.022V65.1758H116.853L120.163 61.5707V65.1758H119.222V66.6308H122.953V65.1758H122.118V59.3234H122.961V57.8684Z" fill="#C84014"/>
<path d="M111.854 59.3234V57.8684H108.163V59.3234H109.047V61.4576H105.786V59.3234H106.719V57.8684H102.964V59.3234H103.84V65.1758H102.907V66.6308H106.711V65.1758H105.786V62.7991H109.047V65.1758H108.147V66.6308H111.846V65.1758H110.994V59.3234H111.854Z" fill="#C84014"/>
<path d="M100.617 57.8684H97.1455V59.3234H98.0781L94.8094 62.88V59.3234H95.5232V57.8684H91.9217V59.3234H92.8544V65.1758H91.9135V66.6308H95.6773V65.1758H94.509L97.8187 61.5707V65.1758H96.8775V66.6308H100.609V65.1758H99.7733V59.3234H100.617V57.8684Z" fill="#C84014"/>
<path d="M80.7136 61.9019L78.7103 65.1758H77.5502V66.6308H79.9592L82.8714 61.9019L80.3813 57.8684H77.9719V59.3234H79.1237L80.7136 61.9019ZM84.9883 59.3234H86.059V57.8684H81.9302V59.3234H83.0333C83.0333 61.2714 83.0333 63.2279 83.0333 65.1758H81.9224V66.6308H86.0754V65.1758H84.9883C84.9883 63.2279 84.9883 61.2714 84.9883 59.3234ZM85.1506 61.9019L87.6326 57.8684H90.0498V59.3234H88.8897L87.308 61.9019L89.3118 65.1758H90.4714V66.6308H88.0546L85.1506 61.9019Z" fill="#C84014"/>
<path d="M75.9429 59.3234V57.8684H72.2521V59.3234H73.136V61.4576H69.8836V59.3234H70.8081V57.8684H67.0608V59.3234H67.9287V65.1758H66.996V66.6308H70.8003V65.1758H69.8836V62.7991H73.136V65.1758H72.2357V66.6308H75.9347V65.1758H75.0828V59.3234H75.9429Z" fill="#C84014"/>
<path d="M65.0257 57.8684H61.5542V59.3234H62.4786L59.2181 62.88V59.3234H59.9319V57.8684H56.3305V59.3234H57.2631V65.1758H56.3223V66.6308H60.086V65.1758H58.9099L62.2274 61.5707V65.1758H61.2866V66.6308H65.0175V65.1758H64.182V59.3234H65.0257V57.8684Z" fill="#C84014"/>
<path d="M101.173 33.3984V30.755H95.4139V49.0403H97.9934V53.3408H86.751V49.0403H88.8842V30.755H85.5667V25.824H106.364V33.3984H101.173ZM66.8863 40.0353L69.4334 31.2239L71.9723 40.0353H66.8863ZM65.3939 25.824L57.9398 49.0403H56.3335V53.3408H66.6187V49.0403H64.6313L65.5479 44.7074H73.3106L74.2354 49.0403H72.2399V53.3408H82.525V49.0403H80.9191L73.4728 25.824H65.3939ZM121.573 49.0403V53.3408H110.485V49.0403H112.659V30.755H109.341V25.824H122.457C124.696 25.824 126.48 26.1151 127.811 26.6893C129.133 27.2712 130.138 27.9908 130.828 28.8557C131.517 29.7284 131.964 30.6582 132.166 31.6686C132.369 32.6711 132.475 33.6169 132.475 34.49C132.475 37.3596 131.615 39.5342 129.887 41.0133C128.176 42.4928 125.815 43.2365 122.838 43.2365H119.148V49.0403H121.573ZM119.148 30.755V38.1518H122.376C122.911 38.1518 123.365 38.0465 123.739 37.8447C124.104 37.6426 124.396 37.3756 124.598 37.0362C124.801 36.6968 124.947 36.3248 125.036 35.9046C125.126 35.4921 125.166 35.0556 125.166 34.6031C125.166 34.1502 125.126 33.2289 125.036 32.8246C124.947 32.4204 124.777 32.0647 124.517 31.7494C124.266 31.4342 123.917 31.1916 123.471 31.0139C123.025 30.8441 122.441 30.755 121.727 30.755H119.148ZM148.292 53.8341C130.374 53.8341 130.649 25.3311 148.559 25.3311C166.469 25.3311 166.209 53.8341 148.292 53.8341ZM148.559 48.0622C157.254 48.0622 157.457 31.1029 148.559 31.1029C139.661 31.1029 139.864 48.0622 148.559 48.0622Z" fill="#C84014"/>
<path fill-rule="evenodd" clip-rule="evenodd" d="M35.3925 31.2188L35.6419 31.4673L37.6522 33.4708L38.4156 34.2318L42.5991 34.6679L43.4746 36.1743L44.3449 37.6807L42.0699 42.768L46.5944 46.0448V47.7846V49.5191L42.0699 52.7958L44.3449 57.8831L43.4694 59.3895L42.5991 60.8959L37.0414 61.4793L36.4562 67.0181L34.9446 67.8906L33.433 68.758L28.3281 66.4906L25.0404 70.9998H23.2947H21.5541L18.2662 66.4906L13.1615 68.758L11.6499 67.8906L10.1383 67.0181L9.553 61.4793L3.99526 60.8959L3.11987 59.3895L2.24956 57.8831L4.52458 52.7958L0 49.5191V47.7846V46.0448L4.52458 42.768L2.24956 37.6807L3.11987 36.1743L3.99526 34.6679L8.17884 34.2318L8.93719 33.4708L11.1969 31.2188V32.7C10.9832 32.8825 10.7948 33.1005 10.6371 33.3542C10.3521 33.8208 10.179 34.3991 10.179 35.0584V38.5127C10.179 39.1669 10.291 39.7198 10.4997 40.2321C10.5709 40.4045 10.6523 40.5667 10.749 40.7189C9.56318 42.8036 8.88628 45.213 8.88628 47.7846C8.88628 55.7123 15.3398 62.1438 23.2947 62.1438C31.2548 62.1438 37.7081 55.7123 37.7081 47.7846C37.7081 45.213 37.0313 42.8036 35.8455 40.7189C35.9371 40.5618 36.0186 40.3994 36.0898 40.2269C36.3034 39.7198 36.4155 39.1669 36.4155 38.5127V35.0584C36.4155 34.3991 36.2425 33.8208 35.9522 33.3542C35.9216 33.2984 35.8861 33.2427 35.8504 33.192C35.7131 33.0042 35.5655 32.842 35.3925 32.7V31.2188Z" fill="#C84014"/>
<path d="M22.5592 17.9692L18.5059 22.0086C18.097 22.4161 18.097 23.0767 18.5059 23.4841L22.5592 27.5237C22.968 27.9312 23.6308 27.9312 24.0397 27.5237L28.0931 23.4841C28.5018 23.0767 28.5018 22.4161 28.0931 22.0086L24.0397 17.9692C23.6308 17.5617 22.968 17.5617 22.5592 17.9692Z" fill="#C84014"/>
<path fill-rule="evenodd" clip-rule="evenodd" d="M25.2769 30.0179L32.321 22.8154C33.4508 21.659 34.9929 22.1814 34.9929 23.774V27.2332C34.9929 28.1715 34.7078 28.7347 34.1735 29.2825L27.0227 36.5965C25.959 37.687 24.4575 37.2051 24.4575 35.7189V32.0265C24.4575 31.1136 24.7324 30.5706 25.2769 30.0179Z" fill="#C84014"/>
<path fill-rule="evenodd" clip-rule="evenodd" d="M25.2769 41.2973L32.321 34.0951C33.4508 32.9384 34.9929 33.4609 34.9929 35.0588V38.5128C34.9929 39.4563 34.7078 40.0192 34.1735 40.5671L27.0227 47.8759C25.959 48.9665 24.4575 48.4898 24.4575 46.9986V43.306C24.4575 42.3981 24.7324 41.8503 25.2769 41.2973Z" fill="#C84014"/>
<path fill-rule="evenodd" clip-rule="evenodd" d="M25.2769 52.618L32.321 45.4157C33.4508 44.2642 34.9929 44.7867 34.9929 46.3794V49.8386C34.9929 50.7769 34.7078 51.3399 34.1735 51.8877L27.0227 59.1966C25.959 60.2871 24.4575 59.8105 24.4575 58.3243V54.6266C24.4575 53.7188 24.7324 53.176 25.2769 52.618Z" fill="#C84014"/>
<path fill-rule="evenodd" clip-rule="evenodd" d="M21.3223 30.0179L14.2785 22.8154C13.1486 21.659 11.6064 22.1814 11.6064 23.774V27.2332C11.6064 28.1715 11.8864 28.7347 12.4259 29.2825L19.5715 36.5965C20.6403 37.687 22.1417 37.2051 22.1417 35.7189V32.0265C22.1417 31.1136 21.8669 30.5706 21.3223 30.0179Z" fill="#C84014"/>
<path fill-rule="evenodd" clip-rule="evenodd" d="M21.3223 41.2973L14.2785 34.0951C13.1486 32.9384 11.6064 33.4609 11.6064 35.0588V38.5128C11.6064 39.4563 11.8864 40.0192 12.4259 40.5671L19.5715 47.8759C20.6403 48.9665 22.1417 48.4898 22.1417 46.9986V43.306C22.1417 42.3981 21.8669 41.8503 21.3223 41.2973Z" fill="#C84014"/>
<path fill-rule="evenodd" clip-rule="evenodd" d="M21.3223 52.618L14.2785 45.4157C13.1486 44.2642 11.6064 44.7867 11.6064 46.3794V49.8386C11.6064 50.7769 11.8864 51.3399 12.4259 51.8877L19.5715 59.1966C20.6403 60.2871 22.1417 59.8105 22.1417 58.3243V54.6266C22.1417 53.7188 21.8669 53.176 21.3223 52.618Z" fill="#C84014"/>
<path d="M33.9999 17.3464C33.9999 17.5798 33.8066 17.7725 33.5724 17.7725C33.3384 17.7725 33.145 17.5798 33.145 17.3464V4.96022C33.145 4.72185 33.3384 4.53418 33.5724 4.53418C33.8066 4.53418 33.9999 4.72185 33.9999 4.96022V17.3464Z" fill="#C84014"/>
<path d="M28.8696 15.0794C28.8696 15.3127 28.6762 15.5054 28.4422 15.5054C28.2029 15.5054 28.0146 15.3127 28.0146 15.0794V2.69315C28.0146 2.45475 28.2029 2.26709 28.4422 2.26709C28.6762 2.26709 28.8696 2.45475 28.8696 2.69315V15.0794Z" fill="#C84014"/>
<path d="M23.7255 12.8123C23.7255 13.0507 23.5371 13.2383 23.2979 13.2383C23.0638 13.2383 22.8755 13.0507 22.8755 12.8123V0.42606C22.8755 0.192742 23.0638 0 23.2979 0C23.5371 0 23.7255 0.192742 23.7255 0.42606V12.8123Z" fill="#C84014"/>
<path d="M13.4556 17.3464C13.4556 17.5798 13.2622 17.7725 13.0281 17.7725C12.794 17.7725 12.6006 17.5798 12.6006 17.3464V4.96022C12.6006 4.72185 12.794 4.53418 13.0281 4.53418C13.2622 4.53418 13.4556 4.72185 13.4556 4.96022V17.3464Z" fill="#C84014"/>
<path d="M18.586 15.0794C18.586 15.3127 18.3926 15.5054 18.1585 15.5054C17.9244 15.5054 17.731 15.3127 17.731 15.0794V2.69315C17.731 2.45475 17.9244 2.26709 18.1585 2.26709C18.3926 2.26709 18.586 2.45475 18.586 2.69315V15.0794Z" fill="#C84014"/>
</svg>
