<svg width="120" height="120" viewBox="0 0 120 120" fill="none" xmlns="http://www.w3.org/2000/svg">
<circle cx="60" cy="60" r="60" fill="#FF3E00"/>
<path d="M79.8109 40.0146V50.8549C80.4207 49.8163 81.3142 48.9734 82.3864 48.4249C83.6063 47.7597 84.9766 47.419 86.366 47.4354C87.4198 47.414 88.4674 47.6009 89.4488 47.9854C90.4301 48.37 91.3258 48.9446 92.0845 49.6763C93.6511 51.1653 94.4344 53.3042 94.4344 56.0931V67.7337C97.0535 68.0029 99.9273 68.9196 101.164 71.4878C101.878 72.7939 102.242 74.2628 102.219 75.7512C102.175 79.418 100.946 82.156 98.5304 83.9651C96.115 85.7742 92.829 86.6788 88.6723 86.6788C86.8413 86.6833 85.0206 86.406 83.274 85.8567C81.7316 85.3717 79.8837 84.6829 77.7301 83.7905L75.4457 82.8447C73.8087 82.1754 72.4191 81.6442 71.2623 81.2514C69.7435 80.7351 68.1721 80.3886 66.577 80.2183C65.4839 80.0453 64.3664 80.3063 63.4631 80.9458C63.1325 81.2056 62.8652 81.537 62.6812 81.915C62.4972 82.2931 62.4014 82.708 62.4009 83.1284C62.4228 83.6365 62.6179 84.1217 62.9539 84.5035C63.2022 84.7558 63.389 85.062 63.4995 85.3983C63.4973 85.563 63.459 85.7253 63.3874 85.8736C63.3157 86.0219 63.2124 86.1527 63.0848 86.2568C62.9586 86.3794 62.8095 86.4759 62.6459 86.5409C62.4824 86.6058 62.3077 86.6378 62.1317 86.6352C61.7419 86.6444 61.3593 86.5296 61.0389 86.3073C60.7186 86.085 60.4771 85.7667 60.3493 85.3983C59.9811 84.5542 59.7952 83.6419 59.8036 82.721C59.8036 80.1116 60.7737 78.1715 62.7138 76.9007C64.7241 75.5866 67.0862 74.9142 69.4872 74.9727C71.2224 74.9756 72.9487 75.2205 74.6163 75.7003C75.8822 76.064 77.3446 76.5442 78.9815 77.1553L80.6985 77.8029C83.2109 78.7729 85.4226 79.5174 87.3336 80.0364C89.2984 80.5718 91.3217 80.8626 93.3577 80.9022C94.1317 80.957 94.9089 80.8566 95.6436 80.6067C96.3782 80.3568 97.0555 79.9626 97.6356 79.4471C100.466 76.5369 99.2725 72.3827 98.0866 71.2114C96.8245 69.917 95.1257 69.139 93.3213 69.0287H87.7556V57.8756C87.8273 56.7292 87.4781 55.5961 86.7734 54.689C86.4401 54.3077 86.0247 54.0069 85.5585 53.8091C85.0923 53.6112 84.5874 53.5216 84.0815 53.5468C83.5292 53.5283 82.9794 53.6292 82.4696 53.8427C81.9599 54.0561 81.5022 54.3771 81.1277 54.7836C80.3441 55.6778 79.9374 56.8407 79.9928 58.0284V68.9414H73.3285V40.0146H79.8109ZM36.5661 40.5093C40.2137 40.4324 43.7653 41.6809 46.5624 44.0233L43.2667 49.4143C42.3377 48.6782 41.286 48.1117 40.1601 47.741C39.0547 47.3347 37.8891 47.1159 36.7116 47.0935C35.9499 47.0561 35.1931 47.2352 34.529 47.61C34.2923 47.7381 34.094 47.927 33.9546 48.1572C33.8153 48.3873 33.7398 48.6505 33.736 48.9196C33.736 49.7272 34.4635 50.4256 35.9695 51.0076L38.4286 51.9171L39.0615 52.1426C40.131 52.5209 40.9968 52.8701 41.6516 53.1321C45.2117 54.6453 46.9917 57.0996 46.9917 60.4947C47.0019 61.7313 46.7301 62.9539 46.1968 64.0696C45.6635 65.1853 44.8829 66.1648 43.9142 66.9334C41.9159 68.6068 39.2264 69.4434 35.8458 69.4434C33.7065 69.5159 31.5773 69.1191 29.6077 68.2807C27.6381 67.4424 25.8761 66.1829 24.4453 64.5908L28.003 59.3889C29.0166 60.4901 30.2452 61.372 31.6129 61.9802C32.9805 62.5883 34.4583 62.9097 35.955 62.9247C36.7361 62.949 37.5089 62.7577 38.1885 62.3718C38.4644 62.2312 38.6956 62.0164 38.8563 61.7517C39.0169 61.487 39.1006 61.1827 39.0979 60.8731C39.0979 59.9855 38.3413 59.2579 36.828 58.6904L34.3253 57.8538L33.5977 57.57C32.23 57.0559 31.2987 56.6703 30.804 56.4133C27.7289 54.769 26.189 52.3439 26.1841 49.1379C26.1657 47.9535 26.4184 46.7805 26.9228 45.7087C27.4271 44.6369 28.1699 43.6946 29.0943 42.9538C31.2061 41.2586 33.8602 40.3851 36.5661 40.4947V40.5093ZM60.5748 47.4936C62.6771 47.4624 64.7471 48.0139 66.5552 49.0869C68.3289 50.1314 69.7328 51.7031 70.5712 53.5831L65.2311 56.3914C64.8117 55.5707 64.1711 54.8836 63.3817 54.4079C62.5923 53.9322 61.6856 53.6868 60.764 53.6995C60.1263 53.6803 59.4914 53.7917 58.8983 54.027C58.3053 54.2622 57.7666 54.6162 57.3154 55.0673C56.4565 55.9974 55.9794 57.217 55.9794 58.4831C55.9794 59.7492 56.4565 60.9688 57.3154 61.8989C57.7443 62.3492 58.2618 62.7057 58.8353 62.9461C59.4088 63.1865 60.0258 63.3056 60.6476 63.2958C61.5877 63.3043 62.5118 63.0525 63.3176 62.5682C64.1031 62.1133 64.7322 61.4309 65.1219 60.6111L70.462 63.7978C69.553 65.5451 68.1484 66.9851 66.4242 67.9374C64.6043 68.961 62.5462 69.4855 60.4584 69.458C58.9858 69.5119 57.5175 69.2671 56.1421 68.7381C54.7666 68.2092 53.5126 67.4072 52.4555 66.3805C51.4336 65.3429 50.6342 64.1076 50.1063 62.7503C49.5783 61.393 49.333 59.9422 49.3853 58.4867C49.3326 57.0281 49.5812 55.5742 50.1157 54.216C50.6503 52.8578 51.4592 51.6244 52.4919 50.593C53.5613 49.5581 54.828 48.749 56.2167 48.214C57.6054 47.6791 59.0875 47.4291 60.5748 47.4791V47.4936Z" fill="white"/>
</svg>
