<svg width="16" height="24" viewBox="0 0 16 24" fill="none" xmlns="http://www.w3.org/2000/svg">
<path d="M5.17991 0.0475006C4.37509 0.179283 3.60792 0.682884 3.13726 1.38416C2.83604 1.83599 2.68543 2.24076 2.53953 2.9938C2.52541 3.07382 2.47834 3.10676 2.34185 3.12559C1.45231 3.27149 0.736918 3.85981 0.402752 4.72582C0.308621 4.96115 0.289795 5.09764 0.289795 5.52593C0.289795 6.10484 0.374513 6.39665 0.661613 6.84377C1.31112 7.84627 2.64307 8.2275 3.70676 7.71448L3.89972 7.62035L3.87149 7.89333C3.735 9.14528 3.69264 9.5924 3.65498 10.3502C3.61262 11.0985 3.58909 11.2585 3.49967 11.4562C3.39142 11.6915 3.39142 11.7151 3.3773 13.9271C3.36318 16.1675 3.38671 16.6993 3.53732 17.4335C3.68793 18.1677 4.07857 19.1561 4.46922 19.8056L4.63395 20.0786L4.59159 20.474C4.48334 21.4106 4.10211 22.333 3.51379 23.0767C3.14197 23.5473 3.09961 23.6885 3.29729 23.8815C3.45731 24.0462 3.6691 24.0368 3.83383 23.8627C4.44569 23.2085 4.96341 22.2625 5.18462 21.387C5.23168 21.2035 5.28345 21.0387 5.29757 21.0199C5.3164 21.0011 5.73999 21.4153 6.23888 21.9377C7.78734 23.5615 8.18269 23.9521 8.30506 23.9851C8.5451 24.0462 8.78513 23.7827 8.71924 23.5238C8.70041 23.4626 8.07915 22.7755 7.34022 21.9989C6.59658 21.2223 5.88589 20.4645 5.75882 20.3139C5.01989 19.4244 4.50687 18.3607 4.25272 17.1794C4.16329 16.7652 4.15388 16.5299 4.13505 14.379C4.11623 12.5717 4.12564 11.9786 4.17271 11.8139C4.29037 11.3903 4.80338 11.0091 5.25051 11.0091C5.68351 11.0091 6.20123 11.3856 6.3236 11.7904C6.36596 11.9316 6.38008 12.694 6.38008 14.6425C6.38008 17.57 6.3942 17.7583 6.66247 18.5066C6.74249 18.7231 6.91192 19.0714 7.039 19.2738C7.40611 19.8574 10.7148 23.9192 10.8701 23.9756C11.0302 24.0321 11.2231 23.9333 11.3126 23.7497C11.3643 23.6415 11.3643 23.5991 11.3078 23.4862C11.2702 23.4156 10.4889 22.4225 9.57583 21.2882C7.74969 19.029 7.65556 18.902 7.46259 18.4784C7.15666 17.7912 7.16137 17.8571 7.14254 14.7178L7.12842 11.861L7.4014 11.9551C7.9003 12.1245 8.58275 12.2375 9.15224 12.2422C9.6935 12.2469 9.70291 12.2516 9.91471 12.4069C10.3948 12.7505 10.9125 13.4 11.1808 13.993C11.2937 14.2425 11.5338 15.0614 11.4961 15.0802C11.4914 15.085 11.3643 15.1461 11.2137 15.2167C10.9125 15.3626 10.4654 15.8427 10.2724 16.2286C10.1124 16.5534 10.1265 17.1558 10.2959 17.4806C10.456 17.7865 10.6725 17.9889 10.9878 18.1348C11.3408 18.2948 11.675 18.3325 11.9903 18.2383C12.4186 18.116 12.6539 17.9277 12.9551 17.4618C12.9598 17.4524 13.1434 17.5653 13.3599 17.7112C14.2024 18.2666 14.7295 19.062 14.899 20.0268C14.9743 20.441 14.9366 21.3258 14.8331 21.7165C14.7107 22.1824 14.3671 22.8131 14.0565 23.1661C13.727 23.5332 13.6894 23.6885 13.887 23.8815C14.1318 24.131 14.4048 23.9945 14.8425 23.3967C15.3884 22.6531 15.652 21.9 15.6849 20.9493C15.7132 20.2575 15.6614 19.7962 15.492 19.302C15.1437 18.2854 14.5271 17.5229 13.5764 16.9487L13.2799 16.7652L13.2705 16.4593C13.2658 16.271 13.2234 16.0639 13.1669 15.9368C13.0352 15.645 12.7245 15.3156 12.4751 15.212C12.2915 15.1367 12.2633 15.1085 12.2397 14.939C12.2209 14.8355 12.1691 14.5955 12.1174 14.4025C11.802 13.2117 11.1055 12.294 9.91 11.4797C9.25108 11.0326 8.52627 10.3596 8.21564 9.92186C8.09797 9.75713 8.0415 9.63947 8.08385 9.65358C8.28624 9.7336 8.7616 9.79478 8.98751 9.77125C9.82999 9.68653 10.6536 8.67462 10.8748 7.45562L10.9549 7.02733L11.1949 6.91437C11.5102 6.75905 11.6279 6.59432 11.6279 6.30252C11.6279 6.10955 11.5949 6.02954 11.4349 5.79891C10.9878 5.16353 10.9266 4.86701 11.0584 3.87864C11.1525 3.18207 11.1525 3.00322 11.0631 2.54668C10.8748 1.60066 10.2442 0.777016 9.39228 0.353426C8.71924 0.0239677 8.52627 -0.00427246 6.85074 0.000434875C6.06003 0.0051403 5.31169 0.0239677 5.17991 0.0475006ZM8.79455 0.899387C9.11459 1.02646 9.46288 1.24297 9.57583 1.37946C9.66996 1.49241 9.56642 1.6995 9.2652 1.97248C8.96869 2.24546 8.55922 2.39607 8.12151 2.39607C7.59437 2.39607 7.43906 2.51844 7.20844 3.12088C7.03429 3.5633 6.87427 3.8504 6.58246 4.23634L6.41773 4.45754L6.15887 4.33988C5.94237 4.24104 5.85295 4.22222 5.63644 4.24575C5.16108 4.29752 4.72337 4.68817 4.58688 5.18706C4.5257 5.42239 4.55864 5.89775 4.65748 6.13308C4.72337 6.2931 4.72337 6.30252 4.60571 6.39665C4.53511 6.44842 4.45981 6.48607 4.43157 6.47666C4.36567 6.45312 3.83854 5.61536 3.62674 5.19177C3.14197 4.22222 3.14668 2.94203 3.63145 2.01484C3.83383 1.6289 4.27625 1.1959 4.64807 1.01234C5.16108 0.762897 5.28816 0.748777 6.94487 0.762897L8.4745 0.777016L8.79455 0.899387ZM10.2583 2.42902C10.3807 2.78201 10.3995 3.21501 10.3148 3.79863C10.1689 4.82936 10.2395 5.33767 10.616 5.92128C10.7195 6.08131 10.8042 6.22721 10.8042 6.24604C10.7995 6.26486 10.7148 6.32134 10.6066 6.37311C10.3242 6.5096 10.2442 6.6461 10.1642 7.14499C10.0794 7.68154 9.91471 8.10983 9.65114 8.46753C9.39698 8.8064 9.16636 8.98525 8.93574 9.0182C8.82278 9.03232 8.39919 8.96172 7.77793 8.82523C7.23667 8.70757 6.75661 8.60873 6.70483 8.60873C6.55893 8.60873 6.38008 8.81582 6.38008 8.98525C6.38008 9.18764 6.54952 9.34295 6.81779 9.3806C7.02959 9.41355 7.039 9.42296 7.21785 9.75242C7.472 10.2184 7.78734 10.6325 8.21093 11.075L8.56863 11.4468L8.3333 11.4138C7.81558 11.3385 6.75661 10.9244 6.40361 10.6514C5.86707 10.2466 5.10931 10.1525 4.47863 10.4208C4.39391 10.4584 4.39391 10.4349 4.42686 9.94539C4.44098 9.663 4.50216 9.06997 4.54923 8.63226C4.601 8.18985 4.65748 7.69095 4.6716 7.5121C4.68572 7.33796 4.71396 7.19676 4.73279 7.19676C4.75161 7.19676 4.87869 7.12146 5.01518 7.02733L5.26463 6.85789L5.43877 6.95673C5.63644 7.06498 6.09769 7.19676 6.30007 7.19676C6.47892 7.19676 6.66247 7.0085 6.66247 6.82024C6.66247 6.60844 6.49774 6.46725 6.21064 6.42489C5.92825 6.39194 5.59409 6.18956 5.43406 5.96835C5.34464 5.84127 5.32111 5.74714 5.32111 5.53535C5.32111 5.28119 5.33523 5.24825 5.47642 5.12117C5.66468 4.95644 5.7494 4.95173 6.0318 5.10234C6.28124 5.23413 6.45539 5.24825 6.67659 5.15412C7.039 5.00351 7.67909 4.09043 7.90501 3.40327L7.98502 3.16324L8.32389 3.135C8.96398 3.08794 9.57113 2.80554 9.93824 2.38195C10.0371 2.26429 10.1359 2.17957 10.1547 2.18898C10.1689 2.1984 10.2159 2.30665 10.2583 2.42902ZM2.5207 3.99159C2.5207 4.17986 2.63837 4.71641 2.74662 5.03175C2.86899 5.38474 3.03842 5.70949 3.40554 6.32134C3.70676 6.81553 3.71617 6.82965 3.62674 6.90025C3.37259 7.09322 3.11373 7.16852 2.68543 7.16852C2.31832 7.16852 2.2289 7.1544 1.99357 7.03674C1.06167 6.58491 0.736918 5.45533 1.3017 4.61286C1.5135 4.29281 1.89002 4.01042 2.22419 3.921C2.53012 3.84098 2.5207 3.83628 2.5207 3.99159ZM12.1597 15.8992C12.348 15.998 12.4704 16.1675 12.5221 16.4169C12.5504 16.5487 12.5221 16.6381 12.3762 16.9252C12.155 17.3629 11.9668 17.5182 11.6608 17.5229C11.2278 17.5324 10.8984 17.2311 10.8984 16.8311C10.8984 16.6099 10.9454 16.5157 11.2184 16.191C11.5432 15.8098 11.8209 15.725 12.1597 15.8992Z" fill="black"/>
</svg>
