<svg width="24" height="19" viewBox="0 0 24 19" fill="none" xmlns="http://www.w3.org/2000/svg">
<path d="M11.5141 0.0281258C11.3407 0.0515633 11.036 0.13125 10.8344 0.206251C10.3282 0.393751 0.662555 5.02031 0.470367 5.16563C0.235992 5.34375 0.0484921 5.62969 0.0109921 5.86875C-0.0640079 6.38438 0.24068 6.77344 1.05162 7.18125L1.58599 7.45313V9.6375V11.8219L1.36099 11.9672C0.873492 12.2813 0.639117 12.8859 0.789117 13.4297C0.864117 13.7063 1.10318 14.0344 1.32818 14.1703C1.44068 14.2406 1.53912 14.3156 1.53912 14.3391C1.53912 14.3719 0.400055 18.0234 0.33443 18.1922C0.31568 18.2484 0.601617 18.2578 2.05474 18.2578C3.61099 18.2578 3.7938 18.2484 3.77037 18.1875C3.69537 17.9906 2.57037 14.3813 2.57037 14.3344C2.57037 14.3063 2.6313 14.2594 2.7063 14.2313C3.1563 14.0391 3.47505 13.2938 3.32505 12.75C3.24537 12.4406 3.01568 12.1266 2.75787 11.9672L2.52349 11.8219V9.88594C2.52349 8.81719 2.53755 7.94531 2.5563 7.94531C2.57505 7.94531 2.90318 8.09531 3.28287 8.28281L3.97662 8.61563V11.5266C3.97662 14.4094 3.97662 14.4375 4.07505 14.6016C4.22974 14.8547 5.26568 15.8578 5.73443 16.2047C7.14068 17.25 8.77193 17.9109 10.5391 18.15C11.2516 18.2438 12.686 18.2438 13.3985 18.15C15.1891 17.9063 16.7735 17.2641 18.2032 16.2094C18.7141 15.8297 19.7688 14.7844 19.8813 14.5453C19.9516 14.3906 19.961 14.1281 19.961 11.5125V8.64375L21.6719 7.80469C22.6141 7.34531 23.4672 6.9 23.5704 6.82031C23.8329 6.61406 24.011 6.225 23.9782 5.95313C23.936 5.6625 23.7954 5.40938 23.5751 5.22188C23.2938 4.97813 13.5391 0.229689 13.0938 0.117189C12.6719 0.00937653 11.9407 -0.0328121 11.5141 0.0281258ZM12.9251 0.984377C13.0657 1.02656 15.0157 1.95938 17.261 3.05625C19.5063 4.15313 21.7282 5.24063 22.1922 5.46563C22.661 5.69531 23.0594 5.91563 23.0735 5.95781C23.0922 6.00469 23.0688 6.075 23.0219 6.13125C22.9376 6.225 19.6329 7.875 19.4172 7.92656C19.3563 7.94063 19.286 7.98281 19.2579 8.01563C19.2297 8.04844 17.8141 8.75156 16.1032 9.57656C13.8016 10.6922 12.9297 11.0906 12.7235 11.1281C12.3297 11.1984 11.7391 11.1891 11.3876 11.1094C11.1907 11.0625 9.94849 10.4906 7.80162 9.45938C5.99224 8.59219 4.31412 7.79063 4.07037 7.67344C3.82662 7.55625 3.64849 7.45313 3.67193 7.44844C3.70005 7.43906 5.60787 7.20938 7.91412 6.9375C12.4282 6.40781 12.2876 6.43125 12.386 6.14531C12.4469 5.98594 12.3813 5.80313 12.2172 5.68125L12.0907 5.5875L7.22505 6.15938C4.54849 6.47344 2.30787 6.73125 2.24224 6.73594C2.08287 6.74531 0.95318 6.19219 0.910992 6.08438C0.887555 6.02344 0.910992 5.97656 0.99068 5.91563C1.10787 5.82656 10.4407 1.32188 10.9376 1.11563C11.3876 0.928125 11.7344 0.867189 12.2266 0.890627C12.4704 0.900002 12.7844 0.946877 12.9251 0.984377ZM7.71255 10.3641C9.25474 11.1 10.6141 11.7422 10.736 11.7891C10.8532 11.8406 11.1297 11.9156 11.3407 11.9578C11.8376 12.0563 12.7188 12.0234 13.1407 11.8922C13.2954 11.8453 14.6782 11.1891 16.2157 10.4391C17.7485 9.68438 19.0188 9.07031 19.0376 9.07031C19.0563 9.07031 19.0704 10.2281 19.0704 11.6438V14.2172L18.7376 14.5734C17.7063 15.675 16.2157 16.5703 14.6688 17.0156C13.0469 17.4797 11.0969 17.5031 9.50787 17.0766C8.57037 16.8281 7.47349 16.3359 6.71412 15.8297C6.1938 15.4781 5.38287 14.7891 5.09224 14.4469L4.86724 14.1844V11.6063C4.86724 10.1859 4.87662 9.02344 4.89068 9.02344C4.90005 9.02344 6.17037 9.62813 7.71255 10.3641Z" fill="black"/>
</svg>
