<svg width="17" height="27" viewBox="0 0 17 27" fill="none" xmlns="http://www.w3.org/2000/svg">
<path fill-rule="evenodd" clip-rule="evenodd" d="M13.0955 9.33887C11.7824 9.33887 9.95457 10.1381 8.86125 10.202C7.76144 10.1379 5.94553 9.33887 4.62723 9.33887C2.28014 9.33887 1.05127 10.9681 1.05127 13.3094C1.05127 14.9295 2.15346 16.1907 2.71409 17.6356C3.36999 19.327 2.9787 21.207 3.56618 22.9201C3.89424 23.8764 4.32299 24.8607 4.9843 25.6368C5.81192 26.6087 7.47626 27.0119 7.52758 25.333C7.56937 23.9675 7.38618 22.5056 7.68717 21.1603C7.94572 20.0044 9.77008 19.9734 10.0356 21.1603C10.3365 22.5056 10.1536 23.9675 10.1954 25.333C10.2465 27.0119 11.9106 26.6087 12.7386 25.6368C13.3997 24.8607 13.8285 23.8764 14.1565 22.9201C14.744 21.207 14.3527 19.327 15.0089 17.6356C15.5693 16.1907 16.6715 14.9295 16.6715 13.3094C16.6715 10.9681 15.4426 9.33887 13.0955 9.33887Z" fill="#D1D9E5"/>
<path fill-rule="evenodd" clip-rule="evenodd" d="M12.5331 25.463C13.2334 24.6415 13.6494 23.5687 13.9017 22.8336C14.1736 22.0402 14.2262 21.2167 14.2821 20.3447C14.4211 18.1736 14.6043 17.6907 15.4456 16.1158C15.9374 15.1958 16.4021 14.3266 16.4021 13.3097C16.4021 10.9918 15.1658 9.60791 13.0955 9.60791C12.9556 9.60791 12.8081 9.61917 12.6565 9.63649C11.6992 9.60791 10.9134 10.1441 10.2726 10.1963C9.75944 10.3333 9.2759 10.4472 8.87703 10.4706C8.1213 10.5176 5.90782 9.60791 4.6272 9.60791C4.57545 9.60791 4.52478 9.60964 4.47432 9.61116C3.10708 10.1668 2.39856 11.5325 2.39856 13.3097C2.39856 14.9298 3.50075 16.191 4.06116 17.636C4.7175 19.3274 4.32599 21.2074 4.91325 22.9204C5.24153 23.8767 5.67028 24.8611 6.33159 25.6371C6.49552 25.8299 6.69213 25.999 6.90261 26.1354C7.68909 25.6995 7.51434 22.7645 7.68714 21.1606C7.80602 20.0571 8.22806 19.9534 9.4002 20.1032C10.8792 20.2918 11.6566 25.5897 11.7265 26.07C12.0327 25.9293 12.33 25.7017 12.5331 25.463Z" fill="white"/>
<path fill-rule="evenodd" clip-rule="evenodd" d="M12.3056 10.908C12.8175 10.5496 13.0962 9.92753 13.0654 9.321C12.1568 9.23308 9.74869 10.0263 8.89248 10.1454C8.7866 10.1601 8.67789 10.2045 8.5811 10.2337C8.59582 10.1969 8.55728 10.4899 8.5811 10.4533C8.5811 10.4533 11.0572 11.7824 12.3056 10.908Z" fill="#D1D9E5"/>
<path fill-rule="evenodd" clip-rule="evenodd" d="M8.99878 19.7572C9.72246 19.7572 10.3086 20.2045 10.4578 20.8704C10.6687 21.813 10.6477 22.8004 10.6278 23.7552C10.6183 24.1989 10.6096 24.6179 10.6222 25.0341C10.6471 25.8517 11.0921 25.8517 11.238 25.8517C11.6575 25.8517 12.2012 25.5574 12.5604 25.136C13.2428 24.3348 13.6494 23.2864 13.8961 22.5674C14.1611 21.7944 14.2129 20.988 14.2674 20.1342C14.3261 19.2149 14.387 18.2643 14.7384 17.3585C14.9277 16.8705 15.1769 16.4042 15.4181 15.953C15.8982 15.0545 16.3519 14.2055 16.3519 13.2191C16.3519 10.974 15.1568 9.63344 13.1548 9.63344C12.4851 9.63344 11.651 9.86405 10.8446 10.0871C10.1659 10.2744 9.52497 10.4517 9.00982 10.4816C8.99704 10.4823 8.9847 10.4823 8.97258 10.4816C8.45396 10.4515 7.81321 10.274 7.13501 10.0864C6.33099 9.86384 5.49947 9.63344 4.82733 9.63344C2.82541 9.63344 1.63032 10.974 1.63032 13.2191C1.63032 14.2055 2.08397 15.0545 2.56426 15.953C2.80527 16.4042 3.05429 16.8705 3.24377 17.3585C3.59521 18.2643 3.65606 19.2149 3.71474 20.1342C3.76931 20.988 3.82085 21.7944 4.08633 22.5674C4.33275 23.2864 4.73941 24.3348 5.42195 25.136C5.78098 25.5574 6.32471 25.8517 6.74415 25.8517C6.89032 25.8517 7.33509 25.8517 7.35978 25.0341C7.37255 24.6176 7.36368 24.1986 7.35436 23.7547C7.33444 22.8002 7.31365 21.813 7.52456 20.8706C7.67354 20.2048 8.26578 19.7572 8.99878 19.7572ZM11.238 26.4898C10.4799 26.4898 10.0109 25.9525 9.98317 25.0534C9.96996 24.6208 9.97949 24.1736 9.98858 23.7414C10.0079 22.8248 10.028 21.8766 9.83397 21.0093C9.73242 20.5557 9.32056 20.3948 8.99878 20.3948C8.66985 20.3948 8.24998 20.5557 8.14842 21.0095C7.9544 21.8766 7.97432 22.8246 7.99359 23.7412C8.00269 24.1736 8.012 24.6206 7.99879 25.0534C7.97129 25.9525 7.50226 26.4898 6.74415 26.4898C6.13177 26.4898 5.42173 26.1203 4.93495 25.5487C4.18182 24.665 3.74462 23.5418 3.48131 22.7739C3.18855 21.9199 3.13181 21.0327 3.07681 20.1748C3.01856 19.2636 2.96356 18.4028 2.64763 17.5886C2.47201 17.1363 2.2323 16.6872 2.00017 16.2528C1.50407 15.3247 0.991089 14.365 0.991089 13.219C0.991089 10.6141 2.46097 8.99585 4.82733 8.99585C5.58652 8.99585 6.46048 9.23794 7.30607 9.47181C7.94162 9.64785 8.54252 9.81416 8.9912 9.84382C9.43662 9.81437 10.0377 9.64807 10.6737 9.47246C11.5215 9.23816 12.398 8.99585 13.1548 8.99585C15.5212 8.99585 16.9911 10.6141 16.9911 13.219C16.9911 14.365 16.4781 15.3247 15.982 16.2528C15.7499 16.6872 15.5099 17.1363 15.3345 17.5886C15.0186 18.4028 14.9636 19.2636 14.9054 20.1748C14.8504 21.0327 14.7936 21.9199 14.5009 22.7739C14.2373 23.5416 13.8001 24.665 13.0474 25.5487C12.5607 26.1201 11.8504 26.4898 11.238 26.4898Z" fill="black"/>
<path fill-rule="evenodd" clip-rule="evenodd" d="M3.08721 14.4407C2.95771 14.4407 2.8358 14.3615 2.78773 14.2333C2.64849 13.8613 2.58093 13.5295 2.58093 13.219C2.58093 12.0157 2.97071 10.5815 4.82733 10.5815C5.00381 10.5815 5.14694 10.7242 5.14694 10.9003C5.14694 11.0763 5.00381 11.2193 4.82733 11.2193C4.34639 11.2193 3.22016 11.2193 3.22016 13.219C3.22016 13.452 3.27473 13.7108 3.38668 14.01C3.4484 14.1753 3.36459 14.3589 3.19916 14.4204C3.16213 14.434 3.12445 14.4407 3.08721 14.4407Z" fill="black"/>
<path fill-rule="evenodd" clip-rule="evenodd" d="M11.1255 11.5831C10.2433 11.5831 9.44014 11.1541 8.7039 10.7609C8.25219 10.5197 7.82539 10.2916 7.38819 10.1509C7.22016 10.0965 7.12813 9.9168 7.18226 9.74942C7.23662 9.58181 7.41743 9.49022 7.58481 9.54392C8.07658 9.70264 8.54885 9.95491 9.00576 10.1987C10.0361 10.7492 11.0096 11.2691 12.114 10.692C12.2701 10.6106 12.4635 10.6704 12.5453 10.8267C12.6272 10.9826 12.567 11.1753 12.4104 11.257C11.9641 11.49 11.5363 11.5831 11.1255 11.5831Z" fill="black"/>
<path fill-rule="evenodd" clip-rule="evenodd" d="M5.4781 3.34671C5.69247 4.36878 5.89299 5.7488 5.9573 6.42289C5.95839 6.43285 5.95882 6.44281 5.95882 6.45277C6.01685 6.65654 7.08613 7.02422 9.00923 7.02422C10.9321 7.02422 12.0016 6.65654 12.0599 6.45082C12.0599 6.44064 12.0601 6.43285 12.0609 6.42289C12.1259 5.74122 12.3303 4.3376 12.5475 3.31228C12.541 3.31704 12.5345 3.32202 12.5282 3.32678C12.0319 3.70486 11.6733 3.97792 10.6935 4.91988C10.6119 4.99826 10.4947 5.02728 10.3856 4.9974C10.2766 4.96687 10.1918 4.88112 10.1627 4.77176C9.91546 3.83869 9.57462 2.96754 9.24504 2.12498C9.14868 1.87856 9.05471 1.63863 8.96657 1.40498C8.65519 2.09185 8.17295 3.25121 7.6918 4.7854C7.65867 4.89108 7.57335 4.97185 7.46594 4.99913C7.35876 5.02685 7.24486 4.99653 7.16495 4.91988C6.20697 3.99893 5.8997 3.70357 5.4781 3.34671ZM9.00923 7.66203C8.14805 7.66203 5.34904 7.57585 5.31981 6.47062C5.22908 5.53127 4.88434 3.31389 4.62471 2.58696C4.57664 2.45227 4.62449 2.30199 4.74164 2.21971C4.85858 2.1372 5.01643 2.1424 5.12774 2.2327C6.07943 3.00575 6.16952 3.07894 7.23923 4.10578C7.90617 2.08177 8.53176 0.806342 8.7182 0.444286L8.71842 0.444502C8.76909 0.3332 8.88039 0.259143 9.00555 0.257844C9.14782 0.255895 9.26908 0.344893 9.31261 0.47655C9.45899 0.918078 9.64457 1.39165 9.84075 1.89316C10.1038 2.56639 10.396 3.31345 10.6344 4.09582C11.3663 3.40982 11.7147 3.14434 12.1402 2.82017C12.347 2.66253 12.5815 2.48389 12.8907 2.2327C13.002 2.1424 13.1597 2.1372 13.2768 2.21971C13.3938 2.30199 13.4416 2.45227 13.3935 2.58696C13.1341 3.31389 12.7892 5.53127 12.6987 6.47062C12.6692 7.57585 9.8702 7.66203 9.00923 7.66203Z" fill="black"/>
</svg>
