<svg width="24" height="24" viewBox="0 0 24 24" fill="none" xmlns="http://www.w3.org/2000/svg">
<rect x="0.716553" y="0.489746" width="1.21053" height="18.1579" fill="#D1D9E5"/>
<path d="M13.795 7.25445L12.893 6.35249H9.28517V0.489746H0.716553V18.078H7.93223" stroke="black" stroke-width="0.6" stroke-linecap="round" stroke-linejoin="round"/>
<path fill-rule="evenodd" clip-rule="evenodd" d="M7.10706 8.01611C6.70278 8.01611 6.14068 8.26222 5.80431 8.28152C5.46598 8.26222 4.9071 8.01611 4.50156 8.01611C3.7795 8.01611 3.40149 8.51727 3.40149 9.23754C3.40149 9.73637 3.74054 10.1242 3.91301 10.5685C4.11515 11.089 3.99451 11.6673 4.17538 12.1944C4.27618 12.4888 4.40809 12.7914 4.61148 13.0305C4.86635 13.3293 5.37822 13.4532 5.39413 12.9369C5.40682 12.5168 5.3507 12.067 5.4431 11.6531C5.52263 11.2972 6.08402 11.2877 6.16552 11.6531C6.25828 12.067 6.20198 12.5168 6.21485 12.9369C6.23058 13.4532 6.74263 13.3293 6.99714 13.0305C7.20053 12.7914 7.33261 12.4888 7.4336 12.1944C7.61429 11.6673 7.49383 11.089 7.69561 10.5685C7.86808 10.1242 8.20713 9.73637 8.20713 9.23754C8.20713 8.51727 7.82894 8.01611 7.10706 8.01611Z" fill="white"/>
<path fill-rule="evenodd" clip-rule="evenodd" d="M6.4975 13.0259C6.49965 13.0259 6.50286 13.0261 6.50751 13.0261C6.57954 13.0261 6.70733 12.9639 6.79598 12.8597C6.99151 12.6297 7.1109 12.321 7.18382 12.1088C7.2596 11.8878 7.27515 11.6459 7.29141 11.3902C7.31054 11.0903 7.33037 10.7802 7.44941 10.4733C7.51232 10.3114 7.59257 10.1612 7.66996 10.0163C7.81062 9.75321 7.94341 9.50513 7.94341 9.23722C7.94341 8.8794 7.83475 8.27888 7.10696 8.27888C6.91966 8.27888 6.66997 8.34805 6.42798 8.41489C6.20707 8.47602 5.99814 8.53357 5.81923 8.54411C5.8094 8.54447 5.79921 8.54447 5.78885 8.54411C5.60922 8.53357 5.40029 8.47602 5.17938 8.41453C4.93846 8.34805 4.68931 8.27888 4.50147 8.27888C3.77386 8.27888 3.66502 8.8794 3.66502 9.23722C3.66502 9.50513 3.79781 9.75339 3.93829 10.0163C4.01604 10.1612 4.09611 10.3114 4.1592 10.4731C4.27823 10.78 4.29789 11.0901 4.3172 11.39C4.3331 11.6458 4.34883 11.8876 4.42479 12.1088C4.54025 12.4461 4.66357 12.6847 4.81281 12.8599C4.9011 12.9639 5.02907 13.0261 5.1011 13.0261C5.10878 13.0261 5.11343 13.0254 5.1154 13.0248C5.11433 13.0223 5.12827 12.9957 5.13023 12.9283C5.13416 12.8023 5.1313 12.6731 5.12862 12.5364C5.12219 12.2282 5.1154 11.9096 5.18546 11.5955C5.24909 11.3106 5.49877 11.1192 5.80672 11.1192C6.11181 11.1192 6.35935 11.3106 6.42315 11.5957C6.49321 11.9096 6.48642 12.2281 6.47999 12.5364C6.47731 12.6731 6.47445 12.8023 6.4782 12.9283C6.47999 12.9893 6.4916 13.0168 6.49643 13.0259C6.49679 13.0259 6.49714 13.0259 6.4975 13.0259ZM6.50749 13.5525C6.25924 13.5525 5.96452 13.3932 5.95111 12.9448C5.94664 12.8049 5.94968 12.6629 5.95254 12.5255C5.95862 12.2358 5.96434 11.9623 5.90804 11.7103C5.89553 11.654 5.83905 11.6456 5.8067 11.6456C5.79133 11.6456 5.71412 11.6488 5.70053 11.71C5.64424 11.9623 5.65013 12.236 5.65603 12.5255C5.65889 12.6629 5.66175 12.805 5.65764 12.945C5.6437 13.3932 5.34916 13.5525 5.10108 13.5525C4.86373 13.5525 4.5926 13.4145 4.41048 13.2007C4.1565 12.9021 4.01227 12.5319 3.92559 12.2792C3.82657 11.9918 3.80834 11.7028 3.79047 11.4238C3.77331 11.1514 3.75669 10.8946 3.66714 10.6633C3.61585 10.5314 3.54632 10.4017 3.47287 10.2644C3.31559 9.97041 3.13757 9.63726 3.13757 9.23745C3.13757 8.33576 3.67286 7.75293 4.50145 7.75293C4.76114 7.75293 5.0455 7.83157 5.32056 7.90789C5.50554 7.959 5.68087 8.00762 5.8042 8.01763C5.92645 8.00762 6.10196 7.959 6.2873 7.90789C6.5629 7.83175 6.84797 7.75293 7.10695 7.75293C7.93571 7.75293 8.471 8.33576 8.471 9.23745C8.471 9.63708 8.29281 9.97005 8.13571 10.2642C8.06243 10.4015 7.99272 10.5314 7.94161 10.6633C7.85206 10.8946 7.83526 11.1518 7.81793 11.4238C7.80023 11.703 7.78165 11.9918 7.68317 12.2794C7.5963 12.5321 7.45189 12.9024 7.19828 13.2006C7.01615 13.4145 6.74502 13.5525 6.50749 13.5525Z" fill="black"/>
<path fill-rule="evenodd" clip-rule="evenodd" d="M6.58855 9.19463C6.23467 9.19463 5.93101 8.93815 5.69348 8.73744C5.54103 8.6084 5.38321 8.47525 5.25256 8.43271C5.11404 8.38821 5.03773 8.23968 5.08277 8.10153C5.12745 7.96355 5.27526 7.88777 5.41484 7.93209C5.64469 8.00626 5.84308 8.17373 6.03467 8.33584C6.35781 8.60894 6.52939 8.72743 6.70562 8.63539C6.83484 8.56819 6.99391 8.61787 7.06165 8.74691C7.1292 8.8756 7.07934 9.03467 6.95012 9.10223C6.82465 9.16746 6.70383 9.19463 6.58855 9.19463Z" fill="black"/>
<path d="M10.4007 16.2268L17.0586 9.56892L15.8481 8.3584L9.19019 15.0163V23.49H10.4007V16.2268Z" fill="#D1D9E5"/>
<path d="M23.2655 23.4895V15.3719L16.0499 8.60718L9.28516 15.3719V23.4895H14.2459V19.4307H18.7557V23.4895H23.2655Z" stroke="black" stroke-width="0.6" stroke-linejoin="round"/>
</svg>
