<svg width="38" height="31" viewBox="0 0 38 31" fill="none" xmlns="http://www.w3.org/2000/svg">
<path d="M1 4.99997V5.99997L0.5 7.49994V23.4999C0.5 25.9999 0.5 26.4999 1.5 26.9999C2.5 27.4999 3.5 26.4999 6 25.4999C8 24.6999 12.8333 25.1666 15 25.4999C18.1667 26.1666 24.9 27.5999 26.5 27.9999C28.1 28.3999 31.8333 27.4999 33.5 26.9999L34.5 25.4999V4.99997C34.5 3.99997 32.5 4.49994 31 4.99997C29.5 5.5 24.5 5.49994 22.5 4.99997L12.5 2.49997C7.7 1.29997 2.83333 3.66663 1 4.99997Z" fill="#C998E9"/>
<path d="M4 2.99997V3.99997L3.5 5.49994V21.4999C3.5 23.9999 3.5 24.4999 4.5 24.9999C5.5 25.4999 6.5 24.4999 9 23.4999C11 22.6999 15.8333 23.1666 18 23.4999C21.1667 24.1666 27.9 25.5999 29.5 25.9999C31.1 26.3999 34.8333 25.4999 36.5 24.9999L37.5 23.4999V2.99997C37.5 1.99997 35.5 2.49994 34 2.99997C32.5 3.5 27.5 3.49994 25.5 2.99997L15.5 0.499968C10.7 -0.700032 5.83333 1.66663 4 2.99997Z" fill="white"/>
<path d="M10.9717 2.8139C10.7119 3.08051 10.7051 3.31976 10.958 3.57953C11.1289 3.74359 11.2246 3.77777 11.6963 3.81879C13.5283 3.96918 14.6562 4.19476 18.4844 5.15179C22.8115 6.23871 24.1719 6.45746 26.5918 6.46429C28.5947 6.46429 30.208 6.24554 32.0605 5.72601C33.3184 5.37054 33.3457 5.37054 33.5986 5.61664L33.8037 5.82172V15.5219C33.8037 24.8256 33.7969 25.2289 33.6738 25.4955C33.4961 25.8784 33.2773 26.0151 32.3682 26.3022C30.5703 26.8627 29.1348 27.0952 27.1318 27.143C24.5 27.2114 23.1055 26.9995 18.7715 25.8989C14.3213 24.7641 13.248 24.5795 10.7324 24.518C9.46094 24.4907 8.87988 24.5043 8.1416 24.5932C6.32324 24.8051 4.41602 25.27 2.66602 25.9399C1.69531 26.309 1.50391 26.3227 1.26465 26.0219C1.12793 25.8442 1.12793 25.7963 1.1416 16.2329L1.16211 6.62152L1.3125 6.34125C1.57227 5.8559 1.9209 5.6098 2.87793 5.23383C4.25195 4.70062 5.57812 4.31781 6.83594 4.09222C7.63574 3.94867 7.66992 3.935 7.82715 3.7641C8.02539 3.55902 8.00488 3.20355 7.78613 2.9848C7.62207 2.82074 7.58105 2.8139 7.19824 2.85492C5.85156 2.99164 2.81641 3.90082 1.53125 4.5434C0.991211 4.81 0.540039 5.29535 0.246094 5.90375L0 6.41644V16.2944V26.1723L0.150391 26.4457C0.478516 27.061 1.01172 27.3891 1.6748 27.3959C2.05762 27.4028 2.2627 27.3481 3.14453 27.0131C5.80371 26.0151 8.09375 25.6118 10.7666 25.6801C13.0498 25.7416 14.2529 25.9467 18.4023 26.9995C22.2031 27.9633 23.4746 28.2026 25.5391 28.3256C27.9453 28.4692 30.5293 28.1205 32.9971 27.3276C33.8311 27.061 34.207 26.8149 34.542 26.3159C34.9932 25.6391 34.9727 26.2954 34.9521 15.3989L34.9316 5.52777L34.7266 5.16547C34.4258 4.61176 33.8379 4.26312 33.2227 4.26312C33.0654 4.26312 32.6826 4.33832 32.3613 4.44086C29.0527 5.4389 25.7578 5.57562 22.1895 4.84418C21.3008 4.66644 20.6104 4.49554 17.8691 3.79144C15.1006 3.08734 13.5898 2.80023 11.7441 2.64984C11.1836 2.60883 11.1836 2.60883 10.9717 2.8139Z" fill="black"/>
<path d="M8.75 5.91064C6.87012 6.10205 3.63672 6.94287 3.19922 7.35302L3.04199 7.49658V15.4194V23.3423L3.21289 23.5063C3.30176 23.6021 3.44531 23.6772 3.52734 23.6772C3.60938 23.6772 4.09473 23.5405 4.60742 23.3765C6.33691 22.8228 7.96387 22.4878 9.30371 22.4126C9.71387 22.3853 10.1172 22.3579 10.1992 22.3374C10.6162 22.2554 10.7734 21.6948 10.459 21.3872C10.3154 21.2368 10.2334 21.2163 9.7959 21.2163C8.63379 21.2163 6.69238 21.5444 5.07227 22.0093C4.62793 22.1392 4.24512 22.2417 4.23145 22.2417C4.21777 22.2417 4.21094 19.0698 4.21777 15.187L4.23828 8.13232L5.03809 7.87255C7.02051 7.24365 8.34668 7.04541 10.5889 7.03173L12.3594 7.01806L12.5234 6.83349C12.8516 6.45068 12.6123 5.99267 12.0244 5.89697C11.6006 5.82861 9.47461 5.83544 8.75 5.91064Z" fill="black"/>
<path d="M31.1309 7.84498C31.1172 7.86549 30.748 7.96803 30.3174 8.0774C29.2646 8.35084 28.0137 8.55592 26.9336 8.63111C26.0996 8.6858 26.0449 8.69947 25.8945 8.87037C25.6895 9.11646 25.6895 9.41724 25.9082 9.62916C26.0586 9.77955 26.127 9.80006 26.626 9.80006C26.9268 9.80006 27.4736 9.76588 27.8428 9.72486C28.4717 9.6565 30.3652 9.30787 30.6113 9.21217C30.7207 9.17115 30.7275 9.62916 30.7275 16.2463V23.3284L30.3721 23.4241C29.5449 23.6565 28.5879 23.8342 27.5557 23.9436C26.8311 24.0256 26.626 24.1624 26.626 24.5657C26.626 24.9553 26.8584 25.1331 27.3506 25.1194C28.1572 25.1057 30.0029 24.7639 31.124 24.4358C31.9853 24.176 31.8896 25.1877 31.8896 16.096C31.8828 9.99146 31.8691 8.16627 31.8008 8.08424C31.6504 7.88599 31.2402 7.74244 31.1309 7.84498Z" fill="black"/>
<path d="M14.6563 9.95728C14.3965 10.1555 14.3897 10.2307 14.3897 14.4075V18.4817H13.9111C13.4873 18.4817 13.4053 18.5022 13.2617 18.6526C13.043 18.8645 13.043 19.1653 13.2549 19.4182C13.3984 19.5823 13.4736 19.6096 13.9043 19.6301L14.3897 19.6575V20.4641C14.3897 21.3938 14.4375 21.5784 14.7314 21.7288C14.9707 21.8518 15.169 21.8176 15.4014 21.6057C15.5449 21.4758 15.5518 21.4143 15.5518 20.5598V19.6506L16.9941 19.6301L18.4365 19.6096L18.6006 19.4182C18.7988 19.1858 18.8125 18.8987 18.6348 18.6799C18.5049 18.5159 18.4775 18.5159 17.042 18.4817L15.5859 18.4475L15.5654 17.5725L15.5449 16.7044H17.1856C18.9834 16.7044 19.3252 16.6633 19.9951 16.342C20.5352 16.0891 21.2598 15.3919 21.5264 14.8792C22.5176 12.9104 21.5127 10.5999 19.3867 9.97779C19.0791 9.88892 18.6348 9.86841 16.8916 9.86841C15.3262 9.87525 14.7383 9.89576 14.6563 9.95728ZM19.4824 11.2493C20.2412 11.6458 20.7471 12.4592 20.7471 13.2864C20.7471 14.1204 20.2276 14.9407 19.4619 15.3167L19.0723 15.5081L17.3154 15.5286L15.5518 15.5491V13.2864V11.0237L17.3496 11.0442C19.1338 11.0647 19.1406 11.0647 19.4824 11.2493Z" fill="black"/>
<path d="M8.61329 13.6011C8.50391 13.6147 8.11426 13.6626 7.75879 13.7036C6.87012 13.8062 6.67188 13.9292 6.66504 14.3667C6.66504 14.6333 6.91797 14.9272 7.15039 14.9272C7.50586 14.9272 9.37891 14.7017 9.54297 14.6401C9.90528 14.5103 9.97364 14.0591 9.67969 13.7583C9.47461 13.5532 9.27637 13.5259 8.61329 13.6011Z" fill="black"/>
<path d="M25.2588 16.4038C25.0127 16.6158 24.9785 16.9439 25.1836 17.19C25.2861 17.3199 25.4023 17.3609 25.8467 17.4019C26.1475 17.4292 26.7217 17.4292 27.1318 17.4087C27.7607 17.3745 27.8975 17.3472 28.0478 17.2173C28.3008 16.9986 28.2939 16.6089 28.041 16.3902C27.8564 16.2329 27.8154 16.2329 26.6602 16.2329C25.4844 16.2329 25.4707 16.2329 25.2588 16.4038Z" fill="black"/>
<path d="M23.9258 24.1079C23.5088 24.4634 23.7754 25.1128 24.3359 25.1128C24.6504 25.1128 24.9443 24.771 24.8896 24.4702C24.8281 24.1899 24.6504 24.0259 24.3633 23.978C24.1719 23.9438 24.083 23.9712 23.9258 24.1079Z" fill="black"/>
<path d="M8.53808 27.1888C7.69726 27.2709 6.71972 27.4281 5.77637 27.64C4.14941 28.0092 1.89355 28.7885 1.70898 29.0551C1.5791 29.2396 1.5791 29.5746 1.70898 29.766C1.90723 30.0463 2.13965 30.0258 3.12402 29.6566C6.07715 28.5492 9.03027 28.1117 11.8945 28.351C13.6103 28.4945 15.1416 28.809 18.9014 29.7728C22.0049 30.5658 23.1943 30.7914 25.1562 30.9555C26.6328 31.0785 29.2168 30.9349 30.1943 30.6683C30.8369 30.4974 30.748 29.5609 30.0918 29.5541C29.9756 29.5541 29.4766 29.6088 28.9844 29.684C28.3281 29.7797 27.7197 29.807 26.626 29.807C24.3564 29.807 22.8935 29.5814 19.3457 28.6859C15.4287 27.6947 14.5605 27.5101 12.8721 27.2846C11.9287 27.1615 9.38574 27.1068 8.53808 27.1888Z" fill="#8CF0D2"/>
<path d="M32.8125 29.8296C32.2314 30.062 32.4228 30.9233 33.0518 30.9233C33.6328 30.9233 33.9678 30.2739 33.5781 29.9116C33.4141 29.7544 33.0791 29.7202 32.8125 29.8296Z" fill="#8CF0D2"/>
</svg>
