<svg width="48" height="34" viewBox="0 0 48 34" fill="none" xmlns="http://www.w3.org/2000/svg">
<path d="M12.6875 17L6.6875 16L5.6875 23C5.1875 22.6667 3.8875 22.1 2.6875 22.5C1.1875 23 0.6875 24.5 1.1875 25.5C2.3875 28.3 4.6875 27.1667 5.6875 26.25L6.6875 33.5L12.6875 32.5C10.6875 30.5 12.6875 28 13.6875 28C14.6875 28 16.1875 28 16.6875 29.5C17.0875 30.7 16.1875 32 15.6875 32.5L21.6875 33.5C22.0208 31.1667 22.6875 26.45 22.6875 26.25C24.1875 27.5 26.1875 27.5 27.1875 25.5C28.1875 23.5 26.1875 22 24.6875 22C23.4875 22 22.8542 22.6667 22.6875 23L21.6875 16C18.4875 16 16.3542 16.6667 15.6875 17C16.6875 18.5 17.1875 19 16.6875 20C15.6875 22 13.1875 21.5 12.6875 21C11.0875 19 12.0208 17.5 12.6875 17Z" fill="#E0AFFF" stroke="black" stroke-width="0.9" stroke-linejoin="round"/>
<path d="M41 7.5L38 1L32.5 5.5C32.3333 5.33333 32 4.9 32 4.5C32 4 32.38 2.66 31.5 2C29.27 0.3275 28 2 27.5 2.5C27 3 27 5 28 5.5C28.8 5.9 29.3333 6.66667 29.5 7C28.3 7 24.6667 9 23 10C23 10.8 26 14 27.5 15.5C28.5 13 30 13 31 13.5C32 14 33 15 32.5 17C32.1 18.6 30 18.6667 29 18.5C29.8333 20.6667 31.6 25 32 25C32.4 25 36.1667 22 38 20.5C38.1667 20.8333 38.5 21.7 38.5 22.5C38.5 23.5 39.5 24.5 41 24.5C42.5 24.5 43 23.5 43 22C43 20.5 41.5 20 41 19.5C40.5 19 40.5 18.5 41 18.5C42.6 18.1 45.6667 16.6667 47 16C47.4 15.6 44.1667 11.8333 42.5 10C42.5 12.5 40.5 12.5 40 12.5C39.5 12.5 37.5 12 37.5 9.5C37.5 7.5 39.8333 7.33333 41 7.5Z" fill="#6CD6B5" stroke="black" stroke-width="0.9" stroke-linejoin="round"/>
</svg>
