<svg width="35" height="40" viewBox="0 0 35 40" fill="none" xmlns="http://www.w3.org/2000/svg">
<path fill-rule="evenodd" clip-rule="evenodd" d="M28.5167 11.7173C26.3785 11.7173 23.3975 13.0084 21.6177 13.1109C19.8254 13.0078 16.8664 11.7173 14.7156 11.7173C10.8919 11.7173 8.88889 14.3484 8.88889 18.129C8.88889 20.7446 10.6844 22.7809 11.5994 25.1143C12.6686 27.8451 12.0302 30.8807 12.9861 33.6471C13.5207 35.1909 14.2219 36.7799 15.2973 38.0355C16.6463 39.6026 19.36 40.2538 19.4418 37.5432C19.5109 35.3373 19.2122 32.9778 19.7027 30.8056C20.1241 28.9393 23.0988 28.8892 23.5296 30.8053C24.0201 32.9778 23.7214 35.3373 23.7906 37.5432C23.8755 40.2538 26.586 39.6026 27.935 38.0355C29.0135 36.7799 29.7116 35.1909 30.2462 33.6471C31.2021 30.8807 30.5669 27.8451 31.636 25.1143C32.5479 22.7809 34.3434 20.7446 34.3434 18.129C34.3434 14.3484 32.3435 11.7173 28.5167 11.7173Z" fill="#D1D9E5"/>
<path fill-rule="evenodd" clip-rule="evenodd" d="M27.6332 37.895C28.7749 36.5619 29.4511 34.8166 29.8631 33.6212C30.3066 32.3313 30.3915 30.9926 30.4828 29.5757C30.7092 26.0459 31.008 25.2611 32.3793 22.7008C33.1814 21.2049 33.9394 19.7915 33.9394 18.139C33.9394 14.3705 31.9233 12.1211 28.5484 12.1211C28.322 12.1211 28.0798 12.1387 27.8344 12.1669C26.2744 12.1211 24.9911 12.9928 23.9469 13.0772C23.1103 13.3002 22.324 13.4856 21.6729 13.5232C20.4399 13.5995 16.8323 12.1211 14.7439 12.1211C14.6621 12.1211 14.5772 12.1236 14.4954 12.1261C12.2686 13.0292 11.1111 15.25 11.1111 18.139C11.1111 20.7723 12.9102 22.8225 13.8223 25.1717C14.8917 27.921 14.2532 30.9772 15.2125 33.7623C15.7472 35.3166 16.4455 36.9164 17.5243 38.1805C17.7916 38.491 18.1125 38.7671 18.4553 38.9898C19.7354 38.2809 19.4523 33.5089 19.7323 30.9016C19.9273 29.1074 20.6129 28.9389 22.5253 29.1826C24.9377 29.4891 26.2021 38.1021 26.3184 38.8831C26.8154 38.6541 27.2998 38.284 27.6332 37.895Z" fill="white"/>
<path fill-rule="evenodd" clip-rule="evenodd" d="M27.2514 14.2703C28.0785 13.6965 28.5311 12.6995 28.4811 11.7281C27.011 11.5875 23.1158 12.8581 21.73 13.0485C21.5584 13.0717 21.3836 13.1434 21.2244 13.1904C21.2494 13.1317 21.187 13.601 21.2244 13.5416C21.2244 13.5416 25.232 15.6714 27.2514 14.2703Z" fill="#66CEF5"/>
<path fill-rule="evenodd" clip-rule="evenodd" d="M21.7298 29.0412C22.9015 29.0412 23.8496 29.758 24.0921 30.8243C24.4386 32.3688 24.4039 33.9908 24.3724 35.5581C24.3567 36.2605 24.3409 36.9847 24.363 37.6714C24.3913 38.6079 24.7599 39.0824 25.4528 39.0824C26.1678 39.0824 27.0939 38.5892 27.7018 37.8806C28.842 36.5508 29.5224 34.8161 29.935 33.6268C30.376 32.3448 30.4642 31.0122 30.5555 29.6016C30.6531 28.092 30.7539 26.5315 31.3335 25.0481C31.6453 24.2475 32.0611 23.4814 32.4611 22.7404C33.2612 21.2523 34.0203 19.847 34.0203 18.2054C34.0203 14.4651 32.0076 12.2326 28.6373 12.2326C27.5159 12.2326 26.1269 12.6131 24.7819 12.9817C23.6574 13.2898 22.5928 13.5808 21.7455 13.6298C21.7266 13.631 21.7077 13.631 21.6888 13.6298C20.8352 13.5804 19.7737 13.2892 18.6492 12.9808C17.3074 12.6131 15.9215 12.2326 14.797 12.2326C11.4267 12.2326 9.41402 14.4651 9.41402 18.2054C9.41402 19.847 10.1731 21.2526 10.9763 22.741C11.3763 23.4817 11.789 24.2481 12.1008 25.0481C12.6835 26.5312 12.7812 28.0917 12.882 29.6009C12.9701 31.0116 13.0583 32.3448 13.5025 33.6268C13.9119 34.8161 14.5923 36.5508 15.7325 37.8806C16.3436 38.5861 17.2665 39.0824 17.9815 39.0824C18.6776 39.0824 19.043 38.6079 19.0713 37.6714C19.0934 36.9847 19.0776 36.2605 19.0619 35.5613C19.0304 33.9914 18.9957 32.3691 19.3454 30.8246C19.6225 29.5928 20.7439 29.0412 21.7298 29.0412ZM25.4528 40.0001C24.2339 40.0001 23.4779 39.1417 23.4338 37.6995C23.4118 36.9878 23.4275 36.2511 23.4401 35.5394C23.4748 34.0264 23.5063 32.4606 23.1818 31.0244C23.0054 30.2393 22.2904 29.9605 21.7298 29.9605C21.1597 29.9605 20.4289 30.2393 20.2525 31.0244C19.9281 32.4612 19.9596 34.027 19.9942 35.5425C20.0068 36.2511 20.0226 36.9878 20.0005 37.6995C19.9564 39.1417 19.2036 40.0001 17.9815 40.0001C16.983 40.0001 15.8207 39.4008 15.0238 38.4737C13.7797 37.0284 13.0584 35.1842 12.6205 33.9243C12.1386 32.5258 12.0441 31.0687 11.9528 29.6593C11.8551 28.1535 11.7638 26.7306 11.2346 25.3796C10.9417 24.6314 10.5417 23.8903 10.1542 23.1733C9.33529 21.6509 8.48485 20.0767 8.48485 18.2053C8.48485 13.9541 10.9039 11.3132 14.7971 11.3132C16.0475 11.3132 17.4964 11.7106 18.8981 12.0952C19.9596 12.3864 20.9644 12.6621 21.7172 12.7104C22.4637 12.6621 23.4685 12.3867 24.5331 12.0961C25.9379 11.7109 27.39 11.3132 28.6373 11.3132C32.5304 11.3132 34.9495 13.9541 34.9495 18.2053C34.9495 20.0764 34.099 21.6506 33.2801 23.1727C32.8927 23.8897 32.4926 24.6314 32.1997 25.3796C31.6705 26.7306 31.5792 28.1541 31.4816 29.6596C31.3902 31.069 31.2989 32.5261 30.8138 33.9243C30.3791 35.1842 29.6547 37.0284 28.4105 38.4737C27.6136 39.4008 26.4513 40.0001 25.4528 40.0001Z" fill="black"/>
<path fill-rule="evenodd" clip-rule="evenodd" d="M11.8687 20.2021C11.6839 20.2021 11.5115 20.0875 11.4437 19.9013C11.2189 19.2931 11.1111 18.7511 11.1111 18.244C11.1111 15.3873 12.3183 13.9395 14.6988 13.9395C14.9483 13.9395 15.1515 14.1464 15.1515 14.402C15.1515 14.6569 14.9483 14.8639 14.6988 14.8639C13.895 14.8639 12.0196 14.8639 12.0196 18.244C12.0196 18.639 12.1089 19.0748 12.2937 19.5779C12.383 19.8171 12.2629 20.0834 12.0288 20.1726C11.9765 20.1927 11.921 20.2021 11.8687 20.2021Z" fill="black"/>
<path fill-rule="evenodd" clip-rule="evenodd" d="M25.3185 15.3534C23.8631 15.3534 22.5309 14.6556 21.3122 14.0161C20.5577 13.6199 19.8442 13.2451 19.1118 13.0127C18.8655 12.9348 18.7298 12.6772 18.8118 12.4374C18.8908 12.1972 19.1497 12.066 19.3959 12.1432C20.2104 12.4011 20.9965 12.8125 21.7542 13.2106C23.4874 14.1204 25.1228 14.9795 26.9949 14.0186C27.2222 13.9013 27.5032 13.9882 27.6232 14.2116C27.7431 14.435 27.6547 14.7111 27.4274 14.8281C26.695 15.2036 25.9941 15.3534 25.3185 15.3534Z" fill="black"/>
<path fill-rule="evenodd" clip-rule="evenodd" d="M25.7528 2.62622C21.5727 2.62622 18.1818 5.96577 18.1818 10.0851C18.1818 13.0468 20.2498 15.199 21.9294 17.4383C22.8514 18.6664 25.6581 23.1453 25.7528 23.6363H25.7623C25.857 23.1453 28.6638 18.6664 29.5857 17.4383C31.2654 15.199 33.3333 13.0468 33.3333 10.0851C33.3333 5.98729 29.9677 2.62622 25.7528 2.62622Z" fill="white"/>
<path fill-rule="evenodd" clip-rule="evenodd" d="M18.6132 9.88228C18.2615 14.093 21.3416 15.2019 25.6554 23.0303C29.8532 15.4167 33.0525 14.0999 32.7008 9.88259C30.2425 3.44084 21.0715 3.43897 18.6132 9.88228Z" fill="#E0AFFF"/>
<path fill-rule="evenodd" clip-rule="evenodd" d="M27.6768 9.89869C27.6768 10.9028 26.8174 11.7172 25.756 11.7172C24.6978 11.7172 23.8384 10.9028 23.8384 9.89869C23.8384 8.89461 24.6978 8.08081 25.756 8.08081C26.8174 8.08081 27.6768 8.89461 27.6768 9.89869Z" fill="white"/>
<path fill-rule="evenodd" clip-rule="evenodd" d="M25.756 8.59557C24.9842 8.59557 24.3524 9.22569 24.3524 9.99969C24.3524 10.7746 24.9842 11.4038 25.756 11.4038C26.5309 11.4038 27.1627 10.7746 27.1627 9.99969C27.1627 9.22569 26.5309 8.59557 25.756 8.59557ZM25.756 12.3232C24.4769 12.3232 23.4343 11.2808 23.4343 9.99968C23.4343 8.71884 24.4769 7.67676 25.756 7.67676C27.0382 7.67676 28.0808 8.71884 28.0808 9.99968C28.0808 11.2808 27.0382 12.3232 25.756 12.3232Z" fill="black"/>
<path fill-rule="evenodd" clip-rule="evenodd" d="M15.6177 5.65657C15.5797 5.65657 15.5385 5.65124 15.4973 5.6406C15.2468 5.57517 15.101 5.32221 15.1676 5.07614L16.4545 0.341986C16.5211 0.0962304 16.7746 -0.0505968 17.0282 0.0160859C17.2754 0.0818294 17.4244 0.334785 17.3579 0.580541L16.071 5.3147C16.0139 5.5207 15.8237 5.65657 15.6177 5.65657Z" fill="black"/>
<path fill-rule="evenodd" clip-rule="evenodd" d="M11.251 5.65657C11.0419 5.65657 10.8549 5.52039 10.7978 5.31503L9.51104 0.580509C9.44448 0.33508 9.59027 0.0821379 9.84065 0.016085C10.091 -0.050594 10.3478 0.096225 10.4143 0.341967L11.7011 5.07586C11.7676 5.32192 11.6218 5.57486 11.3715 5.6406C11.3303 5.65124 11.2891 5.65657 11.251 5.65657Z" fill="black"/>
<path fill-rule="evenodd" clip-rule="evenodd" d="M7.41149 7.87877C7.29131 7.87877 7.17428 7.8331 7.08257 7.74208L3.57192 4.23169C3.38848 4.04934 3.38848 3.75376 3.57192 3.57109C3.75536 3.38874 4.04949 3.38874 4.23293 3.57109L7.74358 7.0818C7.92386 7.26416 7.92386 7.56005 7.74358 7.74208C7.65186 7.8331 7.53167 7.87877 7.41149 7.87877Z" fill="black"/>
<path fill-rule="evenodd" clip-rule="evenodd" d="M5.1943 11.7171C5.1537 11.7171 5.11622 11.712 5.07561 11.7009L0.340678 10.4146C0.0939364 10.3479 -0.0497358 10.0913 0.0158537 9.84195C0.0814432 9.59231 0.331308 9.44336 0.578049 9.51132L5.31298 10.7979C5.55973 10.8643 5.70652 11.1206 5.64093 11.3706C5.58471 11.5793 5.39731 11.7171 5.1943 11.7171Z" fill="black"/>
<path fill-rule="evenodd" clip-rule="evenodd" d="M0.459363 17.1717C0.256348 17.1717 0.0689499 17.0342 0.0158537 16.8254C-0.0497358 16.5759 0.0939364 16.3197 0.340678 16.253L5.07561 14.9655C5.32235 14.8986 5.57534 15.0471 5.64093 15.2957C5.70652 15.5455 5.55973 15.8017 5.31298 15.8686L0.578049 17.1555C0.540569 17.1669 0.499966 17.1717 0.459363 17.1717Z" fill="black"/>
<path fill-rule="evenodd" clip-rule="evenodd" d="M25.7623 3.14426C21.8656 3.14426 18.7018 6.29754 18.7018 10.1735C18.7018 12.5609 20.102 14.3785 21.5868 16.3031C23.272 18.4952 25.1703 21.6726 25.756 22.7384C29.7592 15.459 32.8102 13.9821 32.8102 10.1735C32.8102 6.29754 29.6496 3.14426 25.7623 3.14426ZM25.2987 23.8684C25.1922 23.5145 22.8773 19.4946 20.8507 16.8651C19.3408 14.9026 17.7778 12.874 17.7778 10.1735C17.7778 5.78937 21.355 2.22217 25.7529 2.22217C30.157 2.22217 33.7374 5.78937 33.7374 10.1735C33.7374 12.874 32.1743 14.9035 30.6614 16.8661C28.6347 19.494 26.3198 23.5183 26.2102 23.8837C26.1194 24.3624 25.3958 24.3665 25.2987 23.8684Z" fill="black"/>
</svg>
