<svg width="38" height="40" viewBox="0 0 38 40" fill="none" xmlns="http://www.w3.org/2000/svg">
<path fill-rule="evenodd" clip-rule="evenodd" d="M19.0314 0.430176C33.8422 0.436431 42.4757 17.0195 34.2065 29.0835C36.2269 30.4504 33.6361 34.2707 30.3252 34.3075L29.446 33.8314C27.8893 36.6848 24.8459 39.3487 19.0314 39.3549C13.218 39.3487 10.1742 36.6848 8.61714 33.8314L7.7387 34.3075C4.47448 34.2715 1.80054 30.4758 3.85733 29.0835C-4.41106 17.0195 4.22386 0.436431 19.0314 0.430176Z" fill="white"/>
<path fill-rule="evenodd" clip-rule="evenodd" d="M18.6548 0.795654C10.7462 0.800764 4.63861 5.60602 2.07525 11.8689C2.42917 11.405 2.82699 10.9463 3.28534 10.4967C6.70118 7.15048 10.7481 5.98995 15.6556 6.95012C16.3653 7.08917 16.146 8.1446 15.4438 8.00482C10.8536 7.10632 7.23592 8.14168 4.05331 11.2594C0.772172 14.4739 0.631936 17.9693 1.5955 20.1689C3.1141 23.6341 6.85729 23.9822 8.71541 21.7684C10.1063 20.1127 9.44279 17.7288 7.64261 17.4573C6.48862 17.2843 5.75976 18.2069 6.06385 18.9365C6.33731 19.593 5.3302 20.0036 5.056 19.3452C4.43084 17.8471 5.80995 16.0939 7.8072 16.3946C8.69769 16.5289 9.39998 16.9938 9.87198 17.6365C12.7546 14.8118 16.1918 14.7907 19.5228 14.7709C25.9437 14.7337 27.8443 15.7633 30.7508 10.4493C30.8774 10.2183 31.1538 10.1107 31.4059 10.1961C32.4529 10.5471 30.6545 12.0017 30.1637 14.8366C29.7426 17.2774 32.6845 22.9903 36.5672 23.1567C36.9694 22.1684 37.2721 21.1652 37.4787 20.1572C38.4309 10.4047 29.84 0.800399 18.6548 0.795654Z" fill="#D1D9E5"/>
<path fill-rule="evenodd" clip-rule="evenodd" d="M18.6548 3.79565C10.7462 3.80076 4.63861 8.60602 2.07525 14.8689C2.42917 14.405 2.82699 13.9463 3.28534 13.4967C6.70118 10.1505 10.7481 8.98995 15.6556 9.95012C16.3653 10.0892 16.146 11.1446 15.4438 11.0048C10.8536 10.1063 7.23592 11.1417 4.05331 14.2594C0.772172 17.4739 0.631936 20.9693 1.5955 23.1689C3.11411 26.6341 6.85729 26.9822 8.71541 24.7684C10.1063 23.1127 9.44279 20.7288 7.64261 20.4573C6.48862 20.2843 5.75976 21.2069 6.06385 21.9365C6.33731 22.593 5.3302 23.0036 5.056 22.3452C4.43084 20.8471 5.80995 19.0939 7.8072 19.3946C8.69769 19.5289 9.39998 19.9938 9.87198 20.6365C12.7546 17.8118 16.1918 17.7907 19.5228 17.7709C25.9437 17.7337 27.8443 16.7633 30.7508 11.4493C30.8774 11.2183 31.1538 11.1107 31.4059 11.1961C32.4529 11.5471 30.6545 15.0017 30.1637 17.8366C29.7426 20.2774 31.6845 25.9903 35.5672 26.1567C35.9694 25.1684 36.2721 24.1652 36.4787 23.1572C37.4309 13.4047 29.84 3.8004 18.6548 3.79565Z" fill="white"/>
<path fill-rule="evenodd" clip-rule="evenodd" d="M15.6989 10.1794C14.9369 10.1341 14.1132 9.66311 13.3351 9.54832C12.5078 9.42579 11.6674 9.43797 10.8405 9.56161C9.19021 9.80815 7.63258 10.4666 6.2569 11.4118C3.6109 13.2295 0.807381 16.2505 1.09579 19.7364C1.2183 21.2175 1.56031 22.7655 2.52325 23.9307C2.95787 24.4566 3.50078 24.9028 4.12573 25.1759C4.68869 25.4225 5.29249 25.7122 5.88462 25.5387C4.83745 25.1113 3.88107 24.2141 3.27946 22.8079C2.32782 20.5835 2.46528 17.048 5.70742 13.7975C8.32717 11.1704 12.1757 9.96944 15.6989 10.1794Z" fill="white"/>
<path fill-rule="evenodd" clip-rule="evenodd" d="M31.5943 17.4439C32.093 14.568 32.829 12.569 31.7912 10.7971C31.1804 9.75377 31.3356 12.1729 31.2678 12.482C30.9213 14.0626 30.227 15.5461 29.9499 17.1507C29.5225 19.6269 31.4946 25.4225 35.4389 25.5914C35.4539 25.5529 35.4651 25.5136 35.4839 25.4751C32.6153 24.0897 31.2291 19.558 31.5943 17.4439Z" fill="white"/>
<path fill-rule="evenodd" clip-rule="evenodd" d="M13.5483 26.6667C12.4019 26.6667 12.401 24.5161 13.5483 24.5161C14.695 24.5161 14.6957 26.6667 13.5483 26.6667Z" fill="black"/>
<path fill-rule="evenodd" clip-rule="evenodd" d="M24.0858 26.6667C22.6528 26.6667 22.652 24.5161 24.0858 24.5161C25.5184 24.5161 25.5212 26.6667 24.0858 26.6667Z" fill="black"/>
<path fill-rule="evenodd" clip-rule="evenodd" d="M17.4194 32.9032H20.6452V30.7527H17.4194V32.9032Z" fill="white"/>
<path fill-rule="evenodd" clip-rule="evenodd" d="M19.0336 35.038C17.0127 35.038 15.338 33.5554 15.0712 31.6368C16.7351 31.6258 21.3298 31.6258 22.9933 31.6368C22.7295 33.5554 21.0518 35.038 19.0336 35.038ZM15.931 30.5618C14.5811 30.5647 13.9785 30.4695 13.9785 31.1137C13.9785 33.8784 16.2443 36.129 19.0336 36.129C21.8206 36.129 24.086 33.8784 24.086 31.1137C24.086 30.4185 24.0775 30.5346 15.931 30.5618Z" fill="black"/>
<path fill-rule="evenodd" clip-rule="evenodd" d="M20.548 33.7634H17.7312C17.4403 33.7634 17.2043 33.4982 17.2043 33.1714V31.1243C17.2043 30.3426 18.2582 30.3414 18.2582 31.1243V32.5799H20.0214V31.1243C20.0214 30.3426 21.0753 30.3414 21.0753 31.1243V33.1714C21.0753 33.4982 20.8389 33.7634 20.548 33.7634Z" fill="black"/>
<path fill-rule="evenodd" clip-rule="evenodd" d="M30.2948 33.8701L29.5452 33.4648C29.282 33.323 28.953 33.4196 28.8096 33.6818C26.9182 37.1465 23.5781 38.9061 18.8829 38.9116C14.1888 38.9061 10.849 37.1465 8.95613 33.6818C8.81386 33.4207 8.48558 33.3219 8.22053 33.4648L7.47169 33.8701C4.71604 33.7391 2.56365 30.6404 4.0297 29.6494C4.83405 29.1056 3.51394 28.608 2.17839 25.0974C5.97586 28.6249 11.6232 25.0133 10.3711 20.9141C15.885 15.0223 24.174 21.4425 29.6661 14.2857C29.407 15.1302 29.1566 15.9975 29.0044 16.8846C28.4931 19.8831 30.6683 25.9339 34.9903 26.4824C34.597 27.3023 34.1338 28.1094 33.5934 28.8967C33.4243 29.1445 33.4868 29.4819 33.7368 29.6494C35.1962 30.6345 33.0493 33.7387 30.2948 33.8701ZM18.8986 1.08843C31.8904 1.09432 40.0252 14.2279 35.4971 25.4376C31.6239 25.2697 29.6867 19.5078 30.1067 17.046C30.5964 14.1867 32.3903 10.7024 31.3459 10.3483C31.0945 10.2622 30.8187 10.3708 30.6925 10.6038C27.793 15.9635 25.897 16.9422 19.4917 16.9797C16.1689 16.9996 12.74 17.021 9.86444 19.8699C9.39358 19.2217 8.69301 18.7528 7.80468 18.6174C5.81229 18.3141 4.43655 20.0823 5.06018 21.5933C5.33371 22.2573 6.33837 21.8432 6.06558 21.1811C5.76223 20.4453 6.48931 19.5147 7.64049 19.6892C9.43629 19.9631 10.0982 22.3674 8.71068 24.0374C6.85708 26.2702 3.12302 25.919 1.60811 22.4241C0.646891 20.2056 0.786785 16.6801 4.05994 13.438C7.2348 10.2935 10.8437 9.24924 15.4227 10.1555C16.1232 10.2964 16.3419 9.23194 15.634 9.0917C10.7384 8.12327 6.70136 9.29377 3.29383 12.6687C2.57375 13.3821 1.99098 14.1179 1.52123 14.8596C3.31334 7.32158 9.9539 1.09248 18.8986 1.08843ZM18.9261 0C3.86954 0.00662154 -5.03117 16.6602 3.04922 29.0929C1.25599 31.0444 4.13538 34.9147 7.63764 34.9533C7.83215 34.9625 7.98291 34.844 8.3153 34.6638C10.6189 38.4517 14.5216 40 18.9269 40C24.9353 39.9934 27.9975 37.1976 29.5385 34.6638C29.8892 34.854 30.0183 34.9573 30.2165 34.9533C33.732 34.9147 36.5742 31.0337 34.802 29.0936C42.8691 16.6837 34.0078 0.00662154 18.9261 0Z" fill="black"/>
</svg>
