<svg width="29" height="40" viewBox="0 0 29 40" fill="none" xmlns="http://www.w3.org/2000/svg">
<path fill-rule="evenodd" clip-rule="evenodd" d="M0.436142 39.5658H27.5712V4.0061H0.436142V39.5658Z" fill="white"/>
<path fill-rule="evenodd" clip-rule="evenodd" d="M2.8333 39.5658H27.5712V4.0061H2.8333V39.5658Z" fill="#D0FCEE"/>
<path fill-rule="evenodd" clip-rule="evenodd" d="M0.871695 39.1319H27.1372V4.44093H0.871695V39.1319ZM27.5712 40.0001H0.436144C0.195482 40.0001 0 39.8052 0 39.566V4.00625C0 3.76618 0.195482 3.57129 0.436144 3.57129H27.5712C27.8134 3.57129 28.0083 3.76618 28.0083 4.00625V39.566C28.0083 39.8052 27.8134 40.0001 27.5712 40.0001Z" fill="black"/>
<path fill-rule="evenodd" clip-rule="evenodd" d="M22.7329 24.9748H5.27535C5.0344 24.9748 4.8395 24.7802 4.8395 24.5401C4.8395 24.3001 5.0344 24.1055 5.27535 24.1055H22.7329C22.9733 24.1055 23.1685 24.3001 23.1685 24.5401C23.1685 24.7802 22.9733 24.9748 22.7329 24.9748Z" fill="black"/>
<path fill-rule="evenodd" clip-rule="evenodd" d="M22.7329 28.4328H5.27535C5.0344 28.4328 4.8395 28.2382 4.8395 27.9981C4.8395 27.7581 5.0344 27.5635 5.27535 27.5635H22.7329C22.9733 27.5635 23.1685 27.7581 23.1685 27.9981C23.1685 28.2382 22.9733 28.4328 22.7329 28.4328Z" fill="black"/>
<path fill-rule="evenodd" clip-rule="evenodd" d="M22.7329 31.8911H5.27535C5.0344 31.8911 4.8395 31.6965 4.8395 31.4562C4.8395 31.2164 5.0344 31.0215 5.27535 31.0215H22.7329C22.9733 31.0215 23.1685 31.2164 23.1685 31.4562C23.1685 31.6965 22.9733 31.8911 22.7329 31.8911Z" fill="black"/>
<path fill-rule="evenodd" clip-rule="evenodd" d="M22.7329 35.3491H5.27535C5.0344 35.3491 4.8395 35.1542 4.8395 34.915C4.8395 34.6729 5.0344 34.481 5.27535 34.481H22.7329C22.9733 34.481 23.1685 34.6729 23.1685 34.915C23.1685 35.1542 22.9733 35.3491 22.7329 35.3491Z" fill="black"/>
<path fill-rule="evenodd" clip-rule="evenodd" d="M22.7329 11.1423H15.2928C15.0518 11.1423 14.8569 10.948 14.8569 10.7076C14.8569 10.4675 15.0518 10.2729 15.2928 10.2729H22.7329C22.9733 10.2729 23.1685 10.4675 23.1685 10.7076C23.1685 10.948 22.9733 11.1423 22.7329 11.1423Z" fill="black"/>
<path fill-rule="evenodd" clip-rule="evenodd" d="M22.7329 14.6006H15.2928C15.0518 14.6006 14.8569 14.4057 14.8569 14.1656C14.8569 13.9256 15.0518 13.731 15.2928 13.731H22.7329C22.9733 13.731 23.1685 13.9256 23.1685 14.1656C23.1685 14.4057 22.9733 14.6006 22.7329 14.6006Z" fill="black"/>
<path fill-rule="evenodd" clip-rule="evenodd" d="M22.7329 18.0588H15.2928C15.0518 18.0588 14.8569 17.8642 14.8569 17.6238C14.8569 17.384 15.0518 17.1895 15.2928 17.1895H22.7329C22.9733 17.1895 23.1685 17.384 23.1685 17.6238C23.1685 17.8642 22.9733 18.0588 22.7329 18.0588Z" fill="black"/>
<path fill-rule="evenodd" clip-rule="evenodd" d="M22.7329 21.5166H15.2928C15.0518 21.5166 14.8569 21.322 14.8569 21.0816C14.8569 20.8419 15.0518 20.647 15.2928 20.647H22.7329C22.9733 20.647 23.1685 20.8419 23.1685 21.0816C23.1685 21.322 22.9733 21.5166 22.7329 21.5166Z" fill="black"/>
<path fill-rule="evenodd" clip-rule="evenodd" d="M11.3976 10.7075C10.7297 10.7075 9.80097 11.1141 9.24524 11.146C8.68625 11.1141 7.76288 10.7075 7.09287 10.7075C5.8999 10.7075 5.27536 11.5355 5.27536 12.7255C5.27536 13.5497 5.83552 14.1905 6.12048 14.9246C6.45445 15.7844 6.25513 16.74 6.55396 17.6108C6.72051 18.0972 6.93843 18.5971 7.27447 18.9922C7.69555 19.4859 8.54127 19.6905 8.56755 18.8374C8.58851 18.1435 8.49579 17.4003 8.64846 16.7164C8.77986 16.1285 9.70737 16.1128 9.84202 16.7164C9.99527 17.4003 9.90226 18.1435 9.92352 18.8374C9.9495 19.6905 10.7955 19.4859 11.216 18.9922C11.552 18.5971 11.7703 18.0972 11.9371 17.6108C12.2356 16.74 12.0366 15.7844 12.37 14.9246C12.655 14.1905 13.2151 13.5497 13.2151 12.7255C13.2151 11.5355 12.5903 10.7075 11.3976 10.7075Z" fill="white"/>
<path fill-rule="evenodd" clip-rule="evenodd" d="M10.3907 18.9852C10.3942 18.9852 10.3995 18.9855 10.4072 18.9855C10.5262 18.9855 10.7373 18.8827 10.8838 18.7106C11.2068 18.3305 11.4041 17.8206 11.5246 17.4701C11.6498 17.1048 11.6755 16.7053 11.7023 16.2827C11.7339 15.7872 11.7667 15.2749 11.9634 14.7679C12.0673 14.5003 12.1999 14.2523 12.3278 14.0128C12.5602 13.5781 12.7796 13.1683 12.7796 12.7256C12.7796 12.1345 12.6 11.1423 11.3976 11.1423C11.0881 11.1423 10.6756 11.2566 10.2758 11.367C9.91081 11.468 9.56562 11.5631 9.27003 11.5805C9.25379 11.5811 9.23696 11.5811 9.21983 11.5805C8.92306 11.5631 8.57787 11.468 8.21289 11.3664C7.81484 11.2566 7.40321 11.1423 7.09286 11.1423C5.89073 11.1423 5.7109 12.1345 5.7109 12.7256C5.7109 13.1683 5.9303 13.5784 6.1624 14.0128C6.29085 14.2523 6.42314 14.5003 6.52737 14.7676C6.72404 15.2746 6.75652 15.7869 6.78841 16.2824C6.81469 16.705 6.84068 17.1045 6.96618 17.4701C7.15693 18.0273 7.36068 18.4215 7.60725 18.7109C7.75312 18.8827 7.96455 18.9855 8.08355 18.9855C8.09625 18.9855 8.10393 18.9843 8.10718 18.9834C8.10541 18.9793 8.12844 18.9353 8.13169 18.824C8.13818 18.6158 8.13346 18.4023 8.12903 18.1764C8.1184 17.6673 8.10718 17.1408 8.22293 16.622C8.32805 16.1513 8.74057 15.835 9.24936 15.835C9.75342 15.835 10.1624 16.1513 10.2678 16.6223C10.3836 17.1408 10.3723 17.667 10.3617 18.1764C10.3573 18.4023 10.3526 18.6158 10.3588 18.824C10.3617 18.9247 10.3809 18.9701 10.3889 18.9852C10.3895 18.9852 10.3901 18.9852 10.3907 18.9852ZM10.4072 19.8548C9.99704 19.8548 9.51011 19.5917 9.48796 18.8508C9.48058 18.6196 9.4856 18.3852 9.49032 18.1581C9.50036 17.6794 9.50981 17.2276 9.4168 16.8113C9.39613 16.7182 9.30281 16.7044 9.24937 16.7044C9.22397 16.7044 9.09641 16.7097 9.07397 16.8107C8.98095 17.2276 8.99069 17.6797 9.00044 18.1581C9.00516 18.3852 9.00989 18.6199 9.0031 18.8511C8.98006 19.5917 8.49342 19.8548 8.08356 19.8548C7.69142 19.8548 7.24346 19.6269 6.94256 19.2737C6.52295 18.7803 6.28465 18.1687 6.14144 17.7512C5.97785 17.2763 5.94773 16.7989 5.9182 16.3379C5.88985 15.8879 5.86239 15.4636 5.71445 15.0815C5.6297 14.8635 5.51483 14.6491 5.39347 14.4224C5.13361 13.9366 4.8395 13.3862 4.8395 12.7256C4.8395 11.2359 5.7239 10.2729 7.09286 10.2729C7.52192 10.2729 7.99173 10.4029 8.44618 10.529C8.7518 10.6134 9.04148 10.6937 9.24523 10.7103C9.44721 10.6937 9.73719 10.6134 10.0434 10.529C10.4987 10.4032 10.9697 10.2729 11.3976 10.2729C12.7669 10.2729 13.6513 11.2359 13.6513 12.7256C13.6513 13.3859 13.3569 13.936 13.0973 14.4221C12.9762 14.6489 12.8611 14.8635 12.7766 15.0815C12.6287 15.4636 12.6009 15.8885 12.5723 16.3379C12.543 16.7992 12.5123 17.2763 12.3496 17.7515C12.2061 18.169 11.9675 18.7808 11.5485 19.2734C11.2476 19.6269 10.7996 19.8548 10.4072 19.8548Z" fill="black"/>
<path fill-rule="evenodd" clip-rule="evenodd" d="M10.541 12.6552C9.9563 12.6552 9.4546 12.2314 9.06216 11.8998C8.81028 11.6866 8.54954 11.4666 8.33368 11.3964C8.10483 11.3228 7.97874 11.0774 8.05315 10.8492C8.12698 10.6212 8.37118 10.496 8.6018 10.5693C8.98155 10.6918 9.30932 10.9685 9.62587 11.2363C10.1598 11.6875 10.4432 11.8833 10.7344 11.7312C10.9479 11.6202 11.2107 11.7023 11.3226 11.9155C11.4342 12.1281 11.3518 12.3909 11.1383 12.5025C10.9311 12.6103 10.7314 12.6552 10.541 12.6552Z" fill="black"/>
<path fill-rule="evenodd" clip-rule="evenodd" d="M15.9164 2.34835C15.9164 2.34628 15.917 2.34451 15.917 2.34244C15.917 1.28884 15.061 0.43457 14.0038 0.43457C12.9476 0.43457 12.0913 1.28884 12.0913 2.34244C12.0913 2.34451 12.0915 2.34628 12.0915 2.34835H8.28791V5.60658H19.7201V2.34835H15.9164Z" fill="#E0AFFF"/>
<path fill-rule="evenodd" clip-rule="evenodd" d="M8.72374 5.17201H19.2842V2.78341H15.9164C15.6758 2.78341 15.4806 2.58852 15.4806 2.34844C15.4806 2.34283 15.4809 2.33693 15.4809 2.33073C15.4747 1.52399 14.8144 0.869632 14.0038 0.869632C13.1918 0.869632 12.5306 1.52665 12.5268 2.33604C12.5271 2.34018 12.5271 2.34461 12.5271 2.34844C12.5271 2.58852 12.3319 2.78341 12.0915 2.78341H8.72374V5.17201ZM19.7201 6.04164H8.2879C8.04724 6.04164 7.85235 5.84704 7.85235 5.60667V2.34844C7.85235 2.10808 8.04724 1.91378 8.2879 1.91378H11.6947C11.8972 0.826222 12.8554 0 14.0038 0C15.1522 0 16.1107 0.826222 16.3133 1.91378H19.7201C19.9607 1.91378 20.1559 2.10808 20.1559 2.34844V5.60667C20.1559 5.84704 19.9607 6.04164 19.7201 6.04164Z" fill="black"/>
</svg>
