<svg width="40" height="36" viewBox="0 0 40 36" fill="none" xmlns="http://www.w3.org/2000/svg">
<path fill-rule="evenodd" clip-rule="evenodd" d="M19.9999 8.84963C15.5021 8.84963 11.0555 7.85953 6.78314 5.90568C6.58299 5.81454 6.49367 5.57491 6.58379 5.37151C6.67365 5.16811 6.90958 5.0767 7.10838 5.16866C15.5425 9.02475 24.4578 9.02475 32.8913 5.16866C33.091 5.0767 33.3264 5.16783 33.4162 5.37151C33.5063 5.57491 33.417 5.81454 33.2169 5.90568C28.9445 7.85953 24.4979 8.84963 19.9999 8.84963Z" fill="black"/>
<path fill-rule="evenodd" clip-rule="evenodd" d="M14.6731 23.8937C11.7244 23.8937 9.59106 23.0575 8.31863 21.4C6.19897 18.6382 6.45688 13.7498 9.10732 6.45507C9.18189 6.24973 9.40852 6.14343 9.61271 6.21886C9.8177 6.29321 9.92327 6.5203 9.8487 6.72538C7.3335 13.6481 7.02935 18.4232 8.94456 20.9182C10.2616 22.6342 12.7041 23.345 16.2074 23.031C16.4236 23.013 16.6158 23.1719 16.6356 23.3893C16.6551 23.6067 16.4947 23.7987 16.2777 23.8183C15.7189 23.8685 15.1838 23.8934 14.6731 23.8937Z" fill="black"/>
<path fill-rule="evenodd" clip-rule="evenodd" d="M25.5037 23.8937C24.993 23.8937 24.4582 23.8685 23.899 23.8183C23.6823 23.7987 23.5219 23.6067 23.5414 23.3893C23.5607 23.1719 23.7523 23.013 23.9696 23.031C27.473 23.3453 29.9158 22.6342 31.2327 20.9182C33.1479 18.4232 32.8438 13.6481 30.3285 6.72538C30.2539 6.5203 30.3595 6.29321 30.5642 6.21886C30.7682 6.14343 30.9953 6.24973 31.0697 6.45507C33.7202 13.7498 33.9781 18.6382 31.8581 21.4C30.5862 23.0575 28.452 23.8934 25.5037 23.8937Z" fill="black"/>
<path fill-rule="evenodd" clip-rule="evenodd" d="M25.8381 12.0354C24.0821 12.0354 21.6384 13.1086 20.1766 13.1941C18.7062 13.1083 16.2781 12.0354 14.5153 12.0354C11.3773 12.0354 9.73451 14.2222 9.73451 17.3656C9.73451 19.5403 11.2081 21.233 11.9578 23.1726C12.8347 25.4433 12.3114 27.9671 13.0968 30.2666C13.5355 31.5506 14.1085 32.8711 14.9927 33.9133C16.0995 35.218 18.3247 35.7591 18.3934 33.5057C18.449 31.6728 18.2041 29.7105 18.6069 27.904C18.9522 26.3526 21.3916 26.3108 21.7466 27.904C22.1493 29.7105 21.9042 31.6728 21.96 33.5057C22.0285 35.7591 24.2536 35.218 25.3607 33.9133C26.2449 32.8711 26.8179 31.5506 27.2567 30.2666C28.042 27.9671 27.519 25.4433 28.3959 23.1726C29.1453 21.233 30.6195 19.5403 30.6195 17.3656C30.6195 14.2222 28.9759 12.0354 25.8381 12.0354Z" fill="#D1D9E5"/>
<path fill-rule="evenodd" clip-rule="evenodd" d="M24.9052 33.6138C25.8434 32.514 26.4009 31.0779 26.7385 30.094C27.1031 29.0315 27.1738 27.929 27.2481 26.7623C27.4346 23.8554 27.6799 23.2091 28.8073 21.1012C29.4659 19.8691 30.0885 18.7059 30.0885 17.3448C30.0885 14.2417 28.4322 12.3894 25.6588 12.3894C25.471 12.3894 25.2735 12.4042 25.0704 12.4273C23.7881 12.3894 22.7353 13.1072 21.8767 13.1765C21.189 13.3604 20.5412 13.5131 20.0071 13.544C18.9946 13.6069 16.0289 12.3894 14.3131 12.3894C14.2442 12.3894 14.1764 12.3916 14.1084 12.394C12.2769 13.1373 11.3274 14.9659 11.3274 17.3448C11.3274 19.5135 12.804 21.2015 13.5552 23.1357C14.4339 25.4001 13.9098 27.9169 14.6965 30.2101C15.1361 31.4905 15.7106 32.8073 16.5966 33.8466C16.8161 34.1044 17.0798 34.3316 17.362 34.5133C18.4156 33.9305 18.1813 30.0009 18.4129 27.854C18.5722 26.3768 19.1372 26.2383 20.708 26.4384C22.6893 26.6911 23.7308 33.7831 23.8244 34.4259C24.235 34.2377 24.6329 33.9334 24.9052 33.6138Z" fill="white"/>
<path fill-rule="evenodd" clip-rule="evenodd" d="M24.6435 13.9461C25.3286 13.4765 25.702 12.662 25.6606 11.8673C24.4442 11.7521 21.2203 12.7907 20.0738 12.9472C19.9324 12.9664 19.7869 13.0245 19.6568 13.0627C19.677 13.0146 19.6245 13.3986 19.6568 13.3505C19.6568 13.3505 22.9719 15.0915 24.6435 13.9461Z" fill="#D1D9E5"/>
<path fill-rule="evenodd" clip-rule="evenodd" d="M20.0987 26.2508C21.0682 26.2508 21.8537 26.8518 22.0532 27.7458C22.3406 29.0329 22.3118 30.3833 22.2843 31.6894C22.2716 32.2975 22.2595 32.8725 22.2767 33.4438C22.2999 34.2127 22.5964 34.6024 23.1571 34.6024C23.1573 34.6024 23.1573 34.6024 23.1573 34.6024C23.7403 34.6024 24.4949 34.1935 24.9917 33.6079C25.9288 32.5039 26.4855 31.0633 26.8229 30.0755C27.1867 29.011 27.257 27.9036 27.3318 26.731C27.4121 25.4746 27.4948 24.175 27.9728 22.9392C28.2305 22.2728 28.5698 21.635 28.8986 21.0181C29.5564 19.782 30.1788 18.6148 30.1788 17.253C30.1788 14.1517 28.5321 12.3006 25.7743 12.3006C24.8541 12.3006 23.7123 12.6173 22.6082 12.9232C21.6838 13.1794 20.811 13.4215 20.1117 13.4629C20.0963 13.4637 20.0807 13.4637 20.0651 13.4629C19.3614 13.4213 18.4886 13.1791 17.5647 12.9227C16.4641 12.6167 15.3258 12.3006 14.4027 12.3006C11.6446 12.3006 9.99848 14.1517 9.99848 17.253C9.99848 18.6148 10.6203 19.7822 11.2784 21.0183C11.6069 21.635 11.9465 22.2728 12.2042 22.9392C12.682 24.175 12.7649 25.4746 12.8451 26.7313C12.9195 27.9039 12.9903 29.011 13.3538 30.0755C13.6915 31.0633 14.2489 32.5042 15.185 33.6079C15.6821 34.1932 16.4369 34.6024 17.0202 34.6024C17.5806 34.6024 17.8768 34.2127 17.9 33.4438C17.9178 32.872 17.9054 32.2967 17.8924 31.6878C17.865 30.3822 17.837 29.0324 18.1235 27.7458C18.354 26.7129 19.2817 26.2508 20.0987 26.2508ZM23.1573 35.3982C23.1573 35.3982 23.1573 35.3982 23.1571 35.3982C22.1451 35.3982 21.519 34.6769 21.4821 33.4679C21.4643 32.876 21.477 32.2645 21.4893 31.6721C21.516 30.4136 21.5435 29.1121 21.2771 27.919C21.1336 27.2752 20.5528 27.0466 20.0987 27.0466C19.6353 27.0466 19.0431 27.2752 18.8996 27.919C18.6335 29.1118 18.6607 30.413 18.6874 31.671C18.7 32.2634 18.7127 32.8758 18.6947 33.4679C18.658 34.6769 18.0319 35.3982 17.0202 35.3982C16.1951 35.3982 15.237 34.8977 14.5791 34.1232C13.5553 32.9166 12.9601 31.3824 12.6014 30.333C12.2034 29.168 12.1264 27.9552 12.0515 26.7818C11.9718 25.5303 11.8964 24.348 11.4629 23.2265C11.2224 22.6049 10.8944 21.9882 10.5769 21.3923C9.90154 20.1246 9.20354 18.8134 9.20354 17.253C9.20354 13.7074 11.196 11.5044 14.4027 11.5044C15.4341 11.5044 16.6254 11.8354 17.7775 12.1557C18.6483 12.3975 19.4713 12.6264 20.0882 12.6667C20.7011 12.6264 21.5243 12.3981 22.396 12.1565C23.5513 11.8357 24.7461 11.5044 25.7743 11.5044C28.9812 11.5044 30.9735 13.7074 30.9735 17.253C30.9735 18.8134 30.2752 20.1246 29.6001 21.3923C29.2826 21.9882 28.9543 22.6049 28.7138 23.2265C28.2806 24.348 28.2052 25.53 28.1254 26.7818C28.0506 27.9549 27.973 29.168 27.575 30.333C27.2171 31.3818 26.6223 32.916 25.5979 34.1232C24.9403 34.8977 23.9824 35.3982 23.1573 35.3982Z" fill="black"/>
<path fill-rule="evenodd" clip-rule="evenodd" d="M12.0011 18.7612C11.8347 18.7612 11.678 18.6637 11.6163 18.5061C11.422 18.0094 11.3274 17.5658 11.3274 17.1505C11.3274 14.8134 12.38 13.6284 14.4563 13.6284C14.6831 13.6284 14.8673 13.8041 14.8673 14.0203C14.8673 14.237 14.6831 14.4124 14.4563 14.4124C13.7657 14.4124 12.1488 14.4124 12.1488 17.1505C12.1488 17.4705 12.2262 17.8243 12.3862 18.2314C12.4652 18.4345 12.3572 18.6605 12.1449 18.7361C12.0973 18.7529 12.0489 18.7612 12.0011 18.7612Z" fill="black"/>
<path fill-rule="evenodd" clip-rule="evenodd" d="M22.0846 15.0443C22.0575 15.0443 22.0305 15.0416 22.0028 15.0354C21.1518 14.8537 20.3527 14.4212 19.5798 14.0031C18.9675 13.6718 18.3892 13.3589 17.7948 13.1651C17.588 13.0976 17.4744 12.8738 17.5413 12.6649C17.608 12.4559 17.8292 12.3417 18.0363 12.4084C18.6983 12.6247 19.3354 12.9691 19.9511 13.3022C20.7088 13.7123 21.4244 14.0992 22.1659 14.2579C22.3784 14.3032 22.5143 14.5143 22.4693 14.729C22.4301 14.916 22.2667 15.0443 22.0846 15.0443Z" fill="black"/>
<path fill-rule="evenodd" clip-rule="evenodd" d="M20.0872 23.8043C18.7523 23.8043 17.6423 22.8068 17.4544 21.5106C17.9701 21.5065 18.9378 21.5046 20.0872 21.5046C21.2368 21.5046 22.2045 21.5065 22.7201 21.5106C22.5323 22.8068 21.4222 23.8043 20.0872 23.8043ZM22.8839 20.7127C22.7161 20.7127 22.4772 20.7109 22.1908 20.7109C21.0431 20.7071 19.1315 20.7071 17.9862 20.7109C17.6977 20.7109 17.4587 20.7127 17.2907 20.7127C16.9984 20.7168 16.6372 20.719 16.6372 21.1177C16.6372 23.0382 18.1855 24.6018 20.0872 24.6018C21.9912 24.6018 23.5398 23.0382 23.5398 21.1177C23.5398 20.719 23.1761 20.7168 22.8839 20.7127Z" fill="black"/>
<path fill-rule="evenodd" clip-rule="evenodd" d="M22.6549 21.599C22.4654 22.8959 21.3461 23.8939 19.9999 23.8939C18.6539 23.8939 17.5346 22.8959 17.3451 21.599C17.8651 21.5949 18.8409 21.593 19.9999 21.593C21.1591 21.593 22.1349 21.5949 22.6549 21.599Z" fill="#FDF2C3"/>
<path fill-rule="evenodd" clip-rule="evenodd" d="M17.1681 17.5223C17.1681 17.913 16.8514 18.2301 16.4602 18.2301C16.0695 18.2301 15.7522 17.913 15.7522 17.5223C15.7522 17.1314 16.0695 16.8142 16.4602 16.8142C16.8514 16.8142 17.1681 17.1314 17.1681 17.5223Z" fill="black"/>
<path fill-rule="evenodd" clip-rule="evenodd" d="M24.4248 17.5223C24.4248 17.913 24.108 18.2301 23.7168 18.2301C23.3259 18.2301 23.0089 17.913 23.0089 17.5223C23.0089 17.1314 23.3259 16.8142 23.7168 16.8142C24.108 16.8142 24.4248 17.1314 24.4248 17.5223Z" fill="black"/>
<path fill-rule="evenodd" clip-rule="evenodd" d="M5.85114 9.50637C5.53983 10.1643 4.74648 10.4488 4.07879 10.1421L3.07129 9.67903C2.40388 9.37231 2.11482 8.5905 2.42613 7.93282L5.65328 1.11315C5.96432 0.455202 6.75795 0.170736 7.42563 0.477455L8.43313 0.940215C9.10055 1.24747 9.38961 2.02901 9.07829 2.68696L5.85114 9.50637Z" fill="white"/>
<path fill-rule="evenodd" clip-rule="evenodd" d="M2.812 6.9049C2.59651 7.36308 2.04731 7.56094 1.5849 7.34813L0.887382 7.02559C0.425238 6.81171 0.225065 6.26702 0.440822 5.8091L2.67497 1.0593C2.89045 0.601382 3.43965 0.403529 3.9018 0.616868L4.59931 0.939147C5.06172 1.15302 5.26136 1.69745 5.04614 2.15537L2.812 6.9049Z" fill="white"/>
<path fill-rule="evenodd" clip-rule="evenodd" d="M5.3863 9.55704L8.58584 2.73549C8.80166 2.27608 8.60065 1.72765 8.13834 1.51337L7.92844 1.41602C7.5509 1.50666 7.21642 1.76037 7.03962 2.13797L3.84007 8.95899C3.70983 9.23709 3.68669 9.53719 3.75235 9.81423L4.1568 10.002C4.28085 10.0594 4.4119 10.0886 4.54699 10.0886C4.90542 10.0886 5.23507 9.87967 5.3863 9.55704Z" fill="#6CD6B5"/>
<path fill-rule="evenodd" clip-rule="evenodd" d="M3.97976 1.72212L1.85124 6.5791C1.74114 6.82977 1.74754 7.10393 1.84203 7.33985L1.93574 7.38655C2.18026 7.50779 2.48957 7.386 2.60274 7.12768L4.73176 2.27098C4.84878 2.00392 4.7397 1.68553 4.48878 1.56101L4.19612 1.41602C4.10752 1.49875 4.03276 1.60088 3.97976 1.72212Z" fill="#C998E9"/>
<path fill-rule="evenodd" clip-rule="evenodd" d="M3.50094 0.955281C3.29987 0.955281 3.1152 1.07262 3.03 1.25391L0.830361 5.95485C0.771626 6.07986 0.765805 6.22019 0.812899 6.34995C0.860257 6.47971 0.955767 6.5833 1.08117 6.64171L1.768 6.96095C2.02067 7.07829 2.34027 6.96042 2.45721 6.71042L4.65712 2.01001C4.77803 1.75154 4.66532 1.4434 4.40604 1.32289L3.71948 1.00391C3.64989 0.971931 3.57634 0.955281 3.50094 0.955281ZM1.98654 7.78762C1.79605 7.78762 1.61137 7.74639 1.43808 7.66605L0.750725 7.34681C0.436679 7.20093 0.197772 6.94115 0.0792438 6.61609C-0.0395486 6.29103 -0.024468 5.93928 0.122369 5.62584L2.32228 0.924903C2.53499 0.470877 2.99746 0.177002 3.50094 0.177002C3.6909 0.177002 3.87557 0.218229 4.04913 0.298833L4.73622 0.61755C5.38601 0.919353 5.66778 1.69183 5.36511 2.33852L3.1652 7.03946C2.95222 7.49401 2.48975 7.78762 1.98654 7.78762Z" fill="black"/>
<path fill-rule="evenodd" clip-rule="evenodd" d="M6.84962 0.796622C6.49244 0.796622 6.16396 1.00707 6.01299 1.33248L2.82494 8.21265C2.61015 8.67655 2.81019 9.22973 3.27087 9.44586L4.26598 9.91274C4.3896 9.97062 4.52019 10.0001 4.6548 10.0001C5.01198 10.0001 5.34047 9.78939 5.49117 9.46398L8.67949 2.58354C8.89455 2.12018 8.69424 1.56701 8.23355 1.35088L7.23844 0.883723C7.11482 0.825836 6.98397 0.796622 6.84962 0.796622ZM4.6548 10.7965C4.40354 10.7965 4.16033 10.7418 3.9316 10.6347L2.93622 10.1675C2.07974 9.76586 1.70808 8.73742 2.10736 7.87641L5.29568 0.99571C5.5759 0.391143 6.18595 0 6.84962 0C7.10061 0 7.34383 0.054641 7.57283 0.162029L8.56821 0.629183C9.42468 1.03115 9.79634 2.05904 9.39706 2.92032L6.20874 9.80048C5.92825 10.4056 5.31848 10.7965 4.6548 10.7965Z" fill="black"/>
<path fill-rule="evenodd" clip-rule="evenodd" d="M34.3258 9.50637C34.6374 10.1643 35.431 10.4488 36.0984 10.1421L37.1059 9.67903C37.7733 9.37231 38.0621 8.5905 37.7508 7.93282L34.5239 1.11315C34.2129 0.455202 33.4192 0.170736 32.7515 0.477455L31.744 0.940215C31.0763 1.24747 30.7873 2.02901 31.0989 2.68696L34.3258 9.50637Z" fill="white"/>
<path fill-rule="evenodd" clip-rule="evenodd" d="M37.1879 6.9049C37.4037 7.36308 37.9529 7.56094 38.4153 7.34813L39.1126 7.02559C39.5748 6.81171 39.7749 6.26702 39.5592 5.8091L37.3252 1.0593C37.1095 0.601382 36.5603 0.403529 36.0984 0.616868L35.4009 0.939147C34.9382 1.15302 34.7385 1.69745 34.954 2.15537L37.1879 6.9049Z" fill="white"/>
<path fill-rule="evenodd" clip-rule="evenodd" d="M34.6134 9.55704L31.414 2.73549C31.1985 2.27608 31.3992 1.72765 31.8615 1.51337L32.0712 1.41602C32.4487 1.50666 32.7832 1.76037 32.9603 2.13797L36.1596 8.95899C36.2901 9.23709 36.3133 9.53719 36.2479 9.81423L35.8431 10.002C35.7191 10.0594 35.5878 10.0886 35.4529 10.0886C35.0942 10.0886 34.7649 9.87967 34.6134 9.55704Z" fill="#6CD6B5"/>
<path fill-rule="evenodd" clip-rule="evenodd" d="M36.197 1.72212L38.3261 6.5791C38.4357 6.82977 38.4295 7.10393 38.335 7.33985L38.2413 7.38655C37.9968 7.50779 37.6875 7.386 37.574 7.12768L35.4454 2.27098C35.3282 2.00392 35.437 1.68553 35.6882 1.56101L35.9806 1.41602C36.0692 1.49875 36.144 1.60088 36.197 1.72212Z" fill="#C998E9"/>
<path fill-rule="evenodd" clip-rule="evenodd" d="M36.4991 0.955281C36.7002 0.955281 36.8849 1.07262 36.9698 1.25391L39.1697 5.95485C39.2281 6.07986 39.2345 6.22019 39.1871 6.34995C39.1395 6.47971 39.0443 6.5833 38.9186 6.64171L38.232 6.96095C37.9794 7.07829 37.6598 6.96042 37.5426 6.71042L35.3432 2.01001C35.2221 1.75154 35.3345 1.4434 35.5941 1.32289L36.2806 1.00391C36.3499 0.971931 36.4237 0.955281 36.4991 0.955281ZM38.0132 7.78762C38.2037 7.78762 38.3884 7.74639 38.562 7.66605L39.2488 7.34681C39.5633 7.20093 39.802 6.94115 39.9208 6.61609C40.0398 6.29103 40.0242 5.93928 39.8774 5.62584L37.6778 0.924903C37.4648 0.470877 37.0023 0.177002 36.4991 0.177002C36.3089 0.177002 36.1242 0.218229 35.951 0.298833L35.2639 0.61755C34.6141 0.919353 34.3321 1.69183 34.635 2.33852L36.8346 7.03946C37.0476 7.49401 37.51 7.78762 38.0132 7.78762Z" fill="black"/>
<path fill-rule="evenodd" clip-rule="evenodd" d="M33.3274 0.796622C33.6849 0.796622 34.0131 1.00707 34.1638 1.33248L37.3524 8.21265C37.5669 8.67655 37.3668 9.22973 36.9062 9.44586L35.9111 9.91274C35.7874 9.97062 35.6566 10.0001 35.5222 10.0001C35.1648 10.0001 34.8366 9.78939 34.6856 9.46398L31.4975 2.58354C31.2828 2.12018 31.4828 1.56701 31.9435 1.35088L32.9386 0.883723C33.0622 0.825836 33.1928 0.796622 33.3274 0.796622ZM35.5222 10.7965C35.7732 10.7965 36.0164 10.7418 36.2457 10.6347L37.2408 10.1675C38.097 9.76586 38.469 8.73742 38.0697 7.87641L34.8813 0.99571C34.6011 0.391143 33.9911 0 33.3274 0C33.0759 0 32.8329 0.054641 32.6042 0.162029L31.6091 0.629183C30.7521 1.03115 30.3807 2.05904 30.78 2.92032L33.9683 9.80048C34.2488 10.4056 34.8588 10.7965 35.5222 10.7965Z" fill="black"/>
</svg>
