<svg width="41" height="40" viewBox="0 0 41 40" fill="none" xmlns="http://www.w3.org/2000/svg">
<path fill-rule="evenodd" clip-rule="evenodd" d="M6.3433 34.7981C6.11124 34.7981 5.91928 34.6088 5.91928 34.3749C5.91928 26.7948 12.0877 20.6277 19.6657 20.6277C19.9006 20.6277 20.0897 20.8167 20.0897 21.0505C20.0897 21.2841 19.9006 21.4737 19.6657 21.4737C12.5518 21.4737 6.76733 27.261 6.76733 34.3749C6.76733 34.6088 6.57824 34.7981 6.3433 34.7981Z" fill="black"/>
<path fill-rule="evenodd" clip-rule="evenodd" d="M24.7356 16.1366C23.2172 19.5508 17.6385 21.7039 17.6385 21.7039C17.6385 21.7039 15.5344 16.06 17.0528 12.6449C18.574 9.23069 21.0221 8.37455 23.1433 9.33897C25.2673 10.3025 26.2568 12.7218 24.7356 16.1366Z" fill="white"/>
<path fill-rule="evenodd" clip-rule="evenodd" d="M21.5938 9.28123C19.9463 9.28123 18.4961 10.5028 17.5064 12.7203C16.2965 15.4299 17.5235 19.7256 17.964 21.0706C19.2512 20.5082 23.2557 18.5806 24.4656 15.875C25.1435 14.3569 25.3323 12.9587 25.0177 11.8319C24.7345 10.8305 24.0652 10.0638 23.0755 9.6156C22.5864 9.39365 22.0887 9.28123 21.5938 9.28123ZM17.7095 22.0627C17.6523 22.0627 17.5922 22.0503 17.5378 22.0251C17.4349 21.9786 17.3548 21.8931 17.3147 21.787C17.2261 21.5489 15.1552 15.9175 16.7369 12.3712C17.8696 9.82974 19.5944 8.43042 21.5938 8.43042C22.2088 8.43042 22.8238 8.56798 23.4216 8.83935C24.6458 9.39423 25.4782 10.3488 25.83 11.6004C26.199 12.922 25.9959 14.5207 25.235 16.2241C23.6533 19.7701 18.0956 21.9439 17.8611 22.0344C17.8124 22.0535 17.7609 22.0627 17.7095 22.0627Z" fill="black"/>
<path fill-rule="evenodd" clip-rule="evenodd" d="M26.8616 22.9226C23.3246 24.259 17.7579 21.7831 17.7579 21.7831C17.7579 21.7831 20.2726 16.2558 23.8096 14.9197C27.3494 13.5835 29.7277 14.7346 30.5728 16.9446C31.4149 19.1543 30.4014 21.5865 26.8616 22.9226Z" fill="white"/>
<path fill-rule="evenodd" clip-rule="evenodd" d="M18.2222 21.664C19.2052 22.0577 21.8121 22.9998 24.2235 22.9998C25.0972 22.9998 25.8646 22.8756 26.5055 22.63C28.0576 22.0356 29.1785 21.1776 29.7476 20.1484C30.2534 19.2334 30.3166 18.2057 29.9315 17.1775C29.3653 15.675 28.115 14.8475 26.4107 14.8475C25.6117 14.8475 24.7293 15.0308 23.7837 15.3922C21.0159 16.4533 18.8574 20.3923 18.2222 21.664ZM24.2235 23.8564C21.0073 23.8564 17.6129 22.3417 17.4692 22.2771C17.3657 22.2306 17.2881 22.1444 17.2479 22.038C17.2077 21.9312 17.2105 21.8133 17.2565 21.7092C17.3629 21.4761 19.8605 15.9799 23.4848 14.5909C24.5224 14.1929 25.5082 13.991 26.4107 13.991C28.4628 13.991 30.035 15.0413 30.7248 16.8732C31.2019 18.1458 31.1214 19.4228 30.4891 20.5663C29.8194 21.7738 28.5462 22.7642 26.8044 23.4313C26.0687 23.7136 25.2007 23.8564 24.2235 23.8564Z" fill="black"/>
<path fill-rule="evenodd" clip-rule="evenodd" d="M21.5879 20.6277C21.5051 20.6277 21.4224 20.6036 21.3482 20.5526C21.157 20.419 21.1085 20.1537 21.2397 19.9592C22.0473 18.7702 23.2773 17.2489 24.5643 16.7541C25.3092 16.468 25.9855 16.3228 26.5734 16.3228C27.5579 16.3228 28.1857 16.7216 28.4939 17.5423C28.5738 17.7629 28.4654 18.009 28.2485 18.0927C28.0316 18.1765 27.7862 18.0658 27.7035 17.8449C27.5836 17.5217 27.3867 17.1764 26.5734 17.1764C26.0882 17.1764 25.5118 17.3031 24.864 17.5524C24.0164 17.8771 22.9777 18.9035 21.936 20.4422C21.8533 20.5628 21.722 20.6277 21.5879 20.6277Z" fill="black"/>
<path fill-rule="evenodd" clip-rule="evenodd" d="M31.6172 26.4105C29.4321 26.3179 27.2613 25.9028 25.102 24.9774C21.7484 23.6277 18.5123 21.4178 16.5792 18.6028C14.6089 15.8775 14.1593 13.0435 14.1163 13.0949C14.1593 13.0826 12.587 15.3876 12.2462 19.6377C11.8797 23.7263 13.4949 30.4056 19.7724 34.5063C21.7255 35.7683 24.4662 37.5217 26.1072 37.0522C28.9825 36.228 32.4735 29.9152 31.6172 26.4105Z" fill="white"/>
<path fill-rule="evenodd" clip-rule="evenodd" d="M25.5845 34.9776C25.5758 34.9776 25.57 34.9773 25.5643 34.977C24.6125 34.9332 22.7262 33.8038 21.0043 32.7044C20.8053 32.5784 20.7476 32.3172 20.8745 32.1215C21.0014 31.926 21.2667 31.8694 21.4629 31.9953C23.6462 33.3894 25.0393 34.1094 25.6047 34.1354C25.8383 34.1463 26.02 34.3434 26.0084 34.5761C25.9969 34.8019 25.8094 34.9776 25.5845 34.9776Z" fill="black"/>
<path fill-rule="evenodd" clip-rule="evenodd" d="M13.6331 5.56055C19.1217 5.56284 22.3235 11.6762 19.2569 16.1237C20.0077 16.6277 19.0469 18.0355 17.8186 18.0492L17.4936 17.8739C16.9153 18.9259 15.7877 19.9077 13.6331 19.9103C11.4785 19.9077 10.3479 18.9259 9.77261 17.8739L9.44467 18.0492C8.23648 18.0358 7.24403 16.6371 8.00635 16.1235C4.94271 11.6762 8.14155 5.56284 13.6331 5.56055Z" fill="white"/>
<path fill-rule="evenodd" clip-rule="evenodd" d="M13.275 18.4753C12.847 18.4753 12.4452 18.3013 12.1424 17.9857C11.9765 17.8107 11.9765 17.5266 12.1424 17.351C12.3113 17.176 12.5821 17.176 12.7509 17.351C13.0304 17.643 13.5167 17.643 13.7962 17.3513C13.965 17.1757 14.2358 17.1763 14.4047 17.3507C14.5706 17.5263 14.5706 17.8101 14.4047 17.9857C14.1019 18.3013 13.7001 18.4753 13.275 18.4753Z" fill="black"/>
<path fill-rule="evenodd" clip-rule="evenodd" d="M10.2572 27.9819C9.41346 27.9819 8.23678 28.5011 7.53364 28.5419C6.82763 28.5008 5.65956 27.9819 4.81292 27.9819C3.30332 27.9819 2.51122 29.0393 2.51122 30.5583C2.51122 31.6093 3.22009 32.4276 3.58171 33.3651C4.00359 34.4625 3.75104 35.6824 4.12987 36.7939C4.33938 37.4141 4.61489 38.0529 5.04252 38.5564C5.57346 39.187 6.64395 39.4485 6.67552 38.3595C6.70422 37.4735 6.58655 36.5249 6.77884 35.652C6.9453 34.902 8.11911 34.8818 8.28844 35.652C8.48359 36.5249 8.36592 37.4735 8.39175 38.3595C8.42619 39.4485 9.49669 39.187 10.0276 38.5564C10.4524 38.0529 10.7279 37.4141 10.9403 36.7939C11.3191 35.6824 11.0666 34.4625 11.4884 33.3651C11.8472 32.4276 12.5561 31.6093 12.5561 30.5583C12.5561 29.0393 11.7668 27.9819 10.2572 27.9819Z" fill="white"/>
<path fill-rule="evenodd" clip-rule="evenodd" d="M7.44828 34.7496C8.0278 34.7496 8.49776 35.1135 8.61886 35.6563C8.76302 36.3056 8.7486 36.9725 8.73419 37.6174C8.72842 37.9086 8.72265 38.1838 8.7313 38.4538C8.73995 38.7851 8.8524 38.7851 8.91871 38.7851C9.10323 38.7851 9.40309 38.6488 9.62509 38.3875C10.0489 37.8847 10.3055 37.216 10.4612 36.7569C10.6284 36.2727 10.6602 35.7531 10.6948 35.2027C10.7351 34.5773 10.7755 33.9304 11.0177 33.2995C11.1474 32.9638 11.3146 32.6494 11.4761 32.3448C11.7788 31.7746 12.0643 31.2356 12.0643 30.6369C12.0643 29.9882 11.8797 28.4791 10.1787 28.4791C9.76925 28.4791 9.23586 28.6273 8.71977 28.7712C8.26134 28.8987 7.82886 29.0194 7.46847 29.0406C7.45117 29.0414 7.43387 29.0414 7.41945 29.0406C7.05617 29.0194 6.62369 28.8987 6.16526 28.7709C5.65206 28.6273 5.12155 28.4791 4.70925 28.4791C3.00817 28.4791 2.82365 29.9882 2.82365 30.6369C2.82365 31.2358 3.10908 31.7746 3.41182 32.3454C3.57328 32.6497 3.7405 32.9641 3.87024 33.2995C4.11243 33.9304 4.1528 34.577 4.19316 35.2018C4.22776 35.7525 4.25948 36.2724 4.4267 36.7569C4.58239 37.2163 4.839 37.885 5.26283 38.3875C5.48483 38.6488 5.78468 38.7851 5.96632 38.7851C6.03552 38.7851 6.14796 38.7851 6.15661 38.454C6.16526 38.1832 6.1595 37.9086 6.15373 37.6174C6.13932 36.9722 6.1249 36.3056 6.26906 35.6563C6.39015 35.1135 6.863 34.7496 7.44828 34.7496ZM8.9187 39.6412C8.45739 39.6412 7.9067 39.337 7.88075 38.4797C7.8721 38.1879 7.87787 37.8886 7.88364 37.5997C7.89517 37.0057 7.90959 36.391 7.78561 35.8424C7.73659 35.6221 7.51459 35.6052 7.44828 35.6052C7.41944 35.6052 7.15131 35.6116 7.09941 35.8424C6.97832 36.3907 6.99273 37.0051 7.00426 37.5994C7.01003 37.8886 7.0158 38.1879 7.00715 38.4799C6.9812 39.337 6.43051 39.6412 5.96632 39.6412C5.50501 39.6412 4.9745 39.3663 4.6141 38.9414C4.09513 38.3282 3.79816 37.5593 3.6194 37.0342C3.41758 36.4413 3.3801 35.8392 3.34261 35.2565C3.30513 34.67 3.27053 34.1164 3.07448 33.6084C2.96492 33.3213 2.81787 33.0429 2.6593 32.7479C2.32196 32.11 1.9731 31.4501 1.9731 30.6369C1.9731 28.7782 3.0197 27.6233 4.70925 27.6233C5.23687 27.6233 5.82504 27.7878 6.39303 27.9462C6.79379 28.058 7.17149 28.1632 7.44251 28.1842C7.71353 28.1635 8.09123 28.058 8.49199 27.9465C9.06286 27.7878 9.65392 27.6233 10.1787 27.6233C11.8653 27.6233 12.9148 28.7782 12.9148 30.6369C12.9148 31.4498 12.5659 32.1097 12.2257 32.7473C12.07 33.0426 11.923 33.321 11.8134 33.6084C11.6174 34.1167 11.5828 34.6703 11.5453 35.2571C11.5078 35.8392 11.4703 36.4413 11.2685 37.0342C11.0897 37.5593 10.7899 38.328 10.2738 38.9414C9.9134 39.3663 9.3829 39.6412 8.9187 39.6412Z" fill="black"/>
<path fill-rule="evenodd" clip-rule="evenodd" d="M8.94397 30.3139C8.26207 30.3139 7.67146 29.7905 7.17216 29.3489C6.84405 29.06 6.50738 28.7609 6.21065 28.6614C5.99095 28.5864 5.86827 28.3384 5.9396 28.1072C6.01093 27.8759 6.24774 27.7499 6.47028 27.824C6.92394 27.9772 7.32623 28.3334 7.71711 28.6781C8.4304 29.311 8.81558 29.5837 9.24926 29.3465C9.45468 29.2336 9.71147 29.3166 9.81703 29.532C9.92545 29.7472 9.84557 30.0131 9.64014 30.1257C9.39762 30.2584 9.16652 30.3139 8.94397 30.3139Z" fill="black"/>
<path fill-rule="evenodd" clip-rule="evenodd" d="M7.96379 33.0045C7.72546 33.0045 7.53363 32.8149 7.53363 32.5804C7.53363 32.3462 7.72546 32.156 7.96379 32.156C14.5295 32.156 18.0841 26.7356 18.6944 21.3633C18.7206 21.1302 18.9386 20.9628 19.1682 20.9893C19.4036 21.015 19.5751 21.225 19.5489 21.4581C18.895 27.2055 15.0614 33.0045 7.96379 33.0045Z" fill="black"/>
<path fill-rule="evenodd" clip-rule="evenodd" d="M8.72066 2.51121C8.61075 2.51121 8.50374 2.46947 8.41986 2.386L6.76259 0.728379C6.59484 0.562008 6.59484 0.291294 6.76259 0.125213C6.92745 -0.0417376 7.19933 -0.0417376 7.36418 0.125213L9.02435 1.78254C9.18921 1.9492 9.18921 2.21963 9.02435 2.386C8.94047 2.46947 8.83056 2.51121 8.72066 2.51121Z" fill="black"/>
<path fill-rule="evenodd" clip-rule="evenodd" d="M7.06339 2.51121C6.95348 2.51121 6.84358 2.46947 6.76259 2.386C6.59484 2.21964 6.59484 1.94922 6.76259 1.78256L8.41986 0.124992C8.58761 -0.0416639 8.85659 -0.0416639 9.02435 0.124992C9.18921 0.291358 9.18921 0.561774 9.02435 0.72814L7.36418 2.386C7.28031 2.46947 7.1733 2.51121 7.06339 2.51121Z" fill="black"/>
<path fill-rule="evenodd" clip-rule="evenodd" d="M2.0846 10.9416C1.9747 10.9416 1.86768 10.8999 1.78381 10.8164L0.123644 9.15909C-0.0412148 8.99243 -0.0412148 8.72229 0.123644 8.55563C0.291396 8.38868 0.563269 8.38868 0.728128 8.55563L2.3854 10.213C2.55315 10.3796 2.55315 10.6498 2.3854 10.8164C2.30441 10.8999 2.19451 10.9416 2.0846 10.9416Z" fill="black"/>
<path fill-rule="evenodd" clip-rule="evenodd" d="M0.427332 10.9416C0.317426 10.9416 0.20752 10.8999 0.123644 10.8164C-0.0412148 10.65 -0.0412148 10.3796 0.123644 10.213L1.78381 8.55563C1.94866 8.38868 2.22054 8.38868 2.3854 8.55563C2.55315 8.722 2.55315 8.99214 2.3854 9.1588L0.728128 10.8164C0.644252 10.8999 0.537239 10.9416 0.427332 10.9416Z" fill="black"/>
<path fill-rule="evenodd" clip-rule="evenodd" d="M2.59767 3.76702L2.63234 3.79939C2.86347 4.02536 2.97036 4.35131 2.91547 4.67091L2.9068 4.7157L2.95014 4.69432C3.23038 4.54665 3.58574 4.54665 3.86598 4.69432L3.90932 4.7157L3.90065 4.67062C3.84576 4.35131 3.95265 4.02536 4.18378 3.7991L4.21845 3.76702L4.17222 3.76009C3.85153 3.71357 3.57129 3.51245 3.42973 3.22146L3.4095 3.18042L3.38928 3.22146C3.24483 3.51245 2.96747 3.71357 2.6439 3.76009L2.59767 3.76702ZM4.47558 5.91926C4.40624 5.91926 4.3398 5.90279 4.27624 5.87014L3.47018 5.44767C3.43262 5.42773 3.38351 5.42773 3.34595 5.44767L2.5399 5.87014C2.39544 5.94527 2.2221 5.93313 2.09209 5.83777C1.95919 5.7427 1.89563 5.58146 1.92163 5.42166L2.07475 4.52674C2.08342 4.48339 2.06898 4.43947 2.0372 4.40855L1.38426 3.77427C1.2687 3.66157 1.22536 3.49224 1.27737 3.33793C1.32648 3.1842 1.45938 3.07208 1.62117 3.04839L2.52256 2.91778C2.5659 2.91171 2.60346 2.88426 2.62368 2.84467L3.02526 2.03065C3.09749 1.88559 3.24483 1.7937 3.40951 1.7937C3.5713 1.7937 3.71864 1.88559 3.79087 2.03065L4.19245 2.84496C4.21268 2.88426 4.25023 2.91171 4.29357 2.91778L5.19496 3.04839C5.35675 3.07208 5.48965 3.1842 5.53876 3.33793C5.59077 3.49224 5.54743 3.66157 5.43187 3.77427L4.77894 4.40855C4.74716 4.43947 4.73271 4.48339 4.74138 4.52674L4.8945 5.42166C4.92339 5.58146 4.85694 5.7427 4.72404 5.83777C4.65182 5.89152 4.56226 5.91926 4.47558 5.91926Z" fill="black"/>
<path fill-rule="evenodd" clip-rule="evenodd" d="M26.4785 5.73997C26.3715 5.73997 26.2616 5.69852 26.1777 5.61503L24.5204 3.95712C24.3527 3.79043 24.3527 3.52025 24.5204 3.35356C24.6853 3.18716 24.9572 3.18716 25.122 3.35356L26.7822 5.01147C26.947 5.17816 26.947 5.44834 26.7822 5.61503C26.6983 5.69852 26.5884 5.73997 26.4785 5.73997Z" fill="black"/>
<path fill-rule="evenodd" clip-rule="evenodd" d="M24.8212 5.73997C24.7113 5.73997 24.6014 5.69852 24.5204 5.61504C24.3527 5.44866 24.3527 5.17822 24.5204 5.01155L26.1777 3.35354C26.3455 3.18716 26.6144 3.18716 26.7822 3.35354C26.947 3.52022 26.947 3.79037 26.7822 3.95704L25.122 5.61504C25.0382 5.69852 24.9311 5.73997 24.8212 5.73997Z" fill="black"/>
<path fill-rule="evenodd" clip-rule="evenodd" d="M28.4277 8.07178L28.4624 8.10415C28.6936 8.33042 28.8005 8.65611 28.7456 8.97573L28.7369 9.02081L28.7774 8.99942C29.0606 8.85146 29.4131 8.85146 29.6964 8.99942L29.7368 9.02081L29.731 8.97544C29.6761 8.65611 29.7802 8.33042 30.0142 8.10415L30.046 8.07178L30.0027 8.06513C29.679 8.01861 29.4016 7.81718 29.2571 7.52646L29.2369 7.48543L29.2166 7.52617C29.075 7.81718 28.7947 8.01861 28.4739 8.06513L28.4277 8.07178ZM30.3032 10.2242C30.2368 10.2242 30.1674 10.208 30.1067 10.1754L29.3004 9.75286C29.2629 9.73292 29.2137 9.73292 29.1762 9.75286L28.3699 10.1754C28.2254 10.2505 28.052 10.2381 27.919 10.143C27.789 10.0479 27.7225 9.88637 27.7514 9.72685L27.9046 8.83186C27.9133 8.78851 27.8988 8.7443 27.867 8.71367L27.2139 8.07905C27.0983 7.96606 27.055 7.79729 27.107 7.64297C27.1561 7.48923 27.289 7.37682 27.4509 7.35341L28.3525 7.22279C28.3959 7.21672 28.4335 7.18927 28.4537 7.14967L28.8554 6.33589C28.9276 6.19053 29.075 6.09863 29.2369 6.09863C29.4016 6.09863 29.549 6.19053 29.6212 6.33589L30.0229 7.14996C30.0431 7.18927 30.0807 7.21672 30.1241 7.22279L31.0257 7.35341C31.1847 7.37682 31.3205 7.48923 31.3696 7.64297C31.4188 7.79729 31.3783 7.96606 31.2627 8.07905L30.6096 8.71338C30.5778 8.7443 30.5633 8.78851 30.572 8.83186L30.7252 9.72685C30.7512 9.88637 30.6876 10.0479 30.5547 10.143C30.4795 10.1967 30.3928 10.2242 30.3032 10.2242Z" fill="black"/>
<path fill-rule="evenodd" clip-rule="evenodd" d="M39.4811 32.524C38.4543 32.524 37.3516 30.9597 37.8008 30.5237C38.0167 30.3132 38.6964 30.4685 39.2594 31.0163C39.8312 31.5726 40.1608 32.524 39.4811 32.524ZM39.8691 30.4241C39.3353 29.9056 38.6701 29.5964 38.0867 29.5964C37.7279 29.5964 37.4187 29.7125 37.1911 29.9315C36.9694 30.1502 36.8586 30.4437 36.8498 30.7705C34.9682 30.9915 33.0808 30.9952 31.2138 30.7785C31.0912 31.0456 30.9716 31.3138 30.852 31.5829C32.9874 31.8536 35.0295 31.8388 37.0336 31.5965C37.6491 32.9876 39.4899 33.8861 40.3738 33.0266C40.9835 32.435 40.7618 31.2916 39.8691 30.4241Z" fill="black"/>
<path fill-rule="evenodd" clip-rule="evenodd" d="M37.8766 39.1571C36.6552 39.1571 35.4918 37.0642 36.4932 37.0642C37.7145 37.0642 38.875 39.1571 37.8766 39.1571ZM35.5034 36.6783C33.544 35.992 31.6918 35.0627 29.9929 33.9014C29.8656 34.1537 29.7353 34.4037 29.5964 34.6506C31.3474 35.8365 33.2546 36.7845 35.2689 37.4857C35.3239 39.1297 37.6884 40.7134 38.7622 39.6603C39.367 39.0679 39.1471 37.9234 38.2615 37.0539C37.3353 36.1458 36.0735 35.9307 35.5034 36.6783Z" fill="black"/>
<path fill-rule="evenodd" clip-rule="evenodd" d="M26.0828 36.58C25.9389 36.6206 25.7777 36.6413 25.5992 36.6413C24.0421 36.6413 21.6473 35.1023 20.0642 34.0849C13.9794 30.1267 12.5518 23.81 12.6554 20.2413C14.0341 20.4432 15.5596 20.1731 16.6764 19.3101C18.5646 21.7716 21.5005 23.8833 25.0236 25.294C27.0039 26.1389 29.0907 26.6147 31.3876 26.7458C31.9603 30.1949 28.6215 35.856 26.0828 36.58ZM10.0332 17.6274C9.92098 17.422 9.66481 17.3461 9.45757 17.4577L9.23594 17.5773C8.41849 17.4962 7.83707 16.6214 8.13354 16.4198C8.16232 16.4005 8.18823 16.3767 8.21126 16.3508C9.826 17.1165 11.7084 15.8143 11.4523 14.1568C11.3688 13.6168 11.0666 13.2397 10.7096 13.0182C11.553 12.409 12.5662 12.3526 13.6311 12.2951C14.8314 12.23 16.0662 12.163 17.088 11.3124C16.852 12.4881 17.0679 16.0421 18.8899 16.4011C19.2237 16.6545 18.5963 17.4994 17.8105 17.5773L17.5888 17.4574C17.3845 17.3463 17.1254 17.422 17.0132 17.6274C16.354 18.8376 15.1797 19.4526 13.5246 19.454C11.8696 19.4526 10.6953 18.8379 10.0332 17.6274ZM7.6212 14.548C7.11749 13.3882 7.49743 12.0235 8.63437 10.8979C9.94689 9.59595 11.4465 9.1636 13.3433 9.53957C13.5765 9.58559 13.7981 9.43572 13.8441 9.20646C13.8902 8.97719 13.7405 8.75397 13.5103 8.70881C10.5916 8.13176 8.3379 9.46276 7.18945 11.3616C8.10476 5.15794 16.3109 3.87009 19.1662 9.26629C20.2427 11.3 20.165 13.6255 18.9791 15.5522C18.0235 15.2352 17.7299 12.5942 17.8997 11.5983C18.0177 10.9077 18.3228 10.2222 18.4696 9.47456C18.6164 9.075 18.3027 8.82991 18.0638 8.84516C17.8652 8.84976 17.6896 8.98438 17.6493 9.22746C16.5757 11.235 15.4416 11.3487 13.5851 11.4488C12.2841 11.5195 10.819 11.6027 9.67345 12.8065C8.91357 12.9429 8.4847 13.6937 8.75238 14.3392C8.96538 14.8564 9.75116 14.5351 9.53816 14.0167C9.46333 13.8395 9.66193 13.5852 10.0073 13.637C10.2462 13.6732 10.5456 13.8648 10.6118 14.2859C10.6751 14.7002 10.5053 15.0085 10.3499 15.1949C9.63603 16.053 8.21125 15.9095 7.6212 14.548ZM32.1503 26.2382C32.1043 26.0552 31.9431 25.9238 31.756 25.9157C29.4303 25.8176 27.3377 25.3597 25.3488 24.5119C21.9783 23.1611 19.0769 21.0701 17.2924 18.7191C17.3787 18.6152 17.4622 18.5079 17.5399 18.3934C17.9774 18.5873 19.4339 18.1032 19.7821 16.9468C19.8858 16.6033 19.8512 16.2797 19.69 16.024C22.6317 11.292 19.2496 5.02447 13.5246 5.02246C7.78526 5.02447 4.42337 11.3021 7.35927 16.0228C6.94767 16.6692 7.39381 17.542 8.12203 18.0356C7.84571 18.432 7.39669 18.5007 6.96494 18.312C6.82102 18.2496 6.65408 18.2706 6.53031 18.3675C6.40942 18.4642 6.34898 18.6207 6.37488 18.7743C6.58788 19.9572 7.51182 20.4862 7.81117 20.4862C8.26882 20.4856 8.40122 19.8539 7.97811 19.6735C7.77375 19.5861 7.60105 19.4434 7.46865 19.2581C8.07309 19.2392 8.60559 18.9158 8.91069 18.3793C9.04885 18.4104 9.19564 18.4297 9.3338 18.4297C9.42303 19.3519 9.42879 20.2252 9.22155 20.6196C8.85024 21.3195 8.2055 21.6897 7.53773 21.5859C6.86707 21.4812 6.36337 20.9378 6.22521 20.1677C6.18491 19.9373 5.96328 19.7837 5.73301 19.8251C5.49987 19.866 5.34732 20.0857 5.38761 20.3162C5.61788 21.5942 6.59939 22.4506 7.76799 22.4506C8.66891 22.4506 9.49211 21.9242 9.97279 21.0152C10.1858 20.6127 10.2491 19.9491 10.229 19.209C10.6578 19.5797 11.2047 19.8637 11.812 20.0501C11.5933 24.493 13.4815 30.814 19.6037 34.7958C21.371 35.9323 23.7888 37.4888 25.5992 37.4888C25.8554 37.4888 26.0972 37.4569 26.3159 37.3945C29.5368 36.4766 33.0253 29.804 32.1503 26.2382Z" fill="black"/>
</svg>
