<svg width="90" height="90" viewBox="0 0 90 90" fill="none" xmlns="http://www.w3.org/2000/svg">
<circle cx="45" cy="45" r="45" fill="#6CD6B5"/>
<path d="M28.85 63C28.4833 63 28.1833 62.8833 27.95 62.65C27.75 62.4167 27.65 62.1333 27.65 61.8V35.9L20.05 41.75C19.75 41.95 19.45 42.0333 19.15 42C18.85 41.9333 18.5833 41.75 18.35 41.45L16.25 38.75C16.05 38.45 15.9667 38.1333 16 37.8C16.0667 37.4667 16.25 37.2 16.55 37L27.75 28.35C27.95 28.1833 28.15 28.0833 28.35 28.05C28.55 28.0167 28.7667 28 29 28H33.4C33.7333 28 34.0167 28.1167 34.25 28.35C34.4833 28.5833 34.6 28.8667 34.6 29.2V61.8C34.6 62.1333 34.4833 62.4167 34.25 62.65C34.0167 62.8833 33.7333 63 33.4 63H28.85Z" fill="white"/>
<g filter="url(#filter0_i_718_1960)">
<path d="M47.9194 35.7593C46.4599 36.4093 43.541 38.4893 43.541 41.6093C43.541 45.5093 46.1356 50.3704 46.1356 54.1218C46.1356 57.925 44.6762 61.5 45.1626 64.5218C45.6527 67.5658 47.1086 67.2843 47.9194 67.2843C48.7302 67.2843 50.7249 65.4409 51.3248 64.3593C52.4599 62.3125 52.5955 60.4099 53.4329 58.9C54.568 56.8531 55.7032 57.0468 57.0005 57.0468C58.2978 57.0468 60.2437 57.6 61.2167 60.1343C61.9369 62.0102 62.3518 65.1718 63.8113 66.4718C65.2707 67.7718 66.8924 67.4468 67.7032 65.9843C68.514 64.5218 68.6762 62.7613 68.6762 60.7843C68.6762 58.25 67.0545 54.1218 67.8653 51.6843C68.6762 49.2468 70.6221 46.9718 70.2978 43.7218C69.9735 40.4718 69.0005 38.3593 66.4059 36.5718C63.8113 34.7843 50.3518 34.9468 47.9194 35.7593Z" fill="white"/>
</g>
<path d="M47.9195 35.7592L47.8169 35.4509L47.8021 35.4559L47.7878 35.4622L47.9195 35.7592ZM45.1627 64.5218L45.4829 64.4701L45.1627 64.5218ZM51.3249 64.3593L51.0414 64.2013L51.3249 64.3593ZM53.433 58.8999L53.7165 59.0579L53.433 58.8999ZM61.2168 60.1343L61.5195 60.0176L61.2168 60.1343ZM47.7878 35.4622C47.0228 35.8029 45.8903 36.5099 44.9446 37.5377C43.9974 38.5669 43.2168 39.9419 43.2168 41.6092H43.8654C43.8654 40.1565 44.5443 38.9315 45.4214 37.9783C46.3 37.0235 47.3568 36.3655 48.0512 36.0562L47.7878 35.4622ZM43.2168 41.6092C43.2168 43.6162 43.8828 45.8551 44.5277 48.0143C45.1808 50.201 45.8114 52.3037 45.8114 54.1218H46.46C46.46 52.1883 45.7933 49.9845 45.1491 47.8279C44.4967 45.6438 43.8654 43.5022 43.8654 41.6092H43.2168ZM45.8114 54.1218C45.8114 55.9886 45.4534 57.8001 45.1473 59.559C44.8442 61.3004 44.5894 63.0011 44.8426 64.5734L45.4829 64.4701C45.2496 63.0206 45.4813 61.4229 45.7863 59.6705C46.0883 57.9356 46.46 56.0581 46.46 54.1218H45.8114ZM44.8426 64.5734C45.0944 66.138 45.6094 66.9433 46.2565 67.3246C46.8796 67.6915 47.5661 67.6093 47.9195 67.6093V66.9593C47.4621 66.9593 47.0152 67.0174 46.5852 66.7643C46.1791 66.5251 45.7211 65.9495 45.4829 64.4701L44.8426 64.5734ZM47.9195 67.6093C48.2189 67.6093 48.5624 67.4497 48.8782 67.2566C49.2095 67.0542 49.569 66.7773 49.9157 66.4711C50.6032 65.8643 51.2827 65.1045 51.6084 64.5172L51.0414 64.2013C50.7672 64.696 50.1495 65.3986 49.4869 65.9836C49.1585 66.2735 48.8298 66.5251 48.5404 66.7019C48.2354 66.8884 48.0256 66.9593 47.9195 66.9593V67.6093ZM51.6084 64.5172C52.1938 63.4616 52.5196 62.446 52.8008 61.5233C53.0852 60.5902 53.3183 59.7758 53.7165 59.0579L53.1495 58.742C52.7104 59.534 52.457 60.4258 52.1804 61.3332C51.9007 62.251 51.5911 63.2101 51.0414 64.2013L51.6084 64.5172ZM53.7165 59.0579C54.2584 58.0806 54.7722 57.6857 55.2637 57.5122C55.7843 57.3285 56.3144 57.3718 57.0006 57.3718V56.7218C56.3895 56.7218 55.7033 56.6681 55.0482 56.8992C54.3641 57.1407 53.7427 57.6724 53.1495 58.742L53.7165 59.0579ZM57.0006 57.3718C57.6058 57.3718 58.3564 57.5011 59.0656 57.92C59.7697 58.336 60.4526 59.0488 60.9141 60.2509L61.5195 60.0176C61.008 58.6854 60.2314 57.8544 59.395 57.3601C58.5637 56.869 57.6926 56.7218 57.0006 56.7218V57.3718ZM60.9141 60.2509C61.0881 60.7043 61.2455 61.2402 61.4086 61.821C61.5703 62.3972 61.7375 63.017 61.9277 63.6173C62.3038 64.8042 62.7932 65.9995 63.5959 66.7145L64.0269 66.2287C63.3701 65.6437 62.9223 64.6085 62.546 63.4207C62.36 62.8337 62.1973 62.2302 62.033 61.6452C61.8701 61.0651 61.7056 60.5022 61.5195 60.0176L60.9141 60.2509ZM63.5959 66.7145C64.3802 67.4133 65.2432 67.7042 66.0478 67.5855C66.8534 67.4666 67.5411 66.9459 67.9868 66.1422L67.4198 65.8263C67.0547 66.4848 66.5262 66.8579 65.9534 66.9424C65.3796 67.0269 64.7021 66.8302 64.0269 66.2287L63.5959 66.7145ZM67.9868 66.1422C68.8407 64.6017 69.0006 62.7681 69.0006 60.7843H68.3519C68.3519 62.7541 68.1875 64.4415 67.4198 65.8263L67.9868 66.1422ZM69.0006 60.7843C69.0006 60.1206 68.8949 59.364 68.7548 58.5788C68.6178 57.8102 68.4329 56.9392 68.2857 56.139C67.9798 54.475 67.798 52.915 68.1731 51.787L67.5578 51.5816C67.1221 52.891 67.3457 54.6138 67.6479 56.2567C67.8048 57.1101 67.9746 57.8986 68.1163 58.6932C68.255 59.4706 68.3519 60.1807 68.3519 60.7843H69.0006ZM68.1731 51.787C68.3689 51.1984 68.6349 50.6147 68.9254 50.0099C69.2134 49.4099 69.5281 48.7843 69.8054 48.1357C70.3635 46.8309 70.7904 45.3912 70.6206 43.6894L69.9752 43.7541C70.1297 45.3022 69.7458 46.6251 69.2093 47.8797C68.9393 48.511 68.6357 49.1138 68.3409 49.7278C68.0487 50.3365 67.7674 50.9514 67.5578 51.5816L68.1731 51.787ZM70.6206 43.6894C70.4561 42.0408 70.1248 40.655 69.4903 39.4469C68.8538 38.2351 67.923 37.2224 66.5897 36.3039L66.2223 36.8395C67.4836 37.7085 68.3365 38.6458 68.9163 39.7496C69.498 40.8572 69.8153 42.1526 69.9752 43.7541L70.6206 43.6894ZM66.5897 36.3039C66.2192 36.0486 65.6821 35.8442 65.0496 35.6761C64.4108 35.5064 63.6483 35.3671 62.808 35.2543C61.1271 35.0287 59.1123 34.9063 57.1085 34.8655C55.1039 34.8248 53.1035 34.8655 51.4494 34.9677C49.8107 35.0689 48.4715 35.2323 47.8169 35.4509L48.0221 36.0676C48.5837 35.8799 49.8391 35.7183 51.4893 35.6164C53.124 35.5154 55.1067 35.475 57.0953 35.5154C59.0849 35.5559 61.0734 35.6773 62.7219 35.8985C63.5463 36.0092 64.2799 36.1441 64.8833 36.3044C65.493 36.4664 65.9442 36.648 66.2223 36.8395L66.5897 36.3039Z" fill="black"/>
<g filter="url(#filter1_i_718_1960)">
<path d="M45.3242 23.9625V37.45C48.7837 38.9666 58.1026 41.09 67.7026 37.45V23.9625C64.135 21.6333 54.6648 18.3725 45.3242 23.9625Z" fill="#E0AFFF"/>
<path d="M45.3243 23.9625L45.158 23.6835L45 23.7781V23.9625H45.3243ZM45.3243 37.45H45V37.6625L45.1943 37.7478L45.3243 37.45ZM67.7027 37.45L67.8175 37.754L68.027 37.6745V37.45H67.7027ZM67.7027 23.9625H68.027V23.7863L67.8798 23.6902L67.7027 23.9625ZM45 23.9625V37.45H45.6486V23.9625H45ZM45.1943 37.7478C48.7128 39.2903 58.1211 41.4305 67.8175 37.754L67.5879 37.146C58.0843 40.7495 48.8548 38.643 45.4543 37.1522L45.1943 37.7478ZM68.027 37.45V23.9625H67.3784V37.45H68.027ZM67.8798 23.6902C64.2458 21.3177 54.6385 18.0097 45.158 23.6835L45.4906 24.2415C54.6912 18.7353 64.0244 21.949 67.5257 24.2348L67.8798 23.6902Z" fill="black"/>
</g>
<path d="M48.3245 24.775C48.3245 24.5506 48.143 24.3688 47.9191 24.3688C47.6952 24.3688 47.5137 24.5506 47.5137 24.775H48.3245ZM47.5137 25.2625C47.5137 25.4869 47.6952 25.6688 47.9191 25.6688C48.143 25.6688 48.3245 25.4869 48.3245 25.2625H47.5137ZM47.5137 24.775V25.2625H48.3245V24.775H47.5137Z" fill="white"/>
<path d="M48.3245 26.4C48.3245 26.1756 48.143 25.9938 47.9191 25.9938C47.6952 25.9938 47.5137 26.1756 47.5137 26.4H48.3245ZM47.5137 31.7625C47.5137 31.9869 47.6952 32.1688 47.9191 32.1688C48.143 32.1688 48.3245 31.9869 48.3245 31.7625H47.5137ZM47.5137 26.4V31.7625H48.3245V26.4H47.5137Z" fill="white"/>
<path d="M51.7601 35.7593C51.5448 35.6977 51.3204 35.8226 51.2589 36.0383C51.1973 36.2541 51.322 36.4789 51.5373 36.5406L51.7601 35.7593ZM62.1939 36.5202C62.398 36.4279 62.4887 36.1872 62.3965 35.9827C62.3044 35.7782 62.0643 35.6873 61.8602 35.7797L62.1939 36.5202ZM51.6487 36.1499C51.5373 36.5406 51.5374 36.5406 51.5375 36.5406C51.5376 36.5407 51.5378 36.5407 51.5379 36.5407C51.5382 36.5408 51.5386 36.541 51.5391 36.5411C51.5401 36.5414 51.5415 36.5418 51.5433 36.5423C51.5468 36.5433 51.5518 36.5447 51.5584 36.5465C51.5714 36.5502 51.5905 36.5554 51.6152 36.5621C51.6647 36.5755 51.737 36.5947 51.8299 36.6184C52.0158 36.6657 52.2847 36.7308 52.6194 36.803C53.2883 36.9474 54.2228 37.1207 55.286 37.2363C57.3953 37.4657 60.0806 37.4766 62.1939 36.5202L61.8602 35.7797C59.9519 36.6433 57.448 36.6542 55.3735 36.4286C54.3448 36.3167 53.4388 36.1487 52.7901 36.0087C52.466 35.9388 52.2068 35.876 52.0294 35.8308C51.9407 35.8083 51.8725 35.7901 51.8269 35.7778C51.8041 35.7716 51.7869 35.7669 51.7757 35.7637C51.7701 35.7622 51.766 35.761 51.7634 35.7603C51.762 35.7599 51.7611 35.7596 51.7605 35.7595C51.7603 35.7594 51.7601 35.7593 51.76 35.7593C51.76 35.7593 51.76 35.7593 51.76 35.7593C51.76 35.7593 51.7601 35.7593 51.6487 36.1499Z" fill="white"/>
<g filter="url(#filter2_i_718_1960)">
<path d="M55.8438 19.575C55.5624 18.992 55.2247 17.5926 56.1252 16.6597C56.1252 16.5431 57.3446 17.476 56.5942 19.575H55.8438Z" fill="#8AEFC5"/>
</g>
<path d="M55.8438 19.575C55.5624 18.992 55.2247 17.5926 56.1252 16.6597C56.1252 16.5431 57.3446 17.476 56.5942 19.575H55.8438Z" stroke="black" stroke-width="0.5075"/>
<g filter="url(#filter3_i_718_1960)">
<path d="M56.3514 24.125C57.6948 24.125 58.7838 23.0337 58.7838 21.6875C58.7838 20.3413 57.6948 19.25 56.3514 19.25C55.008 19.25 53.9189 20.3413 53.9189 21.6875C53.9189 23.0337 55.008 24.125 56.3514 24.125Z" fill="#FAF2C9"/>
</g>
<path d="M56.3517 23.865C57.5518 23.865 58.5247 22.8901 58.5247 21.6875C58.5247 20.4849 57.5518 19.51 56.3517 19.51C55.1516 19.51 54.1787 20.4849 54.1787 21.6875C54.1787 22.8901 55.1516 23.865 56.3517 23.865Z" stroke="black" stroke-width="0.58"/>
<g filter="url(#filter4_i_718_1960)">
<path d="M56.3511 23.15C57.1571 23.15 57.8105 22.4952 57.8105 21.6875C57.8105 20.8798 57.1571 20.225 56.3511 20.225C55.545 20.225 54.8916 20.8798 54.8916 21.6875C54.8916 22.4952 55.545 23.15 56.3511 23.15Z" fill="#9CF3D3"/>
</g>
<path d="M56.3512 22.9389C57.0408 22.9389 57.5998 22.3787 57.5998 21.6876C57.5998 20.9966 57.0408 20.4364 56.3512 20.4364C55.6616 20.4364 55.1025 20.9966 55.1025 21.6876C55.1025 22.3787 55.6616 22.9389 56.3512 22.9389Z" stroke="black" stroke-width="0.47125"/>
<path d="M56.0275 21.85C56.2962 21.85 56.514 21.6317 56.514 21.3625C56.514 21.0933 56.2962 20.875 56.0275 20.875C55.7588 20.875 55.541 21.0933 55.541 21.3625C55.541 21.6317 55.7588 21.85 56.0275 21.85Z" fill="white" fill-opacity="0.88"/>
<path d="M53.5948 51.9125L53.9192 54.025H55.8651M53.5948 51.9125L53.2705 49.8H55.2165M53.5948 51.9125H60.3246M55.8651 54.025L55.2165 49.8M55.8651 54.025H57.8921M55.2165 49.8H58.2975M60.3246 51.9125L60.73 49.8H58.2975M60.3246 51.9125L59.9192 54.025H57.8921M58.2975 49.8L57.8921 54.025" stroke="black" stroke-width="0.58" stroke-linejoin="round"/>
<path d="M48.5674 43.7874C49.0539 42.3249 50.9998 40.5374 52.9458 43.7874" stroke="black" stroke-width="0.725"/>
<path d="M60.7295 43.8268C61.216 42.3643 63.1619 40.5768 65.1079 43.8268" stroke="black" stroke-width="0.725"/>
<path d="M70.6217 49.3125C71.6964 49.3125 72.5677 48.4395 72.5677 47.3625C72.5677 46.2856 71.6964 45.4125 70.6217 45.4125C69.547 45.4125 68.6758 46.2856 68.6758 47.3625C68.6758 48.4395 69.547 49.3125 70.6217 49.3125Z" fill="#FDF2C3" stroke="black" stroke-width="0.3625"/>
<path d="M70.6222 48.3862C71.1864 48.3862 71.6438 47.9279 71.6438 47.3625C71.6438 46.7971 71.1864 46.3387 70.6222 46.3387C70.058 46.3387 69.6006 46.7971 69.6006 47.3625C69.6006 47.9279 70.058 48.3862 70.6222 48.3862Z" fill="#E5CBAE" stroke="black" stroke-width="0.25375"/>
<path d="M43.7028 49.3125C44.7775 49.3125 45.6487 48.4395 45.6487 47.3625C45.6487 46.2856 44.7775 45.4125 43.7028 45.4125C42.6281 45.4125 41.7568 46.2856 41.7568 47.3625C41.7568 48.4395 42.6281 49.3125 43.7028 49.3125Z" fill="#FDF2C3" stroke="black" stroke-width="0.3625"/>
<path d="M43.7023 48.3862C44.2665 48.3862 44.7239 47.9279 44.7239 47.3625C44.7239 46.7971 44.2665 46.3387 43.7023 46.3387C43.1381 46.3387 42.6807 46.7971 42.6807 47.3625C42.6807 47.9279 43.1381 48.3862 43.7023 48.3862Z" fill="#E5CBAE" stroke="black" stroke-width="0.25375"/>
<path d="M42.2434 44.9899C43.7122 44.9899 44.9029 43.7968 44.9029 42.3249C44.9029 40.8531 43.7122 39.6599 42.2434 39.6599C40.7747 39.6599 39.584 40.8531 39.584 42.3249C39.584 43.7968 40.7747 44.9899 42.2434 44.9899Z" fill="#FDF2C3" stroke="black" stroke-width="0.58"/>
<path d="M42.2432 43.7225C43.0134 43.7225 43.6378 43.0968 43.6378 42.325C43.6378 41.5532 43.0134 40.9275 42.2432 40.9275C41.473 40.9275 40.8486 41.5532 40.8486 42.325C40.8486 43.0968 41.473 43.7225 42.2432 43.7225Z" fill="#FCBDB4" stroke="black" stroke-width="0.5075"/>
<path d="M71.7561 44.9899C73.2249 44.9899 74.4156 43.7968 74.4156 42.3249C74.4156 40.8531 73.2249 39.6599 71.7561 39.6599C70.2874 39.6599 69.0967 40.8531 69.0967 42.3249C69.0967 43.7968 70.2874 44.9899 71.7561 44.9899Z" fill="#FDF2C3" stroke="black" stroke-width="0.58"/>
<path d="M71.7569 43.7225C72.5271 43.7225 73.1515 43.0968 73.1515 42.325C73.1515 41.5532 72.5271 40.9275 71.7569 40.9275C70.9867 40.9275 70.3623 41.5532 70.3623 42.325C70.3623 43.0968 70.9867 43.7225 71.7569 43.7225Z" fill="#FCBDB4" stroke="black" stroke-width="0.5075"/>
<path d="M45.1623 51.9612C45.8161 51.9612 46.3461 51.4301 46.3461 50.775C46.3461 50.1198 45.8161 49.5887 45.1623 49.5887C44.5085 49.5887 43.9785 50.1198 43.9785 50.775C43.9785 51.4301 44.5085 51.9612 45.1623 51.9612Z" fill="#FDF2C3" stroke="black" stroke-width="0.25375"/>
<path d="M45.1623 51.3438C45.4758 51.3438 45.7299 51.0891 45.7299 50.775C45.7299 50.4609 45.4758 50.2063 45.1623 50.2063C44.8488 50.2063 44.5947 50.4609 44.5947 50.775C44.5947 51.0891 44.8488 51.3438 45.1623 51.3438Z" fill="#E5CBAE" stroke="black" stroke-width="0.18125"/>
<path d="M68.8381 51.9612C69.4919 51.9612 70.0219 51.4301 70.0219 50.775C70.0219 50.1198 69.4919 49.5887 68.8381 49.5887C68.1843 49.5887 67.6543 50.1198 67.6543 50.775C67.6543 51.4301 68.1843 51.9612 68.8381 51.9612Z" fill="#FDF2C3" stroke="black" stroke-width="0.25375"/>
<path d="M68.8381 51.3438C69.1515 51.3438 69.4056 51.0891 69.4056 50.775C69.4056 50.4609 69.1515 50.2063 68.8381 50.2063C68.5246 50.2063 68.2705 50.4609 68.2705 50.775C68.2705 51.0891 68.5246 51.3438 68.8381 51.3438Z" fill="#E5CBAE" stroke="black" stroke-width="0.18125"/>
<g filter="url(#filter5_i_718_1960)">
<path d="M49.0542 50.125C49.9498 50.125 50.6759 49.3975 50.6759 48.5C50.6759 47.6025 49.9498 46.875 49.0542 46.875C48.1586 46.875 47.4326 47.6025 47.4326 48.5C47.4326 49.3975 48.1586 50.125 49.0542 50.125Z" fill="#FF67A1"/>
</g>
<path d="M49.0542 50.125C49.9498 50.125 50.6759 49.3975 50.6759 48.5C50.6759 47.6025 49.9498 46.875 49.0542 46.875C48.1586 46.875 47.4326 47.6025 47.4326 48.5C47.4326 49.3975 48.1586 50.125 49.0542 50.125Z" stroke="black" stroke-width="0.58"/>
<path d="M48.5675 48.1751C48.8362 48.1751 49.054 47.9568 49.054 47.6876C49.054 47.4183 48.8362 47.2001 48.5675 47.2001C48.2989 47.2001 48.0811 47.4183 48.0811 47.6876C48.0811 47.9568 48.2989 48.1751 48.5675 48.1751Z" fill="white" fill-opacity="0.74"/>
<g filter="url(#filter6_i_718_1960)">
<path d="M64.6215 50.125C63.7259 50.125 62.9999 49.3975 62.9999 48.5C62.9999 47.6025 63.7259 46.875 64.6215 46.875C65.5171 46.875 66.2432 47.6025 66.2432 48.5C66.2432 49.3975 65.5171 50.125 64.6215 50.125Z" fill="#FF67A1"/>
</g>
<path d="M64.6215 50.125C63.7259 50.125 62.9999 49.3975 62.9999 48.5C62.9999 47.6025 63.7259 46.875 64.6215 46.875C65.5171 46.875 66.2432 47.6025 66.2432 48.5C66.2432 49.3975 65.5171 50.125 64.6215 50.125Z" stroke="black" stroke-width="0.58"/>
<path d="M65.1082 48.1751C64.8396 48.1751 64.6218 47.9568 64.6218 47.6876C64.6218 47.4183 64.8396 47.2001 65.1082 47.2001C65.3769 47.2001 65.5947 47.4183 65.5947 47.6876C65.5947 47.9568 65.3769 48.1751 65.1082 48.1751Z" fill="white" fill-opacity="0.74"/>
<defs>
<filter id="filter0_i_718_1960" x="43.541" y="33.725" width="26.793" height="33.5662" filterUnits="userSpaceOnUse" color-interpolation-filters="sRGB">
<feFlood flood-opacity="0" result="BackgroundImageFix"/>
<feBlend mode="normal" in="SourceGraphic" in2="BackgroundImageFix" result="shape"/>
<feColorMatrix in="SourceAlpha" type="matrix" values="0 0 0 0 0 0 0 0 0 0 0 0 0 0 0 0 0 0 127 0" result="hardAlpha"/>
<feOffset dy="-1.45"/>
<feGaussianBlur stdDeviation="0.725"/>
<feComposite in2="hardAlpha" operator="arithmetic" k2="-1" k3="1"/>
<feColorMatrix type="matrix" values="0 0 0 0 0 0 0 0 0 0 0 0 0 0 0 0 0 0 0.25 0"/>
<feBlend mode="normal" in2="shape" result="effect1_innerShadow_718_1960"/>
</filter>
<filter id="filter1_i_718_1960" x="45" y="20.5507" width="23.0269" height="19.9592" filterUnits="userSpaceOnUse" color-interpolation-filters="sRGB">
<feFlood flood-opacity="0" result="BackgroundImageFix"/>
<feBlend mode="normal" in="SourceGraphic" in2="BackgroundImageFix" result="shape"/>
<feColorMatrix in="SourceAlpha" type="matrix" values="0 0 0 0 0 0 0 0 0 0 0 0 0 0 0 0 0 0 127 0" result="hardAlpha"/>
<feOffset dy="0.725"/>
<feGaussianBlur stdDeviation="0.725"/>
<feComposite in2="hardAlpha" operator="arithmetic" k2="-1" k3="1"/>
<feColorMatrix type="matrix" values="0 0 0 0 0 0 0 0 0 0 0 0 0 0 0 0 0 0 0.25 0"/>
<feBlend mode="normal" in2="shape" result="effect1_innerShadow_718_1960"/>
</filter>
<filter id="filter2_i_718_1960" x="55.541" y="16.65" width="2.74736" height="4.375" filterUnits="userSpaceOnUse" color-interpolation-filters="sRGB">
<feFlood flood-opacity="0" result="BackgroundImageFix"/>
<feBlend mode="normal" in="SourceGraphic" in2="BackgroundImageFix" result="shape"/>
<feColorMatrix in="SourceAlpha" type="matrix" values="0 0 0 0 0 0 0 0 0 0 0 0 0 0 0 0 0 0 127 0" result="hardAlpha"/>
<feOffset dx="2.175" dy="3.625"/>
<feGaussianBlur stdDeviation="0.725"/>
<feComposite in2="hardAlpha" operator="arithmetic" k2="-1" k3="1"/>
<feColorMatrix type="matrix" values="0 0 0 0 1 0 0 0 0 1 0 0 0 0 1 0 0 0 0.25 0"/>
<feBlend mode="normal" in2="shape" result="effect1_innerShadow_718_1960"/>
</filter>
<filter id="filter3_i_718_1960" x="53.9189" y="19.25" width="4.86475" height="6.325" filterUnits="userSpaceOnUse" color-interpolation-filters="sRGB">
<feFlood flood-opacity="0" result="BackgroundImageFix"/>
<feBlend mode="normal" in="SourceGraphic" in2="BackgroundImageFix" result="shape"/>
<feColorMatrix in="SourceAlpha" type="matrix" values="0 0 0 0 0 0 0 0 0 0 0 0 0 0 0 0 0 0 127 0" result="hardAlpha"/>
<feOffset dy="1.45"/>
<feGaussianBlur stdDeviation="0.725"/>
<feComposite in2="hardAlpha" operator="arithmetic" k2="-1" k3="1"/>
<feColorMatrix type="matrix" values="0 0 0 0 1 0 0 0 0 1 0 0 0 0 1 0 0 0 0.72 0"/>
<feBlend mode="normal" in2="shape" result="effect1_innerShadow_718_1960"/>
</filter>
<filter id="filter4_i_718_1960" x="54.8916" y="20.225" width="2.91895" height="4.375" filterUnits="userSpaceOnUse" color-interpolation-filters="sRGB">
<feFlood flood-opacity="0" result="BackgroundImageFix"/>
<feBlend mode="normal" in="SourceGraphic" in2="BackgroundImageFix" result="shape"/>
<feColorMatrix in="SourceAlpha" type="matrix" values="0 0 0 0 0 0 0 0 0 0 0 0 0 0 0 0 0 0 127 0" result="hardAlpha"/>
<feOffset dy="1.45"/>
<feGaussianBlur stdDeviation="0.725"/>
<feComposite in2="hardAlpha" operator="arithmetic" k2="-1" k3="1"/>
<feColorMatrix type="matrix" values="0 0 0 0 1 0 0 0 0 1 0 0 0 0 1 0 0 0 0.72 0"/>
<feBlend mode="normal" in2="shape" result="effect1_innerShadow_718_1960"/>
</filter>
<filter id="filter5_i_718_1960" x="47.4326" y="46.875" width="3.60566" height="3.975" filterUnits="userSpaceOnUse" color-interpolation-filters="sRGB">
<feFlood flood-opacity="0" result="BackgroundImageFix"/>
<feBlend mode="normal" in="SourceGraphic" in2="BackgroundImageFix" result="shape"/>
<feColorMatrix in="SourceAlpha" type="matrix" values="0 0 0 0 0 0 0 0 0 0 0 0 0 0 0 0 0 0 127 0" result="hardAlpha"/>
<feOffset dx="0.3625" dy="0.725"/>
<feGaussianBlur stdDeviation="0.725"/>
<feComposite in2="hardAlpha" operator="arithmetic" k2="-1" k3="1"/>
<feColorMatrix type="matrix" values="0 0 0 0 1 0 0 0 0 1 0 0 0 0 1 0 0 0 0.51 0"/>
<feBlend mode="normal" in2="shape" result="effect1_innerShadow_718_1960"/>
</filter>
<filter id="filter6_i_718_1960" x="63" y="46.875" width="3.60566" height="3.975" filterUnits="userSpaceOnUse" color-interpolation-filters="sRGB">
<feFlood flood-opacity="0" result="BackgroundImageFix"/>
<feBlend mode="normal" in="SourceGraphic" in2="BackgroundImageFix" result="shape"/>
<feColorMatrix in="SourceAlpha" type="matrix" values="0 0 0 0 0 0 0 0 0 0 0 0 0 0 0 0 0 0 127 0" result="hardAlpha"/>
<feOffset dx="0.3625" dy="0.725"/>
<feGaussianBlur stdDeviation="0.725"/>
<feComposite in2="hardAlpha" operator="arithmetic" k2="-1" k3="1"/>
<feColorMatrix type="matrix" values="0 0 0 0 1 0 0 0 0 1 0 0 0 0 1 0 0 0 0.51 0"/>
<feBlend mode="normal" in2="shape" result="effect1_innerShadow_718_1960"/>
</filter>
</defs>
</svg>
