<svg width="90" height="90" viewBox="0 0 90 90" fill="none" xmlns="http://www.w3.org/2000/svg">
<circle cx="45" cy="45" r="45" fill="#6CD6B5"/>
<path d="M30.75 63C30.4167 63 30.1333 62.8833 29.9 62.65C29.6667 62.4167 29.55 62.1333 29.55 61.8V55.4H13.7C13.3333 55.4 13.0333 55.2833 12.8 55.05C12.6 54.8167 12.5 54.5333 12.5 54.2V50.8C12.5 50.6 12.5333 50.3667 12.6 50.1C12.7 49.8 12.85 49.5333 13.05 49.3L27.8 28.85C28.2333 28.2833 28.85 28 29.65 28H35.1C35.4333 28 35.7167 28.1167 35.95 28.35C36.1833 28.5833 36.3 28.8667 36.3 29.2V49.5H40.75C41.15 49.5 41.45 49.6167 41.65 49.85C41.8833 50.05 42 50.3333 42 50.7V54.2C42 54.5333 41.8833 54.8167 41.65 55.05C41.4167 55.2833 41.1333 55.4 40.8 55.4H36.3V61.8C36.3 62.1333 36.1833 62.4167 35.95 62.65C35.7167 62.8833 35.4333 63 35.1 63H30.75ZM19.45 49.7H29.7V35.25L19.45 49.7Z" fill="white"/>
<g filter="url(#filter0_i_356_2762)">
<path d="M52.9194 35.7593C51.4599 36.4093 48.541 38.4893 48.541 41.6093C48.541 45.5093 51.1356 50.3704 51.1356 54.1218C51.1356 57.925 49.6762 61.5 50.1626 64.5218C50.6527 67.5658 52.1086 67.2843 52.9194 67.2843C53.7302 67.2843 55.7249 65.4409 56.3248 64.3593C57.4599 62.3125 57.5955 60.4099 58.4329 58.9C59.568 56.8531 60.7032 57.0468 62.0005 57.0468C63.2978 57.0468 65.2437 57.6 66.2167 60.1343C66.9369 62.0102 67.3518 65.1718 68.8113 66.4718C70.2707 67.7718 71.8924 67.4468 72.7032 65.9843C73.514 64.5218 73.6762 62.7613 73.6762 60.7843C73.6762 58.25 72.0545 54.1218 72.8653 51.6843C73.6762 49.2468 75.6221 46.9718 75.2978 43.7218C74.9735 40.4718 74.0005 38.3593 71.4059 36.5718C68.8113 34.7843 55.3518 34.9468 52.9194 35.7593Z" fill="white"/>
</g>
<path d="M52.9195 35.7592L52.8169 35.4509L52.8021 35.4559L52.7878 35.4622L52.9195 35.7592ZM50.1627 64.5218L50.4829 64.4701L50.1627 64.5218ZM56.3249 64.3593L56.0414 64.2013L56.3249 64.3593ZM58.433 58.8999L58.7165 59.0579L58.433 58.8999ZM66.2168 60.1343L66.5195 60.0176L66.2168 60.1343ZM52.7878 35.4622C52.0228 35.8029 50.8903 36.5099 49.9446 37.5377C48.9974 38.5669 48.2168 39.9419 48.2168 41.6092H48.8654C48.8654 40.1565 49.5443 38.9315 50.4214 37.9783C51.3 37.0235 52.3568 36.3655 53.0512 36.0562L52.7878 35.4622ZM48.2168 41.6092C48.2168 43.6162 48.8828 45.8551 49.5277 48.0143C50.1808 50.201 50.8114 52.3037 50.8114 54.1218H51.46C51.46 52.1883 50.7933 49.9845 50.1491 47.8279C49.4967 45.6438 48.8654 43.5022 48.8654 41.6092H48.2168ZM50.8114 54.1218C50.8114 55.9886 50.4534 57.8001 50.1473 59.559C49.8442 61.3004 49.5894 63.0011 49.8426 64.5734L50.4829 64.4701C50.2496 63.0206 50.4813 61.4229 50.7863 59.6705C51.0883 57.9356 51.46 56.0581 51.46 54.1218H50.8114ZM49.8426 64.5734C50.0944 66.138 50.6094 66.9433 51.2565 67.3246C51.8796 67.6915 52.5661 67.6093 52.9195 67.6093V66.9593C52.4621 66.9593 52.0152 67.0174 51.5852 66.7643C51.1791 66.5251 50.7211 65.9495 50.4829 64.4701L49.8426 64.5734ZM52.9195 67.6093C53.2189 67.6093 53.5624 67.4497 53.8782 67.2566C54.2095 67.0542 54.569 66.7773 54.9157 66.4711C55.6032 65.8643 56.2827 65.1045 56.6084 64.5172L56.0414 64.2013C55.7672 64.696 55.1495 65.3986 54.4869 65.9836C54.1585 66.2735 53.8298 66.5251 53.5404 66.7019C53.2354 66.8884 53.0256 66.9593 52.9195 66.9593V67.6093ZM56.6084 64.5172C57.1938 63.4616 57.5196 62.446 57.8008 61.5233C58.0852 60.5902 58.3183 59.7758 58.7165 59.0579L58.1495 58.742C57.7104 59.534 57.457 60.4258 57.1804 61.3332C56.9007 62.251 56.5911 63.2101 56.0414 64.2013L56.6084 64.5172ZM58.7165 59.0579C59.2584 58.0806 59.7722 57.6857 60.2637 57.5122C60.7843 57.3285 61.3144 57.3718 62.0006 57.3718V56.7218C61.3895 56.7218 60.7033 56.6681 60.0482 56.8992C59.3641 57.1407 58.7427 57.6724 58.1495 58.742L58.7165 59.0579ZM62.0006 57.3718C62.6058 57.3718 63.3564 57.5011 64.0656 57.92C64.7697 58.336 65.4526 59.0488 65.9141 60.2509L66.5195 60.0176C66.008 58.6854 65.2314 57.8544 64.395 57.3601C63.5637 56.869 62.6926 56.7218 62.0006 56.7218V57.3718ZM65.9141 60.2509C66.0881 60.7043 66.2455 61.2402 66.4086 61.821C66.5703 62.3972 66.7375 63.017 66.9277 63.6173C67.3038 64.8042 67.7932 65.9995 68.5959 66.7145L69.0269 66.2287C68.3701 65.6437 67.9223 64.6085 67.546 63.4207C67.36 62.8337 67.1973 62.2302 67.033 61.6452C66.8701 61.0651 66.7056 60.5022 66.5195 60.0176L65.9141 60.2509ZM68.5959 66.7145C69.3802 67.4133 70.2432 67.7042 71.0478 67.5855C71.8534 67.4666 72.5411 66.9459 72.9868 66.1422L72.4198 65.8263C72.0547 66.4848 71.5262 66.8579 70.9534 66.9424C70.3796 67.0269 69.7021 66.8302 69.0269 66.2287L68.5959 66.7145ZM72.9868 66.1422C73.8407 64.6017 74.0006 62.7681 74.0006 60.7843H73.3519C73.3519 62.7541 73.1875 64.4415 72.4198 65.8263L72.9868 66.1422ZM74.0006 60.7843C74.0006 60.1206 73.8949 59.364 73.7548 58.5788C73.6178 57.8102 73.4329 56.9392 73.2857 56.139C72.9798 54.475 72.798 52.915 73.1731 51.787L72.5578 51.5816C72.1221 52.891 72.3457 54.6138 72.6479 56.2567C72.8048 57.1101 72.9746 57.8986 73.1163 58.6932C73.255 59.4706 73.3519 60.1807 73.3519 60.7843H74.0006ZM73.1731 51.787C73.3689 51.1984 73.6349 50.6147 73.9254 50.0099C74.2134 49.4099 74.5281 48.7843 74.8054 48.1357C75.3635 46.8309 75.7904 45.3912 75.6206 43.6894L74.9752 43.7541C75.1297 45.3022 74.7458 46.6251 74.2093 47.8797C73.9393 48.511 73.6357 49.1138 73.3409 49.7278C73.0487 50.3365 72.7674 50.9514 72.5578 51.5816L73.1731 51.787ZM75.6206 43.6894C75.4561 42.0408 75.1248 40.655 74.4903 39.4469C73.8538 38.2351 72.923 37.2224 71.5897 36.3039L71.2223 36.8395C72.4836 37.7085 73.3365 38.6458 73.9163 39.7496C74.498 40.8572 74.8153 42.1526 74.9752 43.7541L75.6206 43.6894ZM71.5897 36.3039C71.2192 36.0486 70.6821 35.8442 70.0496 35.6761C69.4108 35.5064 68.6483 35.3671 67.808 35.2543C66.1271 35.0287 64.1123 34.9063 62.1085 34.8655C60.1039 34.8248 58.1035 34.8655 56.4494 34.9677C54.8107 35.0689 53.4715 35.2323 52.8169 35.4509L53.0221 36.0676C53.5837 35.8799 54.8391 35.7183 56.4893 35.6164C58.124 35.5154 60.1067 35.475 62.0953 35.5154C64.0849 35.5559 66.0734 35.6773 67.7219 35.8985C68.5463 36.0092 69.2799 36.1441 69.8833 36.3044C70.493 36.4664 70.9442 36.648 71.2223 36.8395L71.5897 36.3039Z" fill="black"/>
<g filter="url(#filter1_i_356_2762)">
<path d="M50.3242 23.9625V37.45C53.7837 38.9667 63.1026 41.09 72.7026 37.45V23.9625C69.135 21.6333 59.6648 18.3725 50.3242 23.9625Z" fill="#E0AFFF"/>
<path d="M50.3243 23.9625L50.158 23.6835L50 23.7781V23.9625H50.3243ZM50.3243 37.45H50V37.6625L50.1943 37.7478L50.3243 37.45ZM72.7027 37.45L72.8175 37.754L73.027 37.6745V37.45H72.7027ZM72.7027 23.9625H73.027V23.7863L72.8798 23.6902L72.7027 23.9625ZM50 23.9625V37.45H50.6486V23.9625H50ZM50.1943 37.7478C53.7128 39.2903 63.1211 41.4305 72.8175 37.754L72.5879 37.146C63.0843 40.7495 53.8548 38.643 50.4543 37.1522L50.1943 37.7478ZM73.027 37.45V23.9625H72.3784V37.45H73.027ZM72.8798 23.6902C69.2458 21.3177 59.6385 18.0097 50.158 23.6835L50.4906 24.2415C59.6912 18.7353 69.0244 21.949 72.5257 24.2348L72.8798 23.6902Z" fill="black"/>
</g>
<path d="M53.3245 24.775C53.3245 24.5506 53.143 24.3687 52.9191 24.3687C52.6952 24.3687 52.5137 24.5506 52.5137 24.775H53.3245ZM52.5137 25.2625C52.5137 25.4869 52.6952 25.6687 52.9191 25.6687C53.143 25.6687 53.3245 25.4869 53.3245 25.2625H52.5137ZM52.5137 24.775V25.2625H53.3245V24.775H52.5137Z" fill="white"/>
<path d="M53.3245 26.4C53.3245 26.1756 53.143 25.9937 52.9191 25.9937C52.6952 25.9937 52.5137 26.1756 52.5137 26.4H53.3245ZM52.5137 31.7625C52.5137 31.9869 52.6952 32.1687 52.9191 32.1687C53.143 32.1687 53.3245 31.9869 53.3245 31.7625H52.5137ZM52.5137 26.4V31.7625H53.3245V26.4H52.5137Z" fill="white"/>
<path d="M56.7591 35.7593C56.5438 35.6977 56.3194 35.8226 56.2579 36.0383C56.1964 36.2541 56.321 36.4789 56.5363 36.5406L56.7591 35.7593ZM67.1929 36.5202C67.397 36.4279 67.4877 36.1872 67.3956 35.9827C67.3034 35.7782 67.0633 35.6873 66.8592 35.7797L67.1929 36.5202ZM56.6477 36.1499C56.5363 36.5406 56.5364 36.5406 56.5366 36.5406C56.5367 36.5407 56.5368 36.5407 56.5369 36.5407C56.5372 36.5408 56.5377 36.541 56.5381 36.5411C56.5392 36.5414 56.5405 36.5418 56.5423 36.5423C56.5458 36.5433 56.5509 36.5447 56.5574 36.5465C56.5704 36.5502 56.5895 36.5554 56.6142 36.5621C56.6637 36.5755 56.736 36.5947 56.829 36.6184C57.0149 36.6657 57.2837 36.7308 57.6184 36.803C58.2874 36.9474 59.2219 37.1207 60.285 37.2363C62.3943 37.4657 65.0796 37.4766 67.1929 36.5202L66.8592 35.7797C64.9509 36.6433 62.447 36.6542 60.3725 36.4286C59.3438 36.3167 58.4378 36.1487 57.7891 36.0087C57.4651 35.9388 57.2059 35.876 57.0284 35.8308C56.9398 35.8083 56.8715 35.7901 56.8259 35.7778C56.8031 35.7716 56.786 35.7669 56.7747 35.7637C56.7691 35.7622 56.765 35.761 56.7624 35.7603C56.7611 35.7599 56.7601 35.7596 56.7596 35.7595C56.7593 35.7594 56.7591 35.7593 56.759 35.7593C56.759 35.7593 56.759 35.7593 56.759 35.7593C56.759 35.7593 56.7591 35.7593 56.6477 36.1499Z" fill="white"/>
<g filter="url(#filter2_i_356_2762)">
<path d="M60.8438 19.575C60.5624 18.992 60.2247 17.5926 61.1252 16.6597C61.1252 16.5431 62.3446 17.476 61.5942 19.575H60.8438Z" fill="#8AEFC5"/>
</g>
<path d="M60.8438 19.575C60.5624 18.992 60.2247 17.5926 61.1252 16.6597C61.1252 16.5431 62.3446 17.476 61.5942 19.575H60.8438Z" stroke="black" stroke-width="0.5075"/>
<g filter="url(#filter3_i_356_2762)">
<path d="M61.3504 24.125C62.6938 24.125 63.7828 23.0337 63.7828 21.6875C63.7828 20.3413 62.6938 19.25 61.3504 19.25C60.007 19.25 58.918 20.3413 58.918 21.6875C58.918 23.0337 60.007 24.125 61.3504 24.125Z" fill="#FAF2C9"/>
</g>
<path d="M61.3527 23.865C62.5528 23.865 63.5256 22.8901 63.5256 21.6875C63.5256 20.4849 62.5528 19.51 61.3527 19.51C60.1526 19.51 59.1797 20.4849 59.1797 21.6875C59.1797 22.8901 60.1526 23.865 61.3527 23.865Z" stroke="black" stroke-width="0.58"/>
<g filter="url(#filter4_i_356_2762)">
<path d="M61.3501 23.15C62.1561 23.15 62.8095 22.4952 62.8095 21.6875C62.8095 20.8798 62.1561 20.225 61.3501 20.225C60.544 20.225 59.8906 20.8798 59.8906 21.6875C59.8906 22.4952 60.544 23.15 61.3501 23.15Z" fill="#9CF3D3"/>
</g>
<path d="M61.3522 22.9388C62.0418 22.9388 62.6008 22.3786 62.6008 21.6876C62.6008 20.9965 62.0418 20.4363 61.3522 20.4363C60.6626 20.4363 60.1035 20.9965 60.1035 21.6876C60.1035 22.3786 60.6626 22.9388 61.3522 22.9388Z" stroke="black" stroke-width="0.47125"/>
<path d="M61.0275 21.85C61.2962 21.85 61.514 21.6317 61.514 21.3625C61.514 21.0933 61.2962 20.875 61.0275 20.875C60.7588 20.875 60.541 21.0933 60.541 21.3625C60.541 21.6317 60.7588 21.85 61.0275 21.85Z" fill="white" fill-opacity="0.88"/>
<path d="M58.5939 51.9125L58.9182 54.025H60.8641M58.5939 51.9125L58.2695 49.8H60.2155M58.5939 51.9125H65.3236M60.8641 54.025L60.2155 49.8M60.8641 54.025H62.8912M60.2155 49.8H63.2966M65.3236 51.9125L65.729 49.8H63.2966M65.3236 51.9125L64.9182 54.025H62.8912M63.2966 49.8L62.8912 54.025" stroke="black" stroke-width="0.58" stroke-linejoin="round"/>
<path d="M53.5664 43.7874C54.0529 42.3249 55.9988 40.5374 57.9448 43.7874" stroke="black" stroke-width="0.725"/>
<path d="M65.7285 43.8268C66.215 42.3643 68.1609 40.5768 70.1069 43.8268" stroke="black" stroke-width="0.725"/>
<path d="M75.6217 49.3125C76.6964 49.3125 77.5677 48.4395 77.5677 47.3625C77.5677 46.2856 76.6964 45.4125 75.6217 45.4125C74.547 45.4125 73.6758 46.2856 73.6758 47.3625C73.6758 48.4395 74.547 49.3125 75.6217 49.3125Z" fill="#FDF2C3" stroke="black" stroke-width="0.3625"/>
<path d="M75.6232 48.3862C76.1874 48.3862 76.6448 47.9279 76.6448 47.3625C76.6448 46.7971 76.1874 46.3387 75.6232 46.3387C75.059 46.3387 74.6016 46.7971 74.6016 47.3625C74.6016 47.9279 75.059 48.3862 75.6232 48.3862Z" fill="#E5CBAE" stroke="black" stroke-width="0.25375"/>
<path d="M48.7018 49.3125C49.7765 49.3125 50.6478 48.4395 50.6478 47.3625C50.6478 46.2856 49.7765 45.4125 48.7018 45.4125C47.6271 45.4125 46.7559 46.2856 46.7559 47.3625C46.7559 48.4395 47.6271 49.3125 48.7018 49.3125Z" fill="#FDF2C3" stroke="black" stroke-width="0.3625"/>
<path d="M48.7013 48.3862C49.2655 48.3862 49.7229 47.9279 49.7229 47.3625C49.7229 46.7971 49.2655 46.3387 48.7013 46.3387C48.1371 46.3387 47.6797 46.7971 47.6797 47.3625C47.6797 47.9279 48.1371 48.3862 48.7013 48.3862Z" fill="#E5CBAE" stroke="black" stroke-width="0.25375"/>
<path d="M47.2434 44.9899C48.7122 44.9899 49.9029 43.7968 49.9029 42.3249C49.9029 40.8531 48.7122 39.6599 47.2434 39.6599C45.7747 39.6599 44.584 40.8531 44.584 42.3249C44.584 43.7968 45.7747 44.9899 47.2434 44.9899Z" fill="#FDF2C3" stroke="black" stroke-width="0.58"/>
<path d="M47.2442 43.7225C48.0144 43.7225 48.6388 43.0968 48.6388 42.325C48.6388 41.5532 48.0144 40.9275 47.2442 40.9275C46.474 40.9275 45.8496 41.5532 45.8496 42.325C45.8496 43.0968 46.474 43.7225 47.2442 43.7225Z" fill="#FCBDB4" stroke="black" stroke-width="0.5075"/>
<path d="M76.7571 44.9899C78.2259 44.9899 79.4166 43.7968 79.4166 42.3249C79.4166 40.8531 78.2259 39.6599 76.7571 39.6599C75.2883 39.6599 74.0977 40.8531 74.0977 42.3249C74.0977 43.7968 75.2883 44.9899 76.7571 44.9899Z" fill="#FDF2C3" stroke="black" stroke-width="0.58"/>
<path d="M76.7559 43.7225C77.5261 43.7225 78.1505 43.0968 78.1505 42.325C78.1505 41.5532 77.5261 40.9275 76.7559 40.9275C75.9857 40.9275 75.3613 41.5532 75.3613 42.325C75.3613 43.0968 75.9857 43.7225 76.7559 43.7225Z" fill="#FCBDB4" stroke="black" stroke-width="0.5075"/>
<path d="M50.1623 51.9612C50.8161 51.9612 51.3461 51.4301 51.3461 50.775C51.3461 50.1198 50.8161 49.5887 50.1623 49.5887C49.5085 49.5887 48.9785 50.1198 48.9785 50.775C48.9785 51.4301 49.5085 51.9612 50.1623 51.9612Z" fill="#FDF2C3" stroke="black" stroke-width="0.25375"/>
<path d="M50.1613 51.3437C50.4748 51.3437 50.7289 51.0891 50.7289 50.775C50.7289 50.4609 50.4748 50.2062 50.1613 50.2062C49.8479 50.2062 49.5938 50.4609 49.5938 50.775C49.5938 51.0891 49.8479 51.3437 50.1613 51.3437Z" fill="#E5CBAE" stroke="black" stroke-width="0.18125"/>
<path d="M73.8381 51.9612C74.4919 51.9612 75.0219 51.4301 75.0219 50.775C75.0219 50.1198 74.4919 49.5887 73.8381 49.5887C73.1843 49.5887 72.6543 50.1198 72.6543 50.775C72.6543 51.4301 73.1843 51.9612 73.8381 51.9612Z" fill="#FDF2C3" stroke="black" stroke-width="0.25375"/>
<path d="M73.8371 51.3437C74.1506 51.3437 74.4047 51.0891 74.4047 50.775C74.4047 50.4609 74.1506 50.2062 73.8371 50.2062C73.5236 50.2062 73.2695 50.4609 73.2695 50.775C73.2695 51.0891 73.5236 51.3437 73.8371 51.3437Z" fill="#E5CBAE" stroke="black" stroke-width="0.18125"/>
<g filter="url(#filter5_i_356_2762)">
<path d="M54.0533 50.125C54.9489 50.125 55.6749 49.3975 55.6749 48.5C55.6749 47.6025 54.9489 46.875 54.0533 46.875C53.1577 46.875 52.4316 47.6025 52.4316 48.5C52.4316 49.3975 53.1577 50.125 54.0533 50.125Z" fill="#FF67A1"/>
</g>
<path d="M54.0533 50.125C54.9489 50.125 55.6749 49.3975 55.6749 48.5C55.6749 47.6025 54.9489 46.875 54.0533 46.875C53.1577 46.875 52.4316 47.6025 52.4316 48.5C52.4316 49.3975 53.1577 50.125 54.0533 50.125Z" stroke="black" stroke-width="0.58"/>
<path d="M53.5685 48.1751C53.8372 48.1751 54.055 47.9568 54.055 47.6876C54.055 47.4183 53.8372 47.2001 53.5685 47.2001C53.2998 47.2001 53.082 47.4183 53.082 47.6876C53.082 47.9568 53.2998 48.1751 53.5685 48.1751Z" fill="white" fill-opacity="0.74"/>
<g filter="url(#filter6_i_356_2762)">
<path d="M69.6225 50.125C68.7269 50.125 68.0009 49.3975 68.0009 48.5C68.0009 47.6025 68.7269 46.875 69.6225 46.875C70.5181 46.875 71.2441 47.6025 71.2441 48.5C71.2441 49.3975 70.5181 50.125 69.6225 50.125Z" fill="#FF67A1"/>
</g>
<path d="M69.6225 50.125C68.7269 50.125 68.0009 49.3975 68.0009 48.5C68.0009 47.6025 68.7269 46.875 69.6225 46.875C70.5181 46.875 71.2441 47.6025 71.2441 48.5C71.2441 49.3975 70.5181 50.125 69.6225 50.125Z" stroke="black" stroke-width="0.58"/>
<path d="M70.1073 48.1751C69.8386 48.1751 69.6208 47.9568 69.6208 47.6876C69.6208 47.4183 69.8386 47.2001 70.1073 47.2001C70.3759 47.2001 70.5938 47.4183 70.5938 47.6876C70.5938 47.9568 70.3759 48.1751 70.1073 48.1751Z" fill="white" fill-opacity="0.74"/>
<defs>
<filter id="filter0_i_356_2762" x="48.541" y="33.725" width="26.793" height="33.5662" filterUnits="userSpaceOnUse" color-interpolation-filters="sRGB">
<feFlood flood-opacity="0" result="BackgroundImageFix"/>
<feBlend mode="normal" in="SourceGraphic" in2="BackgroundImageFix" result="shape"/>
<feColorMatrix in="SourceAlpha" type="matrix" values="0 0 0 0 0 0 0 0 0 0 0 0 0 0 0 0 0 0 127 0" result="hardAlpha"/>
<feOffset dy="-1.45"/>
<feGaussianBlur stdDeviation="0.725"/>
<feComposite in2="hardAlpha" operator="arithmetic" k2="-1" k3="1"/>
<feColorMatrix type="matrix" values="0 0 0 0 0 0 0 0 0 0 0 0 0 0 0 0 0 0 0.25 0"/>
<feBlend mode="normal" in2="shape" result="effect1_innerShadow_356_2762"/>
</filter>
<filter id="filter1_i_356_2762" x="50" y="20.5507" width="23.0273" height="19.9592" filterUnits="userSpaceOnUse" color-interpolation-filters="sRGB">
<feFlood flood-opacity="0" result="BackgroundImageFix"/>
<feBlend mode="normal" in="SourceGraphic" in2="BackgroundImageFix" result="shape"/>
<feColorMatrix in="SourceAlpha" type="matrix" values="0 0 0 0 0 0 0 0 0 0 0 0 0 0 0 0 0 0 127 0" result="hardAlpha"/>
<feOffset dy="0.725"/>
<feGaussianBlur stdDeviation="0.725"/>
<feComposite in2="hardAlpha" operator="arithmetic" k2="-1" k3="1"/>
<feColorMatrix type="matrix" values="0 0 0 0 0 0 0 0 0 0 0 0 0 0 0 0 0 0 0.25 0"/>
<feBlend mode="normal" in2="shape" result="effect1_innerShadow_356_2762"/>
</filter>
<filter id="filter2_i_356_2762" x="60.541" y="16.65" width="2.74687" height="4.37499" filterUnits="userSpaceOnUse" color-interpolation-filters="sRGB">
<feFlood flood-opacity="0" result="BackgroundImageFix"/>
<feBlend mode="normal" in="SourceGraphic" in2="BackgroundImageFix" result="shape"/>
<feColorMatrix in="SourceAlpha" type="matrix" values="0 0 0 0 0 0 0 0 0 0 0 0 0 0 0 0 0 0 127 0" result="hardAlpha"/>
<feOffset dx="2.175" dy="3.625"/>
<feGaussianBlur stdDeviation="0.725"/>
<feComposite in2="hardAlpha" operator="arithmetic" k2="-1" k3="1"/>
<feColorMatrix type="matrix" values="0 0 0 0 1 0 0 0 0 1 0 0 0 0 1 0 0 0 0.25 0"/>
<feBlend mode="normal" in2="shape" result="effect1_innerShadow_356_2762"/>
</filter>
<filter id="filter3_i_356_2762" x="58.918" y="19.25" width="4.86523" height="6.325" filterUnits="userSpaceOnUse" color-interpolation-filters="sRGB">
<feFlood flood-opacity="0" result="BackgroundImageFix"/>
<feBlend mode="normal" in="SourceGraphic" in2="BackgroundImageFix" result="shape"/>
<feColorMatrix in="SourceAlpha" type="matrix" values="0 0 0 0 0 0 0 0 0 0 0 0 0 0 0 0 0 0 127 0" result="hardAlpha"/>
<feOffset dy="1.45"/>
<feGaussianBlur stdDeviation="0.725"/>
<feComposite in2="hardAlpha" operator="arithmetic" k2="-1" k3="1"/>
<feColorMatrix type="matrix" values="0 0 0 0 1 0 0 0 0 1 0 0 0 0 1 0 0 0 0.72 0"/>
<feBlend mode="normal" in2="shape" result="effect1_innerShadow_356_2762"/>
</filter>
<filter id="filter4_i_356_2762" x="59.8906" y="20.225" width="2.91797" height="4.37499" filterUnits="userSpaceOnUse" color-interpolation-filters="sRGB">
<feFlood flood-opacity="0" result="BackgroundImageFix"/>
<feBlend mode="normal" in="SourceGraphic" in2="BackgroundImageFix" result="shape"/>
<feColorMatrix in="SourceAlpha" type="matrix" values="0 0 0 0 0 0 0 0 0 0 0 0 0 0 0 0 0 0 127 0" result="hardAlpha"/>
<feOffset dy="1.45"/>
<feGaussianBlur stdDeviation="0.725"/>
<feComposite in2="hardAlpha" operator="arithmetic" k2="-1" k3="1"/>
<feColorMatrix type="matrix" values="0 0 0 0 1 0 0 0 0 1 0 0 0 0 1 0 0 0 0.72 0"/>
<feBlend mode="normal" in2="shape" result="effect1_innerShadow_356_2762"/>
</filter>
<filter id="filter5_i_356_2762" x="52.4316" y="46.875" width="3.60664" height="3.975" filterUnits="userSpaceOnUse" color-interpolation-filters="sRGB">
<feFlood flood-opacity="0" result="BackgroundImageFix"/>
<feBlend mode="normal" in="SourceGraphic" in2="BackgroundImageFix" result="shape"/>
<feColorMatrix in="SourceAlpha" type="matrix" values="0 0 0 0 0 0 0 0 0 0 0 0 0 0 0 0 0 0 127 0" result="hardAlpha"/>
<feOffset dx="0.3625" dy="0.725"/>
<feGaussianBlur stdDeviation="0.725"/>
<feComposite in2="hardAlpha" operator="arithmetic" k2="-1" k3="1"/>
<feColorMatrix type="matrix" values="0 0 0 0 1 0 0 0 0 1 0 0 0 0 1 0 0 0 0.51 0"/>
<feBlend mode="normal" in2="shape" result="effect1_innerShadow_356_2762"/>
</filter>
<filter id="filter6_i_356_2762" x="68" y="46.875" width="3.60664" height="3.975" filterUnits="userSpaceOnUse" color-interpolation-filters="sRGB">
<feFlood flood-opacity="0" result="BackgroundImageFix"/>
<feBlend mode="normal" in="SourceGraphic" in2="BackgroundImageFix" result="shape"/>
<feColorMatrix in="SourceAlpha" type="matrix" values="0 0 0 0 0 0 0 0 0 0 0 0 0 0 0 0 0 0 127 0" result="hardAlpha"/>
<feOffset dx="0.3625" dy="0.725"/>
<feGaussianBlur stdDeviation="0.725"/>
<feComposite in2="hardAlpha" operator="arithmetic" k2="-1" k3="1"/>
<feColorMatrix type="matrix" values="0 0 0 0 1 0 0 0 0 1 0 0 0 0 1 0 0 0 0.51 0"/>
<feBlend mode="normal" in2="shape" result="effect1_innerShadow_356_2762"/>
</filter>
</defs>
</svg>
