<svg width="90" height="90" viewBox="0 0 90 90" fill="none" xmlns="http://www.w3.org/2000/svg">
<circle cx="45" cy="45" r="45" fill="#6CD6B5"/>
<path d="M26.3 63.55C23.4333 63.55 21.0167 63.0833 19.05 62.15C17.0833 61.1833 15.5833 59.9333 14.55 58.4C13.55 56.8667 13.0167 55.2333 12.95 53.5C12.9167 53.2 13 52.9667 13.2 52.8C13.4333 52.6 13.7 52.5 14 52.5H18.65C19.0167 52.5 19.3167 52.5833 19.55 52.75C19.8167 52.8833 20.0167 53.1333 20.15 53.5C20.4833 54.5 20.95 55.3167 21.55 55.95C22.1833 56.5833 22.9 57.05 23.7 57.35C24.5333 57.65 25.4 57.8 26.3 57.8C27.5 57.8 28.5833 57.5667 29.55 57.1C30.55 56.6 31.35 55.8667 31.95 54.9C32.55 53.9333 32.85 52.75 32.85 51.35C32.85 50.1167 32.5667 49.05 32 48.15C31.4333 47.25 30.65 46.55 29.65 46.05C28.6833 45.5167 27.5667 45.25 26.3 45.25C25.3667 45.25 24.6 45.3667 24 45.6C23.4 45.8333 22.8833 46.1 22.45 46.4C22.05 46.7 21.6833 46.9667 21.35 47.2C21.05 47.4333 20.7 47.55 20.3 47.55H15.7C15.4 47.55 15.1333 47.45 14.9 47.25C14.7 47.0167 14.6 46.75 14.6 46.45L16.35 29.35C16.3833 28.9167 16.5333 28.5833 16.8 28.35C17.0667 28.1167 17.3833 28 17.75 28H36.55C36.8833 28 37.1667 28.1167 37.4 28.35C37.6333 28.5833 37.75 28.8667 37.75 29.2V32.55C37.75 32.8833 37.6333 33.1667 37.4 33.4C37.1667 33.6333 36.8833 33.75 36.55 33.75H22.1L21.3 41.9C21.9 41.5 22.7 41.1167 23.7 40.75C24.7 40.3833 26.0833 40.2 27.85 40.2C29.45 40.2 30.9667 40.4667 32.4 41C33.8667 41.5 35.1667 42.25 36.3 43.25C37.4333 44.2167 38.3167 45.4 38.95 46.8C39.6167 48.1667 39.95 49.7333 39.95 51.5C39.95 53.9333 39.3833 56.05 38.25 57.85C37.1167 59.65 35.5333 61.05 33.5 62.05C31.4667 63.05 29.0667 63.55 26.3 63.55Z" fill="white"/>
<g filter="url(#filter0_i_356_2820)">
<path d="M51.9194 35.7593C50.4599 36.4093 47.541 38.4893 47.541 41.6093C47.541 45.5093 50.1356 50.3704 50.1356 54.1218C50.1356 57.925 48.6762 61.5 49.1626 64.5218C49.6527 67.5658 51.1086 67.2843 51.9194 67.2843C52.7302 67.2843 54.7249 65.4409 55.3248 64.3593C56.4599 62.3125 56.5955 60.4099 57.4329 58.9C58.568 56.8531 59.7032 57.0468 61.0005 57.0468C62.2978 57.0468 64.2437 57.6 65.2167 60.1343C65.9369 62.0102 66.3518 65.1718 67.8113 66.4718C69.2707 67.7718 70.8924 67.4468 71.7032 65.9843C72.514 64.5218 72.6762 62.7613 72.6762 60.7843C72.6762 58.25 71.0545 54.1218 71.8653 51.6843C72.6762 49.2468 74.6221 46.9718 74.2978 43.7218C73.9735 40.4718 73.0005 38.3593 70.4059 36.5718C67.8113 34.7843 54.3518 34.9468 51.9194 35.7593Z" fill="white"/>
</g>
<path d="M51.9195 35.7592L51.8169 35.4509L51.8021 35.4559L51.7878 35.4622L51.9195 35.7592ZM49.1627 64.5218L49.4829 64.4701L49.1627 64.5218ZM55.3249 64.3593L55.0414 64.2013L55.3249 64.3593ZM57.433 58.8999L57.7165 59.0579L57.433 58.8999ZM65.2168 60.1343L65.5195 60.0176L65.2168 60.1343ZM51.7878 35.4622C51.0228 35.8029 49.8903 36.5099 48.9446 37.5377C47.9974 38.5669 47.2168 39.9419 47.2168 41.6092H47.8654C47.8654 40.1565 48.5443 38.9315 49.4214 37.9783C50.3 37.0235 51.3568 36.3655 52.0512 36.0562L51.7878 35.4622ZM47.2168 41.6092C47.2168 43.6162 47.8828 45.8551 48.5277 48.0143C49.1808 50.201 49.8114 52.3037 49.8114 54.1218H50.46C50.46 52.1883 49.7933 49.9845 49.1491 47.8279C48.4967 45.6438 47.8654 43.5022 47.8654 41.6092H47.2168ZM49.8114 54.1218C49.8114 55.9886 49.4534 57.8001 49.1473 59.559C48.8442 61.3004 48.5894 63.0011 48.8426 64.5734L49.4829 64.4701C49.2496 63.0206 49.4813 61.4229 49.7863 59.6705C50.0883 57.9356 50.46 56.0581 50.46 54.1218H49.8114ZM48.8426 64.5734C49.0944 66.138 49.6094 66.9433 50.2565 67.3246C50.8796 67.6915 51.5661 67.6093 51.9195 67.6093V66.9593C51.4621 66.9593 51.0152 67.0174 50.5852 66.7643C50.1791 66.5251 49.7211 65.9495 49.4829 64.4701L48.8426 64.5734ZM51.9195 67.6093C52.2189 67.6093 52.5624 67.4497 52.8782 67.2566C53.2095 67.0542 53.569 66.7773 53.9157 66.4711C54.6032 65.8643 55.2827 65.1045 55.6084 64.5172L55.0414 64.2013C54.7672 64.696 54.1495 65.3986 53.4869 65.9836C53.1585 66.2735 52.8298 66.5251 52.5404 66.7019C52.2354 66.8884 52.0256 66.9593 51.9195 66.9593V67.6093ZM55.6084 64.5172C56.1938 63.4616 56.5196 62.446 56.8008 61.5233C57.0852 60.5902 57.3183 59.7758 57.7165 59.0579L57.1495 58.742C56.7104 59.534 56.457 60.4258 56.1804 61.3332C55.9007 62.251 55.5911 63.2101 55.0414 64.2013L55.6084 64.5172ZM57.7165 59.0579C58.2584 58.0806 58.7722 57.6857 59.2637 57.5122C59.7843 57.3285 60.3144 57.3718 61.0006 57.3718V56.7218C60.3895 56.7218 59.7033 56.6681 59.0482 56.8992C58.3641 57.1407 57.7427 57.6724 57.1495 58.742L57.7165 59.0579ZM61.0006 57.3718C61.6058 57.3718 62.3564 57.5011 63.0656 57.92C63.7697 58.336 64.4526 59.0488 64.9141 60.2509L65.5195 60.0176C65.008 58.6854 64.2314 57.8544 63.395 57.3601C62.5637 56.869 61.6926 56.7218 61.0006 56.7218V57.3718ZM64.9141 60.2509C65.0881 60.7043 65.2455 61.2402 65.4086 61.821C65.5703 62.3972 65.7375 63.017 65.9277 63.6173C66.3038 64.8042 66.7932 65.9995 67.5959 66.7145L68.0269 66.2287C67.3701 65.6437 66.9223 64.6085 66.546 63.4207C66.36 62.8337 66.1973 62.2302 66.033 61.6452C65.8701 61.0651 65.7056 60.5022 65.5195 60.0176L64.9141 60.2509ZM67.5959 66.7145C68.3802 67.4133 69.2432 67.7042 70.0478 67.5855C70.8534 67.4666 71.5411 66.9459 71.9868 66.1422L71.4198 65.8263C71.0547 66.4848 70.5262 66.8579 69.9534 66.9424C69.3796 67.0269 68.7021 66.8302 68.0269 66.2287L67.5959 66.7145ZM71.9868 66.1422C72.8407 64.6017 73.0006 62.7681 73.0006 60.7843H72.3519C72.3519 62.7541 72.1875 64.4415 71.4198 65.8263L71.9868 66.1422ZM73.0006 60.7843C73.0006 60.1206 72.8949 59.364 72.7548 58.5788C72.6178 57.8102 72.4329 56.9392 72.2857 56.139C71.9798 54.475 71.798 52.915 72.1731 51.787L71.5578 51.5816C71.1221 52.891 71.3457 54.6138 71.6479 56.2567C71.8048 57.1101 71.9746 57.8986 72.1163 58.6932C72.255 59.4706 72.3519 60.1807 72.3519 60.7843H73.0006ZM72.1731 51.787C72.3689 51.1984 72.6349 50.6147 72.9254 50.0099C73.2134 49.4099 73.5281 48.7843 73.8054 48.1357C74.3635 46.8309 74.7904 45.3912 74.6206 43.6894L73.9752 43.7541C74.1297 45.3022 73.7458 46.6251 73.2093 47.8797C72.9393 48.511 72.6357 49.1138 72.3409 49.7278C72.0487 50.3365 71.7674 50.9514 71.5578 51.5816L72.1731 51.787ZM74.6206 43.6894C74.4561 42.0408 74.1248 40.655 73.4903 39.4469C72.8538 38.2351 71.923 37.2224 70.5897 36.3039L70.2223 36.8395C71.4836 37.7085 72.3365 38.6458 72.9163 39.7496C73.498 40.8572 73.8153 42.1526 73.9752 43.7541L74.6206 43.6894ZM70.5897 36.3039C70.2192 36.0486 69.6821 35.8442 69.0496 35.6761C68.4108 35.5064 67.6483 35.3671 66.808 35.2543C65.1271 35.0287 63.1123 34.9063 61.1085 34.8655C59.1039 34.8248 57.1035 34.8655 55.4494 34.9677C53.8107 35.0689 52.4715 35.2323 51.8169 35.4509L52.0221 36.0676C52.5837 35.8799 53.8391 35.7183 55.4893 35.6164C57.124 35.5154 59.1067 35.475 61.0953 35.5154C63.0849 35.5559 65.0734 35.6773 66.7219 35.8985C67.5463 36.0092 68.2799 36.1441 68.8833 36.3044C69.493 36.4664 69.9442 36.648 70.2223 36.8395L70.5897 36.3039Z" fill="black"/>
<g filter="url(#filter1_i_356_2820)">
<path d="M49.3242 23.9625V37.45C52.7837 38.9667 62.1026 41.09 71.7026 37.45V23.9625C68.135 21.6333 58.6648 18.3725 49.3242 23.9625Z" fill="#E0AFFF"/>
<path d="M49.3243 23.9625L49.158 23.6835L49 23.7781V23.9625H49.3243ZM49.3243 37.45H49V37.6625L49.1943 37.7478L49.3243 37.45ZM71.7027 37.45L71.8175 37.754L72.027 37.6745V37.45H71.7027ZM71.7027 23.9625H72.027V23.7863L71.8798 23.6902L71.7027 23.9625ZM49 23.9625V37.45H49.6486V23.9625H49ZM49.1943 37.7478C52.7128 39.2903 62.1211 41.4305 71.8175 37.754L71.5879 37.146C62.0843 40.7495 52.8548 38.643 49.4543 37.1522L49.1943 37.7478ZM72.027 37.45V23.9625H71.3784V37.45H72.027ZM71.8798 23.6902C68.2458 21.3177 58.6385 18.0097 49.158 23.6835L49.4906 24.2415C58.6912 18.7353 68.0244 21.949 71.5257 24.2348L71.8798 23.6902Z" fill="black"/>
</g>
<path d="M52.3245 24.775C52.3245 24.5506 52.143 24.3687 51.9191 24.3687C51.6952 24.3687 51.5137 24.5506 51.5137 24.775H52.3245ZM51.5137 25.2625C51.5137 25.4869 51.6952 25.6687 51.9191 25.6687C52.143 25.6687 52.3245 25.4869 52.3245 25.2625H51.5137ZM51.5137 24.775V25.2625H52.3245V24.775H51.5137Z" fill="white"/>
<path d="M52.3245 26.4C52.3245 26.1756 52.143 25.9937 51.9191 25.9937C51.6952 25.9937 51.5137 26.1756 51.5137 26.4H52.3245ZM51.5137 31.7625C51.5137 31.9869 51.6952 32.1687 51.9191 32.1687C52.143 32.1687 52.3245 31.9869 52.3245 31.7625H51.5137ZM51.5137 26.4V31.7625H52.3245V26.4H51.5137Z" fill="white"/>
<path d="M55.7591 35.7593C55.5438 35.6977 55.3194 35.8226 55.2579 36.0383C55.1964 36.2541 55.321 36.4789 55.5363 36.5406L55.7591 35.7593ZM66.1929 36.5202C66.397 36.4279 66.4877 36.1872 66.3956 35.9827C66.3034 35.7782 66.0633 35.6873 65.8592 35.7797L66.1929 36.5202ZM55.6477 36.1499C55.5363 36.5406 55.5364 36.5406 55.5366 36.5406C55.5367 36.5407 55.5368 36.5407 55.5369 36.5407C55.5372 36.5408 55.5377 36.541 55.5381 36.5411C55.5392 36.5414 55.5405 36.5418 55.5423 36.5423C55.5458 36.5433 55.5509 36.5447 55.5574 36.5465C55.5704 36.5502 55.5895 36.5554 55.6142 36.5621C55.6637 36.5755 55.736 36.5947 55.829 36.6184C56.0149 36.6657 56.2837 36.7308 56.6184 36.803C57.2874 36.9474 58.2219 37.1207 59.285 37.2363C61.3943 37.4657 64.0796 37.4766 66.1929 36.5202L65.8592 35.7797C63.9509 36.6433 61.447 36.6542 59.3725 36.4286C58.3438 36.3167 57.4378 36.1487 56.7891 36.0087C56.4651 35.9388 56.2059 35.876 56.0284 35.8308C55.9398 35.8083 55.8715 35.7901 55.8259 35.7778C55.8031 35.7716 55.786 35.7669 55.7747 35.7637C55.7691 35.7622 55.765 35.761 55.7624 35.7603C55.7611 35.7599 55.7601 35.7596 55.7596 35.7595C55.7593 35.7594 55.7591 35.7593 55.759 35.7593C55.759 35.7593 55.759 35.7593 55.759 35.7593C55.759 35.7593 55.7591 35.7593 55.6477 36.1499Z" fill="white"/>
<g filter="url(#filter2_i_356_2820)">
<path d="M59.8438 19.575C59.5624 18.992 59.2247 17.5926 60.1252 16.6597C60.1252 16.5431 61.3446 17.476 60.5942 19.575H59.8438Z" fill="#8AEFC5"/>
</g>
<path d="M59.8438 19.575C59.5624 18.992 59.2247 17.5926 60.1252 16.6597C60.1252 16.5431 61.3446 17.476 60.5942 19.575H59.8438Z" stroke="black" stroke-width="0.5075"/>
<g filter="url(#filter3_i_356_2820)">
<path d="M60.3504 24.125C61.6938 24.125 62.7828 23.0337 62.7828 21.6875C62.7828 20.3413 61.6938 19.25 60.3504 19.25C59.007 19.25 57.918 20.3413 57.918 21.6875C57.918 23.0337 59.007 24.125 60.3504 24.125Z" fill="#FAF2C9"/>
</g>
<path d="M60.3527 23.865C61.5528 23.865 62.5256 22.8901 62.5256 21.6875C62.5256 20.4849 61.5528 19.51 60.3527 19.51C59.1526 19.51 58.1797 20.4849 58.1797 21.6875C58.1797 22.8901 59.1526 23.865 60.3527 23.865Z" stroke="black" stroke-width="0.58"/>
<g filter="url(#filter4_i_356_2820)">
<path d="M60.3501 23.15C61.1561 23.15 61.8095 22.4952 61.8095 21.6875C61.8095 20.8798 61.1561 20.225 60.3501 20.225C59.544 20.225 58.8906 20.8798 58.8906 21.6875C58.8906 22.4952 59.544 23.15 60.3501 23.15Z" fill="#9CF3D3"/>
</g>
<path d="M60.3522 22.9388C61.0418 22.9388 61.6008 22.3786 61.6008 21.6876C61.6008 20.9965 61.0418 20.4363 60.3522 20.4363C59.6626 20.4363 59.1035 20.9965 59.1035 21.6876C59.1035 22.3786 59.6626 22.9388 60.3522 22.9388Z" stroke="black" stroke-width="0.47125"/>
<path d="M60.0275 21.85C60.2962 21.85 60.514 21.6317 60.514 21.3625C60.514 21.0933 60.2962 20.875 60.0275 20.875C59.7588 20.875 59.541 21.0933 59.541 21.3625C59.541 21.6317 59.7588 21.85 60.0275 21.85Z" fill="white" fill-opacity="0.88"/>
<path d="M57.5939 51.9125L57.9182 54.025H59.8641M57.5939 51.9125L57.2695 49.8H59.2155M57.5939 51.9125H64.3236M59.8641 54.025L59.2155 49.8M59.8641 54.025H61.8912M59.2155 49.8H62.2966M64.3236 51.9125L64.729 49.8H62.2966M64.3236 51.9125L63.9182 54.025H61.8912M62.2966 49.8L61.8912 54.025" stroke="black" stroke-width="0.58" stroke-linejoin="round"/>
<path d="M52.5664 43.7874C53.0529 42.3249 54.9988 40.5374 56.9448 43.7874" stroke="black" stroke-width="0.725"/>
<path d="M64.7285 43.8268C65.215 42.3643 67.1609 40.5768 69.1069 43.8268" stroke="black" stroke-width="0.725"/>
<path d="M74.6217 49.3125C75.6964 49.3125 76.5677 48.4395 76.5677 47.3625C76.5677 46.2856 75.6964 45.4125 74.6217 45.4125C73.547 45.4125 72.6758 46.2856 72.6758 47.3625C72.6758 48.4395 73.547 49.3125 74.6217 49.3125Z" fill="#FDF2C3" stroke="black" stroke-width="0.3625"/>
<path d="M74.6232 48.3862C75.1874 48.3862 75.6448 47.9279 75.6448 47.3625C75.6448 46.7971 75.1874 46.3387 74.6232 46.3387C74.059 46.3387 73.6016 46.7971 73.6016 47.3625C73.6016 47.9279 74.059 48.3862 74.6232 48.3862Z" fill="#E5CBAE" stroke="black" stroke-width="0.25375"/>
<path d="M47.7018 49.3125C48.7765 49.3125 49.6478 48.4395 49.6478 47.3625C49.6478 46.2856 48.7765 45.4125 47.7018 45.4125C46.6271 45.4125 45.7559 46.2856 45.7559 47.3625C45.7559 48.4395 46.6271 49.3125 47.7018 49.3125Z" fill="#FDF2C3" stroke="black" stroke-width="0.3625"/>
<path d="M47.7013 48.3862C48.2655 48.3862 48.7229 47.9279 48.7229 47.3625C48.7229 46.7971 48.2655 46.3387 47.7013 46.3387C47.1371 46.3387 46.6797 46.7971 46.6797 47.3625C46.6797 47.9279 47.1371 48.3862 47.7013 48.3862Z" fill="#E5CBAE" stroke="black" stroke-width="0.25375"/>
<path d="M46.2434 44.9899C47.7122 44.9899 48.9029 43.7968 48.9029 42.3249C48.9029 40.8531 47.7122 39.6599 46.2434 39.6599C44.7747 39.6599 43.584 40.8531 43.584 42.3249C43.584 43.7968 44.7747 44.9899 46.2434 44.9899Z" fill="#FDF2C3" stroke="black" stroke-width="0.58"/>
<path d="M46.2442 43.7225C47.0144 43.7225 47.6388 43.0968 47.6388 42.325C47.6388 41.5532 47.0144 40.9275 46.2442 40.9275C45.474 40.9275 44.8496 41.5532 44.8496 42.325C44.8496 43.0968 45.474 43.7225 46.2442 43.7225Z" fill="#FCBDB4" stroke="black" stroke-width="0.5075"/>
<path d="M75.7571 44.9899C77.2259 44.9899 78.4166 43.7968 78.4166 42.3249C78.4166 40.8531 77.2259 39.6599 75.7571 39.6599C74.2883 39.6599 73.0977 40.8531 73.0977 42.3249C73.0977 43.7968 74.2883 44.9899 75.7571 44.9899Z" fill="#FDF2C3" stroke="black" stroke-width="0.58"/>
<path d="M75.7559 43.7225C76.5261 43.7225 77.1505 43.0968 77.1505 42.325C77.1505 41.5532 76.5261 40.9275 75.7559 40.9275C74.9857 40.9275 74.3613 41.5532 74.3613 42.325C74.3613 43.0968 74.9857 43.7225 75.7559 43.7225Z" fill="#FCBDB4" stroke="black" stroke-width="0.5075"/>
<path d="M49.1623 51.9612C49.8161 51.9612 50.3461 51.4301 50.3461 50.775C50.3461 50.1198 49.8161 49.5887 49.1623 49.5887C48.5085 49.5887 47.9785 50.1198 47.9785 50.775C47.9785 51.4301 48.5085 51.9612 49.1623 51.9612Z" fill="#FDF2C3" stroke="black" stroke-width="0.25375"/>
<path d="M49.1613 51.3437C49.4748 51.3437 49.7289 51.0891 49.7289 50.775C49.7289 50.4609 49.4748 50.2062 49.1613 50.2062C48.8479 50.2062 48.5938 50.4609 48.5938 50.775C48.5938 51.0891 48.8479 51.3437 49.1613 51.3437Z" fill="#E5CBAE" stroke="black" stroke-width="0.18125"/>
<path d="M72.8381 51.9612C73.4919 51.9612 74.0219 51.4301 74.0219 50.775C74.0219 50.1198 73.4919 49.5887 72.8381 49.5887C72.1843 49.5887 71.6543 50.1198 71.6543 50.775C71.6543 51.4301 72.1843 51.9612 72.8381 51.9612Z" fill="#FDF2C3" stroke="black" stroke-width="0.25375"/>
<path d="M72.8371 51.3437C73.1506 51.3437 73.4047 51.0891 73.4047 50.775C73.4047 50.4609 73.1506 50.2062 72.8371 50.2062C72.5236 50.2062 72.2695 50.4609 72.2695 50.775C72.2695 51.0891 72.5236 51.3437 72.8371 51.3437Z" fill="#E5CBAE" stroke="black" stroke-width="0.18125"/>
<g filter="url(#filter5_i_356_2820)">
<path d="M53.0533 50.125C53.9489 50.125 54.6749 49.3975 54.6749 48.5C54.6749 47.6025 53.9489 46.875 53.0533 46.875C52.1577 46.875 51.4316 47.6025 51.4316 48.5C51.4316 49.3975 52.1577 50.125 53.0533 50.125Z" fill="#FF67A1"/>
</g>
<path d="M53.0533 50.125C53.9489 50.125 54.6749 49.3975 54.6749 48.5C54.6749 47.6025 53.9489 46.875 53.0533 46.875C52.1577 46.875 51.4316 47.6025 51.4316 48.5C51.4316 49.3975 52.1577 50.125 53.0533 50.125Z" stroke="black" stroke-width="0.58"/>
<path d="M52.5685 48.1751C52.8372 48.1751 53.055 47.9568 53.055 47.6876C53.055 47.4183 52.8372 47.2001 52.5685 47.2001C52.2998 47.2001 52.082 47.4183 52.082 47.6876C52.082 47.9568 52.2998 48.1751 52.5685 48.1751Z" fill="white" fill-opacity="0.74"/>
<g filter="url(#filter6_i_356_2820)">
<path d="M68.6225 50.125C67.7269 50.125 67.0009 49.3975 67.0009 48.5C67.0009 47.6025 67.7269 46.875 68.6225 46.875C69.5181 46.875 70.2441 47.6025 70.2441 48.5C70.2441 49.3975 69.5181 50.125 68.6225 50.125Z" fill="#FF67A1"/>
</g>
<path d="M68.6225 50.125C67.7269 50.125 67.0009 49.3975 67.0009 48.5C67.0009 47.6025 67.7269 46.875 68.6225 46.875C69.5181 46.875 70.2441 47.6025 70.2441 48.5C70.2441 49.3975 69.5181 50.125 68.6225 50.125Z" stroke="black" stroke-width="0.58"/>
<path d="M69.1073 48.1751C68.8386 48.1751 68.6208 47.9568 68.6208 47.6876C68.6208 47.4183 68.8386 47.2001 69.1073 47.2001C69.3759 47.2001 69.5938 47.4183 69.5938 47.6876C69.5938 47.9568 69.3759 48.1751 69.1073 48.1751Z" fill="white" fill-opacity="0.74"/>
<defs>
<filter id="filter0_i_356_2820" x="47.541" y="33.725" width="26.793" height="33.5662" filterUnits="userSpaceOnUse" color-interpolation-filters="sRGB">
<feFlood flood-opacity="0" result="BackgroundImageFix"/>
<feBlend mode="normal" in="SourceGraphic" in2="BackgroundImageFix" result="shape"/>
<feColorMatrix in="SourceAlpha" type="matrix" values="0 0 0 0 0 0 0 0 0 0 0 0 0 0 0 0 0 0 127 0" result="hardAlpha"/>
<feOffset dy="-1.45"/>
<feGaussianBlur stdDeviation="0.725"/>
<feComposite in2="hardAlpha" operator="arithmetic" k2="-1" k3="1"/>
<feColorMatrix type="matrix" values="0 0 0 0 0 0 0 0 0 0 0 0 0 0 0 0 0 0 0.25 0"/>
<feBlend mode="normal" in2="shape" result="effect1_innerShadow_356_2820"/>
</filter>
<filter id="filter1_i_356_2820" x="49" y="20.5507" width="23.0273" height="19.9592" filterUnits="userSpaceOnUse" color-interpolation-filters="sRGB">
<feFlood flood-opacity="0" result="BackgroundImageFix"/>
<feBlend mode="normal" in="SourceGraphic" in2="BackgroundImageFix" result="shape"/>
<feColorMatrix in="SourceAlpha" type="matrix" values="0 0 0 0 0 0 0 0 0 0 0 0 0 0 0 0 0 0 127 0" result="hardAlpha"/>
<feOffset dy="0.725"/>
<feGaussianBlur stdDeviation="0.725"/>
<feComposite in2="hardAlpha" operator="arithmetic" k2="-1" k3="1"/>
<feColorMatrix type="matrix" values="0 0 0 0 0 0 0 0 0 0 0 0 0 0 0 0 0 0 0.25 0"/>
<feBlend mode="normal" in2="shape" result="effect1_innerShadow_356_2820"/>
</filter>
<filter id="filter2_i_356_2820" x="59.541" y="16.65" width="2.74687" height="4.37499" filterUnits="userSpaceOnUse" color-interpolation-filters="sRGB">
<feFlood flood-opacity="0" result="BackgroundImageFix"/>
<feBlend mode="normal" in="SourceGraphic" in2="BackgroundImageFix" result="shape"/>
<feColorMatrix in="SourceAlpha" type="matrix" values="0 0 0 0 0 0 0 0 0 0 0 0 0 0 0 0 0 0 127 0" result="hardAlpha"/>
<feOffset dx="2.175" dy="3.625"/>
<feGaussianBlur stdDeviation="0.725"/>
<feComposite in2="hardAlpha" operator="arithmetic" k2="-1" k3="1"/>
<feColorMatrix type="matrix" values="0 0 0 0 1 0 0 0 0 1 0 0 0 0 1 0 0 0 0.25 0"/>
<feBlend mode="normal" in2="shape" result="effect1_innerShadow_356_2820"/>
</filter>
<filter id="filter3_i_356_2820" x="57.918" y="19.25" width="4.86523" height="6.325" filterUnits="userSpaceOnUse" color-interpolation-filters="sRGB">
<feFlood flood-opacity="0" result="BackgroundImageFix"/>
<feBlend mode="normal" in="SourceGraphic" in2="BackgroundImageFix" result="shape"/>
<feColorMatrix in="SourceAlpha" type="matrix" values="0 0 0 0 0 0 0 0 0 0 0 0 0 0 0 0 0 0 127 0" result="hardAlpha"/>
<feOffset dy="1.45"/>
<feGaussianBlur stdDeviation="0.725"/>
<feComposite in2="hardAlpha" operator="arithmetic" k2="-1" k3="1"/>
<feColorMatrix type="matrix" values="0 0 0 0 1 0 0 0 0 1 0 0 0 0 1 0 0 0 0.72 0"/>
<feBlend mode="normal" in2="shape" result="effect1_innerShadow_356_2820"/>
</filter>
<filter id="filter4_i_356_2820" x="58.8906" y="20.225" width="2.91797" height="4.37499" filterUnits="userSpaceOnUse" color-interpolation-filters="sRGB">
<feFlood flood-opacity="0" result="BackgroundImageFix"/>
<feBlend mode="normal" in="SourceGraphic" in2="BackgroundImageFix" result="shape"/>
<feColorMatrix in="SourceAlpha" type="matrix" values="0 0 0 0 0 0 0 0 0 0 0 0 0 0 0 0 0 0 127 0" result="hardAlpha"/>
<feOffset dy="1.45"/>
<feGaussianBlur stdDeviation="0.725"/>
<feComposite in2="hardAlpha" operator="arithmetic" k2="-1" k3="1"/>
<feColorMatrix type="matrix" values="0 0 0 0 1 0 0 0 0 1 0 0 0 0 1 0 0 0 0.72 0"/>
<feBlend mode="normal" in2="shape" result="effect1_innerShadow_356_2820"/>
</filter>
<filter id="filter5_i_356_2820" x="51.4316" y="46.875" width="3.60664" height="3.975" filterUnits="userSpaceOnUse" color-interpolation-filters="sRGB">
<feFlood flood-opacity="0" result="BackgroundImageFix"/>
<feBlend mode="normal" in="SourceGraphic" in2="BackgroundImageFix" result="shape"/>
<feColorMatrix in="SourceAlpha" type="matrix" values="0 0 0 0 0 0 0 0 0 0 0 0 0 0 0 0 0 0 127 0" result="hardAlpha"/>
<feOffset dx="0.3625" dy="0.725"/>
<feGaussianBlur stdDeviation="0.725"/>
<feComposite in2="hardAlpha" operator="arithmetic" k2="-1" k3="1"/>
<feColorMatrix type="matrix" values="0 0 0 0 1 0 0 0 0 1 0 0 0 0 1 0 0 0 0.51 0"/>
<feBlend mode="normal" in2="shape" result="effect1_innerShadow_356_2820"/>
</filter>
<filter id="filter6_i_356_2820" x="67" y="46.875" width="3.60664" height="3.975" filterUnits="userSpaceOnUse" color-interpolation-filters="sRGB">
<feFlood flood-opacity="0" result="BackgroundImageFix"/>
<feBlend mode="normal" in="SourceGraphic" in2="BackgroundImageFix" result="shape"/>
<feColorMatrix in="SourceAlpha" type="matrix" values="0 0 0 0 0 0 0 0 0 0 0 0 0 0 0 0 0 0 127 0" result="hardAlpha"/>
<feOffset dx="0.3625" dy="0.725"/>
<feGaussianBlur stdDeviation="0.725"/>
<feComposite in2="hardAlpha" operator="arithmetic" k2="-1" k3="1"/>
<feColorMatrix type="matrix" values="0 0 0 0 1 0 0 0 0 1 0 0 0 0 1 0 0 0 0.51 0"/>
<feBlend mode="normal" in2="shape" result="effect1_innerShadow_356_2820"/>
</filter>
</defs>
</svg>
