<svg width="61" height="61" viewBox="0 0 61 61" fill="none" xmlns="http://www.w3.org/2000/svg">
<rect width="61" height="61" fill="#C84014"/>
<path d="M41.1928 25.0501L36.9863 28.9999L40.9863 39.9999L37.9863 42.9999L32.0103 34.2525L28.9863 36.9999V39.9999L25.9863 42.9999L24.2123 37.7681L18.9863 35.9999L21.9863 32.9999H24.9863L27.9863 29.9999L18.9863 23.9999L21.9863 20.9999L32.9863 24.9999L36.9501 20.8075L36.865 20.8786C37.1435 20.5995 37.4742 20.378 37.8383 20.2269C38.2024 20.0757 38.5928 19.9978 38.987 19.9976C39.3813 19.9973 39.7717 20.0748 40.136 20.2256C40.5002 20.3764 40.8312 20.5975 41.11 20.8762C41.3888 21.155 41.6098 21.486 41.7606 21.8503C41.9114 22.2145 41.9889 22.605 41.9887 22.9992C41.9884 23.3935 41.9105 23.7838 41.7594 24.1479C41.6082 24.512 41.3867 24.8427 41.1076 25.1212L41.1928 25.0501Z" stroke="white" stroke-width="2" stroke-linecap="round" stroke-linejoin="round"/>
</svg>
