<svg width="61" height="61" viewBox="0 0 61 61" fill="none" xmlns="http://www.w3.org/2000/svg">
<rect width="61" height="61" fill="#C84014"/>
<path d="M31 32C33.2091 32 35 30.2091 35 28C35 25.7909 33.2091 24 31 24C28.7909 24 27 25.7909 27 28C27 30.2091 28.7909 32 31 32Z" stroke="white" stroke-width="2" stroke-linecap="round" stroke-linejoin="round"/>
<path d="M41 28C41 37 31 44 31 44C31 44 21 37 21 28C21 25.3478 22.0536 22.8043 23.9289 20.9289C25.8043 19.0536 28.3478 18 31 18C33.6522 18 36.1957 19.0536 38.0711 20.9289C39.9464 22.8043 41 25.3478 41 28V28Z" stroke="white" stroke-width="2" stroke-linecap="round" stroke-linejoin="round"/>
</svg>
