<svg width="61" height="61" viewBox="0 0 61 61" fill="none" xmlns="http://www.w3.org/2000/svg">
<rect width="61" height="61" fill="#C84014"/>
<path d="M20.5 31H41.5" stroke="white" stroke-width="2" stroke-linecap="round" stroke-linejoin="round"/>
<path d="M20.5 24H41.5" stroke="white" stroke-width="2" stroke-linecap="round" stroke-linejoin="round"/>
<path d="M27 41L24 45" stroke="white" stroke-width="2" stroke-linecap="round" stroke-linejoin="round"/>
<path d="M35 41L38 45" stroke="white" stroke-width="2" stroke-linecap="round" stroke-linejoin="round"/>
<path d="M38.5 19H23.5C21.8431 19 20.5 20.3431 20.5 22V38C20.5 39.6569 21.8431 41 23.5 41H38.5C40.1569 41 41.5 39.6569 41.5 38V22C41.5 20.3431 40.1569 19 38.5 19Z" stroke="white" stroke-width="2" stroke-linecap="round" stroke-linejoin="round"/>
<path d="M31 24V31" stroke="white" stroke-width="2" stroke-linecap="round" stroke-linejoin="round"/>
<path d="M25.5 38C26.3284 38 27 37.3284 27 36.5C27 35.6716 26.3284 35 25.5 35C24.6716 35 24 35.6716 24 36.5C24 37.3284 24.6716 38 25.5 38Z" fill="white"/>
<path d="M36.5 38C37.3284 38 38 37.3284 38 36.5C38 35.6716 37.3284 35 36.5 35C35.6716 35 35 35.6716 35 36.5C35 37.3284 35.6716 38 36.5 38Z" fill="white"/>
</svg>
