<svg width="61" height="61" viewBox="0 0 61 61" fill="none" xmlns="http://www.w3.org/2000/svg">
<rect width="61" height="61" fill="#C84014"/>
<path d="M41.1908 25.0501L36.9844 28.9999L40.9844 39.9999L37.9844 42.9999L32.0084 34.2525L28.9844 36.9999V39.9999L25.9844 42.9999L24.2103 37.7681L18.9844 35.9999L21.9844 32.9999H24.9844L27.9844 29.9999L18.9844 23.9999L21.9844 20.9999L32.9844 24.9999L36.9482 20.8075L36.8631 20.8786C37.1415 20.5995 37.4723 20.378 37.8364 20.2269C38.2005 20.0757 38.5908 19.9978 38.9851 19.9976C39.3793 19.9973 39.7697 20.0748 40.134 20.2256C40.4983 20.3764 40.8293 20.5975 41.108 20.8762C41.3868 21.155 41.6079 21.486 41.7587 21.8503C41.9094 22.2145 41.9869 22.605 41.9867 22.9992C41.9865 23.3935 41.9086 23.7838 41.7574 24.1479C41.6062 24.512 41.3848 24.8427 41.1057 25.1212L41.1908 25.0501Z" stroke="white" stroke-width="2" stroke-linecap="round" stroke-linejoin="round"/>
</svg>
