<svg width="61" height="61" viewBox="0 0 61 61" fill="none" xmlns="http://www.w3.org/2000/svg">
<rect width="61" height="61" fill="#C84014"/>
<path d="M45 30H37V25H42.323C42.5228 25 42.7181 25.0599 42.8836 25.1719C43.0491 25.284 43.1772 25.443 43.2514 25.6286L45 30Z" stroke="white" stroke-width="2" stroke-linecap="round" stroke-linejoin="round"/>
<path d="M17 33H37" stroke="white" stroke-width="2" stroke-linecap="round" stroke-linejoin="round"/>
<path d="M38.5 42C40.1569 42 41.5 40.6569 41.5 39C41.5 37.3431 40.1569 36 38.5 36C36.8431 36 35.5 37.3431 35.5 39C35.5 40.6569 36.8431 42 38.5 42Z" stroke="white" stroke-width="2" stroke-miterlimit="10"/>
<path d="M23.5 42C25.1569 42 26.5 40.6569 26.5 39C26.5 37.3431 25.1569 36 23.5 36C21.8431 36 20.5 37.3431 20.5 39C20.5 40.6569 21.8431 42 23.5 42Z" stroke="white" stroke-width="2" stroke-miterlimit="10"/>
<path d="M35.5 39H26.5" stroke="white" stroke-width="2" stroke-linecap="round" stroke-linejoin="round"/>
<path d="M20.5 39H18C17.7348 39 17.4804 38.8946 17.2929 38.7071C17.1054 38.5196 17 38.2652 17 38V24C17 23.7348 17.1054 23.4804 17.2929 23.2929C17.4804 23.1054 17.7348 23 18 23H37V36.4019" stroke="white" stroke-width="2" stroke-linecap="round" stroke-linejoin="round"/>
<path d="M37 36.4019V30H45V38C45 38.2652 44.8946 38.5196 44.7071 38.7071C44.5196 38.8946 44.2652 39 44 39H41.5" stroke="white" stroke-width="2" stroke-linecap="round" stroke-linejoin="round"/>
</svg>
