<svg width="44" height="44" viewBox="0 0 44 44" fill="none" xmlns="http://www.w3.org/2000/svg">
<path d="M0 22C0 9.84974 9.84974 0 22 0C34.1503 0 44 9.84974 44 22C44 34.1503 34.1503 44 22 44C9.84974 44 0 34.1503 0 22Z" fill="white" fill-opacity="0.15"/>
<path d="M33 22.1179V21.8821C28.1286 21.725 25.905 21.6071 24.1214 19.8786C22.3929 18.095 22.2671 15.8714 22.1179 11H21.8821C21.725 15.8714 21.6071 18.095 19.8786 19.8786C18.095 21.6071 15.8714 21.7329 11 21.8821V22.1179C15.8714 22.275 18.095 22.3929 19.8786 24.1214C21.6071 25.905 21.7329 28.1286 21.8821 33H22.1179C22.275 28.1286 22.3929 25.905 24.1214 24.1214C25.905 22.3929 28.1286 22.2671 33 22.1179Z" fill="white"/>
</svg>
