<svg width="19" height="17" viewBox="0 0 19 17" fill="none" xmlns="http://www.w3.org/2000/svg">
<path d="M6.06387 9.28407L13.6856 16.1773C13.7738 16.257 13.8806 16.3119 13.9957 16.3364C14.1107 16.361 14.2299 16.3544 14.3417 16.3174C14.4535 16.2803 14.554 16.2141 14.6334 16.1251C14.7128 16.0361 14.7683 15.9274 14.7946 15.8098L17.9829 1.51129C18.0104 1.38766 18.0046 1.25865 17.9661 1.13815C17.9276 1.01766 17.8579 0.910244 17.7644 0.827489C17.6708 0.744734 17.5571 0.689775 17.4355 0.668535C17.3138 0.647294 17.1888 0.660577 17.0739 0.706952L1.43016 7.0232C1.29382 7.07825 1.17849 7.17719 1.10143 7.30522C1.02436 7.43325 0.98971 7.58348 1.00265 7.73344C1.01559 7.8834 1.07544 8.02502 1.17322 8.13711C1.27101 8.2492 1.40148 8.32573 1.54512 8.35525L6.06387 9.28407Z" stroke="#C84014" stroke-linecap="round" stroke-linejoin="round"/>
<path d="M6.5 9.35107L17.5 0.851074" stroke="#C84014" stroke-linecap="round" stroke-linejoin="round"/>
<path d="M9.15403 13.0391L7.42402 14.8338C7.32628 14.9339 7.20175 15.002 7.06618 15.0296C6.93061 15.0572 6.79009 15.0431 6.66239 14.9889C6.53468 14.9348 6.42553 14.8431 6.34874 14.7254C6.27195 14.6078 6.23096 14.4694 6.23096 14.3279V9.35107" stroke="#C84014" stroke-linecap="round" stroke-linejoin="round"/>
</svg>
