<svg width="44" height="44" viewBox="0 0 44 44" fill="none" xmlns="http://www.w3.org/2000/svg">
<path d="M0 22C0 9.84974 9.84974 0 22 0C34.1503 0 44 9.84974 44 22C44 34.1503 34.1503 44 22 44C9.84974 44 0 34.1503 0 22Z" fill="white" fill-opacity="0.15"/>
<path d="M22.461 19.0781C22.4415 27.0547 22.4649 26.4219 22.1329 27.0977C21.8399 27.6953 21.3985 28.1367 20.8087 28.4297C20.3126 28.6719 20.043 28.7344 19.4805 28.7344C18.9337 28.7344 18.6563 28.6719 18.1915 28.4453C17.6016 28.1524 17.1251 27.6797 16.8438 27.0977C16.6172 26.625 16.5547 26.3555 16.5547 25.8086C16.5508 25.2422 16.6133 24.9805 16.8712 24.461C17.0235 24.1485 17.1055 24.0352 17.4063 23.7383C17.793 23.3516 18.1485 23.1367 18.6602 22.9766C19.0352 22.8594 19.6563 22.8321 20.0469 22.9141C20.2071 22.9492 20.3633 22.9766 20.3907 22.9766C20.4258 22.9766 20.4376 22.6211 20.4376 21.3399V19.6992L20.254 19.668C20.1485 19.6524 19.7852 19.6406 19.4415 19.6406C18.4376 19.6446 17.6446 19.8242 16.7774 20.2422C13.3477 21.8906 12.1836 26.0664 14.2735 29.2188C14.6368 29.7656 15.418 30.5508 15.9454 30.9024C17.5782 31.9844 19.543 32.2656 21.4141 31.6797C23.0899 31.1563 24.586 29.7852 25.2618 28.1602C25.4337 27.7383 25.5665 27.2735 25.6563 26.7852C25.7188 26.4258 25.7227 26.0899 25.7149 22.4766C25.7071 20.3242 25.7149 18.5625 25.7305 18.5625C25.7462 18.5625 25.8243 18.6133 25.9024 18.6758C26.3399 19.0235 27.2305 19.4961 27.9063 19.75C28.668 20.0313 29.7462 20.2422 30.4376 20.2422H30.7891L30.7813 18.6289L30.7696 17.0196L30.3907 16.9961C29.1954 16.918 28.1055 16.418 27.211 15.5352C26.336 14.6758 25.8243 13.5742 25.7266 12.3399L25.6993 12H24.0899H22.4766L22.461 19.0781Z" fill="white"/>
</svg>
