<svg width="21" height="21" viewBox="0 0 21 21" fill="none" xmlns="http://www.w3.org/2000/svg">
<g clip-path="url(#clip0_23_999)">
<path d="M16.7836 11.3568C16.4566 10.9508 16.5502 10.7702 16.7836 10.4073C16.7878 10.4032 19.4872 6.73607 19.7653 5.49243L19.767 5.4916C19.9052 5.03839 19.767 4.70532 19.0987 4.70532H16.8873C16.3243 4.70532 16.0647 4.99117 15.9257 5.31098C15.9257 5.31098 14.7997 7.96064 13.2069 9.6782C12.6928 10.1745 12.4552 10.3336 12.1745 10.3336C12.0363 10.3336 11.8214 10.1745 11.8214 9.72128V5.4916C11.8214 4.94808 11.6638 4.70532 11.1978 4.70532H7.72054C7.36742 4.70532 7.15757 4.95885 7.15757 5.19499C7.15757 5.71034 7.95398 5.82882 8.03657 7.27876V10.4247C8.03657 11.1141 7.90932 11.2408 7.62699 11.2408C6.87525 11.2408 5.05067 8.58039 3.96941 5.53552C3.75113 4.94477 3.53791 4.70615 2.97073 4.70615H0.758485C0.127257 4.70615 0 4.992 0 5.31181C0 5.87687 0.751743 8.68644 3.49577 12.3983C5.32457 14.9319 7.90005 16.3048 10.2429 16.3048C11.6512 16.3048 11.8231 15.9999 11.8231 15.4755C11.8231 13.0545 11.6958 12.8258 12.4012 12.8258C12.7282 12.8258 13.2912 12.9849 14.6059 14.207C16.1085 15.6561 16.3555 16.3048 17.1966 16.3048H19.408C20.0383 16.3048 20.3577 15.9999 20.174 15.3984C19.7535 14.1332 16.9117 11.5308 16.7836 11.3568Z" fill="#C84014"/>
</g>
<defs>
<clipPath id="clip0_23_999">
<rect width="20.2263" height="19.8849" fill="white" transform="translate(0 0.5625)"/>
</clipPath>
</defs>
</svg>
