<svg width="44" height="44" viewBox="0 0 44 44" fill="none" xmlns="http://www.w3.org/2000/svg">
<path d="M0 22C0 9.84974 9.84974 0 22 0C34.1503 0 44 9.84974 44 22C44 34.1503 34.1503 44 22 44C9.84974 44 0 34.1503 0 22Z" fill="white" fill-opacity="0.15"/>
<path d="M23.0647 28.48C23.6229 28.48 23.8511 28.089 23.8447 27.5987C23.8163 25.7521 24.4992 24.758 25.7321 26.0536C27.096 27.4869 27.3783 28.48 29.0347 28.48H31.9679C32.7085 28.48 33 28.2296 33 27.8366C33 27.0053 31.6975 25.5382 30.5938 24.4613C29.0484 22.9537 28.976 22.9181 30.3069 21.1033C31.9578 18.8502 34.1174 15.9633 32.2071 15.9633H28.558C27.8504 15.9633 27.799 16.3823 27.547 17.0065C26.6349 19.2673 24.9016 22.1957 24.2434 21.7477C23.5551 21.2805 23.8704 19.4301 23.9226 16.6799C23.9364 15.9536 23.9327 15.4556 22.8768 15.1975C22.3002 15.0578 21.7392 15 21.2186 15C19.1351 15 17.6978 15.918 18.5145 16.0779C19.9545 16.3601 19.8161 19.6343 19.4806 21.0484C18.8958 23.5105 16.6978 19.0987 15.7821 16.9015C15.5611 16.3736 15.4933 15.9633 14.705 15.9633H11.7214C11.2704 15.9633 11 16.1174 11 16.4603C11 17.0402 13.7132 22.9335 16.3036 25.8715C18.8298 28.7372 21.3267 28.48 23.0647 28.48Z" fill="white"/>
</svg>
