<svg width="20" height="16" viewBox="0 0 20 16" fill="none" xmlns="http://www.w3.org/2000/svg">
<path d="M1.22607 7.50488C1.22607 10.1218 1.49211 11.6572 1.69434 12.4463C1.7484 12.6618 1.85221 12.8612 1.99718 13.0278C2.14215 13.1944 2.3241 13.3235 2.52795 13.4045C5.42499 14.5359 10.2261 14.5048 10.2261 14.5048C10.2261 14.5048 15.0271 14.5359 17.9242 13.4045C18.128 13.3235 18.31 13.1944 18.4549 13.0278C18.5999 12.8612 18.7037 12.6619 18.7578 12.4463C18.96 11.6572 19.2261 10.1218 19.2261 7.50488C19.2261 4.88797 18.96 3.35257 18.7578 2.56344C18.7037 2.34792 18.5999 2.14859 18.455 1.98197C18.31 1.81535 18.1281 1.68623 17.9242 1.60531C15.0272 0.4739 10.2261 0.504967 10.2261 0.504967C10.2261 0.504967 5.42504 0.4739 2.52798 1.6053C2.32412 1.68622 2.14217 1.81534 1.9972 1.98196C1.85224 2.14858 1.74842 2.3479 1.69436 2.56343C1.49212 3.35256 1.22607 4.88797 1.22607 7.50488Z" fill="#C84014" stroke="#C84014" stroke-linecap="round" stroke-linejoin="round"/>
<path d="M13.7066 8.37313C14.3785 7.98923 14.3785 7.02053 13.7066 6.63664L9.72221 4.35982C9.05556 3.97887 8.22607 4.46024 8.22607 5.22806V9.7817C8.22607 10.5495 9.05556 11.0309 9.72221 10.6499L13.7066 8.37313Z" fill="white"/>
</svg>
