<svg width="44" height="44" viewBox="0 0 44 44" fill="none" xmlns="http://www.w3.org/2000/svg">
<path d="M0 22C0 9.84974 9.84974 0 22 0C34.1503 0 44 9.84974 44 22C44 34.1503 34.1503 44 22 44C9.84974 44 0 34.1503 0 22Z" fill="white" fill-opacity="0.15"/>
<path d="M32.065 15.4575C31.4683 14.396 30.8206 14.2008 29.502 14.1265C28.1847 14.0371 24.8724 14 22.0027 14C19.1276 14 15.8139 14.0371 14.498 14.1251C13.1821 14.2008 12.5331 14.3946 11.9309 15.4575C11.3162 16.5176 11 18.3436 11 21.5584C11 21.5611 11 21.5625 11 21.5625C11 21.5652 11 21.5666 11 21.5666V21.5694C11 24.7704 11.3162 26.6101 11.9309 27.6593C12.5331 28.7207 13.1807 28.9132 14.4966 29.0026C15.8139 29.0796 19.1276 29.125 22.0027 29.125C24.8724 29.125 28.1847 29.0796 29.5034 29.004C30.822 28.9146 31.4696 28.7221 32.0664 27.6606C32.6865 26.6115 33 24.7717 33 21.5707C33 21.5707 33 21.5666 33 21.5639V21.5598C33 18.3436 32.6865 16.5176 32.065 15.4575ZM19.25 25.6875V17.4375L26.125 21.5625L19.25 25.6875Z" fill="white"/>
</svg>
