<svg width="128" height="27" viewBox="0 0 128 27" fill="none" xmlns="http://www.w3.org/2000/svg">
<g clip-path="url(#clip0_1_223)">
<path fill-rule="evenodd" clip-rule="evenodd" d="M0.237488 13.5C0.237488 20.9526 6.26623 27 13.6958 27C21.1255 27 27.1542 20.9526 27.1542 13.5C27.1542 6.0474 21.1255 0 13.6958 0C6.26623 0 0.237488 6.0474 0.237488 13.5ZM0.712783 13.5C0.712783 6.29833 6.5414 0.451673 13.7209 0.451673C20.9003 0.451673 26.7289 6.29833 26.7289 13.5C26.7289 20.6766 20.9003 26.5232 13.7209 26.5232C6.5414 26.5483 0.712783 20.7017 0.712783 13.5Z" fill="#00487C"/>
<path fill-rule="evenodd" clip-rule="evenodd" d="M4.44009 9.81136C7.89224 7.553 11.6946 6.22307 18.1486 7.35225C18.4988 7.15151 18.6989 6.95077 18.799 6.52419C17.198 5.94705 15.4469 5.7463 13.1955 5.7714C11.1693 5.82158 7.517 6.57437 5.56579 7.72865L6.16616 6.97586C7.54202 6.17288 11.0942 5.11898 13.7459 5.0437C15.622 5.01861 16.5976 5.11898 18.824 5.72121C18.6239 5.34482 18.1736 5.14407 17.4982 4.84296C15.3469 3.86433 11.2943 3.78906 7.9923 5.24445C8.41756 4.96842 8.81781 4.71749 9.36815 4.46656C10.4688 3.96471 12.2449 3.48794 14.4713 3.51303C16.2474 3.53813 18.3737 4.16545 19.6746 5.44519C19.8997 5.69612 20.0248 5.97214 20.0748 6.19798C21.1004 6.72493 21.7008 7.2017 22.026 7.77883C22.1511 8.07995 22.2261 8.40616 22.1511 8.75746C22.5764 9.00839 22.7765 9.23422 23.0016 9.51025C23.1517 9.73608 23.2768 10.0121 23.3018 10.263C23.3518 10.5892 23.3768 10.9405 23.0516 11.3671C23.4019 11.5428 23.677 12.0195 23.7271 12.2454C23.8772 13.0233 23.4019 13.776 22.7264 14.3783C21.976 15.0558 20.2999 15.8337 18.9491 16.185C16.2474 16.8625 13.8709 17.1636 11.9698 17.5149C12.8203 17.7156 13.971 17.9917 15.8722 17.9917C19.8997 17.9917 23.4519 16.0846 23.4519 16.0846C23.4519 16.0846 23.3768 16.3355 23.3018 16.5614C20.7502 18.1171 16.6727 18.7695 14.9466 18.6943C13.1705 18.619 11.6946 18.343 10.2437 17.8913C9.79342 18.0168 9.36815 18.1422 8.94289 18.343C11.1443 19.3467 12.8203 19.5725 14.7215 19.7231C16.6477 19.8736 19.8246 19.3969 22.5263 18.4182C22.4012 18.5437 22.3512 18.7444 22.2261 18.8448C20.8503 19.5725 17.9235 20.3002 16.4726 20.3504C15.0217 20.4006 13.2456 20.3504 11.6946 20.0744C10.3688 19.8234 9.26809 19.3969 8.14239 18.895C7.94227 19.0456 7.84221 19.2463 7.79217 19.4721C12.1199 21.7807 16.2724 21.8309 21.0004 20.3504L20.5751 20.777C15.3719 22.8848 11.3194 22.0567 8.16741 20.5511C8.06734 20.501 7.94227 20.4508 7.8422 20.4006C8.14239 20.9024 10.5439 22.6589 13.2205 22.8848C15.0717 23.0353 17.3231 22.7091 18.6739 22.1822L17.8734 22.5837C17.223 22.9099 15.497 23.6376 13.0955 23.4619C9.89348 23.2361 8.09236 21.8309 7.26685 21.0781C6.89161 20.7268 6.71651 20.3253 6.59143 19.8234C5.86598 19.447 5.4157 19.0456 5.04047 18.4684C4.81533 18.1171 4.86536 17.7407 4.91539 17.4145L4.99043 17.1134C4.64022 16.8625 4.29 16.5865 4.13991 16.3104C3.8147 15.7333 4.01483 15.2565 4.23997 14.855C4.03984 14.6292 3.86474 14.4285 3.78969 14.2026C3.71464 13.9266 3.68963 13.6757 3.71464 13.3997C3.76467 12.9229 4.03984 12.4712 4.36505 12.0948C5.06548 11.2918 6.16616 10.6645 8.06734 10.0372C9.91849 9.43497 10.6439 9.3346 12.0448 9.00839C13.6708 8.63199 15.622 8.50653 17.248 7.92939C12.7202 7.12642 7.9923 7.85411 4.16492 10.514L4.44009 9.81136ZM19.8747 7.00095C19.8246 7.22679 19.5745 7.47772 19.4244 7.65337C19.9247 7.77883 20.425 7.95448 20.9003 8.15523C20.8253 7.70355 20.325 7.27697 19.8747 7.00095ZM5.91601 16.0846C5.61582 15.9089 5.4157 15.8086 5.19056 15.6329C5.06548 15.9089 5.31564 16.2352 5.56579 16.3857C5.66585 16.2853 5.79093 16.185 5.91601 16.0846ZM21.2005 10.1376C21.5257 10.2881 21.8259 10.4136 22.1011 10.6143C22.3012 10.2128 22.1761 9.96192 21.7508 9.61062C21.6007 9.81136 21.4006 9.98701 21.2005 10.1376ZM20.2249 10.7398C19.5745 11.0409 18.5989 11.3671 17.248 11.7184C16.1474 11.9944 13.4207 12.3959 10.4939 13.0233C9.56828 13.224 7.06672 13.8262 5.84096 14.855C6.19118 15.1311 6.3913 15.2063 6.79155 15.4071C7.29186 15.0809 7.9923 14.7798 9.01793 14.5037C10.8191 14.027 12.1449 13.8262 13.7709 13.5502C15.3719 13.2993 18.3737 12.672 20.0498 12.0697C20.6001 11.869 21.1004 11.6181 21.4757 11.3169C21.3506 11.2166 20.2749 10.6896 20.2249 10.7398ZM7.61706 17.7407C7.86722 17.5902 8.16741 17.4396 8.49261 17.3141C8.01731 17.1134 7.54202 16.9127 7.06672 16.6868C6.84158 16.8123 6.64146 16.9628 6.49137 17.1134C6.8666 17.3141 7.21682 17.54 7.61706 17.7407ZM6.0661 17.8913C6.0661 18.1924 6.24121 18.4684 6.64146 18.7946C6.69149 18.619 6.76654 18.5186 6.89161 18.3681C6.59143 18.2175 6.34127 18.0418 6.0661 17.8913ZM8.34252 12.3207C11.6196 11.3671 15.0717 11.066 18.5739 10.1376C17.198 9.76118 16.4726 9.61062 15.0217 9.78627C12.9204 10.0372 10.6189 10.4889 8.6427 11.066C7.86722 11.2918 3.78969 12.4461 4.96542 14.0772C4.96542 14.1023 5.66585 13.1236 8.34252 12.3207ZM20.6502 8.9582C20.1248 8.70727 19.4494 8.48144 18.724 8.28069C18.3988 8.53162 18.0485 8.75746 17.4982 8.9582C18.3737 9.10876 19.0492 9.35969 19.7996 9.58553C19.9497 9.6608 20.5501 9.08367 20.6502 8.9582ZM22.2762 12.1199C22.1761 12.1952 22.076 12.2956 21.951 12.3708C21.2005 12.948 20.0248 13.3997 18.3988 13.8513C15.0217 14.7547 12.5701 14.9052 9.7684 15.5827C9.21806 15.7082 8.66772 15.9089 8.14239 16.1097C8.66772 16.3857 9.21806 16.6115 9.79342 16.8374C10.9191 16.5112 11.4695 16.3606 13.1205 16.0846C13.7459 15.9842 15.6721 15.6329 17.0729 15.3318C19.5745 14.8299 23.2518 13.6506 22.2762 12.1199Z" fill="#00487C"/>
<path fill-rule="evenodd" clip-rule="evenodd" d="M40.0372 19.3716H42.8139L43.1391 17.3391H45.0403L45.3655 19.3716H48.1422L45.7908 7.55286H42.3386L40.0372 19.3716ZM44.1147 11.1161L44.6401 14.7294H43.6144L44.1147 11.1161Z" fill="#00487C"/>
<path fill-rule="evenodd" clip-rule="evenodd" d="M50.7939 12.1449C51.2441 12.1449 52.0446 11.8689 52.0446 10.9906C52.0446 9.96184 51.0941 9.88656 50.8439 9.88656C50.5187 9.88656 49.9433 9.93675 49.343 10.2128L49.3179 7.65329C50.2435 7.42745 50.9189 7.35217 51.6944 7.35217C53.9208 7.35217 54.9464 8.93303 54.9464 10.4637C54.9464 11.9693 54.0709 12.8726 53.2454 13.2239V13.3494C54.0459 13.6003 55.1215 14.3782 55.1215 16.1849C55.1215 18.4182 53.5706 19.6477 51.5944 19.6477C50.5187 19.6477 49.8433 19.4972 49.0178 19.0455L49.0678 16.5864C49.8433 16.9126 50.3686 16.9377 50.8939 16.9377C51.7695 16.9377 52.1197 16.2853 52.1197 15.8085C52.1197 15.1561 51.6944 14.7044 50.7688 14.7044H49.6431V12.1449H50.7939Z" fill="#00487C"/>
<path fill-rule="evenodd" clip-rule="evenodd" d="M63.877 19.3716H61.1253V10.3884H59.149V19.3716H56.3973V7.55286H63.877V19.3716Z" fill="#00487C"/>
<path fill-rule="evenodd" clip-rule="evenodd" d="M65.4279 19.3716H68.1546V15.4822H69.0802C71.7819 15.4822 72.6324 13.0482 72.6324 11.4924C72.6324 9.96178 71.6818 7.55286 69.0802 7.55286H65.4279V19.3716ZM68.1546 10.1625H68.805C69.4304 10.1625 69.8057 10.5389 69.8057 11.5175C69.8057 12.7973 69.1553 12.8726 68.805 12.8726H68.1546V10.1625Z" fill="#00487C"/>
<path fill-rule="evenodd" clip-rule="evenodd" d="M77.6856 19.5223C80.9376 19.5223 82.0133 16.4861 82.0133 13.4498C82.0133 10.4136 80.9126 7.37732 77.6856 7.37732C74.4336 7.37732 73.3579 10.4136 73.3579 13.4498C73.3579 16.4861 74.4586 19.5223 77.6856 19.5223ZM77.6856 16.6617C76.735 16.6617 76.2347 15.5325 76.2347 13.4498C76.2347 11.3671 76.735 10.2379 77.6856 10.2379C78.6612 10.2379 79.1365 11.3671 79.1365 13.4498C79.1615 15.5325 78.6612 16.6617 77.6856 16.6617Z" fill="#00487C"/>
<path fill-rule="evenodd" clip-rule="evenodd" d="M93.9207 19.3716H97.1977C97.8981 19.3716 100.85 19.0705 100.875 15.5073C100.875 12.4962 98.5735 11.9692 97.0976 11.9692H96.6223V10.4135H100.25V7.55286H93.9457V19.3716H93.9207ZM96.6223 17.0129V14.328H97.0226C97.3478 14.328 98.1983 14.353 98.1983 15.5575C98.1983 16.8122 97.3228 17.0129 97.0226 17.0129H96.6223Z" fill="#00487C"/>
<path fill-rule="evenodd" clip-rule="evenodd" d="M117.961 19.3716H115.309V14.6542H113.383V19.3716H110.706V7.55286H113.383V11.8187H115.309V7.55286H117.961V19.3716Z" fill="#00487C"/>
<path fill-rule="evenodd" clip-rule="evenodd" d="M127.466 7.55286L125.365 13.1737L127.767 19.3716H124.615L123.089 14.6291H122.438V19.3716H119.762V7.55286H122.438V11.8187H123.014L124.565 7.55286H127.466Z" fill="#00487C"/>
<path fill-rule="evenodd" clip-rule="evenodd" d="M34.7589 7.55286H40.3624V10.5138H37.5356V19.3716H34.7589V7.55286Z" fill="#00487C"/>
<path fill-rule="evenodd" clip-rule="evenodd" d="M89.3678 19.3716V12.17L87.7168 14.2276L86.0658 12.17V19.3716H83.3391V7.55286H85.6655L87.7168 10.3382L89.7681 7.55286H92.0945V19.3716H89.3678Z" fill="#00487C"/>
<path fill-rule="evenodd" clip-rule="evenodd" d="M101.4 19.3968H104.177L104.502 17.3643H106.403L106.754 19.3968H109.53L107.179 7.578H103.727L101.4 19.3968ZM105.478 11.1412L106.003 14.7546H104.977L105.478 11.1412Z" fill="#00487C"/>
</g>
<defs>
<clipPath id="clip0_1_223">
<rect width="127.529" height="27" fill="white" transform="translate(0.237488)"/>
</clipPath>
</defs>
</svg>
