<svg width="251" height="58" viewBox="0 0 251 58" fill="none" xmlns="http://www.w3.org/2000/svg">
<g clip-path="url(#clip0_599_7072)">
<path d="M40.2375 0H0V58H40.2375V0Z" fill="white"/>
<path d="M9.96914 22.0391L9.85452 21.6952L9.83792 21.7008L9.82193 21.7079L9.96914 22.0391ZM6.88789 54.1204L7.24575 54.0628L6.88789 54.1204ZM13.7754 53.9392L13.4585 53.763L13.7754 53.9392ZM16.1316 47.8499L16.4485 48.0261L16.1316 47.8499ZM24.8316 49.2267L25.17 49.0965L24.8316 49.2267ZM9.82193 21.7079C8.96686 22.0879 7.70112 22.8764 6.64407 24.0228C5.58543 25.1708 4.71289 26.7044 4.71289 28.5641H5.43789C5.43789 26.9438 6.1966 25.5775 7.17702 24.5143C8.15903 23.4493 9.34017 22.7154 10.1164 22.3704L9.82193 21.7079ZM4.71289 28.5641C4.71289 30.8027 5.45728 33.2999 6.17812 35.7083C6.90812 38.1472 7.61289 40.4926 7.61289 42.5204H8.33789C8.33789 40.3639 7.59266 37.9058 6.87267 35.5004C6.1435 33.0642 5.43789 30.6756 5.43789 28.5641H4.71289ZM7.61289 42.5204C7.61289 44.6026 7.21276 46.6232 6.87064 48.5851C6.53184 50.5273 6.2471 52.4243 6.53003 54.1781L7.24575 54.0628C6.98493 52.446 7.24394 50.664 7.58483 48.7094C7.92239 46.7744 8.33789 44.6802 8.33789 42.5204H7.61289ZM6.53003 54.1781C6.81155 55.9231 7.38709 56.8214 8.11039 57.2466C8.80686 57.6559 9.57412 57.5642 9.96914 57.5642V56.8392C9.45791 56.8392 8.95842 56.9041 8.47774 56.6217C8.02389 56.3549 7.51197 55.7129 7.24575 54.0628L6.53003 54.1781ZM9.96914 57.5642C10.3037 57.5642 10.6877 57.3862 11.0407 57.1709C11.411 56.945 11.8129 56.6362 12.2003 56.2947C12.9687 55.6179 13.7282 54.7704 14.0923 54.1154L13.4585 53.763C13.152 54.3147 12.4616 55.0985 11.721 55.751C11.354 56.0743 10.9866 56.3549 10.6631 56.5521C10.3223 56.7602 10.0877 56.8392 9.96914 56.8392V57.5642ZM14.0923 54.1154C14.7466 52.938 15.1107 51.8051 15.425 50.776C15.7429 49.7353 16.0035 48.8268 16.4485 48.0261L15.8148 47.6737C15.3239 48.5571 15.0407 49.5518 14.7316 50.5639C14.419 51.5876 14.073 52.6574 13.4585 53.763L14.0923 54.1154ZM16.4485 48.0261C17.0542 46.936 17.6285 46.4956 18.1778 46.302C18.7597 46.0972 19.3522 46.1454 20.1191 46.1454V45.4204C19.4361 45.4204 18.6692 45.3606 17.937 45.6184C17.1723 45.8877 16.4778 46.4807 15.8148 47.6737L16.4485 48.0261ZM20.1191 46.1454C20.7956 46.1454 21.6346 46.2897 22.4272 46.757C23.2142 47.221 23.9775 48.0159 24.4933 49.3568L25.17 49.0965C24.5983 47.6107 23.7303 46.6837 22.7954 46.1324C21.8662 45.5846 20.8926 45.4204 20.1191 45.4204V46.1454ZM24.4933 49.3568C24.6878 49.8625 24.8637 50.4603 25.046 51.1081C25.2268 51.7508 25.4137 52.4421 25.6263 53.1116C26.0466 54.4354 26.5936 55.7687 27.4908 56.5662L27.9725 56.0243C27.2384 55.3718 26.7379 54.2172 26.3173 52.8923C26.1095 52.2376 25.9275 51.5644 25.7439 50.9119C25.5619 50.2649 25.378 49.637 25.17 49.0965L24.4933 49.3568ZM27.4908 56.5662C28.3674 57.3456 29.332 57.67 30.2313 57.5377C31.1317 57.405 31.9003 56.8243 32.3985 55.9279L31.7647 55.5755C31.3567 56.3099 30.766 56.7261 30.1258 56.8203C29.4844 56.9146 28.7271 56.6953 27.9725 56.0243L27.4908 56.5662ZM32.3985 55.9279C33.3529 54.2096 33.5316 52.1644 33.5316 49.9517H32.8066C32.8066 52.1488 32.6229 54.0309 31.7647 55.5755L32.3985 55.9279ZM33.5316 49.9517C33.5316 49.2115 33.4135 48.3676 33.2569 47.4918C33.1038 46.6344 32.8971 45.6629 32.7327 44.7705C32.3907 42.9145 32.1875 41.1745 32.6068 39.9162L31.919 39.6871C31.4321 41.1476 31.682 43.0693 32.0197 44.9017C32.1951 45.8536 32.3849 46.733 32.5432 47.6194C32.6983 48.4865 32.8066 49.2785 32.8066 49.9517H33.5316ZM32.6068 39.9162C32.8256 39.2597 33.123 38.6087 33.4477 37.9341C33.7695 37.2649 34.1212 36.5671 34.4312 35.8437C35.0549 34.3883 35.5322 32.7825 35.3423 30.8843L34.621 30.9565C34.7936 32.6833 34.3646 34.1587 33.7649 35.5581C33.4631 36.2622 33.1239 36.9347 32.7944 37.6194C32.4677 38.2984 32.1533 38.9842 31.919 39.6871L32.6068 39.9162ZM35.3423 30.8843C35.1585 29.0455 34.7882 27.4998 34.079 26.1524C33.3676 24.8007 32.3272 23.6712 30.837 22.6467L30.4263 23.2441C31.8361 24.2133 32.7894 25.2588 33.4374 26.49C34.0876 27.7254 34.4423 29.1702 34.621 30.9565L35.3423 30.8843ZM30.837 22.6467C30.4228 22.3619 29.8225 22.1339 29.1156 21.9464C28.4017 21.7572 27.5493 21.6017 26.6101 21.476C24.7313 21.2243 22.4794 21.0878 20.2398 21.0423C17.9992 20.9968 15.7633 21.0423 13.9145 21.1562C12.0829 21.2691 10.5861 21.4514 9.85452 21.6952L10.0838 22.383C10.7115 22.1738 12.1147 21.9935 13.9591 21.8799C15.7863 21.7672 18.0023 21.7221 20.2251 21.7672C22.4487 21.8123 24.6714 21.9478 26.5139 22.1945C27.4353 22.3179 28.2553 22.4684 28.9298 22.6472C29.6112 22.8279 30.1154 23.0304 30.4263 23.2441L30.837 22.6467Z" fill="black"/>
<g filter="url(#filter0_i_599_7072)">
<path d="M7.06885 8.88115V23.9249C10.9355 25.6166 21.3513 27.9849 32.0813 23.9249V8.88115C28.0938 6.28322 17.5088 2.64615 7.06885 8.88115Z" fill="#E0AFFF"/>
<path d="M7.0688 8.8812L6.88295 8.56999L6.7063 8.67548V8.8812H7.0688ZM7.0688 23.9249H6.7063V24.162L6.92351 24.2571L7.0688 23.9249ZM32.0813 23.9249L32.2096 24.264L32.4438 24.1754V23.9249H32.0813ZM32.0813 8.8812H32.4438V8.68472L32.2792 8.57746L32.0813 8.8812ZM6.7063 8.8812V23.9249H7.4313V8.8812H6.7063ZM6.92351 24.2571C10.8562 25.9776 21.3718 28.3648 32.2096 24.264L31.953 23.5859C21.3308 27.6051 11.0148 25.2556 7.21409 23.5928L6.92351 24.2571ZM32.4438 23.9249V8.8812H31.7188V23.9249H32.4438ZM32.2792 8.57746C28.2175 5.93124 17.4793 2.24157 6.88295 8.56999L7.25465 9.1924C17.5383 3.05083 27.9701 6.63533 31.8834 9.18493L32.2792 8.57746Z" fill="black"/>
</g>
<path d="M10.4219 9.7876C10.4219 9.53733 10.219 9.33447 9.96875 9.33447C9.71848 9.33447 9.51562 9.53733 9.51562 9.7876H10.4219ZM9.51562 10.3313C9.51562 10.5816 9.71848 10.7845 9.96875 10.7845C10.219 10.7845 10.4219 10.5816 10.4219 10.3313H9.51562ZM9.51562 9.7876V10.3313H10.4219V9.7876H9.51562Z" fill="white"/>
<path d="M10.4219 11.6001C10.4219 11.3498 10.219 11.147 9.96875 11.147C9.71848 11.147 9.51562 11.3498 9.51562 11.6001H10.4219ZM9.51562 17.5813C9.51562 17.8316 9.71848 18.0345 9.96875 18.0345C10.219 18.0345 10.4219 17.8316 10.4219 17.5813H9.51562ZM9.51562 11.6001V17.5813H10.4219V11.6001H9.51562Z" fill="white"/>
<path d="M14.2623 22.0393C14.0217 21.9705 13.7709 22.1099 13.7021 22.3505C13.6334 22.5911 13.7727 22.8419 14.0133 22.9107L14.2623 22.0393ZM25.9243 22.8879C26.1524 22.7849 26.2538 22.5166 26.1508 22.2885C26.0478 22.0604 25.7794 21.959 25.5513 22.062L25.9243 22.8879ZM14.1378 22.475C14.0133 22.9107 14.0134 22.9107 14.0136 22.9107C14.0137 22.9108 14.0138 22.9108 14.014 22.9108C14.0143 22.911 14.0148 22.9111 14.0154 22.9112C14.0165 22.9116 14.018 22.912 14.02 22.9125C14.0239 22.9137 14.0296 22.9152 14.0369 22.9173C14.0515 22.9214 14.0727 22.9272 14.1004 22.9347C14.1557 22.9496 14.2365 22.9711 14.3404 22.9974C14.5482 23.0502 14.8487 23.1228 15.2228 23.2034C15.9705 23.3644 17.015 23.5577 18.2033 23.6867C20.5608 23.9426 23.5623 23.9547 25.9243 22.8879L25.5513 22.062C23.4184 23.0253 20.6198 23.0374 18.3011 22.7857C17.1513 22.661 16.1386 22.4736 15.4136 22.3175C15.0514 22.2395 14.7617 22.1694 14.5634 22.119C14.4642 22.0939 14.388 22.0737 14.337 22.0599C14.3115 22.053 14.2924 22.0477 14.2798 22.0442C14.2735 22.0424 14.2689 22.0411 14.266 22.0403C14.2645 22.0399 14.2635 22.0396 14.2628 22.0394C14.2626 22.0394 14.2623 22.0393 14.2623 22.0393C14.2622 22.0392 14.2622 22.0392 14.2622 22.0392C14.2622 22.0392 14.2623 22.0393 14.1378 22.475Z" fill="white"/>
<g filter="url(#filter1_i_599_7072)">
<path d="M18.826 3.9876C18.5114 3.33726 18.134 1.77645 19.1405 0.735915C19.1405 0.605846 20.5035 1.64638 19.6647 3.9876H18.826Z" fill="#8AEFC5"/>
</g>
<path d="M18.826 3.9876C18.5114 3.33726 18.134 1.77645 19.1405 0.735915C19.1405 0.605846 20.5035 1.64638 19.6647 3.9876H18.826Z" stroke="black" stroke-width="0.5075"/>
<g filter="url(#filter2_i_599_7072)">
<path d="M19.3938 9.0625C20.8953 9.0625 22.1125 7.84527 22.1125 6.34375C22.1125 4.84223 20.8953 3.625 19.3938 3.625C17.8923 3.625 16.675 4.84223 16.675 6.34375C16.675 7.84527 17.8923 9.0625 19.3938 9.0625Z" fill="#FAF2C9"/>
</g>
<path d="M19.3938 8.77254C20.7352 8.77254 21.8226 7.68515 21.8226 6.34379C21.8226 5.00243 20.7352 3.91504 19.3938 3.91504C18.0525 3.91504 16.9651 5.00243 16.9651 6.34379C16.9651 7.68515 18.0525 8.77254 19.3938 8.77254Z" stroke="black" stroke-width="0.58"/>
<g filter="url(#filter3_i_599_7072)">
<path d="M19.3937 7.9749C20.2946 7.9749 21.025 7.24457 21.025 6.34365C21.025 5.44274 20.2946 4.7124 19.3937 4.7124C18.4928 4.7124 17.7625 5.44274 17.7625 6.34365C17.7625 7.24457 18.4928 7.9749 19.3937 7.9749Z" fill="#9CF3D3"/>
</g>
<path d="M19.3937 7.73949C20.1645 7.73949 20.7893 7.11465 20.7893 6.34387C20.7893 5.57308 20.1645 4.94824 19.3937 4.94824C18.6229 4.94824 17.998 5.57308 17.998 6.34387C17.998 7.11465 18.6229 7.73949 19.3937 7.73949Z" stroke="black" stroke-width="0.47125"/>
<path d="M19.0313 6.525C19.3316 6.525 19.575 6.28155 19.575 5.98125C19.575 5.68095 19.3316 5.4375 19.0313 5.4375C18.731 5.4375 18.4875 5.68095 18.4875 5.98125C18.4875 6.28155 18.731 6.525 19.0313 6.525Z" fill="white" fill-opacity="0.88"/>
<path d="M16.3125 40.0562L16.675 42.4125H18.85M16.3125 40.0562L15.95 37.7H18.125M16.3125 40.0562H23.8343M18.85 42.4125L18.125 37.7M18.85 42.4125H21.1156M18.125 37.7H21.5687M23.8343 40.0562L24.2875 37.7H21.5687M23.8343 40.0562L23.3812 42.4125H21.1156M21.5687 37.7L21.1156 42.4125" stroke="black" stroke-width="0.58" stroke-linejoin="round"/>
<path d="M10.6934 30.9936C11.2371 29.3624 13.4121 27.3686 15.5871 30.9936" stroke="black" stroke-width="0.725"/>
<path d="M24.2871 31.0376C24.8309 29.4063 27.0059 27.4126 29.1809 31.0376" stroke="black" stroke-width="0.725"/>
<path d="M35.3437 37.1562C36.5449 37.1562 37.5187 36.1824 37.5187 34.9812C37.5187 33.7799 36.5449 32.8062 35.3437 32.8062C34.1425 32.8062 33.1687 33.7799 33.1687 34.9812C33.1687 36.1824 34.1425 37.1562 35.3437 37.1562Z" fill="#FDF2C3" stroke="black" stroke-width="0.3625"/>
<path d="M35.344 36.1231C35.9747 36.1231 36.4859 35.6119 36.4859 34.9812C36.4859 34.3506 35.9747 33.8394 35.344 33.8394C34.7134 33.8394 34.2021 34.3506 34.2021 34.9812C34.2021 35.6119 34.7134 36.1231 35.344 36.1231Z" fill="#E5CBAE" stroke="black" stroke-width="0.25375"/>
<path d="M5.2563 37.1562C6.45752 37.1562 7.4313 36.1824 7.4313 34.9812C7.4313 33.7799 6.45752 32.8062 5.2563 32.8062C4.05508 32.8062 3.0813 33.7799 3.0813 34.9812C3.0813 36.1824 4.05508 37.1562 5.2563 37.1562Z" fill="#FDF2C3" stroke="black" stroke-width="0.3625"/>
<path d="M5.25613 36.1231C5.88677 36.1231 6.39801 35.6119 6.39801 34.9812C6.39801 34.3506 5.88677 33.8394 5.25613 33.8394C4.62549 33.8394 4.11426 34.3506 4.11426 34.9812C4.11426 35.6119 4.62549 36.1231 5.25613 36.1231Z" fill="#E5CBAE" stroke="black" stroke-width="0.25375"/>
<path d="M3.62484 32.3349C5.26651 32.3349 6.59734 31.0041 6.59734 29.3624C6.59734 27.7207 5.26651 26.3899 3.62484 26.3899C1.98318 26.3899 0.652344 27.7207 0.652344 29.3624C0.652344 31.0041 1.98318 32.3349 3.62484 32.3349Z" fill="#FDF2C3" stroke="black" stroke-width="0.58"/>
<path d="M3.62491 30.9212C4.48579 30.9212 5.18366 30.2233 5.18366 29.3625C5.18366 28.5016 4.48579 27.8037 3.62491 27.8037C2.76404 27.8037 2.06616 28.5016 2.06616 29.3625C2.06616 30.2233 2.76404 30.9212 3.62491 30.9212Z" fill="#FCBDB4" stroke="black" stroke-width="0.5075"/>
<path d="M36.6121 32.3349C38.2538 32.3349 39.5846 31.0041 39.5846 29.3624C39.5846 27.7207 38.2538 26.3899 36.6121 26.3899C34.9705 26.3899 33.6396 27.7207 33.6396 29.3624C33.6396 31.0041 34.9705 32.3349 36.6121 32.3349Z" fill="#FDF2C3" stroke="black" stroke-width="0.58"/>
<path d="M36.6125 30.9212C37.4733 30.9212 38.1712 30.2233 38.1712 29.3625C38.1712 28.5016 37.4733 27.8037 36.6125 27.8037C35.7516 27.8037 35.0537 28.5016 35.0537 29.3625C35.0537 30.2233 35.7516 30.9212 36.6125 30.9212Z" fill="#FCBDB4" stroke="black" stroke-width="0.5075"/>
<path d="M6.88758 40.1106C7.61832 40.1106 8.2107 39.5182 8.2107 38.7875C8.2107 38.0567 7.61832 37.4644 6.88758 37.4644C6.15684 37.4644 5.56445 38.0567 5.56445 38.7875C5.56445 39.5182 6.15684 40.1106 6.88758 40.1106Z" fill="#FDF2C3" stroke="black" stroke-width="0.25375"/>
<path d="M6.88755 39.4218C7.2379 39.4218 7.52192 39.1378 7.52192 38.7875C7.52192 38.4371 7.2379 38.1531 6.88755 38.1531C6.53719 38.1531 6.25317 38.4371 6.25317 38.7875C6.25317 39.1378 6.53719 39.4218 6.88755 39.4218Z" fill="#E5CBAE" stroke="black" stroke-width="0.18125"/>
<path d="M33.3505 40.1106C34.0812 40.1106 34.6736 39.5182 34.6736 38.7875C34.6736 38.0567 34.0812 37.4644 33.3505 37.4644C32.6197 37.4644 32.0273 38.0567 32.0273 38.7875C32.0273 39.5182 32.6197 40.1106 33.3505 40.1106Z" fill="#FDF2C3" stroke="black" stroke-width="0.25375"/>
<path d="M33.35 39.4218C33.7003 39.4218 33.9843 39.1378 33.9843 38.7875C33.9843 38.4371 33.7003 38.1531 33.35 38.1531C32.9996 38.1531 32.7156 38.4371 32.7156 38.7875C32.7156 39.1378 32.9996 39.4218 33.35 39.4218Z" fill="#E5CBAE" stroke="black" stroke-width="0.18125"/>
<g filter="url(#filter4_i_599_7072)">
<path d="M11.2375 38.0625C12.2386 38.0625 13.05 37.251 13.05 36.25C13.05 35.249 12.2386 34.4375 11.2375 34.4375C10.2365 34.4375 9.42505 35.249 9.42505 36.25C9.42505 37.251 10.2365 38.0625 11.2375 38.0625Z" fill="#FF67A1"/>
</g>
<path d="M11.2375 38.0625C12.2386 38.0625 13.05 37.251 13.05 36.25C13.05 35.249 12.2386 34.4375 11.2375 34.4375C10.2365 34.4375 9.42505 35.249 9.42505 36.25C9.42505 37.251 10.2365 38.0625 11.2375 38.0625Z" stroke="black" stroke-width="0.58"/>
<path d="M10.6941 35.8875C10.9944 35.8875 11.2379 35.6441 11.2379 35.3438C11.2379 35.0435 10.9944 34.8 10.6941 34.8C10.3938 34.8 10.1504 35.0435 10.1504 35.3438C10.1504 35.6441 10.3938 35.8875 10.6941 35.8875Z" fill="white" fill-opacity="0.74"/>
<g filter="url(#filter5_i_599_7072)">
<path d="M28.6375 38.0625C27.6364 38.0625 26.825 37.251 26.825 36.25C26.825 35.249 27.6364 34.4375 28.6375 34.4375C29.6385 34.4375 30.45 35.249 30.45 36.25C30.45 37.251 29.6385 38.0625 28.6375 38.0625Z" fill="#FF67A1"/>
</g>
<path d="M28.6375 38.0625C27.6364 38.0625 26.825 37.251 26.825 36.25C26.825 35.249 27.6364 34.4375 28.6375 34.4375C29.6385 34.4375 30.45 35.249 30.45 36.25C30.45 37.251 29.6385 38.0625 28.6375 38.0625Z" stroke="black" stroke-width="0.58"/>
<path d="M29.1809 35.8875C28.8806 35.8875 28.6371 35.6441 28.6371 35.3438C28.6371 35.0435 28.8806 34.8 29.1809 34.8C29.4812 34.8 29.7246 35.0435 29.7246 35.3438C29.7246 35.6441 29.4812 35.8875 29.1809 35.8875Z" fill="white" fill-opacity="0.74"/>
</g>
<path fill-rule="evenodd" clip-rule="evenodd" d="M68.2288 26.8431L69.1439 8.57775C69.1642 8.17445 69.6141 7.96702 69.9729 7.97971L70.1291 7.98522C70.4873 7.99791 70.9167 8.23694 70.8964 8.64147L69.9937 26.6541C73.8513 26.2948 77.7263 26.2611 81.5976 26.2623V7.22788C81.5976 6.80334 82.0818 6.58336 82.4506 6.58336H82.6183C82.9871 6.58336 83.4714 6.80334 83.4714 7.22788V26.2642C84.0387 26.2651 84.606 26.2655 85.1734 26.2648C88.6798 26.2605 87.6882 28.399 88.6062 30.8448C88.9504 31.8372 89.2293 32.6478 89.3746 33.6999C89.3988 33.9069 89.4233 34.1138 89.4475 34.3207L89.4504 34.3451L89.4285 34.3561C88.6103 34.7651 88.6971 34.6132 87.869 34.3583L87.8538 34.3536L87.8473 34.339C87.5065 33.5724 87.1658 32.8056 86.8232 32.0333C86.651 31.3568 86.1055 28.7096 85.4861 28.4316C85.0152 28.22 83.495 28.2163 82.9078 28.1652C80.3635 27.944 77.7264 28.0138 75.1798 28.179C72.4825 28.3541 69.7824 28.6547 67.1072 29.0406C65.3164 29.2988 63.4766 29.587 61.7051 29.9784C60.7903 30.0696 59.8489 30.192 58.9317 30.2318C58.378 30.2556 57.805 30.2445 57.2815 30.042C56.7627 29.8416 56.3376 29.4712 55.9492 29.0831C55.4802 28.614 55.2559 28.0326 55.2381 27.3723L55.2375 27.3509V5.7474C55.2375 5.29845 55.7254 5.05005 56.1237 5.05005H56.2982C56.6965 5.05005 57.1844 5.29845 57.1844 5.7474L57.1837 27.3453C57.323 27.9712 57.6899 28.3258 58.3331 28.3907C58.8792 28.4459 59.8467 28.2556 60.398 28.1563C61.0378 28.041 61.6792 27.9017 62.3198 27.7981C64.2891 27.48 66.2581 27.1617 68.2288 26.8431V26.8431ZM138.365 10.4917V18.8891L149.009 12.6039C149.33 12.4143 149.733 12.5534 149.922 12.8624L149.993 12.9782C150.181 13.2847 150.13 13.719 149.807 13.9099L139.276 20.1284C143.027 20.2404 148.224 20.9665 151.071 23.6066C151.493 23.9976 153.07 25.9382 152.796 26.5079C152.785 26.531 152.777 26.5416 152.769 26.5659C152.54 27.1984 151.661 26.6901 151.389 26.3335C148.192 22.1407 143.233 21.8277 138.365 21.557V29.8556C138.365 30.2352 138.042 30.5297 137.668 30.5297H137.532C137.158 30.5297 136.835 30.2352 136.835 29.8556V21.5701L136.634 21.6886C136.313 21.8781 135.909 21.7389 135.72 21.4301L135.649 21.3143C135.462 21.0075 135.512 20.5736 135.836 20.3826L136.835 19.7929V9.00972C136.835 8.22383 138.347 8.0659 138.533 8.75291L138.8 9.74155C138.887 10.0651 138.692 10.4028 138.369 10.4908L138.365 10.4917V10.4917ZM231.435 10.4917V18.8891L242.079 12.6039C242.4 12.4143 242.803 12.5536 242.992 12.8624L243.063 12.9782C243.25 13.2847 243.2 13.719 242.877 13.9099L232.346 20.1284C236.096 20.2404 241.294 20.9665 244.141 23.6066C244.563 23.9976 246.139 25.9382 245.866 26.5079C245.855 26.531 245.847 26.5416 245.838 26.5659C245.61 27.1984 244.73 26.6901 244.458 26.3335C241.261 22.1407 236.303 21.8277 231.435 21.557V29.8556C231.435 30.2352 231.111 30.5297 230.737 30.5297H230.602C230.227 30.5297 229.904 30.2353 229.904 29.8556V21.5701L229.703 21.6886C229.382 21.8781 228.979 21.7388 228.79 21.4301L228.719 21.3143C228.531 21.0074 228.582 20.5737 228.905 20.3826L229.904 19.7929V9.00972C229.904 8.22383 231.417 8.0659 231.602 8.75291L231.869 9.74155C231.957 10.0653 231.761 10.4028 231.438 10.4908L231.435 10.4917ZM177.357 19.4672C181.237 18.4984 185.257 18.2429 189.241 18.5228L189.254 10.7316C189.254 10.3573 189.591 10.0873 189.952 10.088L190.088 10.0883C190.449 10.089 190.785 10.3596 190.784 10.7341L190.752 30.6173C190.751 30.9916 190.415 31.2621 190.053 31.261L189.918 31.2605C189.556 31.2594 189.221 30.9894 189.221 30.6148L189.238 20.5692C185.265 19.9111 181.196 20.3999 177.306 21.3246L177.059 30.4873C177.049 30.8615 176.706 31.1223 176.345 31.1128L176.209 31.1092C175.848 31.0997 175.519 30.8202 175.529 30.446L176.065 10.5698C176.075 10.1956 176.419 9.93479 176.78 9.9443L176.916 9.94789C177.277 9.9574 177.605 10.237 177.595 10.6112L177.357 19.4672V19.4672ZM208.144 22.6368C208.277 22.7127 208.228 22.848 208.144 22.9493L208.131 31.1285C208.13 31.5029 207.794 31.7732 207.432 31.7721L207.296 31.7717C206.935 31.7706 206.6 31.5007 206.6 31.1261L206.613 23.5492C204.417 23.5754 202.118 23.6631 199.934 23.4504C196.715 23.1368 194.864 21.4261 194.541 18.1514C194.324 15.9573 194.433 13.5112 194.584 11.3133C194.609 10.9458 194.915 10.6716 195.283 10.6721C195.328 10.6723 195.373 10.6724 195.418 10.6725C195.773 10.6732 196.139 10.9412 196.115 11.3205C195.969 13.5498 195.921 15.7698 196.025 18.002C196.102 19.649 197.178 20.943 198.659 21.5956C199.761 22.0812 201.093 22.1563 202.282 22.1585C203.727 22.1612 205.168 22.0574 206.615 22.0724L206.633 11.2427C206.633 10.8684 206.969 10.5985 207.331 10.5992L207.467 10.5994C207.828 10.6001 208.163 10.8707 208.163 11.2452L208.144 22.6368V22.6368ZM213.25 25.7751C215.96 20.3231 219.17 15.3658 223.957 11.4852C224.366 11.1543 225.465 11.444 225.464 12.1492L225.431 30.2661C225.431 30.6297 225.069 30.8567 224.733 30.8557L224.597 30.8553C224.262 30.8544 223.9 30.6275 223.901 30.2638L223.93 13.9411C219.334 17.3104 215.7 25.0448 213.243 30.17L213.242 30.6104C213.241 30.9814 212.897 31.2375 212.544 31.2364L212.408 31.236C212.055 31.2349 211.711 30.9792 211.712 30.6079L211.744 11.2982C211.744 10.9271 212.089 10.671 212.442 10.6721L212.578 10.6725C212.931 10.6736 213.275 10.9294 213.274 11.3007L213.25 25.7751V25.7751ZM130.536 13.0036L124.245 13.0979C124.209 13.0979 124.175 13.0975 124.144 13.0968C123.908 13.1668 123.836 13.3433 123.844 13.5752L123.852 13.6717C123.911 14.4457 123.936 15.2261 123.943 16.0025C123.955 17.2644 123.939 18.636 123.788 19.8892C123.228 24.5471 120.685 28.2601 116.074 29.6307C115.627 29.7635 115.166 29.8493 114.707 29.9235C114.662 29.9308 114.614 29.9167 114.572 29.9249C113.99 30.0412 113.521 29.1808 114.009 28.7368C114.184 28.5779 115.789 28.044 116.166 27.8712C117.969 27.0443 119.509 25.912 120.605 24.2325C122.127 21.9011 122.449 19.0197 122.286 16.2982C122.205 14.9525 122.15 13.6033 122.149 12.2543L122.149 12.2347C122.154 11.9009 122.026 11.6233 122.35 11.3895C122.699 11.1378 123.045 11.2029 123.446 11.1996C125.972 11.179 128.495 11.0525 131.016 11.0557C131.079 11.0383 131.142 11.0296 131.207 11.0288L131.343 11.0271C131.531 11.0248 131.718 11.0918 131.856 11.222C131.974 11.3333 132.046 11.4826 132.048 11.6459L132.303 30.961C132.308 31.332 131.967 31.5927 131.614 31.5969L131.478 31.5986C131.125 31.6029 130.778 31.3512 130.773 30.9799L130.536 13.0036V13.0036ZM163.749 27.3509C159.763 22.9962 157.595 18.5 156.255 12.7457C156.155 12.3192 156.384 11.8901 156.803 11.7497C156.855 11.7324 156.907 11.7148 156.959 11.6973C157.363 11.5617 157.876 11.7281 157.999 12.1654C158.832 15.1323 159.922 18.1881 161.405 20.8979C162.146 22.2531 163.312 24.0999 164.585 25.0309C166.247 20.6336 168.265 16.3727 170.216 12.0987C170.398 11.6994 170.832 11.494 171.254 11.6354C171.306 11.6528 171.358 11.6703 171.41 11.6877C171.793 11.8165 172.195 12.2887 171.954 12.6937C171.58 13.3232 171.244 14.0056 170.921 14.6627C170.397 15.7276 169.899 16.8066 169.416 17.8906C168.152 20.7278 166.982 23.6274 165.952 26.5577C164.95 29.409 164.006 32.45 163.499 35.4321C163.421 35.8911 162.848 36.0347 162.458 35.9038C162.406 35.8863 162.354 35.8687 162.302 35.8514C161.862 35.7039 161.789 35.2725 161.753 34.8667C161.634 33.5371 162.379 31.4458 162.846 30.2167C163.202 29.2799 163.427 28.2992 163.749 27.3509V27.3509ZM110.599 25.4721C110.678 26.0223 110.608 26.5645 110.369 27.0678C109.463 28.9769 106.397 29.8712 104.466 30.1392C97.6196 31.089 92.9772 29.2029 92.6398 21.6029C92.7828 20.387 92.926 19.171 93.069 17.9551C93.8899 10.9763 99.6962 8.77912 105.622 11.9203C106.767 12.5271 108.455 13.3872 109.045 14.606C109.322 15.1802 109.371 15.8004 109.319 16.4284C109.15 18.472 108.427 19.1002 106.606 19.8929C104.873 20.6475 103.328 20.7186 101.478 20.7976C100.715 20.8301 99.9164 20.802 99.1511 20.795C98.6345 20.7901 98.1173 20.7856 97.6009 20.7914C97.324 20.7945 96.9189 20.7875 96.6465 20.8403C95.6183 20.9394 94.936 21.7323 95.0005 22.7716C95.2758 27.2057 97.7483 27.991 101.73 28.0215C105.506 28.0505 105.544 28.1742 108.425 25.5225C109.378 24.7818 109.637 24.6057 110.588 25.4509L110.597 25.4594L110.599 25.4721V25.4721ZM95.2638 18.717C95.4132 19.3877 97.6482 19.1939 98.1855 19.235C100.216 19.072 102.179 18.9348 104.175 18.5071C105.744 18.1708 108.279 17.3667 106.568 15.4424C105.197 13.9 103.19 13.2727 101.239 12.8359C98.9452 12.322 97.7521 13.1322 96.3188 14.9419C95.5061 16.6575 95.347 16.7859 95.2638 18.717V18.717Z" fill="black"/>
<path fill-rule="evenodd" clip-rule="evenodd" d="M56.0887 5.08521H56.2632C56.7313 5.08521 57.1143 5.38326 57.1143 5.74752V27.3511C57.2602 28.007 57.651 28.3608 58.2945 28.4258C59.0669 28.5038 61.3938 27.9775 62.2905 27.8328C64.2669 27.5134 66.2437 27.194 68.2203 26.8744L68.2273 26.8736L69.1439 8.57966C69.1603 8.25416 69.517 7.99982 69.9366 8.01486L70.0929 8.02038C70.5127 8.03527 70.8429 8.31429 70.8263 8.63979L69.9217 26.6929C73.8087 26.3286 77.696 26.2959 81.5976 26.2975V7.228C81.5976 6.89284 81.9657 6.61851 82.4156 6.61851H82.5833C83.0332 6.61851 83.4013 6.89284 83.4013 7.228V26.2994C83.9799 26.3002 84.5589 26.3008 85.1384 26.2999C88.605 26.2958 87.5856 28.3187 88.5381 30.8564C88.9161 31.9464 89.1467 32.5594 89.3048 33.7041C89.3291 33.9112 89.3535 34.1179 89.3777 34.3249C88.5867 34.7204 88.7083 34.5909 87.8443 34.3249C87.5035 33.5584 87.1628 32.7915 86.8221 32.0248C86.6435 31.3233 86.1041 28.6866 85.4654 28.3997C85.0248 28.2019 83.4376 28.179 82.8758 28.1305C75.586 27.4962 64.7995 29.251 61.6666 29.9436C58.062 30.3032 57.3911 30.5104 55.939 29.0584C55.5255 28.6453 55.2574 28.096 55.2381 27.3715L55.2375 27.3511V5.74752C55.2375 5.38326 55.6206 5.08521 56.0887 5.08521V5.08521Z" fill="black"/>
<path fill-rule="evenodd" clip-rule="evenodd" d="M138.464 8.76229L138.731 9.75094C138.814 10.0566 138.631 10.3746 138.325 10.4572L138.295 10.4653V18.9508L148.992 12.6344C149.281 12.4639 149.668 12.5704 149.858 12.881L149.929 12.9969C150.119 13.3072 150.043 13.7098 149.755 13.88L139.119 20.1602C144.202 20.2954 148.615 21.4091 151.013 23.6325C151.393 23.9849 152.996 25.9397 152.73 26.493C152.711 26.5336 152.716 26.5121 152.701 26.5543C152.505 27.0983 151.699 26.7319 151.382 26.3125C148.292 22.2632 143.721 21.8218 138.295 21.5202V29.8559C138.295 30.2072 137.997 30.4949 137.633 30.4949H137.497C137.133 30.4949 136.835 30.2072 136.835 29.8559V21.509L136.581 21.6587C136.293 21.8289 135.905 21.7229 135.716 21.412L135.645 21.2962C135.455 20.9856 135.53 20.5837 135.819 20.4131L136.835 19.8132V9.01C136.835 8.26425 138.29 8.1157 138.464 8.76229V8.76229Z" fill="black"/>
<path fill-rule="evenodd" clip-rule="evenodd" d="M231.533 8.76229L231.8 9.75094C231.883 10.0566 231.7 10.3746 231.394 10.4572L231.364 10.4653V18.9508L242.061 12.6344C242.35 12.4639 242.737 12.5704 242.927 12.881L242.998 12.9969C243.188 13.3072 243.112 13.7098 242.824 13.88L232.188 20.1602C237.271 20.2954 241.684 21.4091 244.082 23.6325C244.462 23.9849 246.065 25.9397 245.799 26.493C245.78 26.5336 245.785 26.5121 245.77 26.5543C245.574 27.0983 244.768 26.7319 244.451 26.3125C241.361 22.2632 236.79 21.8218 231.364 21.5202V29.8559C231.364 30.2072 231.066 30.4949 230.702 30.4949H230.566C230.202 30.4949 229.904 30.2072 229.904 29.8559V21.509L229.65 21.6587C229.362 21.8289 228.974 21.7229 228.785 21.412L228.714 21.2962C228.524 20.9856 228.599 20.5837 228.888 20.4131L229.904 19.8132V9.01C229.904 8.26425 231.359 8.1157 231.533 8.76229Z" fill="black"/>
<path fill-rule="evenodd" clip-rule="evenodd" d="M176.744 9.97951L176.88 9.98309C177.244 9.99302 177.535 10.2752 177.526 10.6104L177.286 19.5126C181.17 18.537 185.163 18.2706 189.241 18.5606L189.254 10.7318C189.255 10.3966 189.553 10.1227 189.917 10.1232L190.053 10.1235C190.417 10.1242 190.715 10.3989 190.714 10.7342L190.682 30.6174C190.682 30.9526 190.383 31.2265 190.019 31.2261L189.883 31.2257C189.519 31.225 189.221 30.9504 189.222 30.615L189.238 20.5397C185.373 19.8939 181.347 20.3178 177.237 21.2969L176.99 30.4865C176.981 30.8216 176.675 31.0878 176.311 31.078L176.175 31.0744C175.811 31.0644 175.521 30.7823 175.53 30.4471L176.066 10.5709C176.075 10.2359 176.38 9.96972 176.744 9.97951V9.97951Z" fill="black"/>
<path fill-rule="evenodd" clip-rule="evenodd" d="M207.296 10.6343L207.431 10.6346C207.796 10.6352 208.093 10.91 208.093 11.2453L208.074 22.6583C208.197 22.715 208.171 22.8252 208.074 22.9365L208.06 31.1286C208.06 31.4638 207.762 31.7376 207.397 31.7371L207.262 31.7367C206.897 31.7362 206.6 31.4614 206.6 31.1261L206.613 23.5138H206.612C203.996 23.5443 201.808 23.6013 199.903 23.4156C196.906 23.1238 194.881 21.5982 194.54 18.148C194.375 16.4706 194.4 13.9952 194.584 11.3158C194.607 10.9818 194.883 10.7068 195.247 10.7072C195.293 10.7075 195.338 10.7075 195.383 10.7077C195.747 10.7083 196.066 10.9842 196.045 11.3182C195.865 14.0687 195.87 16.175 195.955 18.0037C196.026 19.5319 196.98 20.9094 198.61 21.6277C200.661 22.5322 203.589 22.0722 206.615 22.1079L206.632 11.2428C206.633 10.9076 206.931 10.6337 207.296 10.6343V10.6343Z" fill="black"/>
<path fill-rule="evenodd" clip-rule="evenodd" d="M212.407 10.7075L212.542 10.7079C212.907 10.7086 213.204 10.9754 213.204 11.301L213.179 25.9256C215.489 21.2582 218.674 15.784 223.944 11.5127C224.264 11.2533 225.394 11.4031 225.393 12.1495L225.361 30.2665C225.36 30.572 225.062 30.8215 224.698 30.8211L224.562 30.8206C224.198 30.8201 223.9 30.5699 223.901 30.2641L223.93 13.8725C219.471 17.1016 215.941 24.3876 213.172 30.1623L213.171 30.6107C213.171 30.9362 212.873 31.2021 212.508 31.2017L212.373 31.2013C212.008 31.2008 211.71 30.934 211.711 30.6082L211.743 11.2985C211.744 10.973 212.042 10.7071 212.407 10.7075V10.7075Z" fill="black"/>
<path fill-rule="evenodd" clip-rule="evenodd" d="M131.173 11.064L131.309 11.0623C131.5 11.0601 131.675 11.1317 131.797 11.2477C131.908 11.3519 131.977 11.4921 131.979 11.6464L132.233 30.9615C132.238 31.2872 131.943 31.5573 131.579 31.562L131.443 31.5637C131.079 31.5681 130.778 31.3055 130.773 30.9796L130.536 12.9681L124.211 13.063C124.175 13.063 124.138 13.063 124.102 13.063C123.852 13.1372 123.765 13.3241 123.775 13.5776L123.782 13.6727L123.782 13.6745C123.937 15.7037 123.887 18.4883 123.719 19.8852C123.131 24.7771 120.416 28.2934 116.029 29.5973C115.597 29.726 115.139 29.8127 114.667 29.889C114.623 29.8962 114.575 29.882 114.531 29.8907C113.996 29.9976 113.527 29.1912 113.998 28.7629C114.113 28.6584 115.797 28.0634 116.146 27.9032C119.403 26.4099 122.72 23.5283 122.286 16.2963C122.212 15.0573 122.151 13.6575 122.149 12.2551L122.15 12.2399L122.15 12.2388V12.2352C122.154 11.8966 122.029 11.6392 122.336 11.418C122.675 11.1733 123.013 11.2379 123.412 11.2347C125.865 11.2147 128.592 11.0875 130.988 11.0899H130.989C131.047 11.0738 131.109 11.0648 131.173 11.064V11.064Z" fill="black"/>
<path fill-rule="evenodd" clip-rule="evenodd" d="M171.208 11.6687C171.259 11.686 171.311 11.7034 171.363 11.7209C171.782 11.8612 172.096 12.3268 171.889 12.6758C170.457 15.0873 164.816 27.2765 163.429 35.4262C163.361 35.8261 162.852 36.0107 162.434 35.8706C162.382 35.8532 162.33 35.8357 162.278 35.8181C161.86 35.678 161.789 35.2677 161.753 34.8636C161.666 33.8967 162.038 32.3491 162.844 30.2292C163.2 29.291 163.426 28.3025 163.754 27.3425C160.682 23.9904 157.914 19.8667 156.254 12.7377C156.161 12.3424 156.361 11.9231 156.779 11.783C156.831 11.7655 156.883 11.748 156.935 11.7306C157.353 11.5904 157.82 11.7846 157.93 12.175C160.014 19.5948 162.729 23.7606 164.553 25.0766L164.566 25.0864C166.206 20.7388 168.243 16.4284 170.212 12.1132C170.381 11.744 170.789 11.5284 171.208 11.6687V11.6687Z" fill="black"/>
<path fill-rule="evenodd" clip-rule="evenodd" d="M96.6085 20.8058C97.1804 20.6946 100.473 20.8043 101.442 20.7629C103.298 20.6836 104.797 20.6279 106.558 19.8612C108.412 19.0538 109.085 18.4165 109.249 16.4259C109.429 14.2551 108.282 13.3885 105.571 11.9516C99.5738 8.77285 93.8761 11.101 93.0691 17.9596C92.9262 19.1755 92.7829 20.3915 92.6399 21.6074C92.9923 29.5352 98.0312 30.9921 104.426 30.1048C106.732 29.785 110.964 28.5134 110.53 25.4774C109.627 24.675 109.398 24.7837 108.412 25.5506C105.421 28.3031 105.322 28.0844 101.695 28.0569C97.7116 28.026 95.2082 27.2398 94.9308 22.7741C94.8192 20.9777 96.6085 20.8058 96.6085 20.8058V20.8058ZM95.1948 18.7227C95.2799 16.7248 95.3976 16.7328 96.2535 14.9255C98.0566 12.6481 99.3684 12.3891 101.212 12.802C103.175 13.2417 105.184 13.8718 106.56 15.4194C107.715 16.7179 107.264 17.8741 104.148 18.5416C102.146 18.9706 100.537 19.0788 98.1522 19.2703C97.4939 19.2202 95.352 19.4301 95.1948 18.7227Z" fill="black"/>
<path d="M59.4075 53.1C58.7075 53.1 58.1125 52.965 57.6225 52.695C57.1325 52.415 56.7575 52.015 56.4975 51.495C56.2475 50.975 56.1125 50.36 56.0925 49.65C56.0825 49.5 56.0775 49.3 56.0775 49.05C56.0775 48.8 56.0825 48.6 56.0925 48.45C56.1125 47.73 56.2475 47.115 56.4975 46.605C56.7575 46.085 57.1325 45.69 57.6225 45.42C58.1125 45.14 58.7075 45 59.4075 45C59.9375 45 60.3925 45.075 60.7725 45.225C61.1625 45.365 61.4825 45.555 61.7325 45.795C61.9825 46.025 62.1725 46.28 62.3025 46.56C62.4325 46.84 62.5025 47.115 62.5125 47.385C62.5225 47.485 62.4925 47.565 62.4225 47.625C62.3525 47.685 62.2725 47.715 62.1825 47.715H61.9725C61.8725 47.715 61.7975 47.695 61.7475 47.655C61.7075 47.605 61.6625 47.52 61.6125 47.4C61.4025 46.83 61.1125 46.435 60.7425 46.215C60.3825 45.985 59.9375 45.87 59.4075 45.87C58.7275 45.87 58.1625 46.08 57.7125 46.5C57.2725 46.91 57.0375 47.585 57.0075 48.525C56.9875 48.875 56.9875 49.225 57.0075 49.575C57.0375 50.515 57.2725 51.195 57.7125 51.615C58.1625 52.025 58.7275 52.23 59.4075 52.23C59.9375 52.23 60.3825 52.12 60.7425 51.9C61.1125 51.67 61.4025 51.27 61.6125 50.7C61.6625 50.58 61.7075 50.5 61.7475 50.46C61.7975 50.41 61.8725 50.385 61.9725 50.385H62.1825C62.2725 50.385 62.3525 50.415 62.4225 50.475C62.4925 50.535 62.5225 50.615 62.5125 50.715C62.5025 50.935 62.4575 51.155 62.3775 51.375C62.2975 51.595 62.1725 51.81 62.0025 52.02C61.8425 52.23 61.6425 52.415 61.4025 52.575C61.1625 52.735 60.8725 52.86 60.5325 52.95C60.2025 53.05 59.8275 53.1 59.4075 53.1ZM68.5145 53.1C67.5445 53.1 66.7745 52.785 66.2045 52.155C65.6345 51.515 65.3095 50.68 65.2295 49.65C65.2195 49.5 65.2145 49.3 65.2145 49.05C65.2145 48.8 65.2195 48.6 65.2295 48.45C65.2795 47.77 65.4395 47.17 65.7095 46.65C65.9795 46.13 66.3495 45.725 66.8195 45.435C67.2995 45.145 67.8645 45 68.5145 45C69.2145 45 69.8095 45.155 70.2995 45.465C70.7895 45.775 71.1645 46.22 71.4245 46.8C71.6945 47.38 71.8295 48.07 71.8295 48.87V49.095C71.8295 49.195 71.7945 49.275 71.7245 49.335C71.6645 49.395 71.5845 49.425 71.4845 49.425H66.1445C66.1445 49.425 66.1445 49.445 66.1445 49.485C66.1445 49.525 66.1445 49.555 66.1445 49.575C66.1645 50.025 66.2695 50.455 66.4595 50.865C66.6495 51.265 66.9195 51.595 67.2695 51.855C67.6195 52.105 68.0345 52.23 68.5145 52.23C68.9445 52.23 69.2995 52.165 69.5795 52.035C69.8695 51.905 70.0995 51.765 70.2695 51.615C70.4395 51.455 70.5495 51.335 70.5995 51.255C70.6895 51.125 70.7595 51.05 70.8095 51.03C70.8595 51 70.9395 50.985 71.0495 50.985H71.2895C71.3795 50.985 71.4545 51.015 71.5145 51.075C71.5845 51.125 71.6145 51.195 71.6045 51.285C71.5945 51.425 71.5145 51.6 71.3645 51.81C71.2245 52.01 71.0195 52.21 70.7495 52.41C70.4895 52.61 70.1695 52.775 69.7895 52.905C69.4095 53.035 68.9845 53.1 68.5145 53.1ZM66.1445 48.585H70.9145V48.525C70.9145 48.025 70.8195 47.575 70.6295 47.175C70.4395 46.775 70.1645 46.46 69.8045 46.23C69.4445 45.99 69.0145 45.87 68.5145 45.87C68.0145 45.87 67.5845 45.99 67.2245 46.23C66.8745 46.46 66.6045 46.775 66.4145 47.175C66.2345 47.575 66.1445 48.025 66.1445 48.525V48.585ZM75.263 52.95C75.163 52.95 75.083 52.92 75.023 52.86C74.963 52.8 74.933 52.72 74.933 52.62V45.435C74.933 45.355 74.963 45.29 75.023 45.24C75.093 45.18 75.163 45.15 75.233 45.15H75.578C75.728 45.15 75.843 45.225 75.923 45.375L78.698 50.625L81.473 45.375C81.553 45.225 81.668 45.15 81.818 45.15H82.163C82.243 45.15 82.313 45.18 82.373 45.24C82.433 45.29 82.463 45.355 82.463 45.435V52.62C82.463 52.72 82.433 52.8 82.373 52.86C82.313 52.92 82.233 52.95 82.133 52.95H81.878C81.778 52.95 81.698 52.92 81.638 52.86C81.578 52.8 81.548 52.72 81.548 52.62V46.17H81.983L79.358 51.255C79.308 51.355 79.248 51.45 79.178 51.54C79.108 51.63 78.998 51.675 78.848 51.675H78.548C78.398 51.675 78.288 51.63 78.218 51.54C78.148 51.45 78.088 51.355 78.038 51.255L75.488 46.455H75.848V52.62C75.848 52.72 75.818 52.8 75.758 52.86C75.698 52.92 75.618 52.95 75.518 52.95H75.263ZM88.914 53.1C87.944 53.1 87.174 52.785 86.604 52.155C86.034 51.515 85.709 50.68 85.629 49.65C85.619 49.5 85.614 49.3 85.614 49.05C85.614 48.8 85.619 48.6 85.629 48.45C85.679 47.77 85.839 47.17 86.109 46.65C86.379 46.13 86.749 45.725 87.219 45.435C87.699 45.145 88.264 45 88.914 45C89.614 45 90.209 45.155 90.699 45.465C91.189 45.775 91.564 46.22 91.824 46.8C92.094 47.38 92.229 48.07 92.229 48.87V49.095C92.229 49.195 92.194 49.275 92.124 49.335C92.064 49.395 91.984 49.425 91.884 49.425H86.544C86.544 49.425 86.544 49.445 86.544 49.485C86.544 49.525 86.544 49.555 86.544 49.575C86.564 50.025 86.669 50.455 86.859 50.865C87.049 51.265 87.319 51.595 87.669 51.855C88.019 52.105 88.434 52.23 88.914 52.23C89.344 52.23 89.699 52.165 89.979 52.035C90.269 51.905 90.499 51.765 90.669 51.615C90.839 51.455 90.949 51.335 90.999 51.255C91.089 51.125 91.159 51.05 91.209 51.03C91.259 51 91.339 50.985 91.449 50.985H91.689C91.779 50.985 91.854 51.015 91.914 51.075C91.984 51.125 92.014 51.195 92.004 51.285C91.994 51.425 91.914 51.6 91.764 51.81C91.624 52.01 91.419 52.21 91.149 52.41C90.889 52.61 90.569 52.775 90.189 52.905C89.809 53.035 89.384 53.1 88.914 53.1ZM86.544 48.585H91.314V48.525C91.314 48.025 91.219 47.575 91.029 47.175C90.839 46.775 90.564 46.46 90.204 46.23C89.844 45.99 89.414 45.87 88.914 45.87C88.414 45.87 87.984 45.99 87.624 46.23C87.274 46.46 87.004 46.775 86.814 47.175C86.634 47.575 86.544 48.025 86.544 48.525V48.585ZM95.6324 52.95C95.5524 52.95 95.4824 52.92 95.4224 52.86C95.3624 52.8 95.3324 52.73 95.3324 52.65V45.48C95.3324 45.38 95.3624 45.3 95.4224 45.24C95.4824 45.18 95.5624 45.15 95.6624 45.15H95.9174C96.0174 45.15 96.0974 45.18 96.1574 45.24C96.2174 45.3 96.2474 45.38 96.2474 45.48V52.215L95.9774 51.78L100.867 45.375C100.917 45.315 100.967 45.265 101.017 45.225C101.077 45.175 101.157 45.15 101.257 45.15H101.542C101.622 45.15 101.692 45.18 101.752 45.24C101.812 45.29 101.842 45.355 101.842 45.435V52.62C101.842 52.72 101.812 52.8 101.752 52.86C101.692 52.92 101.612 52.95 101.512 52.95H101.257C101.157 52.95 101.077 52.92 101.017 52.86C100.957 52.8 100.927 52.72 100.927 52.62V46.335L101.242 46.26L96.3074 52.725C96.2674 52.775 96.2174 52.825 96.1574 52.875C96.0974 52.925 96.0174 52.95 95.9174 52.95H95.6324ZM98.5874 44.1C98.0274 44.1 97.5924 44.015 97.2824 43.845C96.9824 43.675 96.7724 43.455 96.6524 43.185C96.5424 42.915 96.4874 42.64 96.4874 42.36C96.4874 42.28 96.5124 42.215 96.5624 42.165C96.6124 42.105 96.6824 42.075 96.7724 42.075H96.9974C97.0874 42.075 97.1574 42.105 97.2074 42.165C97.2574 42.215 97.2824 42.28 97.2824 42.36C97.2824 42.6 97.3674 42.825 97.5374 43.035C97.7174 43.245 98.0674 43.35 98.5874 43.35C99.1174 43.35 99.4674 43.245 99.6374 43.035C99.8074 42.825 99.8924 42.6 99.8924 42.36C99.8924 42.28 99.9174 42.215 99.9674 42.165C100.017 42.105 100.087 42.075 100.177 42.075H100.402C100.492 42.075 100.562 42.105 100.612 42.165C100.662 42.215 100.687 42.28 100.687 42.36C100.687 42.64 100.627 42.915 100.507 43.185C100.397 43.455 100.187 43.675 99.8774 43.845C99.5774 44.015 99.1474 44.1 98.5874 44.1ZM105.723 52.95C105.623 52.95 105.543 52.92 105.483 52.86C105.423 52.8 105.393 52.72 105.393 52.62V45.48C105.393 45.38 105.423 45.3 105.483 45.24C105.543 45.18 105.623 45.15 105.723 45.15H105.978C106.078 45.15 106.158 45.18 106.218 45.24C106.278 45.3 106.308 45.38 106.308 45.48V48.525H110.988V45.48C110.988 45.38 111.018 45.3 111.078 45.24C111.138 45.18 111.218 45.15 111.318 45.15H111.573C111.673 45.15 111.753 45.18 111.813 45.24C111.873 45.3 111.903 45.38 111.903 45.48V52.62C111.903 52.72 111.873 52.8 111.813 52.86C111.753 52.92 111.673 52.95 111.573 52.95H111.318C111.218 52.95 111.138 52.92 111.078 52.86C111.018 52.8 110.988 52.72 110.988 52.62V49.395H106.308V52.62C106.308 52.72 106.278 52.8 106.218 52.86C106.158 52.92 106.078 52.95 105.978 52.95H105.723ZM117.554 53.1C117.074 53.1 116.629 53 116.219 52.8C115.819 52.6 115.494 52.335 115.244 52.005C114.994 51.665 114.869 51.285 114.869 50.865C114.869 50.185 115.144 49.64 115.694 49.23C116.244 48.82 116.959 48.555 117.839 48.435L120.209 48.105V47.58C120.209 47.05 120.044 46.635 119.714 46.335C119.394 46.025 118.879 45.87 118.169 45.87C117.649 45.87 117.229 45.975 116.909 46.185C116.589 46.385 116.369 46.65 116.249 46.98C116.199 47.13 116.104 47.205 115.964 47.205H115.724C115.604 47.205 115.519 47.175 115.469 47.115C115.419 47.045 115.394 46.965 115.394 46.875C115.394 46.735 115.444 46.56 115.544 46.35C115.654 46.14 115.819 45.935 116.039 45.735C116.259 45.525 116.544 45.35 116.894 45.21C117.244 45.07 117.669 45 118.169 45C118.759 45 119.244 45.08 119.624 45.24C120.014 45.4 120.314 45.61 120.524 45.87C120.744 46.12 120.899 46.4 120.989 46.71C121.079 47.02 121.124 47.325 121.124 47.625V52.62C121.124 52.72 121.094 52.8 121.034 52.86C120.974 52.92 120.894 52.95 120.794 52.95H120.539C120.439 52.95 120.359 52.92 120.299 52.86C120.239 52.8 120.209 52.72 120.209 52.62V51.915C120.089 52.095 119.919 52.275 119.699 52.455C119.479 52.635 119.194 52.79 118.844 52.92C118.504 53.04 118.074 53.1 117.554 53.1ZM117.704 52.23C118.164 52.23 118.584 52.13 118.964 51.93C119.344 51.73 119.644 51.425 119.864 51.015C120.094 50.595 120.209 50.07 120.209 49.44V48.93L118.274 49.2C117.454 49.31 116.834 49.5 116.414 49.77C115.994 50.04 115.784 50.38 115.784 50.79C115.784 51.12 115.879 51.39 116.069 51.6C116.259 51.81 116.499 51.97 116.789 52.08C117.089 52.18 117.394 52.23 117.704 52.23ZM129.391 52.95C129.291 52.95 129.211 52.92 129.151 52.86C129.091 52.8 129.061 52.72 129.061 52.62V50.04H127.141V49.965C126.251 49.965 125.601 49.735 125.191 49.275C124.781 48.805 124.576 48.225 124.576 47.535C124.576 46.705 124.811 46.1 125.281 45.72C125.751 45.34 126.486 45.15 127.486 45.15H129.646C129.746 45.15 129.826 45.18 129.886 45.24C129.946 45.3 129.976 45.38 129.976 45.48V52.62C129.976 52.72 129.946 52.8 129.886 52.86C129.826 52.92 129.746 52.95 129.646 52.95H129.391ZM124.681 52.95C124.601 52.95 124.531 52.92 124.471 52.86C124.411 52.8 124.381 52.73 124.381 52.65C124.381 52.61 124.386 52.565 124.396 52.515C124.416 52.465 124.451 52.41 124.501 52.35L126.346 49.71H127.471L125.356 52.725C125.316 52.775 125.256 52.825 125.176 52.875C125.106 52.925 125.031 52.95 124.951 52.95H124.681ZM127.201 49.17H129.061V46.02H127.351C126.711 46.02 126.241 46.13 125.941 46.35C125.641 46.57 125.491 46.965 125.491 47.535C125.491 48.005 125.626 48.395 125.896 48.705C126.176 49.015 126.611 49.17 127.201 49.17ZM141.471 53.1C140.771 53.1 140.176 52.965 139.686 52.695C139.196 52.415 138.821 52.015 138.561 51.495C138.311 50.975 138.176 50.36 138.156 49.65C138.146 49.5 138.141 49.3 138.141 49.05C138.141 48.8 138.146 48.6 138.156 48.45C138.176 47.73 138.311 47.115 138.561 46.605C138.821 46.085 139.196 45.69 139.686 45.42C140.176 45.14 140.771 45 141.471 45C142.001 45 142.456 45.075 142.836 45.225C143.226 45.365 143.546 45.555 143.796 45.795C144.046 46.025 144.236 46.28 144.366 46.56C144.496 46.84 144.566 47.115 144.576 47.385C144.586 47.485 144.556 47.565 144.486 47.625C144.416 47.685 144.336 47.715 144.246 47.715H144.036C143.936 47.715 143.861 47.695 143.811 47.655C143.771 47.605 143.726 47.52 143.676 47.4C143.466 46.83 143.176 46.435 142.806 46.215C142.446 45.985 142.001 45.87 141.471 45.87C140.791 45.87 140.226 46.08 139.776 46.5C139.336 46.91 139.101 47.585 139.071 48.525C139.051 48.875 139.051 49.225 139.071 49.575C139.101 50.515 139.336 51.195 139.776 51.615C140.226 52.025 140.791 52.23 141.471 52.23C142.001 52.23 142.446 52.12 142.806 51.9C143.176 51.67 143.466 51.27 143.676 50.7C143.726 50.58 143.771 50.5 143.811 50.46C143.861 50.41 143.936 50.385 144.036 50.385H144.246C144.336 50.385 144.416 50.415 144.486 50.475C144.556 50.535 144.586 50.615 144.576 50.715C144.566 50.935 144.521 51.155 144.441 51.375C144.361 51.595 144.236 51.81 144.066 52.02C143.906 52.23 143.706 52.415 143.466 52.575C143.226 52.735 142.936 52.86 142.596 52.95C142.266 53.05 141.891 53.1 141.471 53.1ZM150.068 52.95C149.968 52.95 149.888 52.92 149.828 52.86C149.768 52.8 149.738 52.72 149.738 52.62V46.02H146.993C146.893 46.02 146.813 45.99 146.753 45.93C146.693 45.87 146.663 45.79 146.663 45.69V45.48C146.663 45.38 146.693 45.3 146.753 45.24C146.813 45.18 146.893 45.15 146.993 45.15H153.398C153.498 45.15 153.578 45.18 153.638 45.24C153.698 45.3 153.728 45.38 153.728 45.48V45.69C153.728 45.79 153.698 45.87 153.638 45.93C153.578 45.99 153.498 46.02 153.398 46.02H150.653V52.62C150.653 52.72 150.623 52.8 150.563 52.86C150.503 52.92 150.423 52.95 150.323 52.95H150.068ZM159.234 53.1C158.514 53.1 157.909 52.95 157.419 52.65C156.939 52.35 156.569 51.94 156.309 51.42C156.059 50.9 155.924 50.32 155.904 49.68C155.894 49.53 155.889 49.32 155.889 49.05C155.889 48.78 155.894 48.57 155.904 48.42C155.924 47.77 156.059 47.19 156.309 46.68C156.569 46.16 156.939 45.75 157.419 45.45C157.909 45.15 158.514 45 159.234 45C159.954 45 160.554 45.15 161.034 45.45C161.524 45.75 161.894 46.16 162.144 46.68C162.404 47.19 162.544 47.77 162.564 48.42C162.574 48.57 162.579 48.78 162.579 49.05C162.579 49.32 162.574 49.53 162.564 49.68C162.544 50.32 162.404 50.9 162.144 51.42C161.894 51.94 161.524 52.35 161.034 52.65C160.554 52.95 159.954 53.1 159.234 53.1ZM159.234 52.23C159.934 52.23 160.504 52.005 160.944 51.555C161.384 51.105 161.619 50.455 161.649 49.605C161.659 49.455 161.664 49.27 161.664 49.05C161.664 48.83 161.659 48.645 161.649 48.495C161.619 47.635 161.384 46.985 160.944 46.545C160.504 46.095 159.934 45.87 159.234 45.87C158.534 45.87 157.964 46.095 157.524 46.545C157.084 46.985 156.849 47.635 156.819 48.495C156.809 48.645 156.804 48.83 156.804 49.05C156.804 49.27 156.809 49.455 156.819 49.605C156.849 50.455 157.084 51.105 157.524 51.555C157.964 52.005 158.534 52.23 159.234 52.23ZM166.083 52.95C165.983 52.95 165.903 52.92 165.843 52.86C165.783 52.8 165.753 52.72 165.753 52.62V45.435C165.753 45.355 165.783 45.29 165.843 45.24C165.913 45.18 165.983 45.15 166.053 45.15H166.398C166.548 45.15 166.663 45.225 166.743 45.375L169.518 50.625L172.293 45.375C172.373 45.225 172.488 45.15 172.638 45.15H172.983C173.063 45.15 173.133 45.18 173.193 45.24C173.253 45.29 173.283 45.355 173.283 45.435V52.62C173.283 52.72 173.253 52.8 173.193 52.86C173.133 52.92 173.053 52.95 172.953 52.95H172.698C172.598 52.95 172.518 52.92 172.458 52.86C172.398 52.8 172.368 52.72 172.368 52.62V46.17H172.803L170.178 51.255C170.128 51.355 170.068 51.45 169.998 51.54C169.928 51.63 169.818 51.675 169.668 51.675H169.368C169.218 51.675 169.108 51.63 169.038 51.54C168.968 51.45 168.908 51.355 168.858 51.255L166.308 46.455H166.668V52.62C166.668 52.72 166.638 52.8 166.578 52.86C166.518 52.92 166.438 52.95 166.338 52.95H166.083ZM178.939 53.1C178.459 53.1 178.014 53 177.604 52.8C177.204 52.6 176.879 52.335 176.629 52.005C176.379 51.665 176.254 51.285 176.254 50.865C176.254 50.185 176.529 49.64 177.079 49.23C177.629 48.82 178.344 48.555 179.224 48.435L181.594 48.105V47.58C181.594 47.05 181.429 46.635 181.099 46.335C180.779 46.025 180.264 45.87 179.554 45.87C179.034 45.87 178.614 45.975 178.294 46.185C177.974 46.385 177.754 46.65 177.634 46.98C177.584 47.13 177.489 47.205 177.349 47.205H177.109C176.989 47.205 176.904 47.175 176.854 47.115C176.804 47.045 176.779 46.965 176.779 46.875C176.779 46.735 176.829 46.56 176.929 46.35C177.039 46.14 177.204 45.935 177.424 45.735C177.644 45.525 177.929 45.35 178.279 45.21C178.629 45.07 179.054 45 179.554 45C180.144 45 180.629 45.08 181.009 45.24C181.399 45.4 181.699 45.61 181.909 45.87C182.129 46.12 182.284 46.4 182.374 46.71C182.464 47.02 182.509 47.325 182.509 47.625V52.62C182.509 52.72 182.479 52.8 182.419 52.86C182.359 52.92 182.279 52.95 182.179 52.95H181.924C181.824 52.95 181.744 52.92 181.684 52.86C181.624 52.8 181.594 52.72 181.594 52.62V51.915C181.474 52.095 181.304 52.275 181.084 52.455C180.864 52.635 180.579 52.79 180.229 52.92C179.889 53.04 179.459 53.1 178.939 53.1ZM179.089 52.23C179.549 52.23 179.969 52.13 180.349 51.93C180.729 51.73 181.029 51.425 181.249 51.015C181.479 50.595 181.594 50.07 181.594 49.44V48.93L179.659 49.2C178.839 49.31 178.219 49.5 177.799 49.77C177.379 50.04 177.169 50.38 177.169 50.79C177.169 51.12 177.264 51.39 177.454 51.6C177.644 51.81 177.884 51.97 178.174 52.08C178.474 52.18 178.779 52.23 179.089 52.23ZM188.391 52.95C188.291 52.95 188.211 52.92 188.151 52.86C188.091 52.8 188.061 52.72 188.061 52.62V46.02H185.316C185.216 46.02 185.136 45.99 185.076 45.93C185.016 45.87 184.986 45.79 184.986 45.69V45.48C184.986 45.38 185.016 45.3 185.076 45.24C185.136 45.18 185.216 45.15 185.316 45.15H191.721C191.821 45.15 191.901 45.18 191.961 45.24C192.021 45.3 192.051 45.38 192.051 45.48V45.69C192.051 45.79 192.021 45.87 191.961 45.93C191.901 45.99 191.821 46.02 191.721 46.02H188.976V52.62C188.976 52.72 188.946 52.8 188.886 52.86C188.826 52.92 188.746 52.95 188.646 52.95H188.391ZM197.557 53.1C196.837 53.1 196.232 52.95 195.742 52.65C195.262 52.35 194.892 51.94 194.632 51.42C194.382 50.9 194.247 50.32 194.227 49.68C194.217 49.53 194.212 49.32 194.212 49.05C194.212 48.78 194.217 48.57 194.227 48.42C194.247 47.77 194.382 47.19 194.632 46.68C194.892 46.16 195.262 45.75 195.742 45.45C196.232 45.15 196.837 45 197.557 45C198.277 45 198.877 45.15 199.357 45.45C199.847 45.75 200.217 46.16 200.467 46.68C200.727 47.19 200.867 47.77 200.887 48.42C200.897 48.57 200.902 48.78 200.902 49.05C200.902 49.32 200.897 49.53 200.887 49.68C200.867 50.32 200.727 50.9 200.467 51.42C200.217 51.94 199.847 52.35 199.357 52.65C198.877 52.95 198.277 53.1 197.557 53.1ZM197.557 52.23C198.257 52.23 198.827 52.005 199.267 51.555C199.707 51.105 199.942 50.455 199.972 49.605C199.982 49.455 199.987 49.27 199.987 49.05C199.987 48.83 199.982 48.645 199.972 48.495C199.942 47.635 199.707 46.985 199.267 46.545C198.827 46.095 198.257 45.87 197.557 45.87C196.857 45.87 196.287 46.095 195.847 46.545C195.407 46.985 195.172 47.635 195.142 48.495C195.132 48.645 195.127 48.83 195.127 49.05C195.127 49.27 195.132 49.455 195.142 49.605C195.172 50.455 195.407 51.105 195.847 51.555C196.287 52.005 196.857 52.23 197.557 52.23ZM203.582 52.95C203.482 52.95 203.397 52.92 203.327 52.86C203.267 52.79 203.237 52.705 203.237 52.605V52.365C203.237 52.155 203.337 52.05 203.537 52.05C203.857 52.05 204.132 51.9 204.362 51.6C204.602 51.3 204.787 50.805 204.917 50.115C205.047 49.415 205.112 48.485 205.112 47.325V45.48C205.112 45.38 205.142 45.3 205.202 45.24C205.262 45.18 205.342 45.15 205.442 45.15H209.732C209.832 45.15 209.912 45.18 209.972 45.24C210.032 45.3 210.062 45.38 210.062 45.48V52.62C210.062 52.72 210.032 52.8 209.972 52.86C209.912 52.92 209.832 52.95 209.732 52.95H209.477C209.377 52.95 209.297 52.92 209.237 52.86C209.177 52.8 209.147 52.72 209.147 52.62V46.02H206.027V47.43C206.027 48.4 205.972 49.235 205.862 49.935C205.752 50.635 205.587 51.21 205.367 51.66C205.157 52.1 204.902 52.425 204.602 52.635C204.302 52.845 203.962 52.95 203.582 52.95ZM216.58 53.1C215.86 53.1 215.255 52.95 214.765 52.65C214.285 52.35 213.915 51.94 213.655 51.42C213.405 50.9 213.27 50.32 213.25 49.68C213.24 49.53 213.235 49.32 213.235 49.05C213.235 48.78 213.24 48.57 213.25 48.42C213.27 47.77 213.405 47.19 213.655 46.68C213.915 46.16 214.285 45.75 214.765 45.45C215.255 45.15 215.86 45 216.58 45C217.3 45 217.9 45.15 218.38 45.45C218.87 45.75 219.24 46.16 219.49 46.68C219.75 47.19 219.89 47.77 219.91 48.42C219.92 48.57 219.925 48.78 219.925 49.05C219.925 49.32 219.92 49.53 219.91 49.68C219.89 50.32 219.75 50.9 219.49 51.42C219.24 51.94 218.87 52.35 218.38 52.65C217.9 52.95 217.3 53.1 216.58 53.1ZM216.58 52.23C217.28 52.23 217.85 52.005 218.29 51.555C218.73 51.105 218.965 50.455 218.995 49.605C219.005 49.455 219.01 49.27 219.01 49.05C219.01 48.83 219.005 48.645 218.995 48.495C218.965 47.635 218.73 46.985 218.29 46.545C217.85 46.095 217.28 45.87 216.58 45.87C215.88 45.87 215.31 46.095 214.87 46.545C214.43 46.985 214.195 47.635 214.165 48.495C214.155 48.645 214.15 48.83 214.15 49.05C214.15 49.27 214.155 49.455 214.165 49.605C214.195 50.455 214.43 51.105 214.87 51.555C215.31 52.005 215.88 52.23 216.58 52.23ZM223.429 52.95C223.329 52.95 223.249 52.92 223.189 52.86C223.129 52.8 223.099 52.72 223.099 52.62V45.48C223.099 45.38 223.129 45.3 223.189 45.24C223.249 45.18 223.329 45.15 223.429 45.15H227.674C227.774 45.15 227.854 45.18 227.914 45.24C227.974 45.3 228.004 45.38 228.004 45.48V45.69C228.004 45.79 227.974 45.87 227.914 45.93C227.854 45.99 227.774 46.02 227.674 46.02H224.014V52.62C224.014 52.72 223.984 52.8 223.924 52.86C223.864 52.92 223.784 52.95 223.684 52.95H223.429ZM230.794 52.95C230.714 52.95 230.644 52.92 230.584 52.86C230.524 52.8 230.494 52.73 230.494 52.65V45.48C230.494 45.38 230.524 45.3 230.584 45.24C230.644 45.18 230.724 45.15 230.824 45.15H231.079C231.179 45.15 231.259 45.18 231.319 45.24C231.379 45.3 231.409 45.38 231.409 45.48V52.215L231.139 51.78L236.029 45.375C236.079 45.315 236.129 45.265 236.179 45.225C236.239 45.175 236.319 45.15 236.419 45.15H236.704C236.784 45.15 236.854 45.18 236.914 45.24C236.974 45.29 237.004 45.355 237.004 45.435V52.62C237.004 52.72 236.974 52.8 236.914 52.86C236.854 52.92 236.774 52.95 236.674 52.95H236.419C236.319 52.95 236.239 52.92 236.179 52.86C236.119 52.8 236.089 52.72 236.089 52.62V46.335L236.404 46.26L231.469 52.725C231.429 52.775 231.379 52.825 231.319 52.875C231.259 52.925 231.179 52.95 231.079 52.95H230.794ZM245.324 52.95C245.224 52.95 245.144 52.92 245.084 52.86C245.024 52.8 244.994 52.72 244.994 52.62V50.04H243.074V49.965C242.184 49.965 241.534 49.735 241.124 49.275C240.714 48.805 240.509 48.225 240.509 47.535C240.509 46.705 240.744 46.1 241.214 45.72C241.684 45.34 242.419 45.15 243.419 45.15H245.579C245.679 45.15 245.759 45.18 245.819 45.24C245.879 45.3 245.909 45.38 245.909 45.48V52.62C245.909 52.72 245.879 52.8 245.819 52.86C245.759 52.92 245.679 52.95 245.579 52.95H245.324ZM240.614 52.95C240.534 52.95 240.464 52.92 240.404 52.86C240.344 52.8 240.314 52.73 240.314 52.65C240.314 52.61 240.319 52.565 240.329 52.515C240.349 52.465 240.384 52.41 240.434 52.35L242.279 49.71H243.404L241.289 52.725C241.249 52.775 241.189 52.825 241.109 52.875C241.039 52.925 240.964 52.95 240.884 52.95H240.614ZM243.134 49.17H244.994V46.02H243.284C242.644 46.02 242.174 46.13 241.874 46.35C241.574 46.57 241.424 46.965 241.424 47.535C241.424 48.005 241.559 48.395 241.829 48.705C242.109 49.015 242.544 49.17 243.134 49.17Z" fill="black"/>
<defs>
<filter id="filter0_i_599_7072" x="6.7063" y="5.07568" width="25.7375" height="22.1786" filterUnits="userSpaceOnUse" color-interpolation-filters="sRGB">
<feFlood flood-opacity="0" result="BackgroundImageFix"/>
<feBlend mode="normal" in="SourceGraphic" in2="BackgroundImageFix" result="shape"/>
<feColorMatrix in="SourceAlpha" type="matrix" values="0 0 0 0 0 0 0 0 0 0 0 0 0 0 0 0 0 0 127 0" result="hardAlpha"/>
<feOffset dy="0.725"/>
<feGaussianBlur stdDeviation="0.725"/>
<feComposite in2="hardAlpha" operator="arithmetic" k2="-1" k3="1"/>
<feColorMatrix type="matrix" values="0 0 0 0 0 0 0 0 0 0 0 0 0 0 0 0 0 0 0.25 0"/>
<feBlend mode="normal" in2="shape" result="effect1_innerShadow_599_7072"/>
</filter>
<filter id="filter1_i_599_7072" x="18.4875" y="0.725098" width="2.89995" height="4.71245" filterUnits="userSpaceOnUse" color-interpolation-filters="sRGB">
<feFlood flood-opacity="0" result="BackgroundImageFix"/>
<feBlend mode="normal" in="SourceGraphic" in2="BackgroundImageFix" result="shape"/>
<feColorMatrix in="SourceAlpha" type="matrix" values="0 0 0 0 0 0 0 0 0 0 0 0 0 0 0 0 0 0 127 0" result="hardAlpha"/>
<feOffset dx="2.175" dy="3.625"/>
<feGaussianBlur stdDeviation="0.725"/>
<feComposite in2="hardAlpha" operator="arithmetic" k2="-1" k3="1"/>
<feColorMatrix type="matrix" values="0 0 0 0 1 0 0 0 0 1 0 0 0 0 1 0 0 0 0.25 0"/>
<feBlend mode="normal" in2="shape" result="effect1_innerShadow_599_7072"/>
</filter>
<filter id="filter2_i_599_7072" x="16.675" y="3.625" width="5.4375" height="6.8875" filterUnits="userSpaceOnUse" color-interpolation-filters="sRGB">
<feFlood flood-opacity="0" result="BackgroundImageFix"/>
<feBlend mode="normal" in="SourceGraphic" in2="BackgroundImageFix" result="shape"/>
<feColorMatrix in="SourceAlpha" type="matrix" values="0 0 0 0 0 0 0 0 0 0 0 0 0 0 0 0 0 0 127 0" result="hardAlpha"/>
<feOffset dy="1.45"/>
<feGaussianBlur stdDeviation="0.725"/>
<feComposite in2="hardAlpha" operator="arithmetic" k2="-1" k3="1"/>
<feColorMatrix type="matrix" values="0 0 0 0 1 0 0 0 0 1 0 0 0 0 1 0 0 0 0.72 0"/>
<feBlend mode="normal" in2="shape" result="effect1_innerShadow_599_7072"/>
</filter>
<filter id="filter3_i_599_7072" x="17.7625" y="4.7124" width="3.26245" height="4.71245" filterUnits="userSpaceOnUse" color-interpolation-filters="sRGB">
<feFlood flood-opacity="0" result="BackgroundImageFix"/>
<feBlend mode="normal" in="SourceGraphic" in2="BackgroundImageFix" result="shape"/>
<feColorMatrix in="SourceAlpha" type="matrix" values="0 0 0 0 0 0 0 0 0 0 0 0 0 0 0 0 0 0 127 0" result="hardAlpha"/>
<feOffset dy="1.45"/>
<feGaussianBlur stdDeviation="0.725"/>
<feComposite in2="hardAlpha" operator="arithmetic" k2="-1" k3="1"/>
<feColorMatrix type="matrix" values="0 0 0 0 1 0 0 0 0 1 0 0 0 0 1 0 0 0 0.72 0"/>
<feBlend mode="normal" in2="shape" result="effect1_innerShadow_599_7072"/>
</filter>
<filter id="filter4_i_599_7072" x="9.42505" y="34.4375" width="3.9875" height="4.35" filterUnits="userSpaceOnUse" color-interpolation-filters="sRGB">
<feFlood flood-opacity="0" result="BackgroundImageFix"/>
<feBlend mode="normal" in="SourceGraphic" in2="BackgroundImageFix" result="shape"/>
<feColorMatrix in="SourceAlpha" type="matrix" values="0 0 0 0 0 0 0 0 0 0 0 0 0 0 0 0 0 0 127 0" result="hardAlpha"/>
<feOffset dx="0.3625" dy="0.725"/>
<feGaussianBlur stdDeviation="0.725"/>
<feComposite in2="hardAlpha" operator="arithmetic" k2="-1" k3="1"/>
<feColorMatrix type="matrix" values="0 0 0 0 1 0 0 0 0 1 0 0 0 0 1 0 0 0 0.51 0"/>
<feBlend mode="normal" in2="shape" result="effect1_innerShadow_599_7072"/>
</filter>
<filter id="filter5_i_599_7072" x="26.825" y="34.4375" width="3.9875" height="4.35" filterUnits="userSpaceOnUse" color-interpolation-filters="sRGB">
<feFlood flood-opacity="0" result="BackgroundImageFix"/>
<feBlend mode="normal" in="SourceGraphic" in2="BackgroundImageFix" result="shape"/>
<feColorMatrix in="SourceAlpha" type="matrix" values="0 0 0 0 0 0 0 0 0 0 0 0 0 0 0 0 0 0 127 0" result="hardAlpha"/>
<feOffset dx="0.3625" dy="0.725"/>
<feGaussianBlur stdDeviation="0.725"/>
<feComposite in2="hardAlpha" operator="arithmetic" k2="-1" k3="1"/>
<feColorMatrix type="matrix" values="0 0 0 0 1 0 0 0 0 1 0 0 0 0 1 0 0 0 0.51 0"/>
<feBlend mode="normal" in2="shape" result="effect1_innerShadow_599_7072"/>
</filter>
<clipPath id="clip0_599_7072">
<rect width="40.2375" height="58" fill="white"/>
</clipPath>
</defs>
</svg>
