<svg width="70" height="88" viewBox="0 0 70 88" fill="none" xmlns="http://www.w3.org/2000/svg">
<path d="M69.7153 34.1438C69.7153 64.2375 35.0278 87.6438 35.0278 87.6438C35.0278 87.6438 0.340332 64.2375 0.340332 34.1438C0.340332 25.2756 3.9949 16.7707 10.5001 10.4999C17.0052 4.22917 25.8281 0.706299 35.0278 0.706299C44.2275 0.706299 53.0504 4.22917 59.5556 10.4999C66.0608 16.7707 69.7153 25.2756 69.7153 34.1438Z" fill="#C84014"/>
<path fill-rule="evenodd" clip-rule="evenodd" d="M40.9897 32.7504L41.1235 32.8837L42.2021 33.9587L42.6117 34.367L44.8564 34.601L45.3261 35.4093L45.793 36.2175L44.5724 38.9471L47 40.7052V41.6387V42.5693L44.5724 44.3274L45.793 47.057L45.3233 47.8653L44.8564 48.6735L41.8744 48.9866L41.5604 51.9584L40.7494 52.4265L39.9384 52.8919L37.1993 51.6753L35.4353 54.0947H34.4987H33.5647L31.8007 51.6753L29.0617 52.8919L28.2507 52.4265L27.4397 51.9584L27.1256 48.9866L24.1436 48.6735L23.674 47.8653L23.207 47.057L24.4276 44.3274L22 42.5693V41.6387V40.7052L24.4276 38.9471L23.207 36.2175L23.674 35.4093L24.1436 34.601L26.3883 34.367L26.7952 33.9587L28.0077 32.7504V33.5451C27.893 33.643 27.7919 33.76 27.7073 33.8961C27.5543 34.1465 27.4615 34.4568 27.4615 34.8105V36.6639C27.4615 37.0149 27.5216 37.3116 27.6335 37.5864C27.6718 37.6789 27.7155 37.766 27.7673 37.8476C27.1311 38.9662 26.7679 40.2589 26.7679 41.6387C26.7679 45.8923 30.2305 49.3431 34.4987 49.3431C38.7696 49.3431 42.2321 45.8923 42.2321 41.6387C42.2321 40.2589 41.869 38.9662 41.2328 37.8476C41.2819 37.7634 41.3256 37.6762 41.3638 37.5837C41.4785 37.3116 41.5386 37.0149 41.5386 36.6639V34.8105C41.5386 34.4568 41.4458 34.1465 41.29 33.8961C41.2736 33.8662 41.2546 33.8363 41.2354 33.8091C41.1617 33.7083 41.0825 33.6213 40.9897 33.5451V32.7504Z" fill="white"/>
<path d="M34.104 25.6415L31.9292 27.8089C31.7098 28.0275 31.7098 28.3819 31.9292 28.6005L34.104 30.7679C34.3233 30.9866 34.679 30.9866 34.8983 30.7679L37.0732 28.6005C37.2924 28.3819 37.2924 28.0275 37.0732 27.8089L34.8983 25.6415C34.679 25.4229 34.3233 25.4229 34.104 25.6415Z" fill="white"/>
<path fill-rule="evenodd" clip-rule="evenodd" d="M35.5622 32.106L39.3417 28.2416C39.9478 27.6211 40.7753 27.9014 40.7753 28.7559V30.6119C40.7753 31.1154 40.6223 31.4175 40.3356 31.7115L36.4989 35.6358C35.9282 36.2209 35.1226 35.9623 35.1226 35.1649V33.1838C35.1226 32.6939 35.27 32.4026 35.5622 32.106Z" fill="white"/>
<path fill-rule="evenodd" clip-rule="evenodd" d="M35.5622 38.1581L39.3417 34.2938C39.9478 33.6732 40.7753 33.9535 40.7753 34.8108V36.6641C40.7753 37.1703 40.6223 37.4723 40.3356 37.7663L36.4989 41.6878C35.9282 42.2729 35.1226 42.0172 35.1226 41.2171V39.2358C35.1226 38.7487 35.27 38.4548 35.5622 38.1581Z" fill="white"/>
<path fill-rule="evenodd" clip-rule="evenodd" d="M35.5622 44.232L39.3417 40.3676C39.9478 39.7498 40.7753 40.0301 40.7753 40.8847V42.7407C40.7753 43.2442 40.6223 43.5462 40.3356 43.8402L36.4989 47.7617C35.9282 48.3468 35.1226 48.0911 35.1226 47.2937V45.3097C35.1226 44.8226 35.27 44.5314 35.5622 44.232Z" fill="white"/>
<path fill-rule="evenodd" clip-rule="evenodd" d="M33.4405 32.106L29.6612 28.2416C29.055 27.6211 28.2275 27.9014 28.2275 28.7559V30.6119C28.2275 31.1154 28.3777 31.4175 28.6672 31.7115L32.5012 35.6358C33.0746 36.2209 33.8802 35.9623 33.8802 35.1649V33.1838C33.8802 32.6939 33.7327 32.4026 33.4405 32.106Z" fill="white"/>
<path fill-rule="evenodd" clip-rule="evenodd" d="M33.4405 38.1581L29.6612 34.2938C29.055 33.6732 28.2275 33.9535 28.2275 34.8108V36.6641C28.2275 37.1703 28.3777 37.4723 28.6672 37.7663L32.5012 41.6878C33.0746 42.2729 33.8802 42.0172 33.8802 41.2171V39.2358C33.8802 38.7487 33.7327 38.4548 33.4405 38.1581Z" fill="white"/>
<path fill-rule="evenodd" clip-rule="evenodd" d="M33.4405 44.232L29.6612 40.3676C29.055 39.7498 28.2275 40.0301 28.2275 40.8847V42.7407C28.2275 43.2442 28.3777 43.5462 28.6672 43.8402L32.5012 47.7617C33.0746 48.3468 33.8802 48.0911 33.8802 47.2937V45.3097C33.8802 44.8226 33.7327 44.5314 33.4405 44.232Z" fill="white"/>
<path d="M40.2429 25.3072C40.2429 25.4324 40.1391 25.5358 40.0135 25.5358C39.8879 25.5358 39.7842 25.4324 39.7842 25.3072V18.6615C39.7842 18.5336 39.8879 18.4329 40.0135 18.4329C40.1391 18.4329 40.2429 18.5336 40.2429 18.6615V25.3072Z" fill="white"/>
<path d="M37.4899 24.0907C37.4899 24.2159 37.3862 24.3193 37.2607 24.3193C37.1322 24.3193 37.0312 24.2159 37.0312 24.0907V17.4449C37.0312 17.317 37.1322 17.2163 37.2607 17.2163C37.3862 17.2163 37.4899 17.317 37.4899 17.4449V24.0907Z" fill="white"/>
<path d="M34.73 22.8744C34.73 23.0023 34.6289 23.103 34.5006 23.103C34.375 23.103 34.2739 23.0023 34.2739 22.8744V16.2286C34.2739 16.1034 34.375 16 34.5006 16C34.6289 16 34.73 16.1034 34.73 16.2286V22.8744Z" fill="white"/>
<path d="M29.22 25.3072C29.22 25.4324 29.1162 25.5358 28.9906 25.5358C28.865 25.5358 28.7612 25.4324 28.7612 25.3072V18.6615C28.7612 18.5336 28.865 18.4329 28.9906 18.4329C29.1162 18.4329 29.22 18.5336 29.22 18.6615V25.3072Z" fill="white"/>
<path d="M31.9724 24.0907C31.9724 24.2159 31.8687 24.3193 31.7431 24.3193C31.6174 24.3193 31.5137 24.2159 31.5137 24.0907V17.4449C31.5137 17.317 31.6174 17.2163 31.7431 17.2163C31.8687 17.2163 31.9724 17.317 31.9724 17.4449V24.0907Z" fill="white"/>
</svg>
