<svg width="131" height="20" viewBox="0 0 131 20" fill="none" xmlns="http://www.w3.org/2000/svg">
<g clip-path="url(#clip0_1_173)">
<path d="M18.1993 3.85144C18.6759 4.4602 19.0793 5.12157 19.4014 5.82227L10.2634 12.4781L6.44435 10.1127V7.26692L10.2634 9.63237L18.1993 3.85144Z" fill="#21A038"/>
<path d="M2.54673 9.91179C2.54673 9.7841 2.54989 9.65725 2.55619 9.53113L0.241746 9.41907C0.233868 9.58252 0.229144 9.74755 0.229144 9.9141C0.228159 11.2154 0.487212 12.5041 0.991449 13.7062C1.49568 14.9084 2.23517 16.0003 3.16749 16.9194L4.80918 15.2981C4.09151 14.5919 3.52219 13.7524 3.13392 12.828C2.74565 11.9037 2.5461 10.9126 2.54673 9.91179Z" fill="url(#paint0_linear_1_173)"/>
<path d="M10.2613 2.28939C10.3904 2.28939 10.5188 2.29406 10.6464 2.30029L10.7622 0.012659C10.5963 0.00487529 10.4293 0.000983914 10.2613 0.000983914C8.9436 -0.000603771 7.63868 0.254992 6.42133 0.753094C5.20396 1.2512 4.09817 1.982 3.16745 2.90353L4.80914 4.52565C5.52394 3.81631 6.37361 3.25356 7.30928 2.86978C8.24496 2.48601 9.24814 2.28876 10.2613 2.28939Z" fill="url(#paint1_linear_1_173)"/>
<path d="M10.2613 17.5344C10.1321 17.5344 10.0037 17.5344 9.8753 17.5243L9.75949 19.8111C9.92596 19.8194 10.0932 19.8236 10.2613 19.8236C11.5784 19.825 12.8827 19.5692 14.0994 19.071C15.3161 18.5727 16.4212 17.8418 17.3512 16.9203L15.7126 15.299C14.9977 16.0079 14.1481 16.5703 13.2126 16.954C12.2771 17.3376 11.2741 17.5349 10.2613 17.5344Z" fill="url(#paint2_linear_1_173)"/>
<path d="M14.6098 3.61944L16.5603 2.19891C14.7775 0.772515 12.5521 -0.00395952 10.2582 1.5184e-05V2.2892C11.8115 2.2873 13.3289 2.75114 14.6098 3.61944Z" fill="url(#paint3_linear_1_173)"/>
<path d="M20.2927 9.91186C20.294 9.31635 20.2412 8.72186 20.1351 8.13562L17.9759 9.70792C17.9759 9.77568 17.9759 9.84338 17.9759 9.91186C17.9765 10.9769 17.7505 12.0302 17.3128 13.0034C16.8749 13.9766 16.235 14.848 15.4346 15.5613L16.992 17.262C18.0327 16.3337 18.8643 15.1997 19.4329 13.9336C20.0015 12.6673 20.2945 11.2971 20.2927 9.91186Z" fill="#21A038"/>
<path d="M10.2613 17.5345C9.18337 17.5348 8.11734 17.3115 7.13225 16.879C6.1472 16.4464 5.26506 15.8142 4.54296 15.0234L2.82249 16.5615C3.76187 17.5899 4.90951 18.4117 6.19102 18.9737C7.47253 19.5357 8.85925 19.8253 10.2613 19.8236V17.5345Z" fill="url(#paint4_linear_1_173)"/>
<path d="M5.08806 4.26238L3.53144 2.56165C2.49047 3.48975 1.65856 4.62369 1.08966 5.88992C0.520766 7.15614 0.22759 8.52638 0.229147 9.91178H2.54674C2.54626 8.84681 2.77224 7.79354 3.21002 6.82032C3.64781 5.84714 4.28764 4.97566 5.08806 4.26238Z" fill="url(#paint5_linear_1_173)"/>
<path d="M58.1211 5.66849L60.9915 3.60266H51.385V16.0165H60.9915V13.9507H54.1261V10.7708H59.9826V8.70502H54.1261V5.66849H58.1211Z" fill="#21A038"/>
<path d="M44.9211 8.43855H41.586V5.66756H46.9088L49.7774 3.59546H38.8465V16.0093H44.5684C47.7763 16.0093 49.6174 14.5889 49.6174 12.1118C49.6174 9.74207 47.9498 8.43855 44.9211 8.43855ZM44.445 13.9428H41.586V10.5031H44.445C46.18 10.5031 46.9936 11.0795 46.9936 12.223C46.9936 13.3664 46.128 13.9428 44.445 13.9428Z" fill="#21A038"/>
<path d="M68.053 3.60083H62.8239V16.0146H65.5646V12.498H68.053C71.3893 12.498 73.4531 10.783 73.4531 8.04278C73.4531 5.30262 71.3893 3.60083 68.053 3.60083ZM67.9952 10.4306H65.5646V5.66823H67.9952C69.75 5.66823 70.7185 6.51442 70.7185 8.05036C70.7185 9.5863 69.75 10.4306 67.9952 10.4306Z" fill="#21A038"/>
<path d="M34.7334 13.085C34.0254 13.4596 33.2321 13.6535 32.4271 13.6489C30.0174 13.6489 28.2693 11.9684 28.2693 9.65423C28.2693 7.34005 30.0174 5.65586 32.4271 5.65586C33.296 5.64144 34.147 5.89886 34.8556 6.39053L36.7728 5.0112L36.6431 4.92121C35.5247 3.96065 34.0304 3.4519 32.3199 3.4519C30.4647 3.4519 28.7825 4.06166 27.5813 5.17099C26.974 5.74217 26.4937 6.4295 26.1703 7.19011C25.8469 7.95072 25.6874 8.76823 25.7017 9.59175C25.6889 10.4236 25.8477 11.2495 26.1687 12.0201C26.4897 12.7907 26.9663 13.4902 27.5701 14.0768C28.7768 15.2302 30.4553 15.8657 32.2974 15.8657C34.2221 15.8657 35.9044 15.21 37.0435 14.0162L35.3274 12.7673L34.7334 13.085Z" fill="#21A038"/>
<path d="M84.321 8.43855H80.9872V5.66756H88.1514V3.59546H78.2458V16.0093H83.9604C87.168 16.0093 89.0093 14.5889 89.0093 12.1118C89.0167 9.74207 87.3495 8.43855 84.321 8.43855ZM83.8448 13.9428H80.9872V10.5031H83.8448C85.5798 10.5031 86.3928 11.0795 86.3928 12.223C86.3928 13.3664 85.535 13.9428 83.8448 13.9428Z" fill="#21A038"/>
<path d="M120.17 15.9916H117.392V3.57776H120.17V8.79164H121.683L125.767 3.57776H128.916L124.072 9.48315L129.697 15.9916H126.01L121.876 11.1093H120.17V15.9916Z" fill="#21A038"/>
<path d="M99.1045 13.6324H93.2264L92.2299 16.0431H89.2728L94.7861 3.62927H97.7425L103.166 16.0431H100.101L99.1045 13.6324ZM98.1839 11.3832L96.1828 6.5619L94.1706 11.3832H98.1839Z" fill="#21A038"/>
<path d="M106.907 3.62927V8.81305H112.657V3.62927H115.522V16.0431H112.657V11.1516H106.907V16.0431H104.042V3.62927H106.907Z" fill="#21A038"/>
</g>
<defs>
<linearGradient id="paint0_linear_1_173" x1="3.63621" y1="16.6338" x2="1.15807" y2="9.38358" gradientUnits="userSpaceOnUse">
<stop offset="0.14" stop-color="#F1E813"/>
<stop offset="0.3" stop-color="#E6E418"/>
<stop offset="0.58" stop-color="#C9DA26"/>
<stop offset="0.89" stop-color="#A2CC39"/>
</linearGradient>
<linearGradient id="paint1_linear_1_173" x1="3.82917" y1="3.30828" x2="10.331" y2="0.800627" gradientUnits="userSpaceOnUse">
<stop offset="0.06" stop-color="#0FA7DF"/>
<stop offset="0.54" stop-color="#0098F8"/>
<stop offset="0.92" stop-color="#0290EA"/>
</linearGradient>
<linearGradient id="paint2_linear_1_173" x1="9.6067" y1="18.442" x2="16.973" y2="16.7578" gradientUnits="userSpaceOnUse">
<stop offset="0.12" stop-color="#A2CC39"/>
<stop offset="0.28" stop-color="#86C239"/>
<stop offset="0.87" stop-color="#219F38"/>
</linearGradient>
<linearGradient id="paint3_linear_1_173" x1="9.77608" y1="0.766709" x2="16.068" y2="2.73181" gradientUnits="userSpaceOnUse">
<stop offset="0.06" stop-color="#0290EA"/>
<stop offset="0.79" stop-color="#0C89CA"/>
</linearGradient>
<linearGradient id="paint4_linear_1_173" x1="3.40386" y1="16.2828" x2="10.2465" y2="18.871" gradientUnits="userSpaceOnUse">
<stop offset="0.13" stop-color="#F1E813"/>
<stop offset="0.3" stop-color="#EAE616"/>
<stop offset="0.53" stop-color="#D8DF1F"/>
<stop offset="0.8" stop-color="#BAD52D"/>
<stop offset="0.98" stop-color="#A2CC39"/>
</linearGradient>
<linearGradient id="paint5_linear_1_173" x1="1.09253" y1="10.1889" x2="3.79028" y2="3.08639" gradientUnits="userSpaceOnUse">
<stop offset="0.07" stop-color="#A2CC39"/>
<stop offset="0.26" stop-color="#81C45E"/>
<stop offset="0.92" stop-color="#0FA7DF"/>
</linearGradient>
<clipPath id="clip0_1_173">
<rect width="130.542" height="20" fill="white" transform="translate(0.229141)"/>
</clipPath>
</defs>
</svg>
